<svg width="522" height="578" viewBox="0 0 522 578" fill="none" xmlns="http://www.w3.org/2000/svg">
<g clip-path="url(#clip0_41_390)">
<g opacity="0.64">
<path d="M403.199 289C403.199 303.24 380.826 313.768 376.657 326.618C372.336 339.937 384.105 361.588 376.044 372.674C367.904 383.871 343.641 379.317 332.455 387.465C321.38 395.533 318.255 420.082 304.951 424.405C292.113 428.577 275.227 410.693 260.999 410.693C246.772 410.693 229.886 428.579 217.048 424.405C203.743 420.081 200.618 395.533 189.543 387.464C178.357 379.316 154.094 383.87 145.953 372.673C137.894 361.587 149.662 339.935 145.342 326.617C141.175 313.768 118.801 303.242 118.801 289C118.801 274.759 141.175 264.231 145.344 251.381C149.664 238.063 137.895 216.411 145.956 205.325C154.096 194.128 178.359 198.683 189.545 190.534C200.62 182.466 203.744 157.919 217.049 153.594C229.887 149.421 246.773 167.306 261.001 167.306C275.228 167.306 292.115 149.421 304.952 153.593C318.257 157.917 321.382 182.465 332.457 190.534C343.644 198.683 367.906 194.128 376.047 205.325C384.107 216.411 372.338 238.063 376.659 251.381C380.826 264.231 403.199 274.758 403.199 289Z" fill="#C4C6FF"/>
</g>
<g opacity="0.64">
<path d="M213.792 450.76C212.062 450.76 210.375 450.523 208.745 449.994C199.743 447.068 194.584 436.555 189.596 426.388C185.714 418.478 181.7 410.298 175.993 406.14C170.19 401.911 161.095 400.589 152.301 399.311C141.189 397.696 129.698 396.025 124.217 388.487C118.807 381.047 120.742 369.665 122.611 358.657C124.112 349.828 125.663 340.698 123.409 333.753C121.28 327.187 115.12 321.206 108.597 314.874C100.403 306.918 91.9312 298.692 91.9312 289C91.9312 279.308 100.403 271.083 108.597 263.128C115.119 256.795 121.279 250.814 123.409 244.248C125.663 237.304 124.11 228.172 122.611 219.344C120.742 208.336 118.808 196.954 124.217 189.514C129.698 181.975 141.189 180.305 152.301 178.689C161.095 177.411 170.188 176.089 175.992 171.86C181.699 167.702 185.712 159.522 189.595 151.612C194.584 141.445 199.743 130.932 208.744 128.006C217.3 125.224 227.403 130.527 237.172 135.653C245.204 139.868 253.51 144.226 261 144.226C268.491 144.226 276.795 139.868 284.827 135.653C294.599 130.525 304.704 125.228 313.256 128.006C322.258 130.932 327.417 141.445 332.406 151.612C336.286 159.522 340.3 167.702 346.008 171.86C351.812 176.088 360.906 177.41 369.7 178.689C380.812 180.305 392.303 181.975 397.784 189.514C403.193 196.954 401.259 208.336 399.389 219.343C397.889 228.172 396.338 237.303 398.591 244.247C400.722 250.812 406.882 256.794 413.403 263.126C421.597 271.082 430.069 279.308 430.069 289C430.069 298.691 421.597 306.917 413.403 314.872C406.882 321.206 400.722 327.186 398.591 333.752C396.339 340.698 397.89 349.826 399.389 358.657C401.259 369.663 403.193 381.047 397.784 388.487C392.303 396.025 380.813 397.696 369.701 399.311C360.907 400.589 351.813 401.911 346.008 406.14C340.3 410.298 336.286 418.478 332.405 426.388C327.417 436.554 322.258 447.067 313.256 449.993C304.699 452.772 294.598 447.473 284.827 442.346C276.795 438.131 268.491 433.773 261 433.773C253.51 433.773 245.204 438.132 237.172 442.347C229.265 446.495 221.138 450.759 213.792 450.76ZM213.878 128.378C212.241 128.378 210.646 128.604 209.101 129.107C200.563 131.881 195.514 142.172 190.631 152.123C186.687 160.159 182.609 168.47 176.672 172.795C170.637 177.192 161.4 178.534 152.467 179.833C141.592 181.415 130.346 183.049 125.151 190.194C120.029 197.24 121.921 208.378 123.75 219.15C125.273 228.117 126.849 237.389 124.509 244.605C122.29 251.444 115.739 257.805 109.402 263.958C101.381 271.746 93.0872 279.798 93.0872 289C93.0872 298.204 101.381 306.256 109.402 314.045C115.738 320.197 122.29 326.558 124.509 333.397C126.849 340.612 125.274 349.884 123.75 358.85C121.921 369.622 120.028 380.76 125.151 387.807C130.346 394.952 141.592 396.587 152.467 398.167C161.4 399.466 170.638 400.81 176.673 405.206C182.611 409.532 186.689 417.843 190.633 425.88C195.516 435.831 200.565 446.12 209.103 448.894C217.2 451.528 226.64 446.569 236.637 441.323C244.794 437.042 253.228 432.617 261.003 432.617C268.777 432.617 277.211 437.042 285.366 441.322C295.364 446.567 304.807 451.522 312.902 448.893C321.44 446.119 326.489 435.829 331.371 425.879C335.315 417.842 339.393 409.532 345.332 405.206C351.367 400.81 360.604 399.466 369.537 398.167C380.414 396.587 391.659 394.952 396.853 387.807C401.976 380.76 400.083 369.623 398.254 358.85C396.731 349.883 395.154 340.611 397.495 333.395C399.714 326.556 406.266 320.195 412.602 314.042C420.623 306.256 428.917 298.202 428.917 288.999C428.917 279.797 420.623 271.743 412.602 263.955C406.266 257.803 399.714 251.442 397.495 244.603C395.155 237.388 396.731 228.115 398.254 219.148C400.083 208.376 401.976 197.238 396.853 190.193C391.659 183.048 380.412 181.413 369.537 179.832C360.604 178.533 351.367 177.191 345.332 172.794C339.394 168.467 335.315 160.157 331.371 152.12C326.488 142.17 321.439 131.88 312.902 129.106C304.808 126.475 295.364 131.431 285.367 136.676C277.21 140.957 268.777 145.382 261.003 145.382C253.228 145.382 244.794 140.957 236.638 136.676C228.546 132.433 220.82 128.378 213.878 128.378Z" fill="#C4C6FF"/>
</g>
<g opacity="0.64">
<g opacity="0.51">
<path d="M260.62 37.9052L258.186 37.9482L261.352 216.755L263.786 216.712L260.62 37.9052Z" fill="#C4C6FF"/>
<path d="M263.455 30.4664C263.455 31.8236 262.356 32.9241 261 32.9241C259.644 32.9241 258.545 31.8236 258.545 30.4664C258.545 29.1093 259.644 28.0088 261 28.0088C262.356 28.0088 263.455 29.1093 263.455 30.4664Z" fill="#C4C6FF"/>
</g>
<g opacity="0.51">
<path d="M260.612 361.235L258.178 361.278L261.343 540.085L263.777 540.042L260.612 361.235Z" fill="#C4C6FF"/>
<path d="M258.545 547.533C258.545 546.176 259.644 545.075 261 545.075C262.356 545.075 263.455 546.176 263.455 547.533C263.455 548.89 262.356 549.99 261 549.99C259.644 549.99 258.545 548.89 258.545 547.533Z" fill="#C4C6FF"/>
</g>
<g opacity="0.51">
<path d="M511.781 286.202L333.15 289.364L333.193 291.801L511.825 288.638L511.781 286.202Z" fill="#C4C6FF"/>
<path d="M519.28 291.458C517.925 291.458 516.825 290.358 516.825 289.001C516.825 287.643 517.925 286.543 519.28 286.543C520.636 286.543 521.736 287.643 521.736 289.001C521.736 290.358 520.636 291.458 519.28 291.458Z" fill="#C4C6FF"/>
</g>
<g opacity="0.51">
<path d="M188.767 286.193L10.1357 289.355L10.1789 291.792L188.81 288.629L188.767 286.193Z" fill="#C4C6FF"/>
<path d="M2.7199 286.543C4.07571 286.543 5.17515 287.643 5.17515 289.001C5.17515 290.358 4.07571 291.458 2.7199 291.458C1.36408 291.458 0.264648 290.358 0.264648 289.001C0.264648 287.643 1.36408 286.543 2.7199 286.543Z" fill="#C4C6FF"/>
</g>
<g opacity="0.51">
<path d="M316.641 334.989L315.135 336.903L455.478 447.571L456.984 445.657L316.641 334.989Z" fill="#C4C6FF"/>
<path d="M459.467 454.467C458.417 453.608 458.261 452.06 459.119 451.009C459.977 449.958 461.523 449.802 462.573 450.661C463.623 451.52 463.779 453.068 462.921 454.119C462.063 455.169 460.518 455.325 459.467 454.467Z" fill="#C4C6FF"/>
</g>
<g opacity="0.51">
<path d="M66.4918 130.424L64.9854 132.338L205.328 243.006L206.835 241.091L66.4918 130.424Z" fill="#C4C6FF"/>
<path d="M62.5341 123.534C63.5839 124.393 63.7398 125.941 62.8818 126.992C62.0237 128.042 60.4773 128.199 59.4276 127.34C58.3778 126.481 58.2219 124.933 59.0799 123.882C59.9368 122.831 61.4832 122.675 62.5341 123.534Z" fill="#C4C6FF"/>
</g>
<g opacity="0.51">
<path d="M213.126 343.2L102.566 483.681L104.479 485.189L215.038 344.708L213.126 343.2Z" fill="#C4C6FF"/>
<path d="M95.6961 487.661C96.5542 486.611 98.1006 486.454 99.1504 487.313C100.2 488.172 100.356 489.72 99.498 490.771C98.6399 491.822 97.0935 491.978 96.0438 491.119C94.994 490.261 94.8381 488.713 95.6961 487.661Z" fill="#C4C6FF"/>
</g>
<g opacity="0.51">
<path d="M417.49 92.8044L306.931 233.285L308.843 234.793L419.403 94.3124L417.49 92.8044Z" fill="#C4C6FF"/>
<path d="M426.305 90.3393C425.447 91.3902 423.9 91.5462 422.85 90.6873C421.801 89.8284 421.645 88.2805 422.503 87.2297C423.361 86.1789 424.907 86.0228 425.957 86.8817C427.007 87.7395 427.163 89.2874 426.305 90.3393Z" fill="#C4C6FF"/>
</g>
</g>
<g opacity="0.64">
<g opacity="0.51">
<path d="M325.599 98.8581L280.482 234.599L282.33 235.214L327.447 99.4734L325.599 98.8581Z" fill="white"/>
<path d="M331.529 94.6211C331.169 95.6453 330.047 96.1829 329.024 95.8211C328.001 95.4604 327.464 94.3379 327.824 93.3137C328.184 92.2895 329.306 91.7519 330.329 92.1138C331.352 92.4756 331.889 93.5969 331.529 94.6211Z" fill="white"/>
</g>
<g opacity="0.51">
<path d="M239.71 342.797L194.593 478.537L196.44 479.152L241.557 343.412L239.71 342.797Z" fill="white"/>
<path d="M190.471 483.38C190.831 482.356 191.953 481.818 192.976 482.18C193.999 482.542 194.536 483.663 194.175 484.688C193.814 485.712 192.693 486.249 191.67 485.887C190.647 485.526 190.111 484.404 190.471 483.38Z" fill="white"/>
</g>
<g opacity="0.51">
<path d="M315.373 308.487L314.758 310.336L450.365 355.497L450.98 353.648L315.373 308.487Z" fill="white"/>
<path d="M455.188 359.598C454.165 359.238 453.628 358.115 453.99 357.091C454.35 356.067 455.471 355.529 456.495 355.891C457.518 356.252 458.055 357.374 457.693 358.398C457.333 359.422 456.212 359.959 455.188 359.598Z" fill="white"/>
</g>
<g opacity="0.51">
<path d="M71.6733 222.513L71.0586 224.362L206.666 269.523L207.281 267.674L71.6733 222.513Z" fill="white"/>
<path d="M66.8114 218.402C67.8346 218.763 68.3717 219.885 68.0102 220.91C67.6499 221.934 66.5285 222.471 65.5053 222.11C64.4821 221.749 63.9451 220.626 64.3065 219.602C64.6668 218.579 65.7882 218.042 66.8114 218.402Z" fill="white"/>
</g>
<g opacity="0.51">
<path d="M290.773 338.531L289.128 339.574L365.6 460.423L367.245 459.38L290.773 338.531Z" fill="white"/>
<path d="M366.765 466.65C366.201 465.722 366.495 464.513 367.421 463.948C368.347 463.384 369.555 463.677 370.12 464.605C370.684 465.532 370.39 466.741 369.464 467.306C368.538 467.87 367.329 467.577 366.765 466.65Z" fill="white"/>
</g>
<g opacity="0.51">
<path d="M156.399 117.615L154.754 118.658L231.226 239.507L232.871 238.464L156.399 117.615Z" fill="white"/>
<path d="M155.235 111.351C155.799 112.278 155.505 113.487 154.579 114.052C153.653 114.616 152.445 114.323 151.88 113.396C151.316 112.468 151.61 111.259 152.536 110.694C153.462 110.13 154.67 110.424 155.235 111.351Z" fill="white"/>
</g>
<g opacity="0.51">
<path d="M210.494 317.174L89.7637 393.721L90.8056 395.367L211.536 318.821L210.494 317.174Z" fill="white"/>
<path d="M83.5245 394.869C84.4507 394.305 85.6587 394.598 86.2234 395.525C86.787 396.453 86.4937 397.662 85.5675 398.227C84.6413 398.791 83.4333 398.498 82.8686 397.57C82.305 396.643 82.5983 395.433 83.5245 394.869Z" fill="white"/>
</g>
<g opacity="0.51">
<path d="M431.193 182.669L310.463 259.215L311.505 260.861L432.235 184.315L431.193 182.669Z" fill="white"/>
<path d="M438.475 183.131C437.549 183.695 436.341 183.402 435.776 182.475C435.213 181.548 435.506 180.338 436.432 179.773C437.358 179.209 438.566 179.503 439.131 180.43C439.695 181.357 439.401 182.567 438.475 183.131Z" fill="white"/>
</g>
</g>
<path d="M493.751 369.307L491.358 363.805L485.785 361.593L491.282 359.197L493.491 353.618L495.884 359.121L501.457 361.333L495.878 363.822L493.751 369.307Z" fill="#FDCB6A"/>
<path d="M483.913 356.88L482.235 353.022L478.328 351.471L482.181 349.792L483.731 345.88L485.409 349.739L489.316 351.289L485.405 353.034L483.913 356.88Z" fill="#FDCB6A"/>
<path d="M475.111 364.769L474.011 362.24L471.449 361.222L473.976 360.122L474.992 357.557L476.092 360.086L478.654 361.103L476.089 362.248L475.111 364.769Z" fill="#FDCB6A"/>
<path d="M64.193 270.44L61.799 264.938L56.2256 262.725L61.7228 260.33L63.9332 254.751L66.3261 260.254L71.8995 262.465L66.3203 264.955L64.193 270.44Z" fill="#FDCB6A"/>
<path d="M54.355 258.013L52.6769 254.154L48.77 252.604L52.6238 250.925L54.1736 247.013L55.8505 250.87L59.7586 252.422L55.847 254.167L54.355 258.013Z" fill="#FDCB6A"/>
<path d="M45.5537 265.902L44.4531 263.372L41.8916 262.355L44.4185 261.255L45.4336 258.689L46.5342 261.219L49.0957 262.236L46.5307 263.38L45.5537 265.902Z" fill="#FDCB6A"/>
<path opacity="0.35" d="M331.156 326.38L328.418 246.873L258.262 209.494L190.844 251.621L193.582 331.127L263.738 368.507L331.156 326.38Z" fill="white"/>
<g opacity="0.65">
<path d="M162.194 158.286C162.194 160.089 160.734 161.551 158.932 161.551C157.131 161.551 155.671 160.089 155.671 158.286C155.671 156.483 157.131 155.021 158.932 155.021C160.734 155.021 162.194 156.483 162.194 158.286Z" fill="#FDCB6A"/>
<path d="M156.137 169.944C156.137 171.748 154.678 173.209 152.876 173.209C151.075 173.209 149.615 171.748 149.615 169.944C149.615 168.141 151.075 166.68 152.876 166.68C154.677 166.68 156.137 168.141 156.137 169.944Z" fill="#FDCB6A"/>
<path d="M368.12 254.821C368.12 256.625 366.661 258.086 364.859 258.086C363.057 258.086 361.598 256.625 361.598 254.821C361.598 253.018 363.057 251.557 364.859 251.557C366.661 251.557 368.12 253.018 368.12 254.821Z" fill="#FDCB6A"/>
<path d="M379.302 264.148C379.302 265.952 377.842 267.413 376.04 267.413C374.239 267.413 372.779 265.952 372.779 264.148C372.779 262.345 374.239 260.884 376.04 260.884C377.842 260.884 379.302 262.345 379.302 264.148Z" fill="#FDCB6A"/>
<path d="M276.338 381.204C276.338 383.007 274.878 384.469 273.077 384.469C271.275 384.469 269.815 383.007 269.815 381.204C269.815 379.401 271.275 377.939 273.077 377.939C274.878 377.939 276.338 379.401 276.338 381.204Z" fill="#FDCB6A"/>
<path d="M269.816 394.727C269.816 396.531 268.356 397.992 266.554 397.992C264.753 397.992 263.293 396.531 263.293 394.727C263.293 392.924 264.753 391.463 266.554 391.463C268.356 391.463 269.816 392.924 269.816 394.727Z" fill="#FDCB6A"/>
<path d="M377.439 354.162C378.729 354.162 379.775 353.115 379.775 351.823C379.775 350.531 378.729 349.484 377.439 349.484C376.149 349.484 375.103 350.531 375.103 351.823C375.103 353.115 376.149 354.162 377.439 354.162Z" fill="white"/>
<path d="M322.816 424.575C322.816 427.603 320.363 430.058 317.338 430.058C314.313 430.058 311.861 427.602 311.861 424.575C311.861 421.547 314.314 419.092 317.338 419.092C320.363 419.092 322.816 421.546 322.816 424.575Z" fill="white"/>
<path d="M150.706 231.504C150.706 233.848 148.807 235.748 146.465 235.748C144.123 235.748 142.225 233.848 142.225 231.504C142.225 229.159 144.123 227.259 146.465 227.259C148.807 227.259 150.706 229.159 150.706 231.504Z" fill="white"/>
<path d="M373.293 362.082C373.293 364.426 371.394 366.327 369.052 366.327C366.71 366.327 364.812 364.426 364.812 362.082C364.812 359.737 366.71 357.837 369.052 357.837C371.394 357.838 373.293 359.739 373.293 362.082Z" fill="white"/>
<path d="M161.2 219.378C161.2 221.174 159.746 222.628 157.954 222.628C156.16 222.628 154.708 221.173 154.708 219.378C154.708 217.583 156.162 216.129 157.954 216.129C159.746 216.128 161.2 217.583 161.2 219.378Z" fill="white"/>
<path d="M147.75 158.37C150.627 158.37 152.959 156.035 152.959 153.156C152.959 150.277 150.627 147.942 147.75 147.942C144.874 147.942 142.542 150.277 142.542 153.156C142.542 156.035 144.874 158.37 147.75 158.37Z" fill="#FDCB6A"/>
</g>
<path d="M309.541 360.688C309.541 360.688 305.243 378.574 287.451 371.322C287.451 371.322 292.565 356.113 309.541 360.688Z" fill="white"/>
<path d="M186.388 198.519C186.388 198.519 189.007 216.727 169.798 216.581C169.798 216.581 168.926 200.558 186.388 198.519Z" fill="white"/>
<path d="M391.469 289.078C391.469 289.078 405.128 296.882 394.929 309.788C394.929 309.788 383.662 301.954 391.469 289.078Z" fill="white"/>
<path d="M140.815 307.732C140.815 307.732 154.475 315.537 144.275 328.442C144.275 328.442 133.008 320.608 140.815 307.732Z" fill="white"/>
<path d="M232.186 264.207C231.89 264.207 231.595 264.094 231.369 263.869L218.324 250.81C217.872 250.359 217.872 249.627 218.324 249.176C218.776 248.724 219.505 248.724 219.957 249.176L233.002 262.234C233.454 262.686 233.454 263.417 233.002 263.869C232.777 264.095 232.482 264.207 232.186 264.207Z" fill="#3F2992"/>
<path d="M287.162 264.207C286.867 264.207 286.571 264.094 286.346 263.869C285.894 263.417 285.894 262.686 286.346 262.234L299.391 249.176C299.843 248.724 300.573 248.724 301.024 249.176C301.476 249.628 301.476 250.359 301.024 250.81L287.979 263.869C287.754 264.095 287.458 264.207 287.162 264.207Z" fill="#3F2992"/>
<path d="M303.934 290.1C303.934 290.1 284.536 318.442 260.606 318.442C236.676 318.442 217.278 290.1 217.278 290.1C217.278 290.1 236.676 261.759 260.606 261.759C284.535 261.759 303.934 290.1 303.934 290.1Z" stroke="#3F2992" stroke-miterlimit="10"/>
<path d="M281.002 288.442C283.7 276.906 276.544 265.365 265.019 262.665C253.495 259.965 241.965 267.128 239.268 278.664C236.57 290.2 243.726 301.741 255.251 304.441C266.776 307.141 278.305 299.978 281.002 288.442Z" fill="#3F2992"/>
<path d="M260.653 300.041L255.459 288.559L243.686 284.085L255.157 278.886L259.626 267.102L264.82 278.584L276.593 283.057L264.952 288.456L260.653 300.041Z" fill="white"/>
<path d="M258.348 256.598C257.767 256.598 257.266 256.16 257.201 255.568L255.19 237.212C255.12 236.577 255.578 236.007 256.212 235.936C256.827 235.863 257.415 236.325 257.485 236.96L259.497 255.316C259.567 255.95 259.109 256.52 258.475 256.591C258.434 256.595 258.391 256.598 258.348 256.598Z" fill="#3F2992"/>
<path d="M289.492 322.204C289.787 322.204 290.083 322.317 290.308 322.543L303.353 335.601C303.805 336.053 303.805 336.784 303.353 337.236C302.902 337.688 302.171 337.688 301.72 337.236L288.675 324.177C288.224 323.725 288.224 322.995 288.675 322.543C288.9 322.316 289.196 322.204 289.492 322.204Z" fill="#3F2992"/>
<path d="M234.515 322.204C234.811 322.204 235.107 322.317 235.332 322.543C235.784 322.995 235.784 323.725 235.332 324.177L222.287 337.236C221.835 337.688 221.105 337.688 220.654 337.236C220.202 336.784 220.202 336.053 220.654 335.601L233.699 322.543C233.924 322.316 234.22 322.204 234.515 322.204Z" fill="#3F2992"/>
<path d="M263.329 329.814C263.91 329.814 264.41 330.253 264.476 330.844L266.488 349.201C266.557 349.835 266.1 350.406 265.466 350.476C264.85 350.551 264.263 350.088 264.192 349.453L262.18 331.096C262.111 330.462 262.568 329.891 263.202 329.821C263.244 329.817 263.287 329.814 263.329 329.814Z" fill="#3F2992"/>
<path opacity="0.64" d="M313.692 246.926C349.601 252.537 374.044 263.616 374.044 276.369C374.044 294.789 323.06 309.721 260.17 309.721C197.279 309.721 146.295 294.789 146.295 276.369C146.295 265.287 164.757 255.469 193.158 249.403C156.153 256.463 131.48 269.124 131.48 283.571C131.48 305.721 189.469 323.677 261 323.677C332.531 323.677 390.52 305.721 390.52 283.571C390.52 267.232 358.962 253.176 313.692 246.926Z" fill="white"/>
<path d="M295.751 233.346L292.009 224.742L283.294 221.283L291.89 217.538L295.344 208.814L299.086 217.419L307.801 220.877L299.077 224.77L295.751 233.346Z" fill="#FDCB6A"/>
<path d="M280.369 213.915L277.745 207.883L271.636 205.459L277.662 202.832L280.084 196.716L282.708 202.748L288.817 205.173L282.701 207.902L280.369 213.915Z" fill="#FDCB6A"/>
<path d="M266.607 226.249L264.887 222.295L260.881 220.705L264.832 218.983L266.42 214.974L268.14 218.928L272.147 220.518L268.136 222.307L266.607 226.249Z" fill="#FDCB6A"/>
<path d="M238.304 385.092L234.706 376.817L226.324 373.49L234.59 369.887L237.914 361.498L241.513 369.773L249.895 373.1L241.503 376.843L238.304 385.092Z" fill="#FDCB6A"/>
<path d="M223.509 366.403L220.986 360.601L215.109 358.268L220.905 355.742L223.236 349.86L225.759 355.662L231.636 357.994L225.752 360.619L223.509 366.403Z" fill="#FDCB6A"/>
<path d="M210.272 378.266L208.617 374.462L204.765 372.934L208.565 371.277L210.093 367.421L211.747 371.224L215.601 372.753L211.742 374.475L210.272 378.266Z" fill="#FDCB6A"/>
<path d="M262.809 502.979L262.671 500.672C262.281 500.691 223.2 502.748 178.076 483.118C165.196 477.513 153.062 470.693 141.733 462.726C141.171 458.078 138.004 431.869 137.162 424.283L134.868 424.539C135.623 431.345 138.245 453.099 139.187 460.901C129.955 454.192 121.277 446.707 113.199 438.466L113.279 438.322L112.784 438.049C111.393 436.622 110.016 435.177 108.66 433.706C100.029 424.331 92.1411 414.019 84.9856 402.85C84.9324 402.167 82.1954 366.465 82.1954 361.919H79.8857C79.8857 365.644 81.603 388.777 82.349 398.638C70.4123 379.131 60.6664 357.084 53.2602 332.669L51.0498 333.342C63.2914 373.694 81.8513 407.685 106.204 434.419L67.621 413.139L66.5065 415.165L111.381 439.915C130.274 459.232 152.402 474.485 177.255 485.282C182.762 487.675 188.178 489.74 193.451 491.536C185.466 492.554 167.142 491.031 154.796 489.486L154.51 491.78C157.16 492.111 174.036 494.161 186.218 494.161C191.196 494.161 195.374 493.813 197.492 492.872C226.308 502.062 250.144 503.054 259.054 503.054C261.423 503.053 262.739 502.984 262.809 502.979Z" fill="#3F2992"/>
<path d="M35.0144 308.488L34.0952 308.626C33.7891 306.581 25.6254 287.289 18.8994 277.7L19.6605 277.165C26.3275 286.669 34.6356 305.954 35.0144 308.488Z" fill="#2B1F5D"/>
<path d="M48.5173 303.531C48.4307 303.309 39.8269 281.159 35.1382 269.855L35.9963 269.498C40.6896 280.811 49.2969 302.97 49.3835 303.193L48.5173 303.531Z" fill="#2B1F5D"/>
<path d="M22.358 277.731C22.604 279.372 21.4734 280.901 19.8347 281.147C18.1959 281.392 16.668 280.262 16.422 278.622C16.1772 276.981 17.3066 275.452 18.9454 275.206C20.5853 274.959 22.1132 276.091 22.358 277.731Z" fill="#2B1F5D"/>
<path d="M38.5355 269.232C38.7815 270.873 37.6509 272.402 36.0122 272.648C34.3734 272.893 32.8455 271.763 32.5995 270.123C32.3535 268.482 33.4842 266.953 35.1229 266.707C36.7628 266.46 38.2907 267.591 38.5355 269.232Z" fill="#2B1F5D"/>
<path d="M38.7758 336.781C38.7758 336.781 3.65281 304.835 12.6319 298.933C21.611 293.031 28.5079 308.704 31.6618 304.434C34.8169 300.165 23.9889 283.561 33.3364 285.198C42.6839 286.835 43.2001 300.426 47.4304 298.274C51.6606 296.121 53.0014 274.658 59.307 281.307C65.6114 287.956 69.2331 337.533 59.1026 345.885C59.1026 345.885 49.7147 354.127 38.7758 336.781Z" fill="#3F2992"/>
<path opacity="0.6" d="M56.7917 343.858C49.918 342.891 43.9519 337.343 39.1939 332.719C32.5799 326.292 26.7617 319.011 21.5071 311.444C18.7111 307.418 15.5549 303.078 13.3918 298.486C13.14 298.62 12.8871 298.765 12.6319 298.933C3.65281 304.834 38.7758 336.781 38.7758 336.781C49.7147 354.127 59.1026 345.885 59.1026 345.885C59.7886 345.319 60.4099 344.559 60.9735 343.641C59.7262 343.98 58.3358 344.075 56.7917 343.858Z" fill="#3F2992"/>
<path opacity="0.53" d="M23.9636 308.621C24.5191 309.001 24.921 309.364 25.316 309.712C25.7005 310.064 26.0516 310.407 26.3923 310.761C26.7341 311.113 27.061 311.479 27.397 311.878C27.7285 312.286 28.0749 312.703 28.4306 313.276C27.7677 313.422 27.1406 313.303 26.5644 313.082C25.9916 312.852 25.4753 312.495 25.0515 312.051C24.6265 311.607 24.2916 311.076 24.0849 310.495C23.8885 309.909 23.7938 309.278 23.9636 308.621Z" fill="white"/>
<path opacity="0.53" d="M35.7048 315.97C36.1956 316.182 36.5132 316.403 36.8065 316.623C37.0883 316.846 37.3193 317.076 37.5191 317.329C37.72 317.582 37.8886 317.861 38.0399 318.187C38.1854 318.522 38.324 318.884 38.4141 319.413C37.8875 319.53 37.4429 319.428 37.0444 319.259C36.6518 319.079 36.3157 318.81 36.0582 318.479C35.7995 318.15 35.617 317.76 35.535 317.336C35.4657 316.91 35.4703 316.454 35.7048 315.97Z" fill="white"/>
<path opacity="0.53" d="M39.8915 329.02C40.3696 329.025 40.6883 329.144 40.9701 329.288C41.2427 329.438 41.4552 329.631 41.6168 329.86C41.7785 330.088 41.8871 330.354 41.9367 330.661C41.9772 330.975 41.9783 331.315 41.8201 331.769C41.3408 331.764 41.0209 331.646 40.7391 331.501C40.4666 331.351 40.2541 331.158 40.0947 330.928C39.9353 330.698 39.8256 330.433 39.7771 330.126C39.7379 329.813 39.7344 329.472 39.8915 329.02Z" fill="white"/>
<path opacity="0.53" d="M37.1187 295.264C37.6765 295.384 38.076 295.617 38.4375 295.875C38.7897 296.14 39.0831 296.447 39.3256 296.791C39.5681 297.134 39.7564 297.513 39.8869 297.935C40.007 298.364 40.089 298.818 40.0116 299.387C39.4515 299.268 39.0519 299.036 38.6904 298.777C38.3382 298.512 38.0449 298.205 37.8046 297.86C37.5644 297.516 37.375 297.136 37.2457 296.713C37.1256 296.284 37.0424 295.83 37.1187 295.264Z" fill="white"/>
<path opacity="0.53" d="M45.4566 311.512C45.929 311.68 46.2188 311.915 46.466 312.165C46.7027 312.419 46.8702 312.698 46.9787 312.997C47.0885 313.297 47.1358 313.619 47.1162 313.965C47.0861 314.315 47.0111 314.681 46.7524 315.114C46.2777 314.946 45.9867 314.712 45.7407 314.461C45.504 314.206 45.3365 313.928 45.2303 313.627C45.1229 313.327 45.0755 313.005 45.0952 312.658C45.1263 312.309 45.2003 311.943 45.4566 311.512Z" fill="white"/>
<path opacity="0.53" d="M52.6248 297.497C53.0636 297.81 53.3096 298.154 53.5117 298.503C53.7022 298.854 53.82 299.216 53.8766 299.587C53.9332 299.958 53.9263 300.34 53.8466 300.73C53.7565 301.123 53.6202 301.523 53.29 301.952C52.8488 301.639 52.6017 301.296 52.4007 300.947C52.2102 300.595 52.0924 300.233 52.0381 299.862C51.9838 299.491 51.9907 299.11 52.0704 298.718C52.1617 298.325 52.2979 297.925 52.6248 297.497Z" fill="white"/>
<path opacity="0.53" d="M56.1798 321.264C56.5401 321.558 56.7076 321.834 56.83 322.104C56.9408 322.375 56.979 322.637 56.9559 322.894C56.9328 323.15 56.8438 323.401 56.6845 323.645C56.5135 323.888 56.2953 324.126 55.8818 324.346C55.5192 324.051 55.3506 323.776 55.2282 323.504C55.1173 323.235 55.0792 322.971 55.1058 322.714C55.1312 322.458 55.2201 322.207 55.3806 321.963C55.5527 321.721 55.7698 321.483 56.1798 321.264Z" fill="white"/>
<path opacity="0.53" d="M50.9458 331.92C51.3477 331.986 51.5568 332.082 51.7219 332.183C51.8755 332.288 51.9563 332.402 51.976 332.526C51.9956 332.649 51.9517 332.782 51.8351 332.927C51.7081 333.072 51.5348 333.225 51.1676 333.407C50.7634 333.341 50.5532 333.246 50.3892 333.143C50.2356 333.039 50.1548 332.925 50.1374 332.801C50.1201 332.677 50.164 332.544 50.2806 332.4C50.4088 332.254 50.5809 332.101 50.9458 331.92Z" fill="white"/>
<path opacity="0.53" d="M60.671 311.443C60.3211 311.184 60.164 310.957 60.0497 310.737C59.9481 310.52 59.9169 310.314 59.9492 310.119C59.9804 309.924 60.0751 309.739 60.2426 309.566C60.4204 309.395 60.6445 309.232 61.0614 309.101C61.4136 309.36 61.5718 309.587 61.685 309.806C61.7866 310.023 61.8178 310.229 61.7832 310.424C61.7497 310.62 61.655 310.805 61.4875 310.977C61.3085 311.148 61.0856 311.311 60.671 311.443Z" fill="white"/>
<path d="M55.8829 347.886C55.8829 347.886 41.2369 347.803 38.7759 336.781C38.7759 336.781 47.9663 338.441 51.5914 340.935L47.0955 327.181C47.0955 327.181 58.4317 332.317 59.4318 339.001L64.1264 326.907C64.1264 326.907 70.4354 341.909 55.8829 347.886Z" fill="white"/>
<path d="M82.8285 351.904L82.3296 351.695C82.795 350.585 84.5643 338.52 84.1162 331.715L84.6566 331.679C85.1013 338.423 83.4059 350.528 82.8285 351.904Z" fill="#2B1F5D"/>
<path d="M91.042 353.526C91.0662 353.39 93.4799 339.77 94.5632 332.729L95.0979 332.811C94.0146 339.858 91.5998 353.483 91.5755 353.62L91.042 353.526Z" fill="#2B1F5D"/>
<path d="M85.8276 332.777C85.4534 333.667 84.4302 334.086 83.5409 333.712C82.6517 333.338 82.2336 332.313 82.6078 331.423C82.982 330.533 84.0052 330.115 84.8945 330.488C85.7825 330.862 86.2006 331.887 85.8276 332.777Z" fill="#2B1F5D"/>
<path d="M96.4409 333.448C96.0667 334.338 95.0435 334.757 94.1542 334.383C93.265 334.009 92.8469 332.984 93.2199 332.094C93.5941 331.204 94.6173 330.786 95.5066 331.159C96.3958 331.532 96.8139 332.558 96.4409 333.448Z" fill="#2B1F5D"/>
<path d="M76.1509 367.113C76.1509 367.113 68.3359 340.593 74.5849 340.375C80.8339 340.158 79.5278 350.041 82.3872 348.872C85.2467 347.703 84.8771 336.169 89.0323 339.814C93.1875 343.457 89.3372 350.373 92.0904 350.583C94.8448 350.793 101.997 340.525 103.123 345.74C104.25 350.956 91.0718 376.707 83.5097 377.794C83.5097 377.794 76.3507 379.051 76.1509 367.113Z" fill="#3F2992"/>
<path opacity="0.6" d="M82.9727 376.087C79.8465 373.524 78.5554 368.96 77.5864 365.219C76.2387 360.021 75.5458 354.639 75.219 349.285C75.0457 346.437 74.787 343.322 75.0977 340.384C74.9325 340.374 74.7628 340.37 74.5849 340.376C68.3359 340.593 76.1509 367.113 76.1509 367.113C76.3507 379.051 83.5097 377.794 83.5097 377.794C84.0213 377.72 84.5607 377.531 85.1185 377.244C84.3955 377.036 83.6749 376.662 82.9727 376.087Z" fill="#3F2992"/>
<path opacity="0.53" d="M77.2931 348.625C77.4548 348.982 77.5437 349.284 77.6361 349.578C77.7216 349.869 77.792 350.145 77.8544 350.425C77.9179 350.703 77.9699 350.984 78.0161 351.284C78.0576 351.588 78.1038 351.9 78.1073 352.292C77.7343 352.164 77.4583 351.915 77.2377 351.631C77.0229 351.343 76.8727 351.009 76.7965 350.66C76.7191 350.31 76.7134 349.945 76.7861 349.593C76.867 349.242 77.0102 348.9 77.2931 348.625Z" fill="white"/>
<path opacity="0.53" d="M80.9113 355.833C81.0914 356.087 81.1827 356.293 81.2612 356.491C81.334 356.687 81.379 356.871 81.4021 357.058C81.4252 357.246 81.4252 357.434 81.4021 357.642C81.3732 357.853 81.3328 358.075 81.2173 358.366C80.9205 358.264 80.73 358.079 80.5833 357.874C80.4424 357.666 80.3569 357.431 80.3281 357.189C80.2992 356.946 80.3258 356.698 80.4135 356.462C80.5082 356.227 80.6491 356.003 80.9113 355.833Z" fill="white"/>
<path opacity="0.53" d="M79.0509 363.592C79.2865 363.74 79.4089 363.895 79.5059 364.052C79.596 364.209 79.6434 364.37 79.6549 364.532C79.6665 364.695 79.6399 364.859 79.5718 365.026C79.4967 365.195 79.3951 365.365 79.1791 365.542C78.9424 365.394 78.8188 365.239 78.7218 365.082C78.6317 364.925 78.5844 364.764 78.574 364.602C78.5636 364.439 78.5901 364.275 78.6583 364.107C78.7345 363.939 78.8361 363.769 79.0509 363.592Z" fill="white"/>
<path opacity="0.53" d="M87.8705 345.964C88.1119 346.193 88.2401 346.43 88.3417 346.668C88.4364 346.906 88.4895 347.148 88.5068 347.392C88.5242 347.635 88.5034 347.882 88.4399 348.13C88.3706 348.38 88.2735 348.631 88.0634 348.89C87.8208 348.661 87.6927 348.425 87.591 348.186C87.4963 347.948 87.4432 347.706 87.427 347.462C87.412 347.218 87.4328 346.972 87.4952 346.723C87.5656 346.474 87.6615 346.223 87.8705 345.964Z" fill="white"/>
<path opacity="0.53" d="M87.1082 356.568C87.2919 356.795 87.3658 357 87.4131 357.2C87.4536 357.397 87.4535 357.587 87.4166 357.769C87.3808 357.952 87.3069 358.127 87.1925 358.292C87.0713 358.457 86.9235 358.617 86.6648 358.753C86.48 358.525 86.4061 358.321 86.3587 358.122C86.3183 357.924 86.3183 357.735 86.3564 357.553C86.3945 357.372 86.4673 357.197 86.5816 357.031C86.7029 356.865 86.8507 356.706 87.1082 356.568Z" fill="white"/>
<path opacity="0.53" d="M94.9085 351.769C95.0321 352.058 95.0506 352.303 95.0459 352.537C95.0344 352.77 94.9836 352.986 94.9004 353.187C94.8161 353.389 94.6983 353.575 94.5401 353.746C94.3761 353.915 94.1879 354.072 93.8934 354.186C93.7687 353.897 93.749 353.651 93.7548 353.416C93.7663 353.183 93.8172 352.967 93.9026 352.766C93.9881 352.565 94.1059 352.378 94.2641 352.207C94.4281 352.04 94.6152 351.882 94.9085 351.769Z" fill="white"/>
<path opacity="0.53" d="M89.4942 364.664C89.5843 364.919 89.5843 365.106 89.5635 365.279C89.537 365.446 89.4769 365.588 89.3868 365.71C89.2979 365.83 89.1778 365.928 89.0242 366.001C88.866 366.071 88.6847 366.123 88.4133 366.106C88.322 365.85 88.3209 365.662 88.3428 365.49C88.3694 365.323 88.4294 365.18 88.5207 365.06C88.6108 364.94 88.7309 364.842 88.8845 364.77C89.0438 364.702 89.224 364.649 89.4942 364.664Z" fill="white"/>
<path opacity="0.53" d="M83.6724 368.379C83.8526 368.534 83.9276 368.644 83.9785 368.745C84.0235 368.843 84.0293 368.924 84.0015 368.992C83.9738 369.059 83.9115 369.112 83.8098 369.149C83.7024 369.183 83.5708 369.206 83.3329 369.185C83.1516 369.03 83.0765 368.919 83.0245 368.819C82.9795 368.72 82.9737 368.639 83.0026 368.572C83.0315 368.505 83.0938 368.452 83.1955 368.416C83.304 368.383 83.4357 368.36 83.6724 368.379Z" fill="white"/>
<path opacity="0.53" d="M94.6958 361.14C94.6 360.905 94.5907 360.745 94.6 360.601C94.615 360.463 94.6623 360.35 94.7362 360.263C94.8101 360.175 94.9141 360.112 95.0492 360.076C95.1889 360.045 95.3506 360.031 95.5966 360.093C95.6936 360.328 95.704 360.489 95.6936 360.632C95.6786 360.771 95.6313 360.883 95.5562 360.97C95.4811 361.057 95.3772 361.12 95.2421 361.155C95.1012 361.185 94.9418 361.2 94.6958 361.14Z" fill="white"/>
<path d="M81.3039 377.815C81.3039 377.815 74.0456 373.34 76.152 367.114C76.152 367.114 80.2206 370.722 81.2704 373.059L83.1898 364.857C83.1898 364.857 87.2757 370.843 85.7536 374.471L91.7427 369.877C91.7427 369.877 90.3465 379.247 81.3039 377.815Z" fill="white"/>
<path d="M58.5274 408.186L58.077 408.486C57.4118 407.483 48.3518 399.33 42.4424 395.937L42.7115 395.467C48.5678 398.83 57.7028 406.944 58.5274 408.186Z" fill="#2B1F5D"/>
<path d="M64.4233 402.237C64.3228 402.141 54.3274 392.589 49.0693 387.79L49.4343 387.39C54.697 392.194 64.697 401.749 64.7975 401.845L64.4233 402.237Z" fill="#2B1F5D"/>
<path d="M44.273 395.098C44.8065 395.903 44.5882 396.988 43.7844 397.522C42.9807 398.056 41.8962 397.838 41.3627 397.033C40.8291 396.229 41.0474 395.143 41.8512 394.609C42.655 394.075 43.7394 394.295 44.273 395.098Z" fill="#2B1F5D"/>
<path d="M50.7056 386.622C51.2391 387.427 51.0209 388.512 50.2171 389.046C49.4133 389.58 48.3289 389.362 47.7953 388.557C47.2618 387.753 47.48 386.667 48.2838 386.133C49.0888 385.599 50.172 385.817 50.7056 386.622Z" fill="#2B1F5D"/>
<path d="M67.4847 422.172C67.4847 422.172 41.0937 414.006 44.3724 408.677C47.651 403.348 55.1496 409.907 55.7605 406.877C56.3714 403.847 46.5701 397.769 51.9021 396.323C57.2341 394.877 60.8558 401.914 62.5557 399.734C64.2545 397.555 59.6709 385.909 64.6333 387.856C69.5958 389.804 83.7268 415.044 80.4446 421.949C80.4446 421.949 77.5274 428.613 67.4847 422.172Z" fill="#C4C6FF"/>
<path opacity="0.6" d="M78.7262 421.453C74.8643 422.64 70.3511 421.19 66.7029 419.927C61.6318 418.172 56.7698 415.773 52.1342 413.08C49.6686 411.648 46.9338 410.14 44.6622 408.254C44.5629 408.387 44.4647 408.526 44.3724 408.677C41.0937 414.006 67.4847 422.172 67.4847 422.172C77.5274 428.613 80.4446 421.95 80.4446 421.95C80.6664 421.482 80.8061 420.928 80.8777 420.305C80.3037 420.792 79.5946 421.186 78.7262 421.453Z" fill="#3F2992"/>
<path opacity="0.53" d="M52.7349 410.985C53.1217 411.049 53.4232 411.141 53.7165 411.227C54.0064 411.317 54.2755 411.411 54.5422 411.514C54.809 411.615 55.0723 411.728 55.3472 411.855C55.6232 411.988 55.9073 412.123 56.2364 412.337C55.9234 412.577 55.5631 412.668 55.2051 412.695C54.846 412.715 54.4856 412.655 54.153 412.525C53.8204 412.396 53.5121 412.199 53.2603 411.944C53.012 411.682 52.8065 411.373 52.7349 410.985Z" fill="white"/>
<path opacity="0.53" d="M60.7355 411.959C61.0473 411.95 61.269 411.988 61.4769 412.032C61.6802 412.081 61.8592 412.144 62.0266 412.229C62.1952 412.313 62.3523 412.417 62.5128 412.552C62.6722 412.693 62.8339 412.85 63.0117 413.107C62.7634 413.299 62.5036 413.355 62.2518 413.364C62.0012 413.366 61.7575 413.307 61.5404 413.196C61.3233 413.087 61.1305 412.926 60.9826 412.722C60.8406 412.514 60.7309 412.273 60.7355 411.959Z" fill="white"/>
<path opacity="0.53" d="M66.1587 417.805C66.4116 417.69 66.6091 417.674 66.7927 417.68C66.9729 417.691 67.1334 417.741 67.2743 417.821C67.4163 417.902 67.5388 418.014 67.6404 418.164C67.7385 418.319 67.824 418.499 67.8517 418.777C67.5977 418.892 67.4002 418.91 67.2166 418.903C67.0364 418.891 66.8759 418.841 66.735 418.759C66.5941 418.678 66.4717 418.565 66.37 418.415C66.273 418.26 66.1887 418.082 66.1587 417.805Z" fill="white"/>
<path opacity="0.53" d="M56.376 400.695C56.6993 400.621 56.9673 400.645 57.2225 400.691C57.4743 400.744 57.7041 400.833 57.9154 400.955C58.1279 401.075 58.3208 401.23 58.4928 401.419C58.6615 401.616 58.8174 401.836 58.9167 402.153C58.5922 402.229 58.3242 402.206 58.0702 402.158C57.8196 402.105 57.5886 402.016 57.3772 401.893C57.1659 401.771 56.9719 401.617 56.7998 401.428C56.6312 401.231 56.4753 401.011 56.376 400.695Z" fill="white"/>
<path opacity="0.53" d="M64.7778 407.201C65.0688 407.173 65.279 407.225 65.4707 407.296C65.6578 407.371 65.8148 407.477 65.9465 407.608C66.0782 407.738 66.1832 407.897 66.2572 408.084C66.3276 408.276 66.3784 408.488 66.3484 408.78C66.0562 408.809 65.846 408.757 65.6543 408.686C65.4672 408.611 65.3102 408.505 65.1797 408.373C65.0492 408.241 64.9441 408.083 64.8702 407.896C64.7997 407.703 64.7489 407.491 64.7778 407.201Z" fill="white"/>
<path opacity="0.53" d="M65.1013 398.042C65.4096 398.099 65.6244 398.219 65.8173 398.353C66.0044 398.491 66.1557 398.652 66.2769 398.834C66.3982 399.015 66.4883 399.218 66.5426 399.444C66.5922 399.673 66.6188 399.918 66.5506 400.226C66.2411 400.169 66.0263 400.05 65.8335 399.915C65.6464 399.777 65.4951 399.615 65.375 399.433C65.2549 399.25 65.1648 399.048 65.1105 398.821C65.062 398.592 65.0343 398.348 65.1013 398.042Z" fill="white"/>
<path opacity="0.53" d="M72.8341 409.692C73.0962 409.758 73.2533 409.862 73.3849 409.974C73.5097 410.089 73.5951 410.218 73.6459 410.359C73.6968 410.5 73.7129 410.654 73.6875 410.823C73.6575 410.993 73.6009 411.172 73.4369 411.391C73.1724 411.325 73.0165 411.222 72.8849 411.108C72.7602 410.994 72.6747 410.865 72.625 410.722C72.5754 410.58 72.5604 410.426 72.5846 410.259C72.6158 410.089 72.6712 409.91 72.8341 409.692Z" fill="white"/>
<path opacity="0.53" d="M72.7014 416.602C72.9303 416.538 73.0632 416.537 73.1753 416.549C73.2817 416.567 73.3534 416.606 73.3938 416.667C73.4343 416.727 73.4447 416.808 73.4181 416.913C73.3869 417.022 73.3325 417.145 73.1846 417.331C72.9557 417.396 72.8204 417.398 72.7083 417.384C72.602 417.368 72.5303 417.327 72.491 417.266C72.4517 417.205 72.4413 417.124 72.4679 417.019C72.5014 416.911 72.5546 416.789 72.7014 416.602Z" fill="white"/>
<path opacity="0.53" d="M72.7809 403.406C72.5326 403.356 72.394 403.275 72.2796 403.187C72.1722 403.098 72.1053 402.997 72.0741 402.886C72.0417 402.775 72.0464 402.655 72.0926 402.522C72.1445 402.387 72.2219 402.246 72.409 402.074C72.6584 402.124 72.7982 402.205 72.9125 402.293C73.0199 402.382 73.0869 402.483 73.1169 402.594C73.1469 402.705 73.1423 402.827 73.0973 402.959C73.0442 403.094 72.9668 403.235 72.7809 403.406Z" fill="white"/>
<path d="M79.2403 423.8C79.2403 423.8 71.4992 427.374 67.4849 422.172C67.4849 422.172 72.7395 420.776 75.2652 421.196L69.5047 415.055C69.5047 415.055 76.7469 414.963 78.9215 418.239L78.4157 410.704C78.4157 410.704 85.4384 417.055 79.2403 423.8Z" fill="white"/>
<path d="M138.81 440.266C138.81 440.266 122.97 430.94 135.083 416.016C135.083 416.016 148.129 425.343 138.81 440.266Z" fill="white"/>
<path d="M170.136 491.707C170.136 491.707 157.689 505.241 145.668 490.243C145.668 490.243 157.526 479.444 170.136 491.707Z" fill="#3F2992"/>
<path d="M209.937 495.516C209.937 495.516 211.672 513.829 192.493 512.752C192.493 512.752 192.397 496.705 209.937 495.516Z" fill="#3F2992"/>
<path d="M140.2 461.626C140.2 461.626 133.374 444.546 152.079 440.164C152.079 440.164 156.692 455.533 140.2 461.626Z" fill="white"/>
<path d="M266.551 503.291L266.607 500.981C266.997 500.986 306.126 501.64 350.519 480.403C363.191 474.341 375.073 467.088 386.108 458.72C386.503 454.055 388.729 427.749 389.299 420.137L391.601 420.309C391.09 427.138 389.25 448.972 388.587 456.802C397.573 449.767 405.977 441.975 413.755 433.449L413.671 433.308L414.156 433.018C415.495 431.542 416.82 430.05 418.122 428.529C426.411 418.851 433.926 408.262 440.676 396.843C440.704 396.159 442.162 360.382 441.999 355.84L444.307 355.757C444.44 359.479 443.552 382.658 443.16 392.541C454.392 372.617 463.341 350.235 469.868 325.57L472.101 326.163C461.313 366.929 443.982 401.565 420.602 429.154L458.399 406.503L459.585 408.487L415.625 434.831C397.437 454.815 375.869 470.851 351.418 482.532C345.999 485.121 340.661 487.379 335.456 489.364C343.472 490.095 361.731 487.915 374.013 485.929L374.381 488.211C371.744 488.638 354.952 491.291 342.778 491.729C337.803 491.907 333.616 491.711 331.465 490.845C302.997 501.063 279.211 502.909 270.307 503.229C267.939 503.316 266.622 503.294 266.551 503.291Z" fill="#3F2992"/>
<path d="M487.233 300.752L488.157 300.857C488.389 298.803 495.857 279.231 502.236 269.407L501.457 268.899C495.135 278.634 487.522 298.205 487.233 300.752Z" fill="#2B1F5D"/>
<path d="M473.562 296.283C473.641 296.057 481.445 273.612 485.726 262.148L484.855 261.822C480.57 273.297 472.762 295.751 472.683 295.976L473.562 296.283Z" fill="#2B1F5D"/>
<path d="M498.781 269.561C498.595 271.209 499.779 272.697 501.426 272.885C503.072 273.071 504.559 271.886 504.745 270.237C504.931 268.589 503.747 267.101 502.1 266.914C500.453 266.728 498.967 267.913 498.781 269.561Z" fill="#2B1F5D"/>
<path d="M482.309 261.647C482.122 263.295 483.307 264.783 484.954 264.97C486.6 265.157 488.087 263.972 488.274 262.323C488.46 260.675 487.276 259.187 485.629 259.001C483.982 258.814 482.496 259.999 482.309 261.647Z" fill="#2B1F5D"/>
<path d="M484.488 329.162C484.488 329.162 518.445 295.976 509.26 290.4C500.076 284.825 493.745 300.735 490.439 296.581C487.134 292.428 497.361 275.447 488.077 277.418C478.793 279.389 478.765 292.991 474.461 290.991C470.156 288.991 468.047 267.59 461.985 274.461C455.922 281.332 454.078 331.007 464.501 338.99C464.501 338.99 474.178 346.888 484.488 329.162Z" fill="#3F2992"/>
<path opacity="0.6" d="M466.738 336.881C473.572 335.667 479.335 329.909 483.926 325.117C490.305 318.456 495.859 310.972 500.839 303.221C503.488 299.098 506.487 294.647 508.485 289.98C508.742 290.105 508.999 290.242 509.26 290.4C518.445 295.975 484.488 329.162 484.488 329.162C474.177 346.888 464.5 338.989 464.5 338.989C463.794 338.448 463.146 337.711 462.55 336.813C463.809 337.107 465.202 337.153 466.738 336.881Z" fill="#3F2992"/>
<path opacity="0.53" d="M498.283 300.488C497.741 300.888 497.353 301.266 496.971 301.628C496.599 301.993 496.261 302.348 495.933 302.715C495.605 303.08 495.291 303.457 494.969 303.867C494.651 304.287 494.322 304.717 493.986 305.302C494.653 305.423 495.276 305.282 495.844 305.041C496.408 304.79 496.911 304.415 497.319 303.955C497.728 303.496 498.043 302.954 498.229 302.366C498.404 301.771 498.476 301.138 498.283 300.488Z" fill="white"/>
<path opacity="0.53" d="M486.812 308.253C486.328 308.483 486.02 308.715 485.734 308.945C485.461 309.179 485.239 309.417 485.047 309.677C484.856 309.937 484.697 310.222 484.558 310.553C484.425 310.894 484.299 311.26 484.229 311.793C484.759 311.891 485.2 311.773 485.591 311.589C485.977 311.396 486.303 311.114 486.549 310.775C486.795 310.437 486.964 310.04 487.03 309.614C487.086 309.184 487.064 308.728 486.812 308.253Z" fill="white"/>
<path opacity="0.53" d="M483.096 321.445C482.619 321.468 482.305 321.598 482.027 321.752C481.761 321.912 481.555 322.112 481.402 322.346C481.248 322.579 481.149 322.849 481.111 323.159C481.082 323.474 481.092 323.814 481.266 324.261C481.746 324.239 482.061 324.111 482.337 323.956C482.604 323.795 482.809 323.595 482.961 323.361C483.112 323.126 483.211 322.857 483.249 322.547C483.278 322.231 483.269 321.892 483.096 321.445Z" fill="white"/>
<path opacity="0.53" d="M484.658 287.61C484.105 287.751 483.715 287.998 483.361 288.269C483.018 288.547 482.737 288.865 482.507 289.216C482.277 289.567 482.101 289.954 481.987 290.38C481.882 290.812 481.816 291.27 481.914 291.836C482.47 291.696 482.861 291.451 483.214 291.179C483.557 290.901 483.838 290.584 484.066 290.231C484.293 289.878 484.469 289.492 484.583 289.066C484.687 288.631 484.754 288.174 484.658 287.61Z" fill="white"/>
<path opacity="0.53" d="M476.907 304.148C476.44 304.335 476.16 304.58 475.922 304.837C475.694 305.1 475.537 305.384 475.439 305.688C475.341 305.991 475.304 306.315 475.336 306.66C475.379 307.01 475.467 307.373 475.74 307.796C476.208 307.611 476.491 307.366 476.728 307.107C476.955 306.844 477.112 306.56 477.208 306.256C477.304 305.952 477.341 305.628 477.309 305.282C477.265 304.933 477.178 304.57 476.907 304.148Z" fill="white"/>
<path opacity="0.53" d="M469.241 290.399C468.813 290.729 468.58 291.08 468.389 291.436C468.212 291.794 468.106 292.16 468.063 292.533C468.019 292.907 468.039 293.287 468.133 293.676C468.237 294.065 468.388 294.46 468.734 294.878C469.163 294.548 469.399 294.197 469.587 293.841C469.765 293.482 469.87 293.117 469.91 292.744C469.952 292.37 469.93 291.99 469.838 291.602C469.734 291.211 469.584 290.816 469.241 290.399Z" fill="white"/>
<path opacity="0.53" d="M466.541 314.278C466.191 314.586 466.034 314.867 465.92 315.142C465.819 315.416 465.79 315.679 465.823 315.936C465.856 316.191 465.953 316.439 466.122 316.677C466.303 316.913 466.529 317.144 466.949 317.347C467.302 317.04 467.46 316.759 467.572 316.484C467.672 316.21 467.702 315.946 467.667 315.691C467.632 315.435 467.535 315.188 467.365 314.95C467.184 314.713 466.959 314.483 466.541 314.278Z" fill="white"/>
<path opacity="0.53" d="M472.152 324.74C471.754 324.821 471.547 324.924 471.387 325.032C471.236 325.14 471.16 325.258 471.145 325.382C471.13 325.505 471.179 325.637 471.3 325.777C471.432 325.918 471.612 326.064 471.984 326.233C472.384 326.152 472.592 326.05 472.753 325.941C472.902 325.833 472.979 325.715 472.992 325.591C473.005 325.466 472.956 325.334 472.835 325.196C472.701 325.055 472.523 324.908 472.152 324.74Z" fill="white"/>
<path opacity="0.53" d="M461.7 304.625C462.041 304.353 462.19 304.121 462.296 303.898C462.391 303.677 462.413 303.47 462.375 303.276C462.337 303.082 462.235 302.9 462.062 302.734C461.878 302.57 461.648 302.413 461.227 302.298C460.884 302.57 460.734 302.802 460.629 303.025C460.534 303.246 460.512 303.453 460.553 303.647C460.593 303.841 460.695 304.021 460.868 304.189C461.053 304.353 461.281 304.508 461.7 304.625Z" fill="white"/>
<path d="M467.79 340.873C467.79 340.873 482.424 340.264 484.488 329.16C484.488 329.16 475.363 331.15 471.83 333.773L475.83 319.866C475.83 319.866 464.685 325.406 463.925 332.122L458.8 320.204C458.8 320.204 453.033 335.421 467.79 340.873Z" fill="white"/>
<path d="M441.006 345.855L441.496 345.627C440.992 344.535 438.792 332.541 438.996 325.724L438.454 325.708C438.252 332.464 440.38 344.502 441.006 345.855Z" fill="#2B1F5D"/>
<path d="M432.857 347.771C432.828 347.636 429.928 334.111 428.593 327.113L428.062 327.215C429.397 334.218 432.298 347.749 432.328 347.884L432.857 347.771Z" fill="#2B1F5D"/>
<path d="M437.324 326.848C437.729 327.724 438.767 328.105 439.643 327.7C440.518 327.294 440.899 326.255 440.494 325.378C440.088 324.502 439.05 324.121 438.175 324.527C437.299 324.932 436.918 325.972 437.324 326.848Z" fill="#2B1F5D"/>
<path d="M426.742 327.899C427.147 328.775 428.185 329.156 429.061 328.751C429.936 328.345 430.317 327.306 429.912 326.429C429.506 325.553 428.468 325.172 427.593 325.577C426.717 325.983 426.336 327.022 426.742 327.899Z" fill="#2B1F5D"/>
<path d="M448.223 360.815C448.223 360.815 455.083 334.032 448.831 334.039C442.578 334.047 444.237 343.875 441.338 342.81C438.439 341.746 438.394 330.205 434.373 333.996C430.352 337.786 434.447 344.559 431.702 344.868C428.957 345.177 421.442 335.171 420.503 340.424C419.564 345.677 433.656 370.939 441.251 371.754C441.251 371.754 448.452 372.752 448.223 360.815Z" fill="#3F2992"/>
<path opacity="0.6" d="M441.728 370.027C444.761 367.354 445.887 362.746 446.722 358.973C447.883 353.729 448.383 348.326 448.518 342.964C448.589 340.111 448.736 336.989 448.32 334.065C448.485 334.05 448.655 334.039 448.832 334.038C455.084 334.03 448.224 360.815 448.224 360.815C448.452 372.751 441.254 371.753 441.254 371.753C440.74 371.697 440.195 371.527 439.626 371.261C440.34 371.027 441.047 370.628 441.728 370.027Z" fill="#3F2992"/>
<path opacity="0.53" d="M446.42 342.379C446.273 342.742 446.193 343.047 446.112 343.343C446.037 343.638 445.977 343.916 445.924 344.197C445.871 344.478 445.828 344.76 445.792 345.062C445.761 345.367 445.726 345.68 445.737 346.073C446.105 345.932 446.372 345.674 446.582 345.381C446.787 345.085 446.924 344.746 446.989 344.395C447.053 344.044 447.046 343.678 446.961 343.329C446.869 342.981 446.713 342.644 446.42 342.379Z" fill="white"/>
<path opacity="0.53" d="M443.062 349.714C442.891 349.975 442.808 350.183 442.736 350.384C442.67 350.583 442.632 350.769 442.615 350.957C442.598 351.144 442.606 351.333 442.637 351.54C442.674 351.75 442.723 351.97 442.848 352.256C443.141 352.144 443.325 351.952 443.464 351.741C443.598 351.529 443.674 351.29 443.694 351.047C443.714 350.804 443.679 350.555 443.582 350.323C443.479 350.094 443.331 349.875 443.062 349.714Z" fill="white"/>
<path opacity="0.53" d="M445.2 357.399C444.97 357.555 444.852 357.715 444.761 357.876C444.677 358.036 444.635 358.198 444.63 358.361C444.624 358.524 444.656 358.688 444.73 358.854C444.811 359.019 444.919 359.185 445.141 359.355C445.373 359.199 445.491 359.04 445.581 358.88C445.665 358.72 445.707 358.558 445.712 358.395C445.716 358.232 445.684 358.068 445.609 357.902C445.528 357.736 445.421 357.569 445.2 357.399Z" fill="white"/>
<path opacity="0.53" d="M435.754 340.101C435.521 340.338 435.402 340.579 435.308 340.821C435.222 341.062 435.178 341.306 435.17 341.55C435.162 341.794 435.192 342.04 435.263 342.287C435.342 342.534 435.447 342.781 435.666 343.032C435.901 342.795 436.021 342.554 436.113 342.312C436.2 342.07 436.244 341.828 436.251 341.583C436.258 341.339 436.228 341.092 436.156 340.846C436.077 340.599 435.972 340.351 435.754 340.101Z" fill="white"/>
<path opacity="0.53" d="M436.897 350.671C436.721 350.904 436.655 351.111 436.615 351.313C436.581 351.511 436.588 351.701 436.632 351.881C436.675 352.062 436.755 352.234 436.875 352.396C437.002 352.556 437.155 352.71 437.419 352.837C437.595 352.604 437.662 352.397 437.702 352.196C437.735 351.997 437.728 351.807 437.683 351.627C437.639 351.447 437.559 351.274 437.439 351.113C437.311 350.953 437.159 350.798 436.897 350.671Z" fill="white"/>
<path opacity="0.53" d="M428.929 346.153C428.816 346.447 428.805 346.692 428.819 346.927C428.839 347.159 428.898 347.372 428.988 347.571C429.079 347.769 429.204 347.952 429.368 348.117C429.538 348.279 429.732 348.431 430.03 348.534C430.144 348.24 430.154 347.994 430.14 347.759C430.121 347.528 430.063 347.314 429.969 347.115C429.877 346.917 429.752 346.735 429.588 346.569C429.42 346.408 429.226 346.257 428.929 346.153Z" fill="white"/>
<path opacity="0.53" d="M434.802 358.847C434.721 359.106 434.727 359.293 434.754 359.464C434.787 359.631 434.853 359.772 434.946 359.889C435.04 360.006 435.163 360.1 435.319 360.167C435.48 360.231 435.662 360.276 435.932 360.25C436.014 359.991 436.009 359.803 435.981 359.632C435.949 359.465 435.883 359.324 435.788 359.209C435.693 359.092 435.57 358.998 435.415 358.931C435.252 358.868 435.071 358.822 434.802 358.847Z" fill="white"/>
<path opacity="0.53" d="M440.753 362.351C440.578 362.512 440.508 362.625 440.459 362.728C440.418 362.828 440.416 362.91 440.446 362.976C440.476 363.041 440.539 363.092 440.642 363.126C440.75 363.156 440.883 363.174 441.12 363.146C441.296 362.984 441.367 362.87 441.415 362.769C441.456 362.669 441.458 362.587 441.427 362.521C441.396 362.455 441.333 362.405 441.23 362.372C441.121 362.341 440.988 362.322 440.753 362.351Z" fill="white"/>
<path opacity="0.53" d="M429.477 355.511C429.565 355.273 429.569 355.112 429.554 354.969C429.534 354.83 429.483 354.72 429.405 354.636C429.327 354.55 429.222 354.491 429.086 354.461C428.945 354.435 428.783 354.428 428.539 354.497C428.451 354.736 428.446 354.897 428.461 355.04C428.481 355.179 428.532 355.289 428.611 355.372C428.69 355.457 428.795 355.516 428.931 355.547C429.073 355.572 429.234 355.58 429.477 355.511Z" fill="white"/>
<path d="M443.458 371.695C443.458 371.695 450.551 366.962 448.224 360.816C448.224 360.816 444.287 364.567 443.322 366.941L441.109 358.813C441.109 358.813 437.24 364.943 438.892 368.512L432.742 364.137C432.742 364.137 434.472 373.451 443.458 371.695Z" fill="white"/>
<path d="M467.306 401.23L467.767 401.513C468.396 400.488 477.157 392.015 482.942 388.411L482.656 387.951C476.924 391.522 468.086 399.959 467.306 401.23Z" fill="#2B1F5D"/>
<path d="M461.202 395.497C461.299 395.398 470.947 385.493 476.029 380.507L475.65 380.121C470.563 385.112 460.911 395.02 460.815 395.119L461.202 395.497Z" fill="#2B1F5D"/>
<path d="M481.083 387.639C480.578 388.462 480.835 389.538 481.658 390.043C482.48 390.549 483.555 390.291 484.06 389.468C484.564 388.645 484.307 387.568 483.485 387.063C482.662 386.558 481.587 386.816 481.083 387.639Z" fill="#2B1F5D"/>
<path d="M474.351 379.399C473.846 380.222 474.104 381.298 474.926 381.803C475.748 382.308 476.824 382.051 477.328 381.227C477.833 380.404 477.575 379.328 476.753 378.823C475.931 378.318 474.856 378.576 474.351 379.399Z" fill="#2B1F5D"/>
<path d="M458.856 415.528C458.856 415.528 484.938 406.421 481.471 401.214C478.003 396.006 470.745 402.83 470.026 399.823C469.308 396.817 478.885 390.391 473.505 389.137C468.125 387.883 464.757 395.046 462.98 392.929C461.204 390.812 465.369 379.008 460.478 381.133C455.588 383.257 442.371 408.989 445.896 415.771C445.896 415.771 449.05 422.326 458.856 415.528Z" fill="#C4C6FF"/>
<path opacity="0.6" d="M447.596 415.213C451.499 416.261 455.957 414.648 459.557 413.257C464.563 411.322 469.335 408.747 473.871 405.892C476.284 404.372 478.963 402.767 481.165 400.801C481.269 400.93 481.372 401.065 481.47 401.213C484.938 406.421 458.855 415.528 458.855 415.528C449.049 422.327 445.895 415.772 445.895 415.772C445.656 415.313 445.497 414.764 445.403 414.143C445.996 414.608 446.719 414.977 447.596 415.213Z" fill="#3F2992"/>
<path opacity="0.53" d="M473.197 403.82C472.812 403.898 472.515 404.001 472.224 404.097C471.938 404.197 471.672 404.301 471.409 404.413C471.145 404.524 470.887 404.646 470.617 404.782C470.346 404.925 470.066 405.07 469.745 405.295C470.067 405.524 470.429 405.603 470.789 405.617C471.148 405.624 471.506 405.551 471.834 405.41C472.162 405.269 472.462 405.061 472.706 404.796C472.945 404.527 473.139 404.21 473.197 403.82Z" fill="white"/>
<path opacity="0.53" d="M465.236 405.08C464.924 405.082 464.704 405.127 464.498 405.179C464.296 405.235 464.12 405.305 463.955 405.396C463.79 405.486 463.636 405.596 463.482 405.737C463.328 405.883 463.171 406.045 463.002 406.309C463.258 406.492 463.519 406.538 463.772 406.538C464.022 406.532 464.264 406.464 464.477 406.345C464.691 406.227 464.877 406.06 465.018 405.851C465.15 405.637 465.251 405.392 465.236 405.08Z" fill="white"/>
<path opacity="0.53" d="M460.024 411.117C459.767 411.012 459.569 411.002 459.386 411.015C459.205 411.034 459.047 411.088 458.909 411.174C458.77 411.259 458.651 411.377 458.555 411.53C458.463 411.688 458.384 411.871 458.366 412.149C458.623 412.256 458.822 412.266 459.006 412.253C459.186 412.235 459.344 412.18 459.481 412.093C459.619 412.006 459.738 411.889 459.834 411.735C459.927 411.576 460.006 411.394 460.024 411.117Z" fill="white"/>
<path opacity="0.53" d="M469.189 393.666C468.862 393.604 468.596 393.638 468.343 393.693C468.094 393.754 467.868 393.853 467.66 393.981C467.452 394.109 467.265 394.27 467.098 394.466C466.937 394.669 466.789 394.894 466.701 395.216C467.028 395.279 467.295 395.247 467.548 395.19C467.797 395.129 468.024 395.031 468.23 394.901C468.437 394.772 468.625 394.611 468.79 394.414C468.952 394.212 469.1 393.988 469.189 393.666Z" fill="white"/>
<path opacity="0.53" d="M461.026 400.469C460.735 400.451 460.526 400.512 460.337 400.589C460.152 400.671 460 400.782 459.873 400.919C459.745 401.054 459.647 401.216 459.579 401.405C459.516 401.599 459.473 401.813 459.513 402.103C459.806 402.122 460.015 402.062 460.204 401.984C460.389 401.902 460.541 401.791 460.667 401.654C460.793 401.517 460.892 401.355 460.96 401.166C461.022 400.972 461.064 400.759 461.026 400.469Z" fill="white"/>
<path opacity="0.53" d="M460.374 391.327C460.068 391.395 459.857 391.522 459.669 391.664C459.487 391.808 459.341 391.976 459.227 392.162C459.111 392.348 459.029 392.554 458.982 392.781C458.94 393.013 458.923 393.258 459.002 393.563C459.309 393.495 459.52 393.369 459.707 393.226C459.89 393.082 460.035 392.914 460.148 392.728C460.263 392.542 460.345 392.336 460.391 392.109C460.434 391.876 460.452 391.631 460.374 391.327Z" fill="white"/>
<path opacity="0.53" d="M453.064 403.249C452.804 403.324 452.651 403.434 452.524 403.551C452.403 403.67 452.323 403.803 452.277 403.945C452.231 404.088 452.222 404.242 452.252 404.41C452.289 404.578 452.351 404.756 452.522 404.968C452.783 404.893 452.937 404.784 453.064 404.666C453.185 404.547 453.265 404.415 453.31 404.271C453.355 404.128 453.364 403.973 453.334 403.806C453.296 403.637 453.233 403.459 453.064 403.249Z" fill="white"/>
<path opacity="0.53" d="M453.444 410.15C453.214 410.095 453.08 410.097 452.968 410.114C452.863 410.135 452.792 410.178 452.754 410.239C452.715 410.301 452.709 410.383 452.738 410.487C452.773 410.593 452.832 410.716 452.986 410.896C453.218 410.953 453.353 410.95 453.464 410.933C453.569 410.912 453.64 410.869 453.677 410.807C453.715 410.744 453.72 410.662 453.692 410.559C453.656 410.451 453.598 410.329 453.444 410.15Z" fill="white"/>
<path opacity="0.53" d="M452.891 396.964C453.137 396.905 453.274 396.82 453.384 396.729C453.488 396.635 453.552 396.532 453.58 396.42C453.607 396.308 453.598 396.188 453.548 396.057C453.492 395.925 453.409 395.786 453.216 395.621C452.969 395.68 452.831 395.766 452.722 395.857C452.618 395.951 452.554 396.053 452.529 396.166C452.502 396.278 452.511 396.398 452.561 396.529C452.618 396.661 452.7 396.8 452.891 396.964Z" fill="white"/>
<path d="M447.167 417.578C447.167 417.578 455.031 420.872 458.856 415.528C458.856 415.528 453.555 414.323 451.046 414.833L456.583 408.49C456.583 408.49 449.342 408.657 447.287 412.01L447.523 404.461C447.523 404.461 440.73 411.058 447.167 417.578Z" fill="white"/>
<path d="M388.225 436.17C388.225 436.17 403.721 426.281 391.081 411.802C391.081 411.802 378.378 421.591 388.225 436.17Z" fill="#3F2992"/>
<path d="M358.76 488.702C358.76 488.702 371.684 501.781 383.16 486.361C383.16 486.361 370.923 475.994 358.76 488.702Z" fill="#3F2992"/>
<path d="M319.121 493.936C319.121 493.936 318.043 512.3 337.171 510.535C337.171 510.535 336.693 494.495 319.121 493.936Z" fill="white"/>
<path d="M387.601 457.567C387.601 457.567 393.81 440.252 374.961 436.545C374.961 436.545 370.901 452.068 387.601 457.567Z" fill="white"/>
<path d="M330.628 209.669C330.628 209.669 334.588 225.889 330.543 225.868C326.497 225.846 316.851 225.484 312.277 195.678C312.277 195.678 294.511 165.428 290.047 161.916C285.585 158.403 328.205 185.17 330.628 209.669Z" fill="#DC98C6"/>
<path d="M359.4 230.506C359.4 230.506 347.578 241.534 333.039 212.921C333.039 212.921 299.094 169.937 297.978 169.059C296.862 168.181 348.83 192.818 359.4 230.506Z" fill="#DC98C6"/>
<path d="M380.745 231.492C380.745 231.492 383.074 238.296 375.92 237.635C368.766 236.974 359.677 237.05 339.061 204.106L297.978 169.06C297.978 169.06 339.045 136.317 380.745 231.492Z" fill="#DC98C6"/>
<path d="M212.321 -65.5371L231.27 59.1745C231.27 59.1745 261.712 93.977 275.041 104.017C288.371 114.057 350.892 167.783 356.509 176.722C362.126 185.662 394.219 225.832 387.223 230.717C380.225 235.602 358.924 226.517 339.462 199C339.462 199 311.946 175.988 305.989 172.654C300.031 169.32 248.978 148.116 246.687 145.861C244.396 143.605 274.691 194.109 267.933 200.989C261.175 207.87 246.247 205.61 232.727 172.828C232.727 172.828 173.872 120.18 182.735 80.164L133.595 -56.1088L212.321 -65.5371Z" fill="#F9BEE6"/>
<path d="M246.686 145.861C246.01 143.897 245.432 141.912 244.869 139.924C244.296 137.938 243.793 135.936 243.289 133.933C242.806 131.926 242.326 129.918 241.914 127.891L241.298 124.848C241.125 123.825 240.922 122.81 240.775 121.779C241.12 122.755 241.41 123.747 241.729 124.731L242.59 127.708C243.163 129.694 243.668 131.7 244.17 133.706C244.652 135.717 245.133 137.729 245.546 139.756C245.969 141.783 246.376 143.812 246.686 145.861Z" fill="#AA7599"/>
<path d="M263.514 180.18C263.514 180.18 256.639 181.326 257.212 185.915C257.785 190.503 264.66 203.692 269.242 198.53C269.242 198.53 270.389 194.515 263.514 180.18Z" fill="#2B1F5D"/>
<path d="M388.405 227.776C388.405 227.776 384.394 216.307 381.53 212.866C378.666 209.426 375.801 215.733 378.666 221.468C381.532 227.203 386.687 233.511 388.405 227.776Z" fill="#2B1F5D"/>
<path d="M380.745 231.492C378.594 230.874 376.486 230.103 374.417 229.242C373.377 228.825 372.363 228.346 371.334 227.9L368.309 226.426C364.325 224.36 360.509 221.962 356.907 219.272C356.022 218.58 355.093 217.941 354.255 217.187L351.704 214.977C350.866 214.226 350.093 213.406 349.284 212.623L348.083 211.436L346.966 210.169L344.746 207.62L342.725 204.908C342.394 204.452 342.04 204.011 341.726 203.544L340.844 202.1L339.079 199.213L339.19 199.344C333.634 194.925 328.043 190.548 322.526 186.08C316.987 181.639 311.465 177.174 305.988 172.654C311.667 176.916 317.304 181.233 322.923 185.574C328.562 189.888 334.13 194.293 339.731 198.655L339.79 198.701L339.843 198.787L341.602 201.618L342.48 203.033C342.796 203.489 343.134 203.931 343.46 204.381L345.432 207.067L347.606 209.597L348.699 210.855L349.877 212.036C350.672 212.814 351.43 213.631 352.253 214.379L354.761 216.582C355.581 217.336 356.505 217.965 357.366 218.671C360.876 221.409 364.613 223.867 368.533 226.004C372.448 228.145 376.518 230.022 380.745 231.492Z" fill="#AA7599"/>
<path d="M359.401 230.507C356.997 228.392 354.712 226.147 352.451 223.878C350.217 221.584 348.03 219.239 345.938 216.806C343.849 214.372 341.843 211.862 340.007 209.219C338.183 206.574 336.434 203.847 335.145 200.859L335.248 201.007C331.124 197.024 326.957 193.085 322.866 189.066C318.762 185.063 314.671 181.044 310.642 176.962C314.916 180.787 319.132 184.675 323.331 188.579C327.545 192.467 331.684 196.435 335.863 200.359L335.927 200.419L335.966 200.508C337.25 203.39 338.904 206.116 340.698 208.742C342.479 211.38 344.482 213.866 346.493 216.341C348.506 218.817 350.621 221.212 352.786 223.563C354.932 225.928 357.144 228.237 359.401 230.507Z" fill="#AA7599"/>
<path d="M339.462 199C340.081 197.906 340.893 197.013 341.751 196.168C342.629 195.342 343.552 194.567 344.67 193.993C344.053 195.089 343.241 195.981 342.381 196.825C341.503 197.648 340.579 198.424 339.462 199Z" fill="#AA7599"/>
<path d="M239.495 169.377C238.418 170.216 237.234 170.798 236.025 171.318C234.804 171.813 233.558 172.245 232.204 172.417C233.28 171.577 234.464 170.995 235.674 170.476C236.895 169.984 238.142 169.552 239.495 169.377Z" fill="#AA7599"/>
<path d="M330.628 209.669C328.098 206.651 325.646 203.572 323.207 200.483C320.766 197.395 318.39 194.259 315.979 191.148C313.626 187.993 311.241 184.863 308.918 181.686L305.447 176.91C304.317 175.297 303.162 173.704 302.053 172.075C303.326 173.579 304.552 175.119 305.803 176.639L309.476 181.261C311.915 184.35 314.293 187.485 316.703 190.595C319.054 193.751 321.44 196.879 323.762 200.058C326.086 203.236 328.397 206.422 330.628 209.669Z" fill="#AA7599"/>
<g opacity="0.34">
<path d="M215.414 107.289L212.654 105.889L209.938 107.372L210.415 104.313L208.166 102.184L211.221 101.693L212.548 98.8955L213.959 101.651L217.027 102.05L214.845 104.245L215.414 107.289Z" fill="#2B1F5D"/>
<path d="M245.036 103.946L243.633 103.236L242.252 103.989L242.494 102.433L241.351 101.351L242.904 101.102L243.579 99.6797L244.296 101.081L245.856 101.283L244.746 102.399L245.036 103.946Z" fill="#2B1F5D"/>
<path d="M229.198 133.474L227.795 132.762L226.414 133.516L226.656 131.96L225.513 130.878L227.066 130.628L227.741 129.206L228.459 130.607L230.018 130.809L228.908 131.926L229.198 133.474Z" fill="#2B1F5D"/>
<path d="M218.438 142.141L216.809 141.315L215.206 142.191L215.487 140.384L214.16 139.128L215.964 138.837L216.747 137.186L217.579 138.813L219.391 139.049L218.102 140.345L218.438 142.141Z" fill="#2B1F5D"/>
</g>
<path opacity="0.26" d="M250.993 190.438C241.416 179.989 233.686 167.98 225.696 156.321C217.057 143.716 206.877 132.516 199.061 119.298C193.14 109.287 187.8 98.9002 181.831 88.917C181.981 125.25 227.116 167.686 232.244 172.389C232.23 172.4 232.216 172.408 232.204 172.418C232.224 172.416 232.244 172.41 232.264 172.408C232.56 172.68 232.726 172.828 232.726 172.828C244.854 202.234 258.11 207.073 265.591 202.793C260.027 199.65 255.125 194.946 250.993 190.438Z" fill="white"/>
<path opacity="0.21" d="M388 226.65C387.653 224.977 386.855 222.913 385.732 220.585C385.434 221.225 385.095 221.848 384.708 222.45C382.105 226.507 377.791 227.193 373.305 226.802C366.609 226.22 359.485 226.121 353.333 223.118C347.956 220.493 343.147 216.372 339.786 211.436C339.722 211.342 339.657 211.24 339.591 211.138C339.547 211.126 339.507 211.118 339.462 211.105C334.35 209.591 329.13 205.62 324.95 201.523C324.095 201.211 323.33 200.632 322.805 199.805C322.506 199.335 322.223 198.843 321.936 198.359C321.772 198.174 321.603 197.988 321.445 197.805C317.15 192.859 314.42 186.49 310.808 181.034C305.9 173.616 299.722 167.806 291.988 163.389C278.941 155.937 263.916 152.918 250.224 146.867C250.433 147.281 250.636 147.698 250.855 148.109C259.819 152.401 280.977 161.413 294.487 167.361C301.355 177.085 312.276 195.679 312.276 195.679C316.85 225.486 326.496 225.849 330.542 225.869C334.273 225.889 331.198 212.106 330.695 209.959C332.161 211.812 333.037 212.922 333.037 212.922C347.576 241.535 359.398 230.507 359.398 230.507C359.387 230.466 359.373 230.425 359.361 230.384C366.843 237.103 371.715 237.247 375.918 237.635C382.049 238.202 381.216 233.297 380.852 231.879C383.532 232.171 385.711 231.771 387.22 230.716C387.9 230.241 388.202 229.425 388.204 228.346C388.275 228.17 388.342 227.984 388.404 227.777C388.404 227.777 388.258 227.354 388 226.65Z" fill="white"/>
<path d="M223.62 16.5073C223.501 27.7251 221.496 38.2609 217.659 47.9227C211.157 46.8939 185.134 43.4929 188.26 55.5488C191.206 66.9112 210.317 54.4795 216.891 49.7989C216.29 51.2081 215.65 52.5987 214.968 53.9674C212.634 58.6619 209.814 63.1206 206.544 67.3447C200.134 66.3262 173.957 62.8733 177.092 74.9615C179.826 85.5054 196.479 75.5604 204.118 70.3318C199.911 75.2829 195.045 79.8849 189.522 84.1043C180.366 86.6094 162.278 92.8183 168.733 101.434C175.839 110.919 188.991 91.6842 193.163 85.0326C197.021 81.9484 200.561 78.6804 203.769 75.2274C199.486 83.5899 196.071 93.8853 204.204 95.3384C215.929 97.433 212.332 74.1188 210.865 66.5355C213.43 62.9461 215.696 59.2018 217.638 55.2968C218.852 52.8554 219.937 50.3515 220.907 47.7921C219.679 57.4273 219.745 69.5688 228.303 67.9365C240.345 65.6407 227.629 43.9958 223.921 38.1106C225.62 31.2439 226.524 24.0374 226.603 16.5373C226.854 -7.33409 218.857 -25.6047 218.516 -26.3711L215.793 -25.1573C215.87 -24.9746 223.864 -6.7191 223.62 16.5073Z" fill="white"/>
<path d="M191.372 382.022C191.372 382.022 187.412 365.802 191.458 365.823C195.503 365.844 205.15 366.207 209.723 396.013C209.723 396.013 227.489 426.264 231.953 429.776C236.415 433.29 193.795 406.521 191.372 382.022Z" fill="#DC98C6"/>
<path d="M162.6 361.185C162.6 361.185 174.422 350.157 188.961 378.77C188.961 378.77 222.906 421.754 224.023 422.633C225.138 423.51 173.169 398.873 162.6 361.185Z" fill="#DC98C6"/>
<path d="M141.256 360.199C141.256 360.199 138.926 353.396 146.081 354.056C153.235 354.717 162.324 354.64 182.94 387.584L224.023 422.631C224.023 422.631 182.956 455.373 141.256 360.199Z" fill="#DC98C6"/>
<path d="M309.679 657.228L290.73 532.516C290.73 532.516 260.289 497.714 246.96 487.674C233.63 477.634 171.108 423.908 165.492 414.969C159.875 406.029 127.782 365.859 134.779 360.974C141.777 356.089 163.078 365.174 182.54 392.691C182.54 392.691 210.056 415.703 216.013 419.037C221.971 422.37 273.024 443.575 275.315 445.83C277.606 448.086 247.311 397.582 254.069 390.702C260.827 383.821 275.755 386.081 289.275 418.863C289.275 418.863 348.129 471.511 339.267 511.527L388.405 647.8L309.679 657.228Z" fill="#F9BEE6"/>
<path d="M275.315 445.831C275.991 447.795 276.568 449.78 277.132 451.768C277.704 453.754 278.208 455.756 278.711 457.759C279.194 459.767 279.675 461.775 280.087 463.801L280.702 466.843C280.876 467.866 281.079 468.881 281.226 469.912C280.88 468.936 280.59 467.944 280.272 466.96L279.41 463.983C278.837 461.995 278.333 459.991 277.83 457.984C277.349 455.973 276.867 453.961 276.455 451.934C276.031 449.909 275.624 447.881 275.315 445.831Z" fill="#AA7599"/>
<path d="M258.486 411.512C258.486 411.512 265.361 410.365 264.789 405.777C264.216 401.189 257.341 388 252.758 393.161C252.758 393.161 251.611 397.175 258.486 411.512Z" fill="#2B1F5D"/>
<path d="M133.594 363.915C133.594 363.915 137.605 375.384 140.469 378.825C143.333 382.265 146.198 375.958 143.333 370.223C140.469 364.488 135.314 358.18 133.594 363.915Z" fill="#2B1F5D"/>
<path d="M141.256 360.199C143.406 360.818 145.515 361.589 147.583 362.451C148.624 362.867 149.637 363.348 150.667 363.793L153.691 365.267C157.676 367.333 161.491 369.73 165.093 372.42C165.979 373.113 166.908 373.752 167.745 374.506L170.296 376.716C171.135 377.466 171.907 378.287 172.717 379.07L173.918 380.257L175.035 381.524L177.254 384.073L179.275 386.785C179.607 387.24 179.96 387.682 180.274 388.149L181.158 389.593L182.922 392.479L182.81 392.349C188.366 396.768 193.957 401.145 199.475 405.613C205.015 410.054 210.535 414.518 216.013 419.038C210.333 414.776 204.696 410.46 199.078 406.119C193.439 401.805 187.871 397.399 182.27 393.038L182.211 392.991L182.158 392.906L180.399 390.075L179.52 388.66C179.205 388.203 178.866 387.762 178.541 387.312L176.568 384.626L174.395 382.096L173.301 380.837L172.123 379.656C171.329 378.878 170.571 378.061 169.748 377.313L167.239 375.109C166.419 374.356 165.495 373.727 164.635 373.02C161.124 370.283 157.386 367.823 153.467 365.688C149.552 363.547 145.483 361.67 141.256 360.199Z" fill="#AA7599"/>
<path d="M162.6 361.185C165.003 363.299 167.289 365.545 169.55 367.813C171.784 370.108 173.971 372.452 176.062 374.885C178.152 377.319 180.158 379.83 181.994 382.472C183.817 385.117 185.567 387.844 186.856 390.833L186.753 390.685C190.877 394.667 195.044 398.607 199.133 402.625C203.238 406.628 207.328 410.648 211.357 414.73C207.083 410.905 202.868 407.018 198.669 403.114C194.455 399.225 190.316 395.258 186.136 391.333L186.073 391.273L186.034 391.184C184.749 388.302 183.096 385.576 181.302 382.951C179.52 380.313 177.518 377.828 175.507 375.351C173.494 372.875 171.378 370.48 169.214 368.13C167.068 365.763 164.857 363.454 162.6 361.185Z" fill="#AA7599"/>
<path d="M182.539 392.691C181.92 393.785 181.108 394.679 180.25 395.524C179.372 396.349 178.448 397.125 177.33 397.698C177.948 396.602 178.76 395.71 179.619 394.866C180.498 394.043 181.422 393.267 182.539 392.691Z" fill="#AA7599"/>
<path d="M282.505 422.314C283.583 421.474 284.767 420.893 285.976 420.373C287.196 419.878 288.443 419.446 289.797 419.273C288.721 420.114 287.537 420.695 286.327 421.216C285.106 421.707 283.859 422.139 282.505 422.314Z" fill="#AA7599"/>
<path d="M191.372 382.021C193.902 385.041 196.354 388.121 198.793 391.208C201.235 394.296 203.61 397.432 206.022 400.542C208.374 403.696 210.759 406.827 213.082 410.004L216.553 414.78C217.683 416.393 218.838 417.986 219.947 419.615C218.674 418.111 217.448 416.571 216.197 415.051L212.525 410.428C210.086 407.339 207.708 404.204 205.297 401.093C202.946 397.937 200.56 394.808 198.239 391.63C195.914 388.455 193.603 385.269 191.372 382.021Z" fill="#AA7599"/>
<path opacity="0.34" d="M313.038 468.508C313.371 471.08 312.651 473.777 310.809 475.881C307.408 479.767 301.503 480.158 297.62 476.754C295.518 474.91 294.449 472.332 294.442 469.738C292.793 471.977 291.891 474.785 292.088 477.778C292.532 484.506 298.341 489.599 305.061 489.154C311.782 488.71 316.871 482.895 316.426 476.169C316.23 473.176 314.966 470.51 313.038 468.508Z" fill="#2B1F5D"/>
<path opacity="0.26" d="M260.283 387.864C267.348 389.284 271.25 397.483 274.103 403.289C275.983 407.113 277.493 411.298 280.064 414.726C283.603 419.445 288.328 423.343 292.652 427.308C301.014 434.977 308.823 443.048 315.166 452.502C326.933 470.039 332.928 490.452 338.991 510.465C339.088 510.786 339.187 511.108 339.284 511.428C347.568 473.535 295.296 424.385 289.754 419.301C289.768 419.29 289.782 419.282 289.794 419.272C289.774 419.274 289.754 419.28 289.734 419.282C289.438 419.01 289.272 418.862 289.272 418.862C278.671 393.158 267.206 386.223 259.491 387.742C259.754 387.776 260.016 387.81 260.283 387.864Z" fill="white"/>
<path opacity="0.26" d="M196.84 372.116C202.482 378.565 205.537 386.35 208.472 394.291C211.463 402.379 214.556 411.715 222.152 416.674C222.279 416.758 222.41 416.821 222.539 416.901C216.359 407.313 209.723 396.014 209.723 396.014C205.15 366.208 195.503 365.845 191.458 365.824C189.338 365.813 189.416 370.253 189.969 374.485C190.307 371.39 194.643 369.603 196.84 372.116Z" fill="white"/>
<path opacity="0.26" d="M152.192 359.658C158.034 361.379 163.16 364.616 167.937 368.308C168.656 367.549 169.618 367.056 170.688 367.2C178.894 368.3 184.254 373.355 189.205 379.078C189.051 378.883 188.961 378.769 188.961 378.769C174.422 350.156 162.6 361.184 162.6 361.184C162.612 361.226 162.625 361.266 162.637 361.308C155.156 354.587 150.283 354.444 146.081 354.056C141.324 353.617 140.763 356.466 140.917 358.429C144.679 358.223 148.456 358.558 152.192 359.658Z" fill="white"/>
<path d="M312.565 543.199C301.921 538.904 292.629 533.061 284.853 525.796C288.257 519.972 301.2 496.394 288.549 494.884C276.623 493.46 281.343 516.341 283.353 524.362C282.235 523.263 281.148 522.134 280.097 520.973C276.495 516.994 273.296 512.639 270.491 507.941C273.852 502.202 286.902 478.497 274.214 476.982C263.148 475.661 266.416 495.268 268.549 504.511C265.399 498.648 262.83 492.287 260.868 485.441C261.894 475.765 262.722 456.181 252.106 459.132C240.418 462.38 253.842 482.106 258.626 488.571C260.126 493.403 261.92 498.003 264.016 502.352C257.644 495.147 249.108 488.047 244.691 495.269C238.323 505.682 261.879 510.941 269.653 512.368C272.116 516.154 274.839 519.714 277.836 523.025C279.709 525.094 281.692 527.064 283.769 528.942C275.046 524.177 263.452 519.714 261.817 528.493C259.515 540.847 284.881 536.775 291.87 535.43C297.778 539.612 304.309 543.161 311.426 546.034C334.079 555.175 354.469 554.351 355.326 554.311L355.186 551.258C354.98 551.268 334.606 552.094 312.565 543.199Z" fill="white"/>
</g>
<defs>
<clipPath id="clip0_41_390">
<rect width="522" height="578" fill="white"/>
</clipPath>
</defs>
</svg>

