<svg width="522" height="522" viewBox="0 0 522 522" fill="none" xmlns="http://www.w3.org/2000/svg">
<path d="M261 521C404.594 521 521 404.594 521 261C521 117.406 404.594 1 261 1C117.406 1 1 117.406 1 261C1 404.594 117.406 521 261 521Z" stroke="#3F2992" stroke-width="1.016" stroke-miterlimit="10" stroke-dasharray="4.35 4.35"/>
<mask id="mask0_41_44" style="mask-type:alpha" maskUnits="userSpaceOnUse" x="16" y="16" width="490" height="490">
<path d="M261.004 505.227C395.887 505.227 505.231 395.883 505.231 261C505.231 126.117 395.887 16.7729 261.004 16.7729C126.121 16.7729 16.7769 126.117 16.7769 261C16.7769 395.883 126.121 505.227 261.004 505.227Z" fill="url(#paint0_linear_41_44)"/>
</mask>
<g mask="url(#mask0_41_44)">
<path d="M159.828 290.438C163.431 299.663 168.617 308.303 174.827 316.124C181.018 323.972 188.297 330.983 196.312 336.995C204.333 342.999 213.11 348.011 222.383 351.744C231.635 355.504 241.387 358.046 251.254 358.902C241.766 356.102 232.62 352.641 223.896 348.36C215.19 344.053 206.902 338.993 199.159 333.193C191.41 327.4 184.223 320.87 177.638 313.728C171.073 306.562 165.18 298.758 159.828 290.438Z" fill="#FDCB6A"/>
<path opacity="0.4" d="M81.2529 268.199C81.2529 152.271 160.773 58.292 258.866 58.292C356.959 58.292 436.479 152.27 436.479 268.199C436.479 384.128 258.867 478.105 258.867 478.105C258.867 478.105 81.2529 384.127 81.2529 268.199Z" fill="white"/>
<path d="M118.612 258.123C118.612 258.123 137.217 243.983 141.682 245.472C146.147 246.96 153.589 258.867 129.775 270.03C129.775 270.03 111.17 265.565 118.612 258.123Z" fill="#F9BEE6"/>
<path opacity="0.19" d="M143.456 246.521C143.806 256.818 136.722 264.208 128.591 269.711C129.324 269.922 129.775 270.03 129.775 270.03C150.566 260.284 147.533 249.973 143.456 246.521Z" fill="white"/>
<path d="M95.542 255.891C95.542 255.891 118.612 228.356 123.821 226.867C129.03 225.379 142.426 213.471 144.658 214.96C146.891 216.448 161.03 230.588 127.542 248.449C127.542 248.449 120.844 274.496 100.751 279.705L95.542 255.891Z" fill="#F9BEE6"/>
<path opacity="0.19" d="M137.233 231.788C132.116 237.259 125.607 241.695 121.303 247.876C114.397 257.794 110.639 269.679 99.731 275.045L100.75 279.704C120.843 274.495 127.541 248.448 127.541 248.448C155.089 233.756 150.408 221.583 146.638 216.898C144.458 222.393 141.383 227.351 137.233 231.788Z" fill="white"/>
<path d="M90.3599 234.197C90.3599 234.197 111.165 204.913 116.24 203.015C121.314 201.117 133.72 188.181 136.064 189.487C138.408 190.793 153.628 203.763 121.667 224.232C121.667 224.232 117.063 250.729 97.4489 257.521L90.3599 234.197Z" fill="#F9BEE6"/>
<path opacity="0.19" d="M139.258 192.536C138.744 193.094 138.227 193.648 137.714 194.206C131.657 205.298 122.259 213.986 115.552 224.992C110.526 233.241 107.596 243.928 101.095 251.136C101.545 252.499 101.951 253.883 102.303 255.28C117.836 246.24 121.666 224.231 121.666 224.231C145.721 208.827 143.051 197.67 139.258 192.536Z" fill="white"/>
<path d="M156.566 500.731C156.566 500.731 166.24 425.567 158.054 406.962C149.868 388.357 85.8669 337.752 85.8669 337.752C85.8669 337.752 83.6339 327.333 86.6109 322.124C89.5879 316.915 136.472 282.682 136.472 282.682C136.472 282.682 159.542 305.752 169.961 309.473C180.38 313.194 225.031 346.683 221.311 383.893C217.59 421.103 226.52 503.709 226.52 503.709L156.566 500.731Z" fill="#F9BEE6"/>
<path opacity="0.19" d="M138.92 299.378C139.541 301.34 140.46 303.246 141.754 305.063C144.754 309.276 148.997 312.373 153.608 314.759C154.461 314.199 155.565 314.097 156.696 314.889C157.694 315.588 158.727 316.212 159.779 316.798C160.433 316.669 161.156 316.739 161.905 317.121C162.241 317.319 162.59 317.489 162.935 317.669C163.758 317.324 164.714 317.311 165.626 317.865C165.772 317.954 165.922 318.03 166.069 318.116C166.396 318.111 166.737 318.154 167.093 318.286C167.838 318.562 168.588 318.798 169.338 319.034C170.22 318.02 171.628 317.585 173.069 318.609C184.29 326.583 192.96 337.305 199.483 349.369C210.939 370.556 216.477 394.482 220.551 418.119C220.243 405.215 220.385 393.148 221.311 383.892C225.032 346.682 180.38 313.193 169.961 309.472C162.658 306.864 149.149 294.757 141.716 287.744C141.246 291.73 140.336 295.674 138.92 299.378Z" fill="white"/>
<path opacity="0.1" d="M220.065 475.314C198.698 505.096 175.714 443.226 169.928 428.295C164.709 414.828 159.346 398.567 148.803 388.193C147.382 386.795 141.197 382.71 138.867 383.825C148.127 392.93 155.6 401.385 158.055 406.963C166.241 425.568 156.567 500.732 156.567 500.732L223.397 503.576C222.86 493.193 222.769 482.783 221.965 472.423C221.363 473.405 220.739 474.374 220.065 475.314Z" fill="#3F2992"/>
<path d="M91.8209 318.403C91.8209 318.403 69.4949 263.332 70.2389 255.89C70.9829 248.448 69.4949 177.005 76.1929 179.238C82.8909 181.471 94.0539 181.471 93.3099 217.936L100.008 264.076L120.845 298.309C120.845 298.309 111.914 332.543 91.8209 318.403Z" fill="#F9BEE6"/>
<path opacity="0.19" d="M87.4587 223.357C87.7477 237.579 91.9907 251.515 98.5647 264.053C102.216 271.016 106.253 278.087 111.481 283.996C112.115 284.712 112.762 285.415 113.418 286.109L100.007 264.076L93.3087 217.936C94.0527 181.47 82.8897 181.47 76.1917 179.238C75.5267 179.016 74.9437 179.531 74.4297 180.628C88.9387 185.68 87.2097 211.105 87.4587 223.357Z" fill="white"/>
<path d="M85.849 336.937C85.849 336.937 70.422 285.941 73.928 267.053C73.928 267.053 94.139 320.666 95.541 331.054C96.944 341.442 88.654 342.603 85.849 336.937Z" fill="#F9BEE6"/>
<path d="M152.101 358.59C152.101 358.59 138.706 334.776 135.729 325.845C132.752 316.915 84.38 275.24 99.263 261.1C114.146 246.96 130.519 272.263 140.938 285.658C151.357 299.054 169.962 309.472 169.962 309.472C169.962 309.472 197.497 377.194 152.101 358.59Z" fill="#F9BEE6"/>
<path opacity="0.19" d="M137.904 288.756C142.775 295.968 149.189 302.416 155.825 308.005C160.243 311.725 166.604 316.647 172.972 317.924C171.34 312.869 169.961 309.473 169.961 309.473C169.961 309.473 151.356 299.054 140.937 285.659C133.576 276.195 123.243 260.789 112.562 257.548C123.853 263.17 132.061 280.105 137.904 288.756Z" fill="white"/>
<g opacity="0.57">
<path d="M92.225 318.174L75.135 271.362C75.048 271.124 74.785 271.002 74.547 271.089C74.31 271.176 74.187 271.439 74.274 271.677L91.39 318.562L91.462 318.691C91.586 318.845 94.51 322.482 97.499 324.725C97.581 324.787 97.678 324.816 97.774 324.816C97.913 324.816 98.051 324.752 98.141 324.633C98.292 324.431 98.251 324.143 98.049 323.991C95.353 321.968 92.613 318.65 92.225 318.174Z" fill="#3F2992"/>
<path d="M140.618 336.837L136.153 325.675L136.052 325.521C135.65 325.119 95.8729 285.122 96.8119 267.228C96.9419 264.764 97.8629 262.821 99.5509 261.455L99.6569 261.332C99.6719 261.308 100.431 260.072 101.931 258.836L101.96 258.965L102.538 258.469C102.554 258.456 102.727 258.305 103.021 258.04C104.291 257.222 105.919 256.532 107.917 256.379C114.167 255.899 121.409 260.59 129.422 270.32C129.582 270.516 129.872 270.541 130.066 270.382C130.262 270.221 130.29 269.933 130.129 269.737C127.32 266.325 124.596 263.534 121.963 261.339C121.974 261.321 121.994 261.313 122.003 261.293L127.957 248.642C128.065 248.413 127.967 248.14 127.738 248.032C127.51 247.925 127.236 248.023 127.129 248.252L121.249 260.745C116.447 256.918 111.958 255.146 107.832 255.466C106.865 255.541 105.985 255.734 105.179 255.995C109.8 251.442 119.073 241.231 121.293 230.681C121.345 230.434 121.187 230.19 120.939 230.138C120.697 230.088 120.449 230.244 120.397 230.492C117.819 242.741 105.441 254.598 102.549 257.231C102.537 257.239 102.527 257.247 102.515 257.254L95.9899 228.253C95.9349 228.007 95.6879 227.851 95.4419 227.907C95.1949 227.963 95.0389 228.208 95.0949 228.455L101.703 257.826C100.043 259.093 99.1239 260.456 98.9129 260.793C97.0539 262.327 96.0389 264.475 95.8979 267.18C95.4939 274.888 102.03 287.167 115.325 303.676C124.77 315.404 134.443 325.199 135.338 326.101L139.769 337.177C139.841 337.356 140.012 337.465 140.194 337.465C140.25 337.465 140.309 337.454 140.364 337.432C140.599 337.339 140.712 337.072 140.618 336.837Z" fill="#3F2992"/>
</g>
<g opacity="0.63">
<path d="M204.938 441.653C204.857 441.653 204.776 441.632 204.703 441.588C204.486 441.458 204.415 441.176 204.545 440.96C211.017 430.174 201.678 416.29 201.583 416.152C201.441 415.944 201.494 415.658 201.703 415.515C201.911 415.374 202.196 415.425 202.34 415.635C202.438 415.779 212.102 430.148 205.331 441.432C205.245 441.574 205.093 441.653 204.938 441.653Z" fill="#3F2992"/>
</g>
<path d="M96.8119 267.229C96.8119 267.229 106.705 287.147 116.379 280.449C126.053 273.751 110.425 256.635 110.425 256.635C110.425 256.635 95.1049 254.008 96.8119 267.229Z" fill="#13003B"/>
<path opacity="0.34" d="M106.79 261.503C111.537 265.543 116.475 272.124 118.204 278.672C123.664 271.145 110.426 256.635 110.426 256.635C110.426 256.635 103.836 255.505 99.7808 258.458C102.375 258.2 104.868 259.867 106.79 261.503Z" fill="white"/>
<path d="M71.7269 203.797C71.7269 203.797 83.6339 203.053 76.1919 179.238C76.1919 179.238 69.4949 175.517 71.7269 203.797Z" fill="#13003B"/>
<path opacity="0.34" d="M76.1931 179.238C76.1931 179.238 75.8271 179.039 75.2971 179.087C76.6741 186.78 77.0441 194.518 75.2661 202.161C78.0461 199.759 80.7551 193.836 76.1931 179.238Z" fill="white"/>
<path d="M119.359 200.576C119.359 200.576 126.185 207.354 136.552 190.114C136.552 190.114 135.208 184.084 119.359 200.576Z" fill="#13003B"/>
<path d="M129.153 224.695C129.153 224.695 135.337 230.836 144.73 215.217C144.73 215.217 143.511 209.754 129.153 224.695Z" fill="#13003B"/>
<path d="M401.388 258.123C401.388 258.123 382.783 243.983 378.318 245.472C373.853 246.96 366.411 258.867 390.225 270.03C390.225 270.03 408.83 265.565 401.388 258.123Z" fill="#F9BEE6"/>
<path opacity="0.19" d="M376.544 246.521C376.194 256.818 383.278 264.208 391.409 269.711C390.676 269.922 390.225 270.03 390.225 270.03C369.434 260.284 372.467 249.973 376.544 246.521Z" fill="white"/>
<path d="M424.458 255.891C424.458 255.891 401.388 228.356 396.179 226.867C390.97 225.379 377.574 213.471 375.341 214.96C373.108 216.448 358.969 230.588 392.458 248.449C392.458 248.449 399.156 274.496 419.249 279.705L424.458 255.891Z" fill="#F9BEE6"/>
<path opacity="0.19" d="M382.767 231.788C387.884 237.259 394.392 241.695 398.696 247.876C405.602 257.794 409.36 269.679 420.268 275.045L419.249 279.704C399.156 274.495 392.458 248.448 392.458 248.448C364.91 233.756 369.591 221.583 373.361 216.898C375.542 222.393 378.617 227.351 382.767 231.788Z" fill="white"/>
<path d="M429.64 234.197C429.64 234.197 408.835 204.913 403.76 203.015C398.685 201.117 386.28 188.181 383.936 189.487C381.592 190.793 366.372 203.763 398.333 224.232C398.333 224.232 402.937 250.729 422.552 257.521L429.64 234.197Z" fill="#F9BEE6"/>
<path opacity="0.19" d="M380.742 192.536C381.256 193.094 381.773 193.648 382.286 194.206C388.343 205.298 397.741 213.986 404.448 224.992C409.474 233.241 412.404 243.928 418.905 251.136C418.455 252.499 418.049 253.883 417.697 255.28C402.164 246.24 398.334 224.231 398.334 224.231C374.279 208.827 376.949 197.67 380.742 192.536Z" fill="white"/>
<path d="M363.434 500.731C363.434 500.731 353.76 425.567 361.946 406.962C370.132 388.357 434.133 337.752 434.133 337.752C434.133 337.752 436.366 327.333 433.389 322.124C430.412 316.915 383.528 282.682 383.528 282.682C383.528 282.682 360.458 305.752 350.039 309.473C339.62 313.194 294.968 346.683 298.689 383.893C302.41 421.103 293.48 503.709 293.48 503.709L363.434 500.731Z" fill="#F9BEE6"/>
<path opacity="0.19" d="M381.08 299.378C380.459 301.34 379.54 303.246 378.246 305.063C375.246 309.276 371.003 312.373 366.392 314.759C365.539 314.199 364.435 314.097 363.304 314.889C362.306 315.588 361.273 316.212 360.221 316.798C359.567 316.669 358.844 316.739 358.095 317.121C357.759 317.319 357.41 317.489 357.065 317.669C356.242 317.324 355.286 317.311 354.374 317.865C354.228 317.954 354.078 318.03 353.931 318.116C353.604 318.111 353.263 318.154 352.907 318.286C352.162 318.562 351.412 318.798 350.662 319.034C349.779 318.02 348.372 317.585 346.931 318.609C335.709 326.583 327.04 337.305 320.517 349.369C309.061 370.556 303.522 394.482 299.449 418.119C299.757 405.215 299.615 393.148 298.689 383.892C294.968 346.682 339.62 313.193 350.039 309.472C357.342 306.864 370.851 294.757 378.284 287.744C378.754 291.73 379.664 295.674 381.08 299.378Z" fill="white"/>
<path opacity="0.1" d="M299.935 475.314C321.302 505.096 344.286 443.226 350.072 428.295C355.29 414.828 360.654 398.567 371.197 388.193C372.618 386.795 378.803 382.71 381.133 383.825C371.873 392.93 364.4 401.385 361.945 406.963C353.759 425.568 363.433 500.732 363.433 500.732L296.603 503.576C297.141 493.193 297.231 482.783 298.035 472.423C298.637 473.405 299.261 474.374 299.935 475.314Z" fill="#3F2992"/>
<path d="M428.179 318.403C428.179 318.403 450.505 263.332 449.761 255.89C449.017 248.448 450.505 177.005 443.807 179.238C437.109 181.471 425.946 181.471 426.691 217.936L419.993 264.076L399.155 298.309C399.155 298.309 408.086 332.543 428.179 318.403Z" fill="#F9BEE6"/>
<path opacity="0.19" d="M432.541 223.357C432.252 237.579 428.009 251.515 421.435 264.053C417.784 271.016 413.747 278.087 408.519 283.996C407.885 284.712 407.238 285.415 406.582 286.109L419.993 264.076L426.691 217.936C425.947 181.47 437.11 181.47 443.807 179.238C444.472 179.016 445.056 179.531 445.569 180.628C431.061 185.68 432.79 211.105 432.541 223.357Z" fill="white"/>
<path d="M434.151 336.937C434.151 336.937 449.578 285.941 446.072 267.053C446.072 267.053 425.861 320.666 424.459 331.054C423.056 341.442 431.346 342.603 434.151 336.937Z" fill="#F9BEE6"/>
<path d="M367.899 358.59C367.899 358.59 381.295 334.776 384.271 325.845C387.248 316.915 435.621 275.24 420.737 261.1C405.853 246.96 389.481 272.263 379.062 285.658C368.643 299.054 350.038 309.472 350.038 309.472C350.038 309.472 322.503 377.194 367.899 358.59Z" fill="#F9BEE6"/>
<path opacity="0.19" d="M382.096 288.756C377.225 295.968 370.811 302.416 364.174 308.005C359.756 311.725 353.395 316.647 347.027 317.924C348.659 312.869 350.038 309.473 350.038 309.473C350.038 309.473 368.643 299.054 379.062 285.659C386.423 276.195 396.756 260.789 407.437 257.548C396.147 263.17 387.939 280.105 382.096 288.756Z" fill="white"/>
<g opacity="0.57">
<path d="M427.775 318.174L444.865 271.362C444.952 271.124 445.215 271.002 445.453 271.089C445.69 271.176 445.813 271.439 445.726 271.677L428.61 318.562L428.537 318.691C428.413 318.845 425.49 322.482 422.5 324.725C422.418 324.787 422.321 324.816 422.225 324.816C422.086 324.816 421.948 324.752 421.858 324.633C421.707 324.431 421.748 324.143 421.95 323.991C424.647 321.968 427.387 318.65 427.775 318.174Z" fill="#3F2992"/>
<path d="M379.382 336.837L383.847 325.675L383.948 325.521C384.35 325.119 424.127 285.122 423.188 267.228C423.058 264.764 422.137 262.821 420.449 261.455L420.343 261.332C420.329 261.308 419.569 260.072 418.069 258.836L418.04 258.965L417.462 258.469C417.446 258.456 417.273 258.305 416.979 258.04C415.709 257.222 414.081 256.532 412.083 256.379C405.833 255.899 398.591 260.59 390.578 270.32C390.418 270.516 390.128 270.541 389.934 270.382C389.738 270.221 389.71 269.933 389.871 269.737C392.68 266.325 395.404 263.534 398.037 261.339C398.026 261.321 398.006 261.313 397.997 261.293L392.043 248.642C391.935 248.413 392.033 248.14 392.262 248.032C392.49 247.925 392.764 248.023 392.871 248.252L398.751 260.745C403.553 256.918 408.042 255.146 412.168 255.466C413.135 255.541 414.015 255.734 414.821 255.995C410.2 251.442 400.927 241.231 398.706 230.681C398.654 230.434 398.813 230.19 399.06 230.138C399.302 230.088 399.55 230.244 399.602 230.492C402.18 242.741 414.558 254.598 417.45 257.231C417.462 257.239 417.473 257.247 417.484 257.254L424.009 228.253C424.065 228.007 424.311 227.851 424.557 227.907C424.804 227.963 424.96 228.208 424.904 228.455L418.296 257.826C419.955 259.093 420.875 260.456 421.086 260.793C422.945 262.327 423.96 264.475 424.101 267.18C424.506 274.888 417.969 287.167 404.674 303.676C395.229 315.404 385.556 325.199 384.661 326.101L380.23 337.177C380.158 337.356 379.987 337.465 379.805 337.465C379.749 337.465 379.69 337.454 379.635 337.432C379.401 337.339 379.287 337.072 379.382 336.837Z" fill="#3F2992"/>
</g>
<g opacity="0.63">
<path d="M315.062 441.653C315.143 441.653 315.224 441.632 315.297 441.588C315.514 441.458 315.585 441.176 315.455 440.96C308.983 430.174 318.322 416.29 318.417 416.152C318.559 415.944 318.506 415.658 318.297 415.515C318.089 415.374 317.804 415.425 317.66 415.635C317.562 415.779 307.898 430.148 314.669 441.432C314.755 441.574 314.907 441.653 315.062 441.653Z" fill="#3F2992"/>
</g>
<path d="M423.188 267.229C423.188 267.229 413.295 287.147 403.621 280.449C393.947 273.751 409.575 256.635 409.575 256.635C409.575 256.635 424.895 254.008 423.188 267.229Z" fill="#13003B"/>
<path opacity="0.34" d="M413.21 261.503C408.464 265.543 403.525 272.124 401.796 278.672C396.336 271.145 409.574 256.635 409.574 256.635C409.574 256.635 416.164 255.505 420.219 258.458C417.625 258.2 415.132 259.867 413.21 261.503Z" fill="white"/>
<path d="M448.272 203.797C448.272 203.797 436.365 203.053 443.807 179.238C443.807 179.238 450.505 175.517 448.272 203.797Z" fill="#13003B"/>
<path opacity="0.34" d="M443.807 179.238C443.807 179.238 444.173 179.039 444.703 179.087C443.326 186.78 442.957 194.518 444.734 202.161C441.954 199.759 439.245 193.836 443.807 179.238Z" fill="white"/>
<path d="M400.641 200.576C400.641 200.576 393.815 207.354 383.448 190.114C383.448 190.114 384.792 184.084 400.641 200.576Z" fill="#13003B"/>
<path d="M390.847 224.695C390.847 224.695 384.663 230.836 375.27 215.217C375.27 215.217 376.489 209.754 390.847 224.695Z" fill="#13003B"/>
<path d="M375.562 193.844C374.562 183.469 371.791 173.232 367.748 163.531C363.732 153.807 358.374 144.62 351.984 136.231C345.586 127.849 338.137 120.255 329.819 113.813C321.53 107.351 312.385 101.977 302.64 98.2793C311.443 103.837 319.71 109.967 327.315 116.806C334.895 123.666 341.834 131.169 348.01 139.264C354.193 147.353 359.597 156.029 364.214 165.15C368.804 174.29 372.531 183.884 375.562 193.844Z" fill="#FDCB6A"/>
<path d="M367.743 210.339C367.743 283.215 317.755 342.292 256.091 342.292C194.427 342.292 144.439 283.215 144.439 210.339C144.439 137.463 256.09 78.3872 256.09 78.3872C256.09 78.3872 367.743 137.464 367.743 210.339Z" fill="#FDCB6A"/>
<path opacity="0.1" d="M274.262 265.045C298.197 255.453 309.824 228.273 300.231 204.338C290.639 180.403 263.459 168.776 239.524 178.368C215.588 187.961 203.961 215.141 213.554 239.076C223.147 263.011 250.327 274.638 274.262 265.045Z" fill="white"/>
<g opacity="0.62">
<path d="M373.915 221.708L233.928 220.92L373.624 229.965L234.043 219.3L372.744 238.236L234.279 217.649L371.27 246.457L234.637 215.993L369.205 254.567L235.117 214.359L366.563 262.509L235.711 212.765L363.359 270.234L236.414 211.229L359.615 277.697L237.218 209.76L355.356 284.859L238.116 208.365L350.605 291.688L239.103 207.048L345.389 298.153L240.175 205.812L339.731 304.226L241.33 204.658L333.657 309.883L242.566 203.586L327.192 315.098L243.883 202.599L320.364 319.848L245.278 201.701L313.201 324.106L246.747 200.898L305.739 327.848L248.283 200.195L298.016 331.05L249.876 199.6L290.074 333.692L251.511 199.121L281.967 335.755L253.165 198.763L273.749 337.229L254.817 198.527L265.481 338.108L256.435 198.413L257.223 338.399L258.012 198.413L248.966 338.108L259.631 198.527L240.695 337.228L261.282 198.763L232.474 335.754L262.938 199.122L224.365 333.69L264.573 199.601L216.422 331.047L266.166 200.196L208.697 327.843L267.703 200.898L201.235 324.1L269.172 201.702L194.072 319.84L270.566 202.601L187.243 315.09L271.883 203.588L180.779 309.873L273.119 204.66L174.705 304.215L274.274 205.814L169.048 298.141L275.345 207.051L163.833 291.677L276.332 208.367L159.084 284.848L277.23 209.762L154.826 277.686L278.034 211.231L151.084 270.223L278.736 212.767L147.881 262.5L279.331 214.36L145.239 254.559L279.81 215.995L143.176 246.451L280.168 217.65L141.703 238.234L280.404 219.301L140.823 229.966L280.519 220.92L140.533 221.708L280.519 222.496L140.823 213.45L280.404 224.115L141.703 205.179L280.168 225.767L143.177 196.958L279.81 227.422L145.242 188.849L279.33 229.057L147.885 180.906L278.736 230.65L151.088 173.182L278.033 232.187L154.832 165.719L277.229 233.656L159.091 158.556L276.331 235.051L163.842 151.727L275.344 236.367L169.058 145.263L274.272 237.603L174.716 139.189L273.117 238.758L180.79 133.533L271.881 239.83L187.255 128.317L270.564 240.816L194.083 123.568L269.169 241.714L201.246 119.31L267.7 242.518L208.708 115.568L266.164 243.221L216.431 112.365L264.571 243.815L224.373 109.724L262.936 244.294L232.48 107.66L261.282 244.653L240.698 106.187L259.63 244.888L248.966 105.307L258.012 245.003L257.223 105.017L256.435 245.003L265.481 105.307L254.816 244.888L273.752 106.187L253.164 244.653L281.973 107.661L251.509 244.294L290.082 109.726L249.874 243.814L298.025 112.369L248.281 243.22L305.749 115.573L246.744 242.517L313.212 119.316L245.275 241.713L320.375 123.575L243.881 240.815L327.204 128.326L242.564 239.828L333.668 133.542L241.328 238.756L339.742 139.2L240.173 237.601L345.399 145.274L239.102 236.365L350.614 151.739L238.115 235.048L355.363 158.567L237.217 233.654L359.621 165.73L236.413 232.185L363.363 173.192L235.711 230.648L366.566 180.916L235.116 229.055L369.208 188.857L234.637 227.421L371.271 196.965L234.279 225.766L372.744 205.182L234.043 224.115L373.624 213.45L233.928 222.496L373.915 221.708Z" fill="white"/>
</g>
<g opacity="0.62">
<path d="M385.961 221.708L245.967 221.35L385.64 230.825L246.021 220.589L384.669 239.952L246.135 219.789L383.043 249.019L246.312 218.974L380.766 257.962L246.549 218.165L377.852 266.721L246.843 217.377L374.319 275.24L247.188 216.622L370.19 283.471L247.579 215.908L365.491 291.373L248.012 215.236L360.249 298.908L248.483 214.608L354.492 306.042L248.991 214.021L348.249 312.745L249.538 213.475L341.545 318.987L250.125 212.966L334.411 324.743L250.753 212.495L326.876 329.983L251.425 212.063L318.975 334.681L252.139 211.672L310.744 338.808L252.894 211.327L302.226 342.34L253.681 211.033L293.469 345.253L254.491 210.796L284.528 347.529L255.305 210.619L275.464 349.154L256.105 210.505L266.341 350.124L256.866 210.451L257.223 350.445L257.581 210.451L248.106 350.124L258.342 210.505L238.979 349.153L259.142 210.62L229.912 347.527L259.957 210.796L220.969 345.25L260.766 211.033L212.211 342.336L261.554 211.327L203.692 338.803L262.309 211.673L195.46 334.674L263.023 212.064L187.558 329.975L263.695 212.496L180.023 324.733L264.323 212.967L172.889 318.977L264.91 213.476L166.187 312.733L265.457 214.022L159.944 306.03L265.965 214.609L154.188 298.895L266.436 215.237L148.948 291.361L266.868 215.909L144.251 283.459L267.259 216.624L140.123 275.228L267.604 217.378L136.591 266.71L267.898 218.166L133.678 257.953L268.135 218.975L131.403 249.012L268.312 219.789L129.778 239.949L268.426 220.589L128.807 230.825L268.48 221.35L128.486 221.708L268.48 222.066L128.807 212.59L268.426 222.827L129.778 203.464L268.312 223.627L131.404 194.396L268.135 224.441L133.681 185.453L267.898 225.251L136.595 176.695L267.604 226.038L140.128 168.176L267.259 226.793L144.257 159.944L266.868 227.508L148.956 152.042L266.435 228.179L154.198 144.508L265.964 228.808L159.955 137.374L265.456 229.394L166.199 130.671L264.909 229.941L172.902 124.428L264.322 230.449L180.036 118.673L263.694 230.92L187.571 113.432L263.022 231.353L195.472 108.735L262.308 231.744L203.703 104.607L261.553 232.089L212.221 101.076L260.766 232.382L220.978 98.1622L259.956 232.62L229.919 95.8872L259.142 232.796L238.983 94.2622L258.342 232.91L248.106 93.2922L257.581 232.964L257.223 92.9712L256.866 232.964L266.341 93.2922L256.105 232.91L275.467 94.2622L255.305 232.796L284.535 95.8882L254.49 232.619L293.478 98.1652L253.68 232.382L302.236 101.079L252.893 232.088L310.755 104.613L252.138 231.743L318.987 108.742L251.424 231.352L326.889 113.441L250.752 230.92L334.424 118.682L250.124 230.449L341.558 124.439L249.537 229.94L348.26 130.683L248.99 229.393L354.503 137.386L248.482 228.807L360.258 144.52L248.011 228.178L365.499 152.055L247.579 227.507L370.197 159.957L247.188 226.792L374.324 168.187L246.843 226.037L377.856 176.705L246.549 225.25L380.769 185.462L246.312 224.441L383.044 194.403L246.135 223.626L384.669 203.467L246.021 222.827L385.64 212.59L245.967 222.066L385.961 221.708Z" fill="white"/>
</g>
<path opacity="0.62" d="M266.84 246.147C280.335 240.661 286.827 225.275 281.341 211.781C275.856 198.286 260.469 191.794 246.975 197.28C233.48 202.765 226.988 218.152 232.474 231.646C237.96 245.141 253.346 251.633 266.84 246.147Z" fill="white"/>
<path opacity="0.7" d="M241.177 334.205C227.261 329.107 214.014 321.948 202.025 312.992C196.001 308.549 190.381 303.551 185.103 298.208C179.862 292.826 175.078 286.986 170.78 280.801C166.551 274.559 162.857 267.955 159.824 261.058C156.855 254.138 154.412 246.979 152.846 239.62C149.609 224.961 149.396 209.547 153.069 195.155C151.465 209.893 152.819 224.659 156.635 238.69C158.592 245.691 161.029 252.554 164.139 259.11C167.186 265.69 170.771 272.021 174.901 277.974C178.963 283.985 183.565 289.63 188.521 294.951C193.442 300.313 198.829 305.242 204.427 309.936C215.695 319.256 228.115 327.22 241.177 334.205Z" fill="white"/>
<path d="M161.958 230.228C161.115 219.839 162.039 209.274 164.309 199.012C166.549 188.733 170.205 178.745 175.016 169.362C179.837 159.984 185.832 151.197 192.884 143.39C199.905 135.568 207.96 128.667 216.901 123.31C209.215 130.333 202.157 137.823 195.876 145.894C189.624 153.982 184.115 162.59 179.462 171.646C174.801 180.698 171.01 190.19 168.072 199.982C165.166 209.789 163.187 219.89 161.958 230.228Z" fill="white"/>
<path opacity="0.7" d="M177.899 214.498C177.377 223.554 178.165 232.45 180.17 241.033C182.211 249.603 185.391 257.848 189.599 265.536C193.806 273.239 199.007 280.397 204.855 287.06C210.733 293.708 217.283 299.806 224.195 305.678C216.119 301.535 208.654 296.122 202.04 289.762C195.404 283.426 189.654 276.06 185.213 267.933C180.779 259.8 177.69 250.906 176.352 241.76C174.979 232.642 175.324 223.219 177.899 214.498Z" fill="white"/>
<path opacity="0.7" d="M270.545 335.017C284.461 329.919 297.708 322.76 309.697 313.804C315.721 309.361 321.341 304.363 326.619 299.02C331.86 293.637 336.644 287.798 340.942 281.613C345.171 275.371 348.865 268.767 351.898 261.87C354.867 254.95 357.31 247.791 358.876 240.432C362.113 225.773 362.326 210.359 358.653 195.967C360.257 210.706 358.903 225.471 355.087 239.502C353.13 246.503 350.693 253.365 347.583 259.922C344.536 266.502 340.951 272.833 336.821 278.787C332.759 284.798 328.157 290.443 323.201 295.764C318.28 301.126 312.893 306.055 307.295 310.749C296.027 320.068 283.607 328.032 270.545 335.017Z" fill="white"/>
<path opacity="0.7" d="M349.764 231.04C350.608 220.651 349.683 210.086 347.413 199.824C345.173 189.545 341.517 179.557 336.706 170.174C331.885 160.796 325.89 152.008 318.838 144.202C311.817 136.38 303.762 129.479 294.821 124.122C302.507 131.145 309.565 138.635 315.846 146.707C322.098 154.795 327.608 163.403 332.26 172.459C336.921 181.511 340.712 191.003 343.65 200.795C346.557 210.601 348.535 220.702 349.764 231.04Z" fill="white"/>
<path d="M333.823 215.31C334.345 224.366 333.557 233.262 331.552 241.845C329.511 250.415 326.332 258.66 322.124 266.348C317.917 274.051 312.716 281.209 306.868 287.872C300.99 294.52 294.44 300.619 287.528 306.49C295.604 302.347 303.069 296.935 309.683 290.574C316.319 284.237 322.069 276.872 326.51 268.745C330.944 260.612 334.033 251.718 335.371 242.572C336.743 233.454 336.398 224.031 333.823 215.31Z" fill="white"/>
<path d="M233.905 166.538L236.486 171.769L242.258 172.607L238.082 176.679L239.068 182.427L233.905 179.713L228.742 182.427L229.728 176.679L225.552 172.607L231.324 171.769L233.905 166.538Z" fill="white"/>
<path d="M223.203 192.069L224.67 195.041L227.95 195.517L225.576 197.831L226.137 201.097L223.203 199.555L220.27 201.097L220.83 197.831L218.457 195.517L221.737 195.041L223.203 192.069Z" fill="white"/>
<path d="M279.296 246.397L280.762 249.369L284.042 249.845L281.669 252.158L282.229 255.425L279.296 253.883L276.362 255.425L276.923 252.158L274.55 249.845L277.829 249.369L279.296 246.397Z" fill="white"/>
<path d="M267.927 265.073L269.394 268.045L272.674 268.522L270.301 270.835L270.861 274.101L267.927 272.559L264.994 274.101L265.554 270.835L263.181 268.522L266.461 268.045L267.927 265.073Z" fill="white"/>
<path d="M283.135 263.803L284.602 266.775L287.882 267.251L285.508 269.564L286.069 272.831L283.135 271.289L280.202 272.831L280.762 269.564L278.389 267.251L281.669 266.775L283.135 263.803Z" fill="white"/>
<path d="M266.303 146.519L267.77 149.491L271.049 149.967L268.676 152.28L269.237 155.547L266.303 154.004L263.37 155.547L263.93 152.28L261.557 149.967L264.837 149.491L266.303 146.519Z" fill="white"/>
<g opacity="0.46">
<path d="M261.237 168.382C252.089 175.694 249.713 189.767 254.912 200.26C260.112 210.753 271.844 217.274 283.554 217.434C287.532 217.489 291.557 216.872 295.195 215.264C303.077 211.779 308.435 203.776 309.966 195.294C311.914 184.503 307.822 172.718 299.316 165.798C290.81 158.877 278.159 157.328 268.427 162.382L264.615 166.897L261.237 168.382Z" fill="white"/>
</g>
<g opacity="0.46">
<path d="M280.663 207.274C275.925 211.062 274.693 218.351 277.387 223.787C280.081 229.223 286.158 232.6 292.224 232.683C294.284 232.711 296.369 232.392 298.254 231.559C302.337 229.754 305.112 225.608 305.905 221.215C306.914 215.625 304.795 209.521 300.389 205.936C295.983 202.351 289.43 201.549 284.389 204.166L282.414 206.505L280.663 207.274Z" fill="white"/>
</g>
<g opacity="0.46">
<path d="M280.663 148.809C275.925 152.597 274.693 159.886 277.387 165.322C280.081 170.758 286.158 174.135 292.224 174.218C294.284 174.246 296.369 173.927 298.254 173.094C302.337 171.289 305.112 167.143 305.905 162.75C306.914 157.16 304.795 151.056 300.389 147.471C295.983 143.886 289.43 143.084 284.389 145.701L282.414 148.04L280.663 148.809Z" fill="white"/>
</g>
<g opacity="0.46">
<path d="M219.762 238.13C215.024 241.918 213.792 249.207 216.486 254.643C219.18 260.079 225.257 263.456 231.323 263.539C233.383 263.567 235.469 263.248 237.353 262.415C241.436 260.61 244.211 256.464 245.004 252.071C246.013 246.481 243.894 240.377 239.487 236.792C235.081 233.207 228.528 232.404 223.487 235.022L221.512 237.361L219.762 238.13Z" fill="white"/>
</g>
<g opacity="0.46">
<path d="M220.949 261.235C217.491 264 216.592 269.32 218.558 273.287C220.524 277.254 224.96 279.719 229.387 279.78C230.891 279.801 232.413 279.568 233.788 278.96C236.768 277.642 238.794 274.617 239.372 271.41C240.109 267.33 238.562 262.875 235.346 260.258C232.13 257.641 227.347 257.056 223.668 258.966L222.227 260.673L220.949 261.235Z" fill="white"/>
</g>
<path d="M363.447 280.579L364.726 283.171L367.587 283.587L365.517 285.605L366.005 288.454L363.447 287.109L360.888 288.454L361.377 285.605L359.307 283.587L362.167 283.171L363.447 280.579Z" fill="#13003B"/>
<path d="M260.084 367.614L262.665 372.844L268.437 373.683L264.26 377.754L265.246 383.503L260.084 380.789L254.921 383.503L255.907 377.754L251.73 373.683L257.502 372.844L260.084 367.614Z" fill="#FDCB6A"/>
<path d="M126.797 154.32L129.378 159.551L135.151 160.389L130.974 164.46L131.96 170.209L126.797 167.495L121.634 170.209L122.62 164.46L118.444 160.389L124.216 159.551L126.797 154.32Z" fill="#FDCB6A"/>
<path d="M402.041 170.598L404.623 175.829L410.395 176.667L406.218 180.739L407.204 186.488L402.041 183.773L396.879 186.488L397.865 180.739L393.688 176.667L399.46 175.829L402.041 170.598Z" fill="#FDCB6A"/>
<path d="M277.949 354.473L279.26 357.128L282.19 357.554L280.069 359.621L280.57 362.539L277.949 361.161L275.328 362.539L275.829 359.621L273.708 357.554L276.638 357.128L277.949 354.473Z" fill="#FDCB6A"/>
<path d="M278.445 372.873L279.756 375.528L282.686 375.954L280.566 378.021L281.067 380.94L278.445 379.562L275.824 380.94L276.325 378.021L274.205 375.954L277.135 375.528L278.445 372.873Z" fill="#FDCB6A"/>
<path d="M396.007 156.876L397.318 159.532L400.248 159.958L398.128 162.025L398.628 164.943L396.007 163.565L393.386 164.943L393.887 162.025L391.766 159.958L394.697 159.532L396.007 156.876Z" fill="#FDCB6A"/>
<path d="M111.172 174.797L112.482 177.453L115.413 177.879L113.292 179.946L113.793 182.864L111.172 181.486L108.551 182.864L109.051 179.946L106.931 177.879L109.861 177.453L111.172 174.797Z" fill="#FDCB6A"/>
<path d="M159.394 128.553L161.594 133.012L166.513 133.726L162.953 137.197L163.794 142.096L159.394 139.783L154.993 142.096L155.833 137.197L152.273 133.726L157.193 133.012L159.394 128.553Z" fill="#13003B"/>
<path d="M341.652 96.0972L342.932 98.6902L345.793 99.1052L343.723 101.123L344.211 103.972L341.652 102.627L339.094 103.972L339.582 101.123L337.512 99.1052L340.373 98.6902L341.652 96.0972Z" fill="#13003B"/>
<path opacity="0.17" d="M127.541 173.655C127.541 175.933 125.695 177.779 123.417 177.779C121.139 177.779 119.293 175.933 119.293 173.655C119.293 171.378 121.139 169.531 123.417 169.531C125.695 169.531 127.541 171.378 127.541 173.655Z" fill="#FDCB6A"/>
<path opacity="0.17" d="M126.416 165.419C127.872 165.419 129.052 164.239 129.052 162.783C129.052 161.327 127.872 160.147 126.416 160.147C124.96 160.147 123.78 161.327 123.78 162.783C123.78 164.239 124.96 165.419 126.416 165.419Z" fill="#FDCB6A"/>
<path d="M230.095 431.628C230.095 432.328 229.527 432.896 228.827 432.896C228.127 432.896 227.559 432.328 227.559 431.628C227.559 430.928 228.126 430.36 228.827 430.36C229.528 430.36 230.095 430.928 230.095 431.628Z" fill="#FDCB6A"/>
<path d="M233.701 429.464C233.701 430.164 233.133 430.732 232.433 430.732C231.733 430.732 231.165 430.164 231.165 429.464C231.165 428.764 231.733 428.196 232.433 428.196C233.134 428.197 233.701 428.764 233.701 429.464Z" fill="#FDCB6A"/>
<path opacity="0.17" d="M413.214 217.155C414.669 217.155 415.85 215.975 415.85 214.519C415.85 213.063 414.669 211.883 413.214 211.883C411.758 211.883 410.578 213.063 410.578 214.519C410.578 215.975 411.758 217.155 413.214 217.155Z" fill="#FDCB6A"/>
<path opacity="0.17" d="M419.211 228.765C420.667 228.765 421.847 227.585 421.847 226.129C421.847 224.673 420.667 223.493 419.211 223.493C417.755 223.493 416.575 224.673 416.575 226.129C416.575 227.585 417.755 228.765 419.211 228.765Z" fill="#FDCB6A"/>
<path opacity="0.17" d="M427.095 216.768C427.095 218.224 425.915 219.404 424.459 219.404C423.003 219.404 421.823 218.224 421.823 216.768C421.823 215.312 423.003 214.132 424.459 214.132C425.915 214.132 427.095 215.313 427.095 216.768Z" fill="#FDCB6A"/>
<path d="M234.884 434.512C234.884 435.564 234.031 436.416 232.98 436.416C231.929 436.416 231.076 435.563 231.076 434.512C231.076 433.46 231.929 432.608 232.98 432.608C234.031 432.608 234.884 433.461 234.884 434.512Z" fill="#FDCB6A"/>
<path d="M279.204 391.013C279.208 391.161 279.226 391.305 279.226 391.453C279.226 401.352 271.201 409.376 261.303 409.376C251.404 409.376 243.38 401.351 243.38 391.453C243.38 391.304 243.399 391.161 243.402 391.013C239.091 395.485 236.435 401.563 236.435 408.266C236.435 422 247.569 433.134 261.303 433.134C275.037 433.134 286.171 422 286.171 408.266C286.171 401.564 283.515 395.486 279.204 391.013Z" fill="#13003B"/>
<g opacity="0.57">
<path d="M261.993 430.747C253.904 430.747 248.785 427.326 245.915 424.456C242.799 421.339 241.611 418.231 241.563 418.101C241.37 417.584 241.631 417.008 242.149 416.814C242.661 416.623 243.241 416.881 243.436 417.399C243.618 417.878 247.915 428.748 261.994 428.748C276.106 428.748 280.498 416.063 280.541 415.935C280.716 415.412 281.277 415.126 281.806 415.303C282.329 415.477 282.613 416.043 282.438 416.568C282.389 416.709 277.53 430.747 261.993 430.747Z" fill="white"/>
</g>
<path d="M260.494 462.738C260.218 462.738 259.994 462.514 259.994 462.238V440.494C259.994 440.218 260.218 439.994 260.494 439.994C260.77 439.994 260.994 440.218 260.994 440.494V462.238C260.994 462.514 260.77 462.738 260.494 462.738Z" fill="#13003B"/>
<path d="M273.99 455.239C273.799 455.239 273.616 455.129 273.533 454.942L267.534 441.446C267.422 441.194 267.536 440.898 267.788 440.786C268.04 440.675 268.336 440.787 268.448 441.04L274.447 454.536C274.559 454.788 274.445 455.084 274.193 455.196C274.126 455.225 274.058 455.239 273.99 455.239Z" fill="#13003B"/>
<path d="M247.321 455.239C247.512 455.239 247.695 455.129 247.778 454.942L253.777 441.446C253.889 441.194 253.775 440.898 253.523 440.786C253.271 440.675 252.975 440.787 252.863 441.04L246.864 454.536C246.752 454.788 246.866 455.084 247.118 455.196C247.184 455.225 247.252 455.239 247.321 455.239Z" fill="#13003B"/>
<path d="M256.49 93.8228C256.766 93.8228 256.99 94.0468 256.99 94.3228V116.067C256.99 116.343 256.766 116.567 256.49 116.567C256.214 116.567 255.99 116.343 255.99 116.067V94.3228C255.99 94.0468 256.213 93.8228 256.49 93.8228Z" fill="#13003B"/>
<path d="M242.993 101.321C243.184 101.321 243.367 101.431 243.45 101.618L249.449 115.114C249.561 115.366 249.447 115.662 249.195 115.774C248.943 115.885 248.647 115.773 248.535 115.52L242.536 102.024C242.424 101.772 242.538 101.476 242.79 101.364C242.857 101.335 242.925 101.321 242.993 101.321Z" fill="#13003B"/>
<path d="M269.663 101.321C269.472 101.321 269.289 101.431 269.206 101.618L263.207 115.114C263.095 115.366 263.209 115.662 263.461 115.774C263.713 115.885 264.009 115.773 264.121 115.52L270.12 102.024C270.232 101.772 270.118 101.476 269.866 101.364C269.799 101.335 269.731 101.321 269.663 101.321Z" fill="#13003B"/>
<path opacity="0.5" d="M335.381 168.569L261.549 125.942L260.34 124.672L259.98 125.037L259.773 124.918L259.556 124.793L181.825 169.67L181.608 169.796V259.801L182.281 260.19L182.274 260.215L182.363 260.237L259.339 304.679L259.556 304.804L337.286 259.927L337.503 259.802V172.518L338.272 169.815L338.392 169.393L335.381 168.569ZM336.201 170.044L315.488 182.003L314.201 181.26L291.618 157.533L335.046 169.377L336.201 170.044ZM315.528 247.613L335.312 259.035L293.819 269.597L315.528 247.613ZM292.189 270.012L264.4 277.085L312.797 249.143L292.189 270.012ZM315.922 185.127L324.262 215.9L315.922 245.225V185.127ZM332.092 167.672L290.461 156.318L263.666 128.166L332.092 167.672ZM259.99 126.261L260.127 126.123L261.007 126.631L288.844 155.877L260.449 148.133L260.333 148.101L259.991 148.198L259.99 126.261ZM259.99 149.1L260.336 149.002L290 157.092L311.542 179.725L259.99 149.961V149.1ZM203.189 241.102L195.818 214.946L203.189 188.552V241.102ZM203.189 185.327L195.365 213.34L183.55 171.416L203.189 182.754V185.327ZM195.369 216.553L203.189 244.302V246.839L183.782 258.044L195.369 216.553ZM203.623 182.003L183.815 170.567L227.05 158.383L204.351 181.369L204.272 181.449L204.212 181.663L203.623 182.003ZM228.74 157.906L259.122 149.344V149.962L206.696 180.229L228.74 157.906ZM229.974 156.656L259.122 127.139V148.441L229.974 156.656ZM258.803 126.228L228.285 157.132L183.332 169.8L258.803 126.228ZM194.917 214.948L182.708 258.663L182.477 258.797V170.805L194.917 214.948ZM183.448 259.238L203.623 247.59L204.211 247.93L204.241 248.037L204.272 248.147L226.881 270.47L183.35 259.588L183.448 259.238ZM206.803 249.426L255.754 277.687L228.535 270.883L206.803 249.426ZM259.122 303.549L185.424 261L228.095 271.668L259.122 302.302V303.549ZM259.122 301.083L229.749 272.081L258.488 279.265L259.123 279.632V301.083H259.122ZM258.924 278.48L258.814 278.453L204.951 247.355L204.057 244.182V185.444L204.952 182.238L259.555 150.713L313.658 181.949L315.053 183.414V246.838L261.296 277.875L258.924 278.48ZM259.99 303.549V303.158L260.24 303.405L259.99 303.549ZM259.99 301.94V279.632L261.626 278.687L291.008 271.208L260.33 302.275L259.99 301.94ZM260.692 303.144L292.637 270.794L335.715 259.829L260.692 303.144ZM316.158 246.975L316.316 246.815L316.395 246.736L324.702 217.526L335.749 258.286L316.158 246.975ZM336.635 258.237L325.163 215.907L336.635 175.567V258.237ZM336.635 172.396L324.722 214.283L316.427 183.675L316.398 183.569L315.922 183.069V182.755L336.635 170.796V172.396Z" fill="#13003B"/>
<path d="M420.962 372.914C429.813 365.872 435.511 359.743 441.736 349.281L440.877 348.77C434.342 359.753 428.649 365.722 418.855 373.31C418.507 373.364 418.211 373.404 417.987 373.432C418.345 367.154 431.626 351.771 431.763 351.611L431.008 350.956C430.446 351.604 417.891 366.156 417.036 373.012C416.547 372.541 415.94 371.733 415.727 370.456C415.316 368 416.337 363.516 423.532 356.093L422.815 355.396C416.804 361.597 414.088 366.719 414.74 370.621C415.107 372.815 416.448 373.908 417.01 374.279L417.027 374.521L417.289 374.502C417.291 374.504 417.292 374.505 417.294 374.507C413.438 377.436 408.968 380.642 403.607 384.485C399.98 387.085 395.955 389.971 391.451 393.252C362.035 414.682 370.864 456.826 370.957 457.25L371.934 457.036C371.843 456.619 363.145 415.112 392.039 394.061C396.54 390.782 400.564 387.898 404.189 385.299C409.584 381.432 414.116 378.182 418.052 375.179C419.08 375.993 420.933 377.108 423.619 377.306C424.171 377.347 424.728 377.346 425.292 377.306C428.96 377.045 432.89 375.079 437.001 371.447L436.339 370.697C431.815 374.695 427.567 376.584 423.717 376.31C421.464 376.15 419.834 375.253 418.875 374.547C418.999 374.451 419.122 374.356 419.245 374.261C423.553 373.557 434.962 370.813 441.77 360.941L440.946 360.373C435.176 368.74 425.964 371.819 420.962 372.914Z" fill="#13003B"/>
<path d="M424.743 356.021C424.88 357.939 423.436 359.604 421.518 359.74C419.6 359.876 417.935 358.432 417.799 356.515C417.663 354.597 419.106 352.932 421.024 352.796C422.941 352.659 424.606 354.103 424.743 356.021Z" fill="#F85E78"/>
<path d="M432.937 351.581C433.074 353.499 431.63 355.164 429.712 355.3C427.794 355.437 426.129 353.993 425.993 352.075C425.857 350.157 427.3 348.492 429.218 348.356C431.135 348.219 432.8 349.663 432.937 351.581Z" fill="#F85E78"/>
<path d="M443.732 350.404C443.868 352.322 442.424 353.987 440.507 354.123C438.589 354.26 436.924 352.816 436.788 350.898C436.652 348.98 438.096 347.315 440.013 347.179C441.93 347.043 443.595 348.487 443.732 350.404Z" fill="#F85E78"/>
<path d="M443.838 362.805C443.974 364.723 442.53 366.388 440.613 366.524C438.695 366.66 437.03 365.216 436.894 363.299C436.758 361.381 438.202 359.716 440.119 359.58C442.037 359.444 443.702 360.888 443.838 362.805Z" fill="#F85E78"/>
<path d="M439.922 373.166C440.059 375.084 438.615 376.749 436.697 376.885C434.779 377.022 433.114 375.578 432.978 373.66C432.842 371.742 434.286 370.077 436.203 369.941C438.121 369.804 439.786 371.248 439.922 373.166Z" fill="#F85E78"/>
<path d="M344.886 482.487C338.22 469.234 347.255 450.798 361.813 447.948C365.525 447.221 369.446 447.355 372.947 445.923C381.476 442.434 383.869 431.751 385.485 422.678C387.1 413.605 390.666 402.905 399.654 400.865C402.756 400.161 406.066 400.678 409.112 399.762C418.962 396.798 422.343 380.533 432.58 381.533C437.953 382.058 441.542 387.935 441.33 393.33C441.118 398.724 438.107 403.583 434.875 407.907C431.643 412.231 428.026 416.431 426.252 421.53C423.991 428.03 425 435.153 424.424 442.012C423.552 452.394 417.656 463.415 407.535 465.886C404.383 466.655 400.911 466.592 398.191 468.36C393.754 471.246 393.348 477.401 391.967 482.511C389.599 491.273 382.649 498.878 373.862 501.153C365.075 503.427 354.836 499.76 350.203 491.955L344.886 482.487Z" fill="#724CF9"/>
<g opacity="0.62">
<path d="M357.591 457.197C362.757 453.701 368.884 452.42 374.573 450.076C380.95 447.449 386.343 443.097 389.266 436.76C393.599 427.365 393.617 415.053 402.459 408.311C405.881 405.702 409.98 404.138 413.619 401.866C419.697 398.07 421.658 392.565 425.762 387.135C427.4 384.968 429.181 383.123 431.075 381.522C421.987 382.163 418.461 396.95 409.112 399.763C406.066 400.68 402.756 400.162 399.654 400.866C390.667 402.906 387.101 413.606 385.485 422.679C383.869 431.752 381.477 442.434 372.947 445.924C369.446 447.356 365.525 447.222 361.813 447.949C348.894 450.479 340.334 465.28 343.227 477.843C345.745 469.768 349.743 462.508 357.591 457.197Z" fill="white"/>
</g>
<path d="M356.8 490.839C360.282 487.743 363.651 484.522 366.926 481.212C370.213 477.915 373.408 474.526 376.417 470.982C379.406 467.427 382.295 463.765 384.634 459.771C386.933 455.733 389.202 451.642 391.684 447.688C394.174 443.739 396.845 439.886 399.883 436.317C401.411 434.542 403.035 432.846 404.779 431.276C406.549 429.704 408.377 428.328 409.884 426.567C412.919 423.071 415.386 419.097 417.685 415.059C419.994 411.018 422.058 406.838 424.102 402.651C420.231 411.098 416.316 419.68 410.319 426.946C409.532 427.818 408.751 428.702 407.845 429.469C406.975 430.284 406.052 430.946 405.214 431.757C403.502 433.313 401.906 434.997 400.403 436.76C397.414 440.306 394.781 444.145 392.32 448.086C389.828 452.015 387.556 456.067 385.225 460.114C382.822 464.149 379.926 467.843 376.855 471.357C370.689 478.376 363.909 484.815 356.8 490.839Z" fill="#13003B"/>
<path d="M100.977 372.914C92.1254 365.872 86.4284 359.743 80.2034 349.281L81.0624 348.77C87.5974 359.753 93.2904 365.722 103.084 373.31C103.432 373.364 103.728 373.404 103.952 373.432C103.594 367.154 90.3134 351.771 90.1764 351.611L90.9314 350.956C91.4934 351.604 104.048 366.156 104.903 373.012C105.392 372.541 105.999 371.733 106.213 370.456C106.624 368 105.603 363.516 98.4084 356.093L99.1254 355.396C105.136 361.597 107.852 366.719 107.2 370.621C106.833 372.815 105.492 373.908 104.93 374.279L104.913 374.521L104.651 374.502C104.649 374.504 104.648 374.505 104.646 374.507C108.502 377.436 112.972 380.642 118.333 384.485C121.96 387.085 125.985 389.971 130.489 393.252C159.905 414.682 151.076 456.826 150.983 457.25L150.006 457.036C150.097 456.619 158.795 415.112 129.901 394.061C125.4 390.782 121.376 387.898 117.751 385.299C112.356 381.432 107.824 378.182 103.888 375.179C102.86 375.993 101.007 377.108 98.3214 377.306C97.7694 377.347 97.2124 377.346 96.6484 377.306C92.9804 377.045 89.0504 375.079 84.9394 371.447L85.6014 370.697C90.1244 374.695 94.3734 376.584 98.2234 376.31C100.476 376.15 102.106 375.253 103.065 374.547C102.941 374.451 102.818 374.356 102.695 374.261C98.3874 373.557 86.9784 370.813 80.1704 360.941L80.9944 360.373C86.7634 368.74 95.9754 371.819 100.977 372.914Z" fill="#13003B"/>
<path d="M97.1969 356.021C97.0609 357.939 98.5049 359.604 100.422 359.74C102.34 359.876 104.005 358.432 104.141 356.515C104.277 354.597 102.833 352.932 100.916 352.796C98.9989 352.659 97.3339 354.103 97.1969 356.021Z" fill="#F85E78"/>
<path d="M89.0025 351.581C88.8665 353.499 90.3105 355.164 92.2275 355.3C94.1455 355.437 95.8105 353.993 95.9465 352.075C96.0825 350.157 94.6385 348.492 92.7215 348.356C90.8045 348.219 89.1395 349.663 89.0025 351.581Z" fill="#F85E78"/>
<path d="M78.2086 350.404C78.0726 352.322 79.5166 353.987 81.4336 354.123C83.3516 354.26 85.0166 352.816 85.1526 350.898C85.2886 348.98 83.8446 347.315 81.9276 347.179C80.0096 347.043 78.3446 348.487 78.2086 350.404Z" fill="#F85E78"/>
<path d="M78.1016 362.805C77.9656 364.723 79.4087 366.388 81.3267 366.524C83.2447 366.66 84.9096 365.216 85.0456 363.299C85.1826 361.381 83.7387 359.716 81.8207 359.58C79.9037 359.444 78.2376 360.888 78.1016 362.805Z" fill="#F85E78"/>
<path d="M82.0177 373.166C81.8817 375.084 83.3257 376.749 85.2427 376.885C87.1607 377.022 88.8257 375.578 88.9617 373.66C89.0987 371.742 87.6547 370.077 85.7367 369.941C83.8197 369.804 82.1537 371.248 82.0177 373.166Z" fill="#F85E78"/>
<path d="M177.053 482.487C183.719 469.234 174.684 450.798 160.126 447.948C156.414 447.221 152.493 447.355 148.992 445.923C140.463 442.434 138.07 431.751 136.455 422.678C134.84 413.605 131.273 402.905 122.286 400.865C119.184 400.161 115.874 400.678 112.828 399.762C102.978 396.798 99.5975 380.533 89.3605 381.533C83.9875 382.058 80.3985 387.935 80.6105 393.33C80.8225 398.724 83.8335 403.583 87.0655 407.907C90.2975 412.231 93.9145 416.431 95.6885 421.53C97.9495 428.03 96.9405 435.153 97.5165 442.012C98.3885 452.394 104.285 463.415 114.405 465.886C117.557 466.655 121.029 466.592 123.749 468.36C128.186 471.246 128.592 477.401 129.973 482.511C132.341 491.273 139.291 498.878 148.078 501.153C156.865 503.427 167.104 499.76 171.737 491.955L177.053 482.487Z" fill="#724CF9"/>
<g opacity="0.62">
<path d="M164.348 457.197C159.182 453.701 153.055 452.42 147.366 450.076C140.989 447.449 135.596 443.097 132.673 436.76C128.34 427.365 128.322 415.053 119.48 408.311C116.058 405.702 111.959 404.138 108.32 401.866C102.242 398.07 100.282 392.565 96.1773 387.135C94.5393 384.968 92.7583 383.123 90.8643 381.522C99.9523 382.163 103.478 396.95 112.827 399.763C115.873 400.68 119.183 400.162 122.285 400.866C131.272 402.906 134.838 413.606 136.454 422.679C138.069 431.752 140.462 442.434 148.991 445.924C152.492 447.356 156.413 447.222 160.125 447.949C173.044 450.479 181.604 465.28 178.711 477.843C176.194 469.768 172.196 462.508 164.348 457.197Z" fill="white"/>
</g>
<path d="M165.139 490.839C161.657 487.743 158.288 484.522 155.013 481.212C151.726 477.915 148.531 474.526 145.522 470.982C142.533 467.427 139.644 463.765 137.305 459.771C135.006 455.733 132.737 451.642 130.255 447.688C127.765 443.739 125.094 439.886 122.057 436.317C120.529 434.542 118.905 432.846 117.161 431.276C115.391 429.704 113.563 428.328 112.056 426.567C109.021 423.071 106.554 419.097 104.255 415.059C101.946 411.018 99.8824 406.838 97.8384 402.651C101.709 411.098 105.624 419.68 111.621 426.946C112.408 427.818 113.189 428.702 114.095 429.469C114.965 430.284 115.888 430.946 116.726 431.757C118.438 433.313 120.034 434.997 121.537 436.76C124.526 440.306 127.159 444.145 129.62 448.086C132.112 452.015 134.384 456.067 136.715 460.114C139.118 464.149 142.014 467.843 145.086 471.357C151.25 478.376 158.03 484.815 165.139 490.839Z" fill="#13003B"/>
</g>
<defs>
<linearGradient id="paint0_linear_41_44" x1="261.004" y1="142.745" x2="261.004" y2="456.048" gradientUnits="userSpaceOnUse">
<stop stop-color="#724CF9"/>
<stop offset="1" stop-color="#CA7DF9"/>
</linearGradient>
</defs>
</svg>
