<svg width="445" height="413" viewBox="0 0 445 413" fill="none" xmlns="http://www.w3.org/2000/svg">
<path d="M66.0567 24.1628C32.9854 46.2249 8.83943 82.1421 2.35337 123.504C-6.07814 177.267 15.969 233.264 52.9524 271.798C89.937 310.331 140.242 332.766 191.619 343.075C238.357 352.453 287.842 352.233 332.372 334.729C376.901 317.225 415.848 280.893 430.776 233.837C445.705 186.782 433.045 129.692 395.435 99.3181C378.68 85.786 358.382 78.0554 338.448 70.528C310.124 59.833 281.801 49.1393 253.478 38.4456C226.846 28.3904 201.276 13.746 173.942 5.90308C156.194 0.811256 136.655 -0.267464 118.172 3.02108C99.4161 6.35827 81.7337 13.7036 66.0567 24.1628Z" fill="url(#paint0_linear_41_740)"/>
<path d="M117.545 61.3011C117.545 70.1267 115.451 78.4722 111.723 85.8711C102.57 104.066 83.5631 116.572 61.5995 116.572C52.855 116.572 44.9398 115.025 37.996 112.241C31.3192 109.571 25.5427 105.763 20.7913 101.104C16.1497 96.5523 12.487 91.1924 9.91927 85.2775C8.24694 81.4265 7.04101 77.3423 6.33392 73.0935C5.69167 69.2737 5.45846 65.328 5.65301 61.3011C5.94482 55.2466 7.1121 49.4963 9.03759 44.155C10.2946 40.6445 11.8772 37.3173 13.7565 34.1934C16.9204 28.9157 20.9198 24.2192 25.5876 20.241C35.2013 12.0465 47.6671 6.90103 61.5983 6.03057C70.4213 5.48186 78.5112 6.97711 85.6357 10.0524C93.4275 13.4108 100.066 18.6573 105.24 25.1658C109.129 30.0643 112.19 35.6774 114.284 41.7444C116.073 46.9211 117.162 52.4194 117.454 58.0887C117.519 59.1549 117.545 60.2224 117.545 61.3011Z" fill="#4D52A8"/>
<path d="M111.723 85.8712C102.57 104.066 83.563 116.572 61.5994 116.572C52.8549 116.572 44.9397 115.025 37.996 112.241C40.1871 110.34 43.2537 109.217 46.183 108.598C50.5915 107.664 55.3042 107.38 59.1414 105.069C62.9787 102.758 65.403 97.373 62.642 93.9011C59.8024 90.322 54.1045 91.281 49.6636 92.5942C40.0374 95.4288 30.4162 98.2697 20.79 101.104C16.1484 96.5524 12.4857 91.1925 9.91797 85.2776C29.5221 82.2596 49.8831 84.7538 69.8239 86.3127C83.6915 87.3989 98.0441 87.9102 111.723 85.8712Z" fill="#383D84"/>
<path d="M10.5942 73.4037C9.18122 73.3214 7.75456 73.2266 6.33538 73.0944C5.69314 69.2746 5.45993 65.3288 5.65447 61.302C5.94629 55.2474 7.11356 49.4972 9.03905 44.1559C9.50546 44.131 9.97187 44.1048 10.4395 44.0798C20.5982 43.5311 30.7557 42.9749 40.9206 42.4262C43.4622 42.2878 46.0873 42.1294 48.3882 41.0557C50.689 39.9882 52.6145 37.7596 52.4985 35.2792C52.3688 32.5905 49.8659 30.4555 47.196 29.7808C44.5185 29.1049 41.6926 29.5539 38.9627 30.0078C30.5674 31.4033 22.1596 32.7988 13.758 34.193C16.9218 28.9153 20.9212 24.2189 25.589 20.2407C34.6254 20.6884 43.7079 20.2469 52.6606 18.9587C62.3717 17.557 71.9268 15.1513 81.1128 11.7867C82.6292 11.2318 84.1407 10.6569 85.6372 10.0508C93.4289 13.4092 100.067 18.6556 105.241 25.1641C104.457 25.5994 103.679 26.0608 102.92 26.5347C93.6572 32.3361 86.2607 40.4995 78.7146 48.3212C71.1686 56.1366 63.1299 63.8635 53.147 68.4029C40.0639 74.3627 25.0117 74.2554 10.5942 73.4037Z" fill="#383D84"/>
<path d="M117.454 58.0886C117.162 58.272 116.876 58.4478 116.584 58.6311C110.938 62.1853 105.013 65.8592 98.3158 66.4653C93.4797 66.9067 87.6708 64.8366 86.6918 60.2024C85.6355 55.2341 90.6264 51.1299 95.2356 48.7567C101.251 45.664 107.669 43.302 114.282 41.7432C116.073 46.9198 117.162 52.4194 117.454 58.0886Z" fill="#383D84"/>
<path d="M391.723 221.073C391.367 222.265 390.965 223.437 390.528 224.582C389.56 227.099 388.399 229.491 387.064 231.745C385.502 234.4 383.703 236.867 381.703 239.119C377.607 243.738 372.676 247.481 367.236 250.167C364.252 251.651 361.109 252.812 357.869 253.622C356.465 253.974 355.034 254.265 353.596 254.483C353.146 254.552 352.694 254.614 352.242 254.672C349.768 254.976 347.248 255.081 344.717 254.968C340.97 254.812 337.18 254.194 333.427 253.072C332.365 252.754 331.337 252.413 330.325 252.043C330.325 252.043 330.323 252.048 330.32 252.042C318.561 247.803 310.058 240.364 305.005 231.355C303.405 228.51 302.157 225.511 301.252 222.401C300.781 220.781 300.406 219.127 300.132 217.459C300.054 217.017 299.986 216.568 299.926 216.127C298.962 209.023 299.721 201.572 302.269 194.322C303.929 189.584 306.178 185.277 308.899 181.443C309.116 181.135 309.335 180.833 309.56 180.534C310.269 179.577 311.014 178.653 311.782 177.765C313.624 175.628 315.63 173.676 317.775 171.924C318.89 171.01 320.039 170.151 321.227 169.349C321.606 169.083 321.992 168.833 322.381 168.587C325.284 166.734 328.374 165.196 331.612 164.001C334.512 162.933 337.523 162.133 340.617 161.624C347.019 160.569 353.769 160.753 360.566 162.317C364.553 163.238 368.211 164.62 371.513 166.398C374.387 167.93 376.994 169.765 379.334 171.837C380.214 172.614 381.053 173.429 381.854 174.267C382.15 174.582 382.44 174.895 382.722 175.215C385.34 178.15 387.515 181.431 389.232 184.96C390.378 187.318 391.318 189.785 392.048 192.329C392.26 193.036 392.447 193.752 392.614 194.475C392.699 194.834 392.783 195.192 392.856 195.553C392.997 196.194 393.121 196.835 393.227 197.482C393.653 199.93 393.887 202.433 393.938 204.96C394.021 209.045 393.615 213.197 392.697 217.322C392.419 218.576 392.095 219.828 391.723 221.073Z" fill="#FF7C24"/>
<path d="M392.048 192.329C381.959 192.835 371.693 191.82 361.816 190.424C344.711 188.014 327.94 183.789 311.782 177.765C313.624 175.628 315.63 173.676 317.775 171.924C331.78 176.902 346.257 180.566 360.958 182.704C370.064 184.032 379.718 185.185 389.232 184.96C390.379 187.318 391.318 189.783 392.048 192.329Z" fill="#FEA07B"/>
<path d="M391.723 221.073C391.367 222.265 390.965 223.437 390.528 224.582C384.167 223.21 377.641 222.451 371.16 221.997C355.85 220.931 340.305 221.52 325.132 218.898C318.469 217.747 311.762 214.741 309.43 207.89C307.243 201.46 310.718 195.294 317.053 193.237C323.658 191.09 331.345 193.987 337.927 195.07C345.182 196.257 352.507 197.07 359.839 197.563C370.948 198.31 382.122 198.292 393.227 197.481C393.653 199.929 393.887 202.431 393.938 204.959C382.705 205.801 371.433 205.897 360.179 205.168C353.332 204.724 346.513 203.983 339.729 202.954C336.089 202.401 332.456 201.784 328.839 201.076C326.091 200.542 323.156 199.727 320.337 200.204C318.006 200.597 315.958 202.006 316.35 204.585C316.779 207.379 319.171 209.201 321.62 210.204C327.788 212.726 335.475 212.682 342.035 213.08C358.66 214.094 376.246 213.797 392.695 217.322C392.419 218.576 392.095 219.828 391.723 221.073Z" fill="#FEA07B"/>
<path d="M344.716 254.969C340.969 254.813 337.179 254.195 333.426 253.072C332.364 252.754 331.336 252.414 330.324 252.043C333.416 251.427 336.444 250.475 339.349 249.164C342.435 247.772 345.942 246.054 345.484 242.128C345.075 238.624 342.15 236.287 339.041 235.108C334.953 233.558 330.501 233.683 326.201 233.713C321.883 233.743 317.622 233.603 313.342 233.001C310.514 232.602 307.737 232.053 305.004 231.354C303.404 228.51 302.156 225.511 301.25 222.4C306.799 224.313 312.584 225.531 318.445 225.962C326.269 226.534 334.545 225.125 342.009 228.164C348.552 230.827 353.92 236.933 352.987 244.394C352.353 249.501 348.894 252.723 344.716 254.969Z" fill="#FEA07B"/>
<path d="M379.335 171.836C373.472 174.035 367.274 175.276 360.908 175.247C350.035 175.202 339.51 171.203 331.613 164.002C334.514 162.933 337.524 162.134 340.618 161.625C346.848 165.735 354.496 167.786 361.91 167.671C365.166 167.622 368.381 167.178 371.516 166.399C374.388 167.929 376.996 169.765 379.335 171.836Z" fill="#FEA07B"/>
<path d="M387.065 231.745C385.502 234.4 383.704 236.867 381.703 239.119C380.482 239.273 379.257 239.578 378.023 240.039C372.99 241.933 369.508 245.668 367.236 250.167C364.252 251.651 361.109 252.812 357.869 253.621C360.37 244.844 365.656 236.984 374.499 233.339C378.775 231.575 382.985 231.186 387.065 231.745Z" fill="#FEA07B"/>
<path d="M392.857 195.552C389.455 195.579 386.056 195.528 382.652 195.408C369.242 194.938 355.871 193.373 342.711 190.742C331.239 188.452 319.934 185.342 308.897 181.443C309.114 181.135 309.334 180.833 309.558 180.534C314.907 182.416 320.322 184.115 325.789 185.62C338.716 189.18 351.929 191.687 365.262 193.099C374.345 194.065 383.48 194.521 392.613 194.474C392.699 194.833 392.784 195.191 392.857 195.552Z" fill="#FEA07B"/>
<path d="M382.722 175.215C379.289 175.877 375.805 176.309 372.31 176.54C359.648 177.378 346.939 175.638 334.598 172.913C330.122 171.925 325.621 170.782 321.227 169.349C321.606 169.083 321.991 168.833 322.381 168.587C327.295 170.147 332.326 171.353 337.371 172.403C343.482 173.677 349.657 174.671 355.873 175.215C364.533 175.976 373.318 175.83 381.854 174.267C382.149 174.58 382.44 174.893 382.722 175.215Z" fill="#FEA07B"/>
<path d="M353.597 254.485C353.146 254.553 352.694 254.616 352.242 254.673C354.699 250.518 356.629 246.082 356.885 241.206C357.031 238.397 356.646 235.51 355.481 232.931C354.24 230.189 352.154 228.007 349.546 226.515C343.631 223.126 336.575 223.517 330.008 223.744C326.532 223.868 323.068 223.876 319.609 223.475C316.259 223.083 312.948 222.392 309.731 221.407C306.415 220.393 303.202 219.071 300.133 217.459C300.056 217.017 299.987 216.568 299.927 216.127C304.208 218.447 308.798 220.202 313.557 221.321C316.979 222.13 320.475 222.599 323.991 222.719C327.607 222.841 331.224 222.567 334.84 222.519C341.194 222.437 348.148 223.242 353.045 227.726C357.385 231.7 358.595 237.906 357.724 243.534C357.115 247.457 355.55 251.066 353.597 254.485Z" fill="#FEA07B"/>
<path d="M342.965 43.9792C350.125 64.697 339.375 87.213 318.955 94.2702C295.472 102.386 275.034 90.0202 269.015 69.5369C262.837 48.5061 273.098 27.5964 293.025 19.2459C314.419 10.2807 335.804 23.2628 342.965 43.9792Z" fill="#607214"/>
<path d="M287.383 59.784C287.539 66.174 283.936 71.4454 279.336 71.5577C274.735 71.6699 270.878 66.5806 270.722 60.1905C270.566 53.8005 274.169 48.5291 278.771 48.4169C283.37 48.3046 287.227 53.394 287.383 59.784Z" fill="#454F0E"/>
<path d="M301.004 44.2821C301.123 49.122 298.393 53.1152 294.908 53.2C291.424 53.2848 288.502 49.4301 288.384 44.5901C288.265 39.7502 290.995 35.7571 294.479 35.6723C297.965 35.5875 300.886 39.4422 301.004 44.2821Z" fill="#454F0E"/>
<path d="M299.761 62.6763C299.84 65.9624 297.987 68.6735 295.622 68.7322C293.256 68.7895 291.272 66.1732 291.192 62.8858C291.112 59.5998 292.965 56.8886 295.331 56.83C297.698 56.7727 299.681 59.3903 299.761 62.6763Z" fill="#454F0E"/>
<path d="M282.446 44.3595C284.008 44.3213 285.231 42.5322 285.178 40.3633C285.125 38.1944 283.816 36.4671 282.255 36.5052C280.693 36.5433 279.47 38.3325 279.523 40.5013C279.576 42.6702 280.885 44.3976 282.446 44.3595Z" fill="#454F0E"/>
<path d="M289.206 76.5262C289.25 78.332 288.232 79.821 286.933 79.8522C285.633 79.8834 284.544 78.4455 284.5 76.641C284.456 74.8352 285.474 73.3462 286.773 73.315C288.073 73.2826 289.163 74.7204 289.206 76.5262Z" fill="#454F0E"/>
<path d="M337.756 33.47C337.897 33.6595 338.035 33.8516 338.164 34.0499C338.407 34.4215 338.627 34.8069 338.85 35.1897C352.587 33.6758 362.233 35.2546 363.931 40.1693C366.938 48.8702 343.9 64.7268 312.473 75.5889C281.047 86.4497 253.133 88.2018 250.125 79.5022C248.404 74.5214 255.221 67.196 267.257 59.8046C267.253 59.1274 267.212 58.4502 267.124 57.7793C246.587 68.7973 234.196 80.5348 236.838 88.1769C240.736 99.4555 275.885 97.5437 315.346 83.9056C354.808 70.2676 383.638 50.0686 379.739 38.7888C377.122 31.2128 360.407 29.5878 337.756 33.47Z" fill="#E54160"/>
<path d="M149.625 178.137C150.752 183.971 149.74 189.724 147.131 194.577C145.223 198.129 142.467 201.202 139.076 203.48C136.397 205.277 133.318 206.578 129.952 207.229C124.94 208.197 119.991 207.583 115.617 205.735C108.234 202.63 102.493 196.009 100.86 187.555C100.413 185.238 100.302 182.935 100.496 180.695C101.137 173.273 105.107 166.553 111.158 162.383C113.892 160.496 117.057 159.129 120.532 158.458C126.045 157.393 131.486 158.241 136.166 160.54C136.171 160.538 136.171 160.538 136.171 160.538C142.918 163.855 148.087 170.179 149.625 178.137Z" fill="#B9D565"/>
<path d="M128.983 192.874C126.677 193.481 123.949 191.895 121.97 193.228C120.907 193.947 120.47 195.288 119.617 196.252C118.477 197.536 116.533 198.034 114.913 197.465C113.296 196.89 112.102 195.277 112.021 193.561C111.948 191.917 112.793 190.396 113.389 188.863C113.985 187.325 114.294 185.451 113.293 184.149C112.455 183.06 110.868 182.616 110.316 181.359C109.914 180.446 110.194 179.381 110.629 178.484C111.059 177.587 111.641 176.743 111.866 175.772C112.095 174.801 111.841 173.615 110.966 173.141C110.2 172.73 109.217 173.003 108.537 173.546C107.858 174.09 107.396 174.851 106.891 175.562C105.283 177.819 103.032 179.574 100.498 180.696C101.139 173.275 105.108 166.554 111.159 162.384C111.387 163.007 111.83 163.574 112.4 163.91C113.679 164.668 115.287 164.559 116.752 164.301C118.217 164.042 119.713 163.66 121.175 163.941C122.637 164.223 124.059 165.439 123.968 166.923C123.87 168.576 122.089 169.567 120.488 169.983C119.671 170.2 118.818 170.355 118.12 170.824C117.42 171.293 116.918 172.195 117.203 172.988C117.546 173.927 118.786 174.276 119.185 175.195C119.72 176.416 118.493 177.653 117.358 178.354C116.223 179.054 114.86 179.994 115.026 181.316C115.143 182.25 116.057 182.922 116.986 183.085C117.911 183.25 118.86 183.033 119.785 182.845C122.092 182.374 124.514 182.113 126.79 182.722C129.066 183.332 131.188 184.953 131.842 187.216C132.491 189.474 131.262 192.276 128.983 192.874Z" fill="#93AA35"/>
<path d="M149.625 178.138C150.752 183.971 149.74 189.724 147.131 194.578C146.969 194.55 146.804 194.538 146.644 194.524C145.029 194.414 143.447 194.984 141.834 195.139C140.221 195.294 138.338 194.863 137.598 193.417C136.996 192.228 137.403 190.733 138.213 189.668C139.022 188.604 140.171 187.867 141.247 187.072C142.319 186.276 143.377 185.356 143.868 184.114C144.355 182.873 144.088 181.237 142.948 180.544C141.975 179.952 140.713 180.197 139.666 180.639C138.623 181.081 137.632 181.714 136.506 181.878C135.379 182.041 134.036 181.536 133.75 180.433C133.577 179.77 133.821 179.047 133.606 178.397C133.337 177.561 132.385 177.132 131.505 177.091C130.628 177.05 129.764 177.295 128.887 177.352C128.009 177.403 127.032 177.215 126.504 176.513C125.847 175.648 126.172 174.34 126.924 173.557C127.676 172.779 128.741 172.402 129.765 172.042C130.784 171.678 131.845 171.287 132.585 170.492C133.318 169.692 133.596 168.364 132.9 167.532C131.98 166.42 130.023 166.808 129.027 165.759C128.14 164.823 128.555 163.168 129.549 162.343C130.546 161.513 131.899 161.306 133.185 161.156C134.177 161.038 135.239 160.945 136.165 160.541C136.17 160.54 136.17 160.54 136.17 160.54C142.918 163.856 148.087 170.18 149.625 178.138Z" fill="#93AA35"/>
<path d="M138.992 202.138C139.092 202.579 139.106 203.028 139.075 203.481C136.396 205.278 133.317 206.578 129.951 207.229C124.939 208.197 119.989 207.584 115.616 205.735C115.739 204.854 116.101 204.003 116.658 203.312C117.671 202.053 119.276 201.326 120.887 201.29C121.396 201.28 121.911 201.332 122.414 201.27C122.922 201.211 123.44 201.023 123.755 200.624C124.3 199.939 124.106 198.854 124.698 198.216C125.33 197.525 126.546 197.78 127.196 198.454C127.846 199.127 128.111 200.072 128.453 200.948C128.79 201.825 129.297 202.731 130.172 203.068C131.051 203.408 132.055 203.067 132.842 202.543C133.622 202.014 134.277 201.315 135.071 200.808C135.866 200.302 136.9 200.014 137.749 200.423C138.409 200.74 138.83 201.423 138.992 202.138Z" fill="#93AA35"/>
<path d="M55.802 196.591L53.9651 192.072L55.9342 187.609C56.1462 187.129 55.7709 186.595 55.2471 186.632L50.3822 186.983L46.7457 183.732C46.3542 183.381 45.7306 183.574 45.6047 184.085L44.4349 188.82L40.2185 191.273C39.7646 191.537 39.7546 192.189 40.2011 192.466L44.3426 195.043L45.3727 199.81C45.4837 200.324 46.101 200.535 46.5026 200.196L50.2326 197.053L55.085 197.545C55.6087 197.6 55.9991 197.078 55.802 196.591Z" fill="#FDCB6A"/>
<path d="M180.275 120.85L182.095 116.325L186.612 114.484C187.098 114.286 187.199 113.641 186.795 113.304L183.053 110.175L182.697 105.31C182.659 104.787 182.077 104.491 181.632 104.771L177.499 107.362L172.763 106.196C172.253 106.07 171.793 106.533 171.921 107.043L173.108 111.774L170.536 115.918C170.259 116.365 170.557 116.946 171.081 116.981L175.947 117.312L179.093 121.04C179.435 121.441 180.08 121.338 180.275 120.85Z" fill="#FDCB6A"/>
<path d="M365.151 110.917L361.007 108.344L359.974 103.578C359.863 103.064 359.244 102.855 358.844 103.193L355.116 106.339L350.263 105.849C349.74 105.797 349.35 106.319 349.547 106.806L351.387 111.323L349.422 115.787C349.21 116.267 349.587 116.801 350.11 116.762L354.975 116.408L358.614 119.657C359.006 120.007 359.629 119.814 359.755 119.304L360.923 114.567L365.136 112.111C365.588 111.848 365.597 111.194 365.151 110.917Z" fill="#FDCB6A"/>
<path d="M89.4806 156.448L90.6229 154.835L92.5759 154.535C92.7866 154.502 92.8864 154.258 92.7592 154.087L91.5794 152.503L91.8962 150.553C91.9299 150.343 91.7291 150.172 91.5271 150.24L89.6552 150.873L87.8993 149.969C87.7098 149.872 87.4853 150.01 87.4878 150.224L87.5115 152.199L86.1085 153.591C85.9576 153.74 86.02 153.997 86.2232 154.061L88.1088 154.648L88.998 156.412C89.094 156.601 89.3572 156.621 89.4806 156.448Z" fill="#FDCB6A"/>
<path d="M144.856 53.3904L145.998 51.778L147.951 51.4774C148.162 51.445 148.262 51.2005 148.135 51.0297L146.955 49.4459L147.272 47.4955C147.305 47.286 147.105 47.1151 146.903 47.1825L145.031 47.8147L143.275 46.9106C143.085 46.8133 142.861 46.9518 142.863 47.165L142.887 49.1404L141.484 50.5321C141.333 50.6818 141.395 50.9387 141.599 51.0023L143.484 51.5896L144.373 53.353C144.47 53.5438 144.733 53.5638 144.856 53.3904Z" fill="#FDCB6A"/>
<path d="M380.344 41.5809L381.487 39.9684L383.44 39.6678C383.65 39.6354 383.75 39.391 383.623 39.2201L382.443 37.6363L382.76 35.6859C382.794 35.4764 382.593 35.3055 382.391 35.3729L380.519 36.0052L378.763 35.101C378.574 35.0038 378.349 35.1422 378.352 35.3554L378.375 37.3308L376.972 38.7226C376.821 38.8722 376.884 39.1291 377.087 39.1927L378.973 39.7801L379.862 41.5434C379.958 41.7355 380.222 41.7542 380.344 41.5809Z" fill="#FDCB6A"/>
<path d="M308.351 127.797L309.493 126.185L311.446 125.884C311.657 125.852 311.756 125.608 311.629 125.437L310.449 123.853L310.766 121.904C310.8 121.694 310.599 121.523 310.397 121.591L308.525 122.223L306.768 121.319C306.578 121.222 306.354 121.36 306.356 121.573L306.38 123.549L304.977 124.94C304.826 125.09 304.889 125.347 305.092 125.41L306.977 125.998L307.867 127.761C307.964 127.951 308.227 127.971 308.351 127.797Z" fill="#FDCB6A"/>
<path d="M414.345 182.543L416.258 183.037L417.234 184.754C417.339 184.939 417.603 184.946 417.718 184.767L418.778 183.099L420.713 182.702C420.922 182.659 421.01 182.41 420.874 182.245L419.617 180.721L419.837 178.758C419.86 178.548 419.651 178.387 419.453 178.464L417.614 179.189L415.815 178.373C415.622 178.286 415.403 178.435 415.417 178.647L415.539 180.619L414.207 182.078C414.064 182.236 414.139 182.49 414.345 182.543Z" fill="#FDCB6A"/>
<path d="M6.06715 144.912L7.98017 145.406L8.95663 147.123C9.06139 147.308 9.32577 147.315 9.4405 147.136L10.5005 145.469L12.436 145.071C12.6442 145.028 12.7328 144.779 12.5969 144.614L11.3398 143.09L11.5593 141.127C11.583 140.915 11.3735 140.756 11.1752 140.833L9.33699 141.558L7.53746 140.742C7.34416 140.655 7.12592 140.804 7.13964 141.016L7.26185 142.988L5.92997 144.447C5.78531 144.606 5.86013 144.859 6.06715 144.912Z" fill="#FDCB6A"/>
<path d="M380.739 147.517L428.975 148.298L442.669 105.061L403.365 94.0938" stroke="white" stroke-width="0.5" stroke-miterlimit="10"/>
<path d="M444 103.135C445.146 104.048 445.334 105.718 444.421 106.864C443.509 108.01 441.839 108.198 440.693 107.285C439.547 106.372 439.358 104.702 440.271 103.556C441.185 102.41 442.854 102.222 444 103.135Z" fill="white"/>
<path d="M430.695 146.14C431.841 147.053 432.029 148.722 431.116 149.869C430.203 151.015 428.534 151.203 427.387 150.29C426.241 149.377 426.053 147.707 426.966 146.561C427.88 145.415 429.549 145.227 430.695 146.14Z" fill="white"/>
<path d="M382.642 145.64C383.789 146.553 383.977 148.223 383.064 149.369C382.151 150.515 380.481 150.703 379.335 149.791C378.189 148.878 378.001 147.208 378.914 146.062C379.827 144.916 381.496 144.726 382.642 145.64Z" fill="white"/>
<path d="M404.986 92.0597C406.132 92.9725 406.321 94.6424 405.408 95.7884C404.495 96.9345 402.825 97.1228 401.679 96.2099C400.533 95.2971 400.345 93.6272 401.257 92.4812C402.17 91.3351 403.84 91.1468 404.986 92.0597Z" fill="white"/>
<path d="M227.871 5.39114L193.137 1.92676L183.965 39.4352L214.389 59.1927L234.614 38.8353L227.871 5.39114Z" stroke="white" stroke-width="0.5811" stroke-miterlimit="10"/>
<path d="M214.136 61.1928C212.939 60.9259 212.186 59.74 212.451 58.5428C212.718 57.3456 213.904 56.5923 215.101 56.858C216.298 57.1249 217.052 58.3108 216.786 59.508C216.519 60.704 215.333 61.4585 214.136 61.1928Z" fill="white"/>
<path d="M182.936 41.4575C181.739 41.1906 180.986 40.0046 181.252 38.8074C181.518 37.6102 182.704 36.857 183.9 37.1226C185.098 37.3895 185.851 38.5755 185.585 39.7727C185.318 40.9699 184.132 41.7244 182.936 41.4575Z" fill="white"/>
<path d="M192.927 4.94548C191.729 4.67861 190.976 3.49263 191.242 2.29668C191.509 1.09949 192.695 0.346254 193.891 0.611882C195.088 0.878757 195.841 2.06472 195.575 3.26067C195.31 4.45787 194.124 5.21236 192.927 4.94548Z" fill="white"/>
<path d="M226.376 4.68458C227.17 3.75052 228.571 3.63703 229.505 4.43018C230.439 5.22457 230.552 6.62504 229.759 7.5591C228.966 8.49316 227.564 8.60789 226.63 7.8135C225.695 7.02036 225.582 5.61865 226.376 4.68458Z" fill="white"/>
<path d="M232.922 37.8535C233.716 36.9195 235.117 36.806 236.051 37.5991C236.985 38.3923 237.1 39.794 236.305 40.728C235.511 41.6621 234.11 41.7756 233.176 40.9824C232.242 40.1881 232.129 38.7876 232.922 37.8535Z" fill="white"/>
<path d="M428.662 401.941H8.7832C8.7832 401.941 41.0576 354.876 77.3352 331.493L129.114 330.82L141.398 330.658L144.303 330.62L179.995 330.146L182.614 330.109L223.568 329.573L226.062 329.535L259.671 329.099L262.302 329.061L299.789 328.575L302.383 328.538L326.789 328.213L374.739 327.59C401.065 350.15 428.662 401.941 428.662 401.941Z" fill="#8F7CD7"/>
<path d="M129.114 330.819C113.775 353.354 100.319 377.173 88.9455 401.94H8.7832C8.7832 401.94 41.0576 354.876 77.3352 331.493L129.114 330.819Z" fill="#3F2992"/>
<path d="M428.662 401.941H360.884C349.51 377.361 338.149 352.793 326.789 328.213L374.739 327.59C401.065 350.15 428.662 401.941 428.662 401.941Z" fill="#3F2992"/>
<path d="M144.303 330.621C143.306 332.33 142.321 334.038 141.348 335.759C129.214 357.146 118.364 379.257 108.874 401.942H106.18C107.577 398.562 109.011 395.195 110.483 391.84C119.649 370.889 129.974 350.462 141.398 330.659L144.303 330.621Z" fill="#3F2992"/>
<path d="M182.614 330.109C182.402 330.858 182.19 331.593 181.978 332.342C175.281 355.637 168.247 378.845 160.865 401.941H158.258C159.593 397.788 160.915 393.623 162.224 389.445C168.397 369.754 174.321 349.988 179.995 330.147L182.614 330.109Z" fill="#3F2992"/>
<path d="M226.062 329.535C226.025 330.396 225.987 331.256 225.95 332.117C224.902 355.387 223.867 378.658 222.845 401.941H220.338C220.488 398.773 220.625 395.605 220.762 392.438C221.697 371.474 222.633 350.524 223.568 329.573L226.062 329.535Z" fill="#3F2992"/>
<path d="M283.19 401.941H280.634C280.621 401.841 280.596 401.741 280.571 401.642C274.972 377.099 268.001 352.868 259.67 329.099L262.302 329.062C263.462 332.366 264.596 335.671 265.694 339.001C272.54 359.69 278.377 380.691 283.19 401.941Z" fill="#3F2992"/>
<path d="M326.202 401.94H323.583C321.85 396.64 320.129 391.34 318.42 386.027C312.21 366.872 306 347.73 299.789 328.575L302.383 328.537C302.458 328.749 302.52 328.961 302.595 329.173L326.202 401.94Z" fill="#3F2992"/>
<path d="M250.328 149.449C250.567 146.708 252.257 144.349 253.614 141.956C254.971 139.562 256.048 136.654 254.989 134.113C253.916 131.534 250.973 130.168 249.713 127.675C248.531 125.333 249.068 122.543 249.056 119.919C249.028 113.857 245.654 107.917 240.462 104.79C236.898 102.642 232.569 101.906 228.464 102.542C220.927 97.1562 211.521 94.1831 202.381 95.5013C192.379 96.9442 183.048 104.044 180.271 113.761C179.393 116.831 179.13 120.139 177.536 122.906C175.54 126.372 171.828 128.396 168.603 130.761C165.378 133.127 162.279 136.54 162.578 140.528C162.843 144.063 165.733 146.978 166.039 150.509C166.59 156.869 158.716 161.994 160.044 168.238C161.003 172.749 166.351 174.88 170.961 174.832C175.572 174.783 180.176 173.344 184.734 174.039C189.716 174.798 193.925 177.978 198.22 180.614C202.515 183.252 207.634 185.481 212.476 184.085C218.025 182.486 221.421 176.649 226.814 174.589C230.24 173.28 234.057 173.657 237.68 174.224C241.303 174.793 244.994 175.535 248.606 174.9C252.217 174.266 255.805 171.871 256.596 168.29C258.056 161.676 249.738 156.197 250.328 149.449Z" fill="#3F2992"/>
<path d="M200.744 366.167L98.2149 340.825C89.2721 338.616 83.8149 329.574 86.0247 320.632C87.9701 312.761 95.2132 307.595 103.016 307.974L208.508 313.042C223.387 313.756 234.87 326.398 234.154 341.277C233.44 356.156 220.798 367.639 205.919 366.924C204.193 366.841 202.367 366.556 200.744 366.167Z" fill="#F85E78"/>
<path d="M226.997 366.167L329.526 340.825C338.469 338.616 343.926 329.574 341.716 320.632C339.77 312.761 332.527 307.595 324.724 307.974L219.233 313.042C204.354 313.756 192.871 326.398 193.585 341.277C194.3 356.156 206.942 367.639 221.82 366.924C223.549 366.841 225.375 366.556 226.997 366.167Z" fill="#F85E78"/>
<path d="M186.048 294.847C182.42 302.672 174.776 311.573 165.239 320.978H270.947C263.046 313.254 255.604 305.13 250.642 294.847H186.048Z" fill="#F85E78"/>
<path d="M210.475 336.57C210.375 336.57 210.279 336.516 210.229 336.421C205.592 327.57 197.598 320.4 188.295 316.749C188.154 316.694 188.083 316.533 188.139 316.389C188.194 316.249 188.355 316.179 188.499 316.234C197.923 319.932 206.021 327.197 210.72 336.164C210.79 336.299 210.739 336.467 210.603 336.539C210.563 336.56 210.518 336.57 210.475 336.57Z" fill="#3F2992"/>
<path d="M221.233 335.708C221.205 335.708 221.175 335.704 221.146 335.694C221.001 335.647 220.923 335.49 220.971 335.344C223.634 327.314 229.768 320.319 237.386 316.637C237.519 316.569 237.687 316.627 237.755 316.765C237.822 316.902 237.765 317.068 237.626 317.134C230.144 320.754 224.114 327.627 221.498 335.52C221.457 335.635 221.348 335.708 221.233 335.708Z" fill="#3F2992"/>
<path d="M257.928 379.921L97.6101 340.865C88.7807 338.714 83.3672 329.813 85.5184 320.984C87.6696 312.155 96.57 306.741 105.399 308.892C105.899 309.015 106.413 309.167 106.89 309.331L262.807 363.337C267.323 364.901 269.716 369.83 268.151 374.345C266.683 378.589 262.205 380.949 257.928 379.921Z" fill="#F9BEE6"/>
<path d="M250.718 358.899C255.785 360.448 265.546 359.38 269.414 363.549C273.283 367.718 268.867 378.221 270.464 382.241C272.062 386.26 277.919 396.583 278.226 400.594C278.532 404.604 275.717 413.169 272.014 412.485C268.312 411.799 269.171 408.265 269.171 408.265C269.171 408.265 266.455 407.302 265.724 405.643C260.795 404.749 259.325 401.089 258.288 397.8C257.25 394.512 252.237 384.062 249.102 381.035C245.967 378.007 241.689 376.942 240.437 375.605C239.185 374.268 244.745 357.27 250.718 358.899Z" fill="#F9BEE6"/>
<path d="M169.491 363.34L325.408 309.334C333.994 306.359 343.367 310.909 346.34 319.496C349.315 328.082 344.765 337.454 336.178 340.428C335.691 340.597 335.176 340.746 334.688 340.867L174.37 379.922C169.728 381.053 165.047 378.206 163.916 373.563C162.852 369.201 165.339 364.793 169.491 363.34Z" fill="#F9BEE6"/>
<path d="M181.858 358.935C176.791 360.484 167.03 359.416 163.162 363.585C159.293 367.754 163.709 378.257 162.112 382.277C160.514 386.296 154.657 396.619 154.35 400.63C154.044 404.64 156.859 413.205 160.562 412.521C164.264 411.835 163.405 408.301 163.405 408.301C163.405 408.301 166.121 407.338 166.852 405.679C171.782 404.785 173.251 401.125 174.288 397.836C175.326 394.547 180.339 384.098 183.474 381.071C186.609 378.043 190.887 376.978 192.138 375.641C193.391 374.304 187.831 357.307 181.858 358.935Z" fill="#F9BEE6"/>
<path d="M255.747 360.373C255.729 360.373 255.71 360.371 255.69 360.368C250.465 359.272 216.473 347.579 215.029 347.082C214.884 347.032 214.807 346.875 214.857 346.73C214.907 346.586 215.069 346.508 215.209 346.558C215.562 346.68 250.613 358.736 255.805 359.825C255.954 359.856 256.05 360.003 256.019 360.154C255.991 360.283 255.876 360.373 255.747 360.373Z" fill="#3F2992"/>
<path d="M216.363 369.967C216.342 369.967 216.32 369.965 216.297 369.96L176.23 360.105C176.081 360.069 175.99 359.918 176.026 359.77C176.063 359.622 176.217 359.533 176.362 359.567L216.429 369.421C216.578 369.457 216.668 369.608 216.633 369.757C216.6 369.884 216.487 369.967 216.363 369.967Z" fill="#3F2992"/>
<path d="M147.541 296.378L68.0133 322.142C64.3718 323.321 60.4623 321.325 59.2825 317.683C58.1901 314.311 59.8213 310.711 62.9602 309.259L138.793 274.078C144.805 271.29 151.938 273.901 154.728 279.913C157.516 285.924 154.904 293.059 148.893 295.848C148.469 296.045 147.974 296.235 147.541 296.378Z" fill="#F9BEE6"/>
<path d="M74.1465 318.945C72.3656 321.945 65.5653 327.787 61.1133 328.621C55.7907 329.619 40.0501 327.874 39.1435 325.984C38.3678 324.366 49.68 323.697 49.68 323.697C49.68 323.697 36.0644 323.348 35.2613 320.947C34.8373 319.68 45.006 318.977 45.006 318.977C45.006 318.977 32.1885 317.166 32.5576 315.334C33.0128 313.077 43.7103 314.678 43.7103 314.678C43.7103 314.678 40.4703 312.873 40.2858 310.458C40.1523 308.712 43.3598 302.01 45.1344 302.924C46.4152 303.584 44.1492 310.313 44.1492 310.313C44.1492 310.313 47.5089 313.017 51.5444 312.78C55.58 312.544 56.7722 308.712 56.7722 308.712C56.7722 308.712 46.2892 308.235 46.6234 306.163C46.9577 304.089 55.3767 303.561 56.7722 303.717C58.1677 303.873 65.4531 305.845 67.719 307.099C69.985 308.354 75.1254 315.757 74.1465 318.945Z" fill="#F9BEE6"/>
<path d="M144.635 295.831C142.761 295.831 140.86 295.39 139.086 294.461C133.227 291.389 130.966 284.151 134.035 278.292L177.18 195.96C180.252 190.101 187.49 187.845 193.349 190.911C199.207 193.982 201.468 201.22 198.398 207.079L155.253 289.411C153.113 293.495 148.946 295.831 144.635 295.831Z" fill="#F9BEE6"/>
<path d="M297.008 273.908L374.229 305.929C377.765 307.395 379.443 311.451 377.976 314.988C376.618 318.262 373.04 319.942 369.711 319.009L289.188 296.549C282.804 294.769 279.073 288.152 280.854 281.768C282.634 275.384 289.251 271.653 295.635 273.434C296.085 273.56 296.585 273.737 297.008 273.908Z" fill="#F9BEE6"/>
<path d="M366.004 316.931C367.757 319.884 374.452 325.635 378.837 326.457C384.077 327.44 399.576 325.721 400.467 323.861C401.232 322.268 390.094 321.609 390.094 321.609C390.094 321.609 403.499 321.266 404.291 318.901C404.709 317.654 394.696 316.961 394.696 316.961C394.696 316.961 407.315 315.177 406.951 313.374C406.503 311.152 395.971 312.728 395.971 312.728C395.971 312.728 399.161 310.952 399.343 308.573C399.474 306.854 396.316 300.255 394.569 301.155C393.308 301.805 395.539 308.429 395.539 308.429C395.539 308.429 392.232 311.091 388.259 310.859C384.285 310.627 383.111 306.853 383.111 306.853C383.111 306.853 393.431 306.384 393.103 304.343C392.774 302.301 384.486 301.781 383.112 301.935C381.738 302.088 374.566 304.03 372.335 305.264C370.102 306.501 365.04 313.791 366.004 316.931Z" fill="#F9BEE6"/>
<path d="M291.631 295.831C287.319 295.831 283.153 293.494 281.012 289.41L237.867 207.078C234.797 201.219 237.057 193.981 242.917 190.91C248.771 187.842 256.014 190.1 259.086 195.959L302.231 278.291C305.301 284.15 303.04 291.388 297.182 294.46C295.406 295.39 293.505 295.831 291.631 295.831Z" fill="#F9BEE6"/>
<path d="M84.0384 297.722C84.0384 297.722 75.5844 301.093 74.4596 303.16C73.3347 305.229 78.6872 318.315 80.3957 318.72C82.1042 319.124 91.5932 314.898 91.5932 314.898L84.0384 297.722Z" fill="#9CA0E1"/>
<path d="M187.786 188.205L186.388 214.92L186.316 216.318L185.292 235.958L185.22 237.399L184.86 244.229C184.86 244.229 182.41 248.235 178.995 253.84C176.631 257.716 173.822 262.356 171.041 266.967C170.695 267.529 170.363 268.077 170.032 268.638C165.55 276.059 161.343 283.163 159.469 286.564C159.21 287.039 158.994 287.443 158.835 287.759C158.821 287.803 158.792 287.845 158.778 287.874C155.551 294.157 152.207 296.419 146.847 299.157C144.671 300.266 136.156 303.09 126.4 306.088C125.737 306.275 125.075 306.477 124.411 306.679C110.304 310.973 94.3964 315.411 91.4421 315.584C87.5375 315.815 81.7448 297.991 83.1427 295.973C83.6902 295.166 87.5088 293.163 92.8114 290.67C93.3588 290.411 93.9063 290.151 94.4824 289.878C98.6464 287.948 103.56 285.757 108.46 283.624C108.964 283.393 109.497 283.163 110.016 282.947C122.033 277.717 133.532 272.962 133.532 272.962C133.532 272.962 133.532 272.962 133.532 272.947C133.59 272.846 133.792 272.443 134.152 271.764C136.357 267.456 144.267 252.067 152.049 236.764C152.293 236.274 152.553 235.77 152.812 235.28C157.264 226.475 161.63 217.829 164.787 211.461C165.002 211.028 165.204 210.596 165.406 210.179C167.106 206.749 168.374 204.098 169.038 202.628C173.348 192.902 177.18 190.265 187.786 188.205Z" fill="white"/>
<path d="M359.214 298.754C359.214 298.754 366.948 301.002 367.309 302.397C367.669 303.791 365.105 317.416 363.531 317.642C361.957 317.867 353.278 315.169 353.278 315.169L359.214 298.754Z" fill="#9CA0E1"/>
<path d="M354.128 316.059C351.837 316.851 322.773 309.1 303.97 303.725H303.955C301.044 302.889 298.379 302.111 296.102 301.447C296.102 301.447 296.102 301.447 296.087 301.434C292.629 300.396 290.05 299.589 288.839 299.157C281.692 296.578 278.406 292.687 274.976 286.621C273.967 284.82 270.826 278.839 266.893 271.303C266.677 270.885 266.446 270.453 266.23 270.021C262.152 262.212 257.354 252.961 253.262 245.036C252.339 243.264 251.461 241.549 250.624 239.935C250.365 239.431 250.106 238.926 249.861 238.436H249.846C246.316 231.606 243.867 226.851 243.867 226.851L242.858 205.381L242.8 203.941L241.936 185.468C253.622 187.211 258.479 190.295 263.363 198.552C263.623 198.955 263.853 199.388 264.098 199.82C264.401 200.339 264.689 200.872 264.977 201.42C267.398 206.002 274.949 220.456 282.672 235.24C282.903 235.686 283.147 236.148 283.378 236.609H283.393C286.736 243.05 290.107 249.492 293.061 255.155C293.277 255.587 293.508 256.005 293.724 256.423C298.883 266.308 302.629 273.498 302.629 273.498C302.629 273.498 304.92 274.419 308.58 275.918C309.286 276.193 310.02 276.51 310.813 276.826C315.9 278.901 322.802 281.74 329.819 284.679C330.324 284.881 330.857 285.097 331.375 285.313C345.309 291.149 359.229 297.171 359.849 298.224C361.103 300.339 356.06 315.397 354.128 316.059Z" fill="white"/>
<path d="M257.369 216.907C256.028 224.27 254.933 231.331 254.055 238.291C253.983 238.795 253.926 239.314 253.868 239.819C253.638 241.562 253.437 243.292 253.263 245.035C252.068 255.943 251.362 266.822 250.973 278.479C250.959 279.027 250.929 279.589 250.915 280.15C250.771 284.891 250.684 289.775 250.641 294.849C237.989 297.933 225.583 300.382 214.055 300.584H214.04C213.031 300.599 212.037 300.599 211.044 300.584C205.194 300.483 199.603 299.748 194.329 298.177C193.825 298.034 193.32 297.874 192.816 297.687C190.497 296.924 188.234 295.987 186.043 294.849L183.421 265.626L183.291 264.243L182.671 257.355C181.548 256.476 180.251 255.309 178.996 253.84C176.431 250.857 174.025 246.664 173.751 241.232C173.665 239.733 173.722 238.292 173.881 236.909C173.924 236.419 173.995 235.944 174.068 235.468C174.976 230.007 177.482 225.395 180.047 221.116L181.287 215.857L181.604 214.474L187.786 188.206L213.06 181.765L241.936 185.467L249.977 201.851L250.597 203.12L257.369 216.907Z" fill="white"/>
<path d="M226.692 260.753C226.449 260.753 226.204 260.752 225.957 260.746C225.763 260.742 225.608 260.581 225.612 260.387C225.616 260.191 225.803 260.041 225.971 260.041C226.199 260.045 226.426 260.049 226.651 260.049C240.012 260.049 247.247 252.15 248.128 246.429C248.157 246.239 248.342 246.105 248.529 246.135C248.723 246.165 248.854 246.345 248.824 246.537C247.968 252.095 241.203 260.753 226.692 260.753Z" fill="#3F2992"/>
<path d="M253.334 232.012C253.187 232.012 253.05 231.918 253 231.771C248.876 219.341 248.035 205.983 250.567 193.135C250.604 192.944 250.781 192.821 250.981 192.858C251.17 192.896 251.296 193.081 251.258 193.271C248.749 205.999 249.583 219.234 253.668 231.548C253.731 231.733 253.63 231.932 253.445 231.994C253.409 232.005 253.372 232.012 253.334 232.012Z" fill="#3F2992"/>
<path d="M179.741 222.03C179.564 222.03 179.412 221.898 179.392 221.718C178.421 213.239 178.53 205.888 179.736 198.585C179.767 198.392 179.952 198.264 180.142 198.294C180.332 198.326 180.463 198.508 180.432 198.701C179.236 205.936 179.128 213.226 180.09 221.638C180.113 221.831 179.974 222.006 179.781 222.028C179.767 222.028 179.754 222.03 179.741 222.03Z" fill="#3F2992"/>
<path d="M185.696 259.764C185.64 259.764 185.585 259.752 185.532 259.723C185.417 259.663 174.046 253.519 173.398 241.245C172.916 232.101 177.179 225.12 180.94 218.962L181.307 218.362C181.41 218.194 181.628 218.145 181.791 218.244C181.956 218.346 182.01 218.563 181.909 218.728L181.541 219.329C177.834 225.4 173.632 232.282 174.102 241.208C174.727 253.074 185.75 259.04 185.862 259.099C186.034 259.191 186.099 259.404 186.008 259.576C185.943 259.694 185.822 259.764 185.696 259.764Z" fill="#3F2992"/>
<path d="M222.535 155.82L224.376 184.108C224.376 184.108 212.039 192.062 202.084 185.8L202.432 164.332L222.535 155.82Z" fill="#F9BEE6"/>
<path d="M202.281 173.644C215.2 174.646 222.263 166.31 222.263 166.31H202.401L202.281 173.644Z" fill="#3F2992"/>
<path d="M192.796 186.926C192.796 186.926 193.472 210.068 209.015 210.159C227.314 210.267 233.691 184.404 233.691 184.404L213.229 181.715L192.796 186.926Z" fill="#F9BEE6"/>
<path d="M202.29 108.477C224.54 105.161 236.222 118.019 234.339 142.985C232.84 162.86 220.448 173.878 204.997 171.391C192.77 169.422 185.039 159.72 183.773 144.954C181.968 123.881 189.077 110.446 202.29 108.477Z" fill="#F9BEE6"/>
<path d="M197.223 118.051C200.185 119.058 203.744 118.049 206.354 119.772C210.246 122.344 209.252 129.04 213.078 131.708C215.743 133.566 219.543 132.572 222.449 134.024C226.224 135.909 227.378 141.305 231.323 142.807C233.7 143.712 236.503 142.821 238.339 141.06C240.173 139.299 241.157 136.812 241.635 134.313C242.863 127.879 240.953 121.032 237.022 115.794C233.09 110.556 227.27 106.885 220.996 105.007C214.722 103.129 208.012 102.971 201.535 103.943C199.61 104.231 197.662 104.631 195.962 105.58C194.131 106.603 192.592 108.299 192.604 110.451C192.614 112.599 192.914 114.445 194.394 116.127C195.154 116.994 196.127 117.68 197.223 118.051Z" fill="#3F2992"/>
<path d="M231.195 144.435C229.787 147.916 230.8 151.274 233.32 152.294C235.84 153.314 239.024 151.32 240.432 147.84C241.84 144.359 240.938 140.71 238.419 139.689C235.899 138.669 232.603 140.955 231.195 144.435Z" fill="#F9BEE6"/>
<path d="M233.624 149.079C233.335 149.079 233.063 148.898 232.961 148.611C232.83 148.243 233.021 147.841 233.387 147.711C233.901 147.528 234.467 147.048 234.501 146.425C234.513 146.186 234.417 145.934 234.304 145.642C234.184 145.327 234.047 144.969 234.021 144.55C233.972 143.779 234.273 142.977 234.824 142.405C235.527 141.673 236.45 141.315 237.294 141.459C238.701 141.688 239.437 143.049 239.437 144.275C239.437 144.664 239.121 144.98 238.732 144.98C238.343 144.98 238.028 144.664 238.028 144.275C238.028 143.66 237.691 142.952 237.067 142.85C236.691 142.792 236.212 142.997 235.84 143.382C235.557 143.675 235.403 144.078 235.427 144.462C235.44 144.667 235.523 144.886 235.622 145.138C235.769 145.525 235.938 145.961 235.908 146.5C235.85 147.602 235.028 148.624 233.861 149.038C233.783 149.067 233.703 149.079 233.624 149.079Z" fill="#3F2992"/>
<path d="M185.633 131.997C185.633 131.997 192.428 130.842 196.62 131.591C194.331 128.426 188.27 129.957 185.633 131.997Z" fill="#3F2992"/>
<path d="M218.536 131.997C218.536 131.997 211.74 130.842 207.549 131.591C209.837 128.426 215.898 129.957 218.536 131.997Z" fill="#3F2992"/>
<path d="M200 151.06C199.958 151.06 199.913 151.056 199.869 151.048C198.683 150.828 197.84 150.33 197.436 149.611C197.207 149.201 197.007 148.513 197.365 147.569C197.566 147.041 197.967 146.371 198.393 145.66C198.779 145.017 199.178 144.351 199.338 143.922C199.474 143.555 199.882 143.372 200.245 143.508C200.609 143.644 200.795 144.05 200.659 144.414C200.454 144.963 200.039 145.654 199.6 146.385C199.226 147.009 198.838 147.657 198.682 148.067C198.481 148.596 198.618 148.838 198.663 148.918C198.852 149.253 199.385 149.525 200.127 149.662C200.51 149.732 200.762 150.101 200.69 150.484C200.629 150.823 200.332 151.06 200 151.06Z" fill="#3F2992"/>
<path d="M215.858 141.945C215.767 141.613 215.346 141.306 214.991 141.452C213.028 142.268 210.871 142.317 208.878 141.577C208.522 141.445 208.106 141.724 208.011 142.07C207.903 142.464 208.145 142.803 208.504 142.936C210.699 143.751 213.204 143.71 215.367 142.812C215.717 142.666 215.968 142.344 215.858 141.945Z" fill="#3F2992"/>
<path d="M196.437 141.945C196.346 141.613 195.925 141.306 195.571 141.452C193.608 142.268 191.45 142.317 189.456 141.577C189.1 141.445 188.684 141.724 188.59 142.07C188.481 142.464 188.723 142.803 189.082 142.936C191.277 143.751 193.782 143.71 195.945 142.812C196.297 142.666 196.547 142.344 196.437 141.945Z" fill="#3F2992"/>
<path d="M207.382 154.07C204.526 155.942 200.906 156.263 197.793 154.818C196.976 154.439 196.259 155.652 197.082 156.035C200.645 157.69 204.794 157.449 208.094 155.287C208.848 154.79 208.144 153.571 207.382 154.07Z" fill="#3F2992"/>
<defs>
<linearGradient id="paint0_linear_41_740" x1="218.724" y1="90.9189" x2="218.724" y2="314.195" gradientUnits="userSpaceOnUse">
<stop stop-color="#724CF9"/>
<stop offset="1" stop-color="#CA7DF9"/>
</linearGradient>
</defs>
</svg>
