<svg width="500" height="500" viewBox="0 0 500 500" fill="none" xmlns="http://www.w3.org/2000/svg">
<g clip-path="url(#clip0_41_222)">
<path d="M378.616 338.427C450.144 266.9 450.144 150.93 378.616 79.4026C307.089 7.87486 191.119 7.87487 119.592 79.4026C48.0638 150.93 48.0638 266.9 119.592 338.427C191.119 409.955 307.089 409.955 378.616 338.427Z" stroke="#3F2992" stroke-width="1.016" stroke-miterlimit="10" stroke-dasharray="4.35 4.35"/>
<path d="M434.201 404.329C449.133 396.342 464.287 387.667 481.253 385.795C465.618 391.972 455.605 408.291 441.854 418.247C429.012 427.545 411.531 430.881 395.757 421.862C394.621 421.212 393.092 419.864 391.93 419.903C392.161 419.654 392.388 419.4 392.616 419.149C407.421 417.9 421.195 411.285 434.201 404.329Z" fill="#5E2DF9"/>
<path d="M443.49 386.032C455.264 384.619 469.332 384.933 481.481 385.701C481.404 385.731 481.329 385.765 481.252 385.795C464.286 387.667 449.132 396.342 434.2 404.329C421.194 411.286 407.421 417.9 392.615 419.148C398.808 412.325 404.224 404.484 411.178 398.708C420.295 391.136 431.715 387.445 443.49 386.032Z" fill="#724CF9"/>
<path d="M395.948 398.904C424.623 380.073 453.779 360.141 485.688 349.141C455.865 365.703 435.614 394.154 408.964 415.25C384.076 434.952 351.066 448.316 322.401 443.013C320.337 442.631 317.602 441.433 315.425 442.057C315.88 441.585 316.329 441.108 316.78 440.632C344.59 431.589 370.971 415.306 395.948 398.904Z" fill="#5E2DF9"/>
<path d="M415.031 367.952C437.187 360.153 463.472 353.727 486.126 348.892C485.979 348.973 485.835 349.059 485.689 349.14C453.78 360.14 424.624 380.073 395.949 398.903C370.971 415.305 344.591 431.588 316.78 440.631C329 427.754 339.862 413.789 353.409 402.051C371.167 386.665 392.875 375.751 415.031 367.952Z" fill="#724CF9"/>
<path d="M412.456 356.292C425.04 344.961 437.675 332.908 453.698 327.026C439.997 336.768 434.186 355.011 423.22 367.971C412.98 380.075 396.807 387.501 379.331 382.523C378.072 382.165 376.265 381.222 375.146 381.537C375.31 381.24 375.47 380.939 375.632 380.64C389.707 375.883 401.495 366.162 412.456 356.292Z" fill="#5E2DF9"/>
<path d="M417.092 336.303C428.185 332.11 441.919 329.046 453.898 326.88C453.83 326.928 453.766 326.979 453.698 327.027C437.675 332.909 425.04 344.961 412.456 356.293C401.495 366.163 389.707 375.884 375.632 380.642C380.01 372.534 383.39 363.624 388.758 356.351C395.794 346.815 405.999 340.496 417.092 336.303Z" fill="#724CF9"/>
<path d="M396.366 438.22C417.781 432.671 439.701 426.409 461.698 428.077C439.982 431.467 422.068 447.324 401.503 455.314C382.298 462.776 359.176 462.615 342.211 449.153C340.989 448.183 339.498 446.354 338.021 446.14C338.393 445.915 338.761 445.685 339.131 445.456C358.202 447.339 377.712 443.053 396.366 438.22Z" fill="#5E2DF9"/>
<path d="M414.009 420.014C429.313 421.045 446.948 424.495 462.017 428.023C461.91 428.039 461.805 428.06 461.698 428.077C439.7 426.409 417.781 432.671 396.366 438.22C377.712 443.053 358.202 447.338 339.13 445.456C349.15 439.268 358.52 431.783 369.16 426.923C383.109 420.551 398.705 418.983 414.009 420.014Z" fill="#724CF9"/>
<path d="M65.799 404.329C50.8671 396.342 35.713 387.667 18.748 385.795C34.383 391.972 44.396 408.291 58.147 418.247C70.989 427.545 88.47 430.881 104.244 421.862C105.38 421.212 106.909 419.864 108.071 419.903C107.84 419.654 107.613 419.4 107.384 419.149C92.578 417.9 78.805 411.285 65.799 404.329Z" fill="#5E2DF9"/>
<path d="M56.51 386.032C44.736 384.619 30.668 384.933 18.519 385.701C18.596 385.731 18.671 385.765 18.748 385.795C35.713 387.667 50.868 396.342 65.799 404.329C78.805 411.286 92.578 417.9 107.384 419.148C101.191 412.325 95.776 404.484 88.821 398.708C79.705 391.136 68.285 387.445 56.51 386.032Z" fill="#724CF9"/>
<path d="M104.052 398.904C75.377 380.073 46.221 360.141 14.312 349.141C44.135 365.703 64.386 394.154 91.036 415.25C115.924 434.952 148.934 448.316 177.599 443.013C179.663 442.631 182.398 441.433 184.575 442.057C184.12 441.585 183.671 441.108 183.22 440.632C155.41 431.589 129.029 415.306 104.052 398.904Z" fill="#5E2DF9"/>
<path d="M84.969 367.952C62.813 360.153 36.528 353.727 13.874 348.892C14.021 348.973 14.164 349.059 14.311 349.14C46.22 360.14 75.376 380.073 104.051 398.903C129.029 415.305 155.409 431.588 183.22 440.631C171 427.754 160.138 413.789 146.591 402.051C128.833 386.665 107.125 375.751 84.969 367.952Z" fill="#724CF9"/>
<path d="M87.5442 356.292C74.9602 344.961 62.3252 332.908 46.3022 327.026C60.0022 336.768 65.8142 355.011 76.7802 367.971C87.0202 380.075 103.193 387.501 120.669 382.523C121.928 382.165 123.735 381.222 124.854 381.537C124.69 381.24 124.53 380.939 124.368 380.64C110.293 375.883 98.5052 366.162 87.5442 356.292Z" fill="#5E2DF9"/>
<path d="M82.908 336.303C71.815 332.11 58.0821 329.046 46.1021 326.88C46.1701 326.928 46.234 326.979 46.302 327.027C62.325 332.909 74.96 344.961 87.544 356.293C98.5051 366.163 110.293 375.884 124.368 380.642C119.99 372.534 116.61 363.624 111.242 356.351C104.206 346.815 94.001 340.496 82.908 336.303Z" fill="#724CF9"/>
<path d="M103.634 438.22C82.2178 432.671 60.2988 426.409 38.3018 428.077C60.0178 431.467 77.9318 447.324 98.4968 455.314C117.702 462.776 140.824 462.615 157.789 449.153C159.011 448.183 160.502 446.354 161.979 446.14C161.607 445.915 161.239 445.685 160.869 445.456C141.798 447.339 122.288 443.053 103.634 438.22Z" fill="#5E2DF9"/>
<path d="M85.9909 420.014C70.6869 421.045 53.0519 424.495 37.9829 428.023C38.0899 428.039 38.1959 428.06 38.3019 428.077C60.2999 426.409 82.2189 432.671 103.634 438.22C122.288 443.053 141.797 447.338 160.869 445.456C150.849 439.268 141.479 431.783 130.839 426.923C116.891 420.551 101.294 418.983 85.9909 420.014Z" fill="#724CF9"/>
<path d="M249.107 380.962C344.126 380.962 421.154 303.934 421.154 208.915C421.154 113.896 344.126 36.8682 249.107 36.8682C154.088 36.8682 77.0601 113.896 77.0601 208.915C77.0601 303.934 154.088 380.962 249.107 380.962Z" fill="url(#paint0_linear_41_222)"/>
<path d="M248.102 55.3579L244.429 64.2329L236.429 67.0309L244.839 69.8329L248.102 78.7039L251.258 70.6529L259.775 67.0309L251.941 64.2329L248.102 55.3579Z" fill="#FDCB6A"/>
<path d="M118.197 170.285L114.524 179.16L106.524 181.958L114.934 184.76L118.197 193.631L121.353 185.58L129.869 181.958L122.036 179.16L118.197 170.285Z" fill="#FDCB6A"/>
<path d="M386.321 170.285L382.648 179.16L374.648 181.958L383.058 184.76L386.321 193.631L389.477 185.58L397.993 181.958L390.16 179.16L386.321 170.285Z" fill="#FDCB6A"/>
<path d="M331.553 123.806C332.218 121.933 332.563 120.06 332.811 118.187C333.046 116.314 333.156 114.441 333.158 112.569C333.16 110.696 333.051 108.823 332.815 106.951C332.568 105.078 332.222 103.205 331.553 101.332C330.884 103.205 330.538 105.078 330.291 106.951C330.056 108.824 329.946 110.697 329.948 112.569C329.95 114.442 330.059 116.315 330.295 118.187C330.543 120.06 330.888 121.933 331.553 123.806Z" fill="#FDCB6A"/>
<path d="M320.316 112.569C322.189 113.234 324.062 113.579 325.934 113.827C327.807 114.062 329.68 114.172 331.552 114.174C333.425 114.177 335.297 114.067 337.17 113.832C339.043 113.585 340.916 113.239 342.788 112.57C340.915 111.901 339.042 111.555 337.17 111.308C335.297 111.073 333.424 110.963 331.552 110.965C329.679 110.967 327.806 111.076 325.934 111.312C324.062 111.559 322.189 111.904 320.316 112.569Z" fill="#FDCB6A"/>
<path d="M339.499 120.515C338.645 118.72 337.564 117.152 336.416 115.652C335.258 114.161 334.011 112.76 332.688 111.434C331.366 110.108 329.964 108.862 328.473 107.704C326.974 106.555 325.405 105.475 323.608 104.624C324.459 106.421 325.539 107.99 326.688 109.489C327.846 110.98 329.093 112.382 330.419 113.704C331.745 115.027 333.146 116.274 334.637 117.431C336.136 118.58 337.704 119.661 339.499 120.515Z" fill="#FDCB6A"/>
<path d="M323.608 120.515C325.402 119.661 326.97 118.58 328.47 117.431C329.961 116.273 331.363 115.026 332.688 113.704C334.014 112.381 335.261 110.98 336.419 109.489C337.568 107.99 338.648 106.421 339.499 104.624C337.701 105.475 336.133 106.555 334.634 107.704C333.143 108.862 331.741 110.109 330.419 111.434C329.096 112.76 327.849 114.161 326.691 115.652C325.542 117.152 324.462 118.72 323.608 120.515Z" fill="#FDCB6A"/>
<path d="M164.935 120.841C165.6 118.968 165.945 117.095 166.193 115.222C166.428 113.349 166.538 111.476 166.54 109.604C166.543 107.731 166.433 105.858 166.197 103.986C165.95 102.113 165.604 100.24 164.935 98.3667C164.266 100.24 163.92 102.113 163.673 103.986C163.438 105.859 163.328 107.732 163.33 109.604C163.332 111.477 163.441 113.35 163.677 115.222C163.925 117.096 164.27 118.968 164.935 120.841Z" fill="#FDCB6A"/>
<path d="M153.698 109.604C155.571 110.269 157.443 110.614 159.317 110.862C161.19 111.097 163.063 111.207 164.935 111.209C166.808 111.212 168.68 111.102 170.553 110.867C172.426 110.62 174.298 110.274 176.171 109.605C174.298 108.936 172.425 108.59 170.553 108.343C168.68 108.108 166.807 107.998 164.935 108C163.062 108.002 161.189 108.111 159.317 108.347C157.443 108.595 155.57 108.939 153.698 109.604Z" fill="#FDCB6A"/>
<path d="M172.88 117.55C172.026 115.755 170.946 114.187 169.797 112.687C168.639 111.196 167.392 109.795 166.069 108.469C164.747 107.143 163.345 105.897 161.854 104.739C160.355 103.59 158.786 102.51 156.989 101.659C157.84 103.456 158.92 105.025 160.069 106.524C161.227 108.015 162.474 109.417 163.8 110.739C165.126 112.062 166.527 113.309 168.018 114.466C169.518 115.616 171.086 116.696 172.88 117.55Z" fill="#FDCB6A"/>
<path d="M156.989 117.55C158.783 116.696 160.352 115.615 161.851 114.466C163.342 113.308 164.744 112.061 166.069 110.739C167.395 109.416 168.642 108.015 169.8 106.524C170.949 105.025 172.029 103.456 172.88 101.659C171.082 102.51 169.514 103.59 168.015 104.739C166.524 105.897 165.122 107.144 163.8 108.469C162.477 109.795 161.23 111.196 160.073 112.687C158.923 114.188 157.843 115.756 156.989 117.55Z" fill="#FDCB6A"/>
<path d="M203.43 88.8061C203.729 87.9641 203.884 87.1221 203.996 86.2801C204.102 85.4381 204.151 84.5961 204.152 83.7541C204.153 82.9121 204.104 82.0701 203.998 81.2291C203.887 80.3871 203.731 79.5451 203.43 78.7031C203.129 79.5451 202.974 80.3871 202.863 81.2291C202.757 82.0711 202.708 82.9131 202.709 83.7541C202.71 84.5961 202.759 85.4381 202.865 86.2801C202.976 87.1221 203.131 87.9641 203.43 88.8061Z" fill="white"/>
<path d="M198.379 83.7552C199.221 84.0542 200.063 84.2092 200.904 84.3202C201.746 84.4262 202.588 84.4752 203.429 84.4762C204.271 84.4772 205.113 84.4282 205.955 84.3222C206.797 84.2112 207.639 84.0552 208.48 83.7542C207.638 83.4532 206.796 83.2982 205.955 83.1872C205.113 83.0812 204.271 83.0322 203.429 83.0332C202.587 83.0342 201.745 83.0832 200.904 83.1892C200.063 83.3012 199.221 83.4562 198.379 83.7552Z" fill="white"/>
<path d="M207.002 87.3271C206.618 86.5201 206.133 85.8161 205.616 85.1411C205.096 84.4711 204.535 83.8411 203.941 83.2451C203.347 82.6491 202.716 82.0881 202.046 81.5681C201.372 81.0511 200.667 80.5661 199.859 80.1831C200.242 80.9911 200.727 81.6961 201.244 82.3701C201.764 83.0401 202.325 83.6701 202.921 84.2651C203.517 84.8601 204.147 85.4201 204.817 85.9401C205.49 86.4571 206.195 86.9431 207.002 87.3271Z" fill="white"/>
<path d="M199.859 87.3271C200.666 86.9431 201.37 86.4571 202.045 85.9411C202.715 85.4201 203.345 84.8601 203.941 84.2661C204.537 83.6711 205.097 83.0411 205.618 82.3711C206.135 81.6971 206.62 80.9921 207.003 80.1841C206.195 80.5671 205.49 81.0521 204.816 81.5691C204.146 82.0901 203.516 82.6501 202.921 83.2461C202.326 83.8421 201.766 84.4721 201.245 85.1421C200.728 85.8151 200.243 86.5201 199.859 87.3271Z" fill="white"/>
<path d="M134.92 147.339C135.219 146.497 135.374 145.655 135.486 144.814C135.592 143.972 135.641 143.13 135.642 142.288C135.643 141.446 135.594 140.605 135.488 139.763C135.377 138.921 135.221 138.079 134.92 137.237C134.619 138.079 134.464 138.921 134.353 139.763C134.247 140.605 134.198 141.447 134.199 142.288C134.2 143.13 134.249 143.972 134.355 144.814C134.466 145.655 134.621 146.497 134.92 147.339Z" fill="white"/>
<path d="M129.869 142.287C130.711 142.586 131.553 142.741 132.394 142.853C133.236 142.959 134.078 143.008 134.919 143.009C135.761 143.01 136.603 142.961 137.445 142.855C138.287 142.744 139.129 142.588 139.97 142.287C139.128 141.986 138.286 141.831 137.445 141.72C136.603 141.614 135.761 141.565 134.919 141.566C134.077 141.567 133.235 141.616 132.394 141.722C131.553 141.834 130.711 141.989 129.869 142.287Z" fill="white"/>
<path d="M138.492 145.859C138.108 145.052 137.622 144.347 137.106 143.673C136.586 143.003 136.025 142.373 135.43 141.777C134.836 141.181 134.205 140.621 133.535 140.1C132.861 139.583 132.156 139.098 131.348 138.715C131.731 139.523 132.216 140.228 132.733 140.902C133.253 141.572 133.814 142.202 134.41 142.797C135.006 143.392 135.636 143.952 136.306 144.472C136.98 144.99 137.685 145.475 138.492 145.859Z" fill="white"/>
<path d="M131.349 145.859C132.156 145.475 132.86 144.989 133.535 144.473C134.205 143.953 134.835 143.392 135.431 142.798C136.027 142.203 136.588 141.573 137.108 140.903C137.625 140.229 138.11 139.524 138.493 138.716C137.685 139.099 136.98 139.584 136.306 140.101C135.636 140.621 135.006 141.182 134.411 141.778C133.816 142.374 133.256 143.004 132.735 143.674C132.218 144.348 131.733 145.053 131.349 145.859Z" fill="white"/>
<path d="M295.997 88.8061C295.698 87.9641 295.543 87.1221 295.432 86.2801C295.326 85.4381 295.277 84.5961 295.276 83.7541C295.275 82.9121 295.324 82.0701 295.43 81.2291C295.541 80.3871 295.697 79.5451 295.998 78.7031C296.299 79.5451 296.454 80.3871 296.565 81.2291C296.671 82.0711 296.72 82.9131 296.719 83.7541C296.718 84.5961 296.669 85.4381 296.563 86.2801C296.451 87.1221 296.296 87.9641 295.997 88.8061Z" fill="white"/>
<path d="M301.048 83.7552C300.206 84.0542 299.364 84.2092 298.523 84.3202C297.681 84.4262 296.839 84.4752 295.997 84.4762C295.155 84.4772 294.313 84.4282 293.472 84.3222C292.63 84.2112 291.788 84.0552 290.947 83.7542C291.789 83.4532 292.631 83.2982 293.472 83.1872C294.314 83.0812 295.156 83.0322 295.997 83.0332C296.839 83.0342 297.681 83.0832 298.523 83.1892C299.364 83.3012 300.206 83.4562 301.048 83.7552Z" fill="white"/>
<path d="M292.425 87.3271C292.809 86.5201 293.295 85.8161 293.811 85.1411C294.332 84.4711 294.892 83.8411 295.487 83.2451C296.081 82.6491 296.712 82.0881 297.382 81.5681C298.056 81.0511 298.761 80.5661 299.569 80.1831C299.186 80.9911 298.701 81.6961 298.184 82.3701C297.663 83.0401 297.103 83.6701 296.507 84.2651C295.911 84.8601 295.281 85.4201 294.611 85.9401C293.937 86.4571 293.232 86.9431 292.425 87.3271Z" fill="white"/>
<path d="M299.569 87.3271C298.762 86.9431 298.057 86.4571 297.383 85.9411C296.713 85.4201 296.083 84.8601 295.487 84.2661C294.891 83.6711 294.331 83.0411 293.81 82.3711C293.293 81.6971 292.808 80.9921 292.425 80.1841C293.233 80.5671 293.938 81.0521 294.612 81.5691C295.282 82.0901 295.912 82.6501 296.507 83.2461C297.102 83.8421 297.662 84.4721 298.183 85.1421C298.699 85.8151 299.184 86.5201 299.569 87.3271Z" fill="white"/>
<path d="M364.507 147.339C364.208 146.497 364.053 145.655 363.941 144.814C363.835 143.972 363.786 143.13 363.785 142.288C363.784 141.446 363.833 140.605 363.939 139.763C364.05 138.921 364.206 138.079 364.506 137.237C364.807 138.079 364.962 138.921 365.073 139.763C365.179 140.605 365.228 141.447 365.227 142.288C365.226 143.13 365.177 143.972 365.071 144.814C364.961 145.655 364.806 146.497 364.507 147.339Z" fill="white"/>
<path d="M369.558 142.287C368.716 142.586 367.874 142.741 367.033 142.853C366.191 142.959 365.349 143.008 364.507 143.009C363.665 143.01 362.823 142.961 361.981 142.855C361.139 142.744 360.297 142.588 359.456 142.287C360.298 141.986 361.14 141.831 361.981 141.72C362.823 141.614 363.665 141.565 364.507 141.566C365.349 141.567 366.191 141.616 367.033 141.722C367.874 141.834 368.716 141.989 369.558 142.287Z" fill="white"/>
<path d="M360.935 145.859C361.319 145.052 361.805 144.347 362.321 143.673C362.842 143.003 363.402 142.373 363.997 141.777C364.591 141.181 365.221 140.621 365.892 140.1C366.566 139.583 367.271 139.098 368.079 138.715C367.696 139.523 367.211 140.228 366.694 140.902C366.173 141.572 365.613 142.202 365.017 142.797C364.421 143.392 363.791 143.952 363.121 144.472C362.447 144.99 361.742 145.475 360.935 145.859Z" fill="white"/>
<path d="M368.078 145.859C367.271 145.475 366.566 144.989 365.892 144.473C365.222 143.953 364.592 143.392 363.996 142.798C363.4 142.203 362.839 141.573 362.319 140.903C361.802 140.229 361.317 139.524 360.934 138.716C361.742 139.099 362.447 139.584 363.121 140.101C363.791 140.621 364.421 141.182 365.016 141.778C365.611 142.374 366.171 143.004 366.692 143.674C367.209 144.348 367.694 145.053 368.078 145.859Z" fill="white"/>
<path d="M262.857 466.178C259.031 452.574 242.576 439.983 229.268 444.738C224.854 432.738 218.994 420.659 208.83 412.9C197.945 404.59 182.948 402.38 169.799 406.203C156.649 410.027 145.459 419.525 138.586 431.37C132.152 426.667 123.458 425.219 115.848 427.585C108.238 429.95 101.895 436.071 99.2609 443.592C91.1109 439.072 80.7649 438.764 72.3599 442.791C63.9549 446.818 57.7129 456.993 56.1289 466.177H262.857V466.178Z" fill="#3F2992"/>
<path d="M235.767 466.178C239.593 452.574 256.048 439.983 269.356 444.738C273.77 432.738 279.63 420.659 289.794 412.9C300.679 404.59 315.676 402.38 328.825 406.203C341.975 410.027 353.165 419.525 360.037 431.37C366.471 426.667 375.165 425.219 382.775 427.585C390.385 429.95 396.728 436.071 399.362 443.592C407.512 439.072 417.858 438.764 426.263 442.791C434.668 446.818 440.91 456.993 442.494 466.177H235.767V466.178Z" fill="#3F2992"/>
<path d="M289.171 474.084C289.171 474.084 340.51 483.743 350.12 484.729C359.73 485.715 382.401 488.425 382.401 488.425C382.401 488.425 381.19 479.695 371.826 475.506C362.462 471.317 347.41 463.045 341.742 457.131C336.074 451.217 331.365 441.276 323.014 441.114C314.663 440.952 306.504 448.26 306.504 448.26L289.171 474.084Z" fill="#F9BEE6"/>
<path d="M365.77 480.944L369.488 482.523C370.72 483.032 371.95 483.532 373.198 483.915C374.435 484.308 375.708 484.511 377.015 484.567C378.316 484.597 379.646 484.525 380.97 484.219C378.589 485.593 375.555 485.753 372.886 484.929C370.251 484.061 367.858 482.696 365.77 480.944Z" fill="#3F2992"/>
<path d="M405.758 264.342C369.343 221.632 320.644 198.48 299.01 139.884C290.105 115.764 278.586 93.4673 248.065 93.4673C217.544 93.4673 209.297 112.548 199.204 139.884C177.57 198.48 128.871 221.632 92.4557 264.342C56.0407 307.052 78.7177 326.88 78.7177 326.88C78.7177 326.88 76.4787 310.868 82.6767 297.155C88.8747 283.442 95.5577 281.16 95.5577 281.16C95.5577 281.16 55.6197 326.405 116.39 375.198C177.16 423.991 249.106 401.193 249.106 401.193C249.106 401.193 321.053 423.992 381.822 375.198C442.592 326.405 402.654 281.16 402.654 281.16C402.654 281.16 409.338 283.442 415.535 297.155C421.733 310.868 419.494 326.88 419.494 326.88C419.494 326.88 442.173 307.052 405.758 264.342Z" fill="#3F2992"/>
<path d="M258.206 465.015C257.467 465.015 222.476 472.689 201.284 475.505C180.092 478.321 153.233 477.089 153.233 477.089C153.233 477.089 155.697 465.507 166.047 463.29C176.397 461.072 188.331 459.194 192.414 455.158C196.496 451.122 204.488 444.069 204.488 444.069L258.206 465.015Z" fill="#F9BEE6"/>
<path d="M154.026 474.578C155.592 474.568 157.136 474.449 158.647 474.241C160.15 474.005 161.64 473.678 162.961 473.03C163.298 472.88 163.607 472.691 163.919 472.504L164.927 471.877C165.624 471.479 166.351 471.138 167.1 470.859C168.593 470.3 170.199 470.008 171.772 470.115C170.238 470.437 168.802 470.994 167.433 471.643C166.754 471.982 166.086 472.336 165.454 472.749L164.494 473.376C164.143 473.596 163.795 473.827 163.413 473.981C161.92 474.684 160.307 474.969 158.723 475.044C157.135 475.114 155.549 474.962 154.026 474.578Z" fill="#3F2992"/>
<path d="M200.175 326.88L188.647 359.289C188.647 359.289 118.516 332.239 98.4785 359.289C78.4415 386.339 167.107 437.434 192.654 449.457C218.202 461.479 296.848 475.505 296.848 475.505C296.848 475.505 302.358 473 306.366 463.483C310.373 453.965 310.372 442.945 310.372 442.945C310.372 442.945 391.022 406.878 401.042 374.317C411.061 341.756 371.988 344.261 350.448 348.769C328.908 353.277 314.381 359.79 314.381 359.79L300.738 334.793L200.175 326.88Z" fill="#F85E78"/>
<path d="M310.374 442.945C304.52 440.573 298.731 438.05 292.933 435.542C287.159 432.983 281.406 430.376 275.67 427.73C269.93 425.09 264.248 422.328 258.588 419.517C252.922 416.718 247.304 413.819 241.73 410.829C236.174 407.806 230.728 404.559 225.361 401.224C219.994 397.881 214.679 394.457 209.466 390.884C204.245 387.324 199.072 383.694 193.956 379.988C188.874 376.235 183.796 372.476 178.862 368.533C184.013 372.187 189.176 375.818 194.406 379.351C199.608 382.924 204.85 386.435 210.144 389.865C220.725 396.728 231.39 403.481 242.49 409.433C253.536 415.504 264.865 421.072 276.194 426.63C281.86 429.407 287.553 432.133 293.257 434.837L310.374 442.945Z" fill="#3F2992"/>
<path d="M250.138 413.986L326.233 362.15L251.045 415.293L250.138 413.986Z" fill="#3F2992"/>
<path d="M286.245 148.126C286.245 173.622 269.151 204.899 248.065 204.899C226.978 204.899 209.885 173.622 209.885 148.126C209.885 122.63 226.979 112.569 248.065 112.569C269.151 112.569 286.245 122.63 286.245 148.126Z" fill="#F9BEE6"/>
<path d="M239.611 174.616C241.026 176.291 242.546 177.827 244.229 179.07C245.087 179.664 245.962 180.207 246.897 180.581C247.833 180.94 248.797 181.149 249.768 181.163C250.739 181.146 251.704 180.94 252.638 180.578C253.573 180.205 254.447 179.66 255.305 179.067C256.988 177.824 258.508 176.289 259.925 174.615C259.066 176.644 257.759 178.496 256.089 180.029C255.251 180.796 254.287 181.44 253.235 181.96C252.157 182.434 250.977 182.71 249.768 182.752C248.559 182.708 247.378 182.436 246.301 181.959C245.248 181.44 244.286 180.794 243.447 180.028C241.778 178.495 240.471 176.644 239.611 174.616Z" fill="#3F2992"/>
<path d="M221.035 146.648C222 144.765 223.372 143.08 224.952 141.598C226.552 140.135 228.407 138.925 230.419 138.023C232.411 137.123 234.559 136.215 236.831 136.297C239.068 136.351 241.344 136.908 243.162 138.29L243.082 138.598C242.519 138.722 241.992 138.775 241.475 138.833C240.954 138.914 240.447 138.99 239.953 139.031C239.453 139.13 238.965 139.191 238.482 139.246C237.998 139.339 237.52 139.41 237.045 139.473C235.169 139.836 233.214 139.837 231.318 140.406C229.442 140.973 227.617 141.793 225.92 142.862C224.203 143.911 222.661 145.265 221.297 146.828L221.035 146.648Z" fill="#3F2992"/>
<path d="M277.951 146.826C276.588 145.263 275.046 143.909 273.328 142.86C271.631 141.791 269.806 140.972 267.93 140.404C266.033 139.836 264.079 139.834 262.203 139.471C261.728 139.408 261.25 139.337 260.766 139.244C260.283 139.188 259.795 139.128 259.295 139.029C258.801 138.989 258.294 138.913 257.773 138.831C257.256 138.773 256.73 138.721 256.166 138.596L256.086 138.288C257.905 136.907 260.18 136.349 262.417 136.295C264.69 136.213 266.837 137.121 268.829 138.021C270.842 138.923 272.696 140.133 274.296 141.596C275.876 143.077 277.248 144.763 278.213 146.646L277.951 146.826Z" fill="#3F2992"/>
<path d="M287.809 142.288C272.496 140.336 257.922 131.631 247.504 119.347C237.191 130.708 223.063 137.932 208.395 139.344C210.416 128.167 216.651 118.867 225.771 113.162C234.891 107.457 245.857 105.64 256.313 107.055C262.259 107.86 268.117 109.686 273.39 112.764C276.556 114.612 279.532 116.938 281.793 119.963C286.599 126.394 286.954 134.074 287.809 142.288Z" fill="#3F2992"/>
<path d="M286.004 160.318C286.988 161.972 288.67 163.756 290.505 163.178C292.066 162.686 292.626 160.794 292.837 159.171C293.81 151.687 292.364 143.987 289.271 137.104C288.355 135.065 286.059 131.555 283.326 133.143C281.288 134.327 281.346 138.654 281.235 140.631C280.849 147.467 282.5 154.427 286.004 160.318Z" fill="#3F2992"/>
<path d="M211.285 160.318C210.301 161.972 208.619 163.756 206.784 163.178C205.223 162.686 204.663 160.794 204.452 159.171C203.479 151.687 204.925 143.987 208.018 137.104C208.934 135.065 211.23 131.555 213.963 133.143C216.001 134.327 215.943 138.654 216.054 140.631C216.44 147.467 214.789 154.427 211.285 160.318Z" fill="#3F2992"/>
<path d="M271.051 171.261C271.051 172.844 268.94 174.127 266.335 174.127C263.73 174.127 261.619 172.844 261.619 171.261C261.619 169.678 263.73 168.395 266.335 168.395C268.94 168.395 271.051 169.678 271.051 171.261Z" fill="#F158B7"/>
<path d="M236.024 171.261C236.024 172.844 233.913 174.127 231.308 174.127C228.704 174.127 226.592 172.844 226.592 171.261C226.592 169.678 228.703 168.395 231.308 168.395C233.912 168.395 236.024 169.678 236.024 171.261Z" fill="#F158B7"/>
<path d="M202.229 157.614C202.69 161.88 204.817 166.211 207.918 169.199C208.889 170.134 209.979 170.958 211.149 171.311C213.788 172.106 216.217 170.215 217.07 167.575C217.923 164.935 217.507 161.753 216.754 158.757C215.78 154.884 213.857 150.62 210.538 149.014C205.184 146.424 201.658 152.33 202.229 157.614Z" fill="#F9BEE6"/>
<path d="M214.317 168.395C213.168 167.749 212.128 166.755 211.352 165.564C211.196 165.325 211.046 165.064 211.011 164.788C210.944 164.26 211.308 163.887 211.643 163.595C212.32 163.003 212.997 162.411 213.675 161.819C213.81 161.701 213.951 161.574 214.005 161.384C214.064 161.175 214.009 160.927 213.954 160.693C213.248 157.72 212.407 154.497 210.269 152.365C209.692 151.789 209.018 151.309 208.31 151.138C207.259 150.883 206.261 151.349 205.572 152.102C204.883 152.855 204.453 153.87 204.053 154.881C204.053 154.881 203.396 160.769 207.073 165.213C210.748 169.656 214.317 168.395 214.317 168.395Z" fill="#F9BEE6"/>
<path d="M204.051 154.88C204.374 153.755 204.762 152.602 205.627 151.666C206.068 151.217 206.648 150.869 207.309 150.737C207.971 150.601 208.687 150.758 209.261 151.054C211.539 152.338 212.713 154.689 213.493 156.928C213.87 158.07 214.156 159.226 214.415 160.375C214.455 160.654 214.603 160.952 214.499 161.483C214.432 161.755 214.251 161.965 214.116 162.085L213.764 162.383L212.404 163.501C211.947 163.882 211.444 164.215 211.374 164.563C211.257 164.898 211.623 165.437 211.924 165.906C212.537 166.873 213.36 167.707 214.317 168.394C213.23 167.923 212.286 167.139 211.491 166.232C211.295 165.997 211.115 165.768 210.939 165.497C210.767 165.233 210.602 164.855 210.659 164.441C210.714 164.028 210.958 163.71 211.182 163.475C211.418 163.236 211.618 163.06 211.836 162.851L213.126 161.653L213.434 161.369C213.511 161.29 213.519 161.258 213.519 161.242C213.54 161.189 213.476 160.906 213.396 160.619C213.109 159.487 212.821 158.364 212.445 157.282C212.089 156.196 211.646 155.146 211.059 154.198C210.488 153.253 209.737 152.369 208.851 151.81C207.978 151.238 206.841 151.351 205.989 152.064C205.116 152.746 204.596 153.847 204.051 154.88Z" fill="#3F2992"/>
<path d="M295.984 157.614C295.523 161.88 293.396 166.211 290.295 169.199C289.324 170.134 288.234 170.958 287.064 171.311C284.425 172.106 281.996 170.215 281.143 167.575C280.29 164.935 280.706 161.753 281.459 158.757C282.433 154.884 284.356 150.62 287.675 149.014C293.029 146.424 296.555 152.33 295.984 157.614Z" fill="#F9BEE6"/>
<path d="M283.896 168.395C285.045 167.749 286.085 166.755 286.861 165.564C287.017 165.325 287.167 165.064 287.202 164.788C287.269 164.26 286.905 163.887 286.57 163.595C285.893 163.003 285.215 162.411 284.538 161.819C284.403 161.701 284.262 161.574 284.208 161.384C284.149 161.175 284.204 160.927 284.259 160.693C284.965 157.72 285.806 154.497 287.944 152.365C288.521 151.789 289.195 151.309 289.903 151.138C290.954 150.883 291.952 151.349 292.641 152.102C293.33 152.855 293.76 153.87 294.16 154.881C294.16 154.881 294.817 160.769 291.14 165.213C287.464 169.656 283.896 168.395 283.896 168.395Z" fill="#F9BEE6"/>
<path d="M294.162 154.88C293.617 153.848 293.097 152.746 292.224 152.065C291.372 151.352 290.235 151.238 289.362 151.811C288.476 152.37 287.726 153.253 287.155 154.199C286.567 155.147 286.125 156.197 285.768 157.283C285.392 158.364 285.105 159.487 284.817 160.62C284.736 160.907 284.672 161.19 284.694 161.243C284.695 161.26 284.702 161.292 284.779 161.37L285.087 161.654L286.377 162.852C286.595 163.061 286.794 163.237 287.031 163.476C287.255 163.71 287.499 164.029 287.554 164.442C287.611 164.856 287.446 165.235 287.274 165.498C287.098 165.77 286.918 165.998 286.722 166.233C285.927 167.14 284.983 167.924 283.896 168.395C284.853 167.708 285.675 166.874 286.288 165.907C286.589 165.437 286.955 164.899 286.838 164.564C286.768 164.216 286.265 163.883 285.808 163.502L284.448 162.384L284.096 162.086C283.961 161.965 283.78 161.755 283.713 161.484C283.608 160.953 283.756 160.655 283.797 160.376C284.056 159.227 284.342 158.071 284.719 156.929C285.499 154.689 286.673 152.339 288.951 151.055C289.526 150.759 290.241 150.602 290.903 150.738C291.564 150.869 292.144 151.217 292.585 151.666C293.452 152.602 293.84 153.755 294.162 154.88Z" fill="#3F2992"/>
<path d="M227.176 152.212C228.143 153.554 229.184 154.785 230.363 155.756C231.551 156.69 232.921 157.327 234.283 157.189C234.948 157.184 235.584 156.917 236.174 156.535C236.784 156.175 237.316 155.641 237.824 155.066C238.829 153.899 239.665 152.515 240.465 151.067C240.292 152.723 239.75 154.346 238.821 155.806C238.373 156.547 237.769 157.217 237.031 157.775C236.295 158.318 235.369 158.726 234.397 158.776C233.444 158.824 232.494 158.661 231.663 158.252C230.84 157.844 230.103 157.31 229.518 156.66C228.344 155.371 227.55 153.835 227.176 152.212Z" fill="#3F2992"/>
<path d="M272.979 152.212C272.606 153.835 271.811 155.37 270.638 156.659C270.053 157.309 269.316 157.842 268.493 158.251C267.662 158.661 266.712 158.823 265.759 158.775C264.787 158.725 263.861 158.317 263.125 157.774C262.387 157.217 261.783 156.547 261.335 155.805C260.406 154.346 259.864 152.722 259.691 151.066C260.491 152.514 261.328 153.898 262.332 155.065C262.839 155.64 263.372 156.174 263.982 156.534C264.572 156.916 265.208 157.183 265.873 157.188C267.234 157.326 268.605 156.689 269.793 155.755C270.972 154.786 272.013 153.555 272.979 152.212Z" fill="#3F2992"/>
<path d="M250.569 144.964C250.862 147.259 251.016 149.554 251.128 151.849C251.191 152.997 251.222 154.144 251.253 155.291C251.297 156.439 251.284 157.586 251.302 158.733L251.141 158.275C252.76 160.282 254.339 162.322 255.86 164.408L256.159 164.818L255.849 165.158C253.764 167.442 251.635 169.689 249.391 171.838C251.153 169.279 253.031 166.818 254.952 164.395L254.941 165.144C253.241 163.202 251.598 161.214 249.996 159.193L249.831 158.985L249.835 158.734C249.853 157.587 249.84 156.439 249.884 155.292C249.915 154.145 249.946 152.997 250.009 151.85C250.122 149.554 250.276 147.259 250.569 144.964Z" fill="#3F2992"/>
<path d="M246.595 236.658C261.452 236.658 268.702 225.252 272.132 216.11C270.262 216.047 268.709 216.01 267.65 216.01C259.925 216.01 260.32 196.068 260.32 196.068L249.106 194.701L237.892 196.068C237.892 196.068 237.479 216.01 230.562 216.01C228.909 216.01 225.694 216.121 221.771 216.288C224.938 225.4 231.836 236.658 246.595 236.658Z" fill="#F9BEE6"/>
<path d="M309.197 218.073C300.317 215.815 283.899 216.504 272.132 216.111C268.703 225.253 261.452 236.659 246.595 236.659C231.835 236.659 224.938 225.401 221.771 216.29C209.275 216.823 197.023 216.136 189.515 217.939C182.007 219.742 173.551 228.257 155.674 246.035C157.569 250.902 161.084 257.416 167.442 262.891C171.827 266.667 175.917 269.134 179.332 270.747L192.181 261.956C192.173 261.918 192.167 261.882 192.16 261.844C192.777 263.961 193.502 265.917 194.366 267.613C202.028 282.645 209.155 287.719 209.155 287.719L195.13 341.07C195.13 341.07 211.112 355.504 249.107 355.504C287.102 355.504 303.955 340.688 303.955 340.688L289.06 287.72C289.06 287.72 296.187 282.646 303.848 267.614C304.71 265.924 305.432 263.976 306.048 261.866C306.042 261.897 306.037 261.926 306.03 261.957L319.971 271.495C323.684 269.932 328.407 267.306 333.533 262.892C339.071 258.124 342.452 252.566 344.485 247.995C325.836 229.015 318.077 220.33 309.197 218.073Z" fill="white"/>
<path d="M348.76 252.456C347.33 250.922 345.904 249.437 344.485 247.993C342.452 252.564 339.071 258.122 333.533 262.89C328.407 267.304 323.684 269.931 319.971 271.493L328.542 277.358L268.139 281.796L263.204 259.359C263.204 259.359 263.204 250.483 261.148 237.909C259.092 225.335 249.105 217.938 249.105 217.938C249.105 217.938 249.15 246.045 249.105 261.332C249.085 268.203 250.635 275.473 252.348 281.394C254.672 289.426 261.075 295.603 269.179 297.662C280.237 300.472 298.248 300.878 321.39 301.021C361.332 301.267 374.646 287.959 374.646 287.959C374.646 287.959 368.977 274.152 348.76 252.456Z" fill="#F9BEE6"/>
<path d="M236.793 239.613C236.981 238.528 237.156 237.435 237.385 236.353C237.663 235.284 237.876 234.193 238.21 233.136C238.849 231.013 239.657 228.938 240.611 226.926C241.58 224.921 242.755 223.012 244.102 221.227C245.474 219.451 246.952 217.786 248.829 216.403L249.121 216.188L249.41 216.421C251.197 217.862 252.722 219.487 254.129 221.238C255.525 222.988 256.795 224.847 257.796 226.85C258.819 228.837 259.683 230.909 260.278 233.058C260.908 235.197 261.232 237.41 261.418 239.612C261.003 237.437 260.585 235.268 259.802 233.208C259.121 231.121 258.191 229.123 257.109 227.224C256.024 225.326 254.811 223.499 253.411 221.821C252.029 220.143 250.476 218.553 248.804 217.234L249.384 217.251C247.689 218.464 246.166 220.098 244.832 221.79C243.487 223.499 242.359 225.369 241.303 227.278C240.283 229.209 239.408 231.221 238.679 233.29C238.277 234.312 237.993 235.374 237.644 236.418L236.793 239.613Z" fill="#3F2992"/>
<path d="M249.105 217.938C249.105 217.938 239.117 225.335 237.062 237.909C235.006 250.483 235.006 259.359 235.006 259.359L230.071 281.796L169.668 277.358L179.331 270.746C175.915 269.133 171.826 266.666 167.441 262.89C161.083 257.415 157.568 250.901 155.673 246.034C153.617 248.079 151.536 250.217 149.451 252.456C129.233 274.153 123.562 287.96 123.562 287.96C123.562 287.96 136.876 301.268 176.818 301.022C199.96 300.879 217.971 300.473 229.029 297.663C237.133 295.603 243.537 289.427 245.86 281.395C247.573 275.473 249.124 268.204 249.104 261.333C249.06 246.045 249.105 217.938 249.105 217.938Z" fill="#F9BEE6"/>
<path d="M248.834 226.282C247.367 228.79 246.495 231.548 245.958 234.355C245.43 237.169 245.172 240.035 244.922 242.914C244.653 245.789 244.438 248.668 244.198 251.548L243.525 260.204C243.43 258.756 243.414 257.307 243.377 255.856C243.374 254.407 243.391 252.957 243.418 251.507C243.475 248.607 243.664 245.712 243.911 242.822C244.186 239.941 244.474 237.028 245.198 234.186C245.56 232.768 246.007 231.368 246.591 230.025C247.205 228.698 247.92 227.412 248.834 226.282Z" fill="#3F2992"/>
<path d="M248.627 221.689C246.594 224.107 245.198 226.938 244.204 229.88C243.217 232.833 242.56 235.892 241.967 238.972C241.351 242.048 240.832 245.145 240.28 248.24L239.479 252.891C239.183 254.438 238.928 255.992 238.607 257.537C238.699 255.962 238.856 254.395 238.985 252.824L239.506 248.126C239.877 244.995 240.372 241.878 240.97 238.777C241.591 235.687 242.285 232.573 243.473 229.612C244.066 228.135 244.759 226.694 245.601 225.342C246.469 224.009 247.453 222.745 248.627 221.689Z" fill="#3F2992"/>
<path d="M248.767 226.282C249.681 227.412 250.397 228.698 251.01 230.026C251.595 231.368 252.041 232.769 252.403 234.187C253.127 237.029 253.415 239.942 253.69 242.823C253.937 245.712 254.127 248.608 254.183 251.508C254.21 252.958 254.227 254.408 254.224 255.857C254.187 257.307 254.171 258.756 254.076 260.205L253.403 251.549C253.163 248.669 252.948 245.79 252.679 242.915C252.43 240.036 252.171 237.171 251.643 234.356C251.106 231.548 250.234 228.79 248.767 226.282Z" fill="#3F2992"/>
<path d="M248.975 221.689C250.149 222.746 251.134 224.009 252.001 225.342C252.843 226.694 253.535 228.135 254.129 229.612C255.317 232.573 256.011 235.688 256.632 238.777C257.23 241.878 257.725 244.995 258.096 248.126L258.617 252.824C258.746 254.395 258.903 255.962 258.995 257.537C258.675 255.992 258.419 254.438 258.124 252.891L257.323 248.24C256.771 245.144 256.252 242.048 255.636 238.972C255.043 235.891 254.386 232.833 253.399 229.88C252.404 226.937 251.008 224.106 248.975 221.689Z" fill="#3F2992"/>
<path d="M249.052 265.187C248.842 261.25 248.744 257.312 248.663 253.375C248.579 249.438 248.587 245.5 248.545 241.563C248.585 237.626 248.581 233.688 248.662 229.751L248.804 223.845C248.888 221.876 248.938 219.908 249.053 217.939C249.168 219.908 249.218 221.876 249.302 223.845L249.444 229.751C249.525 233.688 249.521 237.626 249.561 241.563C249.518 245.5 249.526 249.438 249.443 253.375C249.359 257.312 249.261 261.249 249.052 265.187Z" fill="#3F2992"/>
<path d="M321.574 277.87C324.707 277.295 327.858 276.851 331.015 276.452C334.171 276.042 337.339 275.734 340.518 275.497C343.713 275.227 346.973 275.436 350.113 276.009C353.264 276.562 356.366 277.364 359.35 278.483C357.799 278.124 356.251 277.773 354.688 277.502C353.133 277.199 351.569 276.947 350.001 276.76C346.86 276.372 343.731 276.196 340.587 276.482L331.092 277.205L326.338 277.569C324.75 277.662 323.165 277.792 321.574 277.87Z" fill="#3F2992"/>
<path d="M175.55 277.87C173.959 277.793 172.375 277.662 170.786 277.569L166.033 277.205L156.538 276.482C153.394 276.196 150.265 276.372 147.124 276.76C145.556 276.947 143.992 277.199 142.437 277.502C140.874 277.773 139.326 278.124 137.775 278.483C140.76 277.364 143.861 276.562 147.012 276.009C150.152 275.437 153.412 275.228 156.607 275.497C159.786 275.735 162.954 276.042 166.11 276.452C169.266 276.851 172.417 277.294 175.55 277.87Z" fill="#3F2992"/>
<path d="M300.872 227.271C302.98 230.1 304.57 233.308 305.774 236.64C307.001 239.971 307.734 243.486 308.013 247.031L308.123 248.361C308.139 248.805 308.127 249.251 308.13 249.695C308.114 250.584 308.161 251.475 308.092 252.361C307.903 254.13 307.809 255.912 307.363 257.639L307.089 258.941C307.009 259.377 306.903 259.807 306.755 260.227L305.954 262.76C305.711 263.612 305.301 264.401 304.949 265.21C304.591 266.017 304.222 266.819 303.847 267.613C305.009 264.288 306.149 260.968 306.614 257.503C306.943 255.79 307.028 254.048 307.156 252.316C307.203 251.449 307.157 250.579 307.163 249.711C307.156 249.277 307.165 248.842 307.146 248.408L307.028 247.109C306.779 243.644 306.092 240.211 305.056 236.881C304.797 236.049 304.496 235.228 304.218 234.4C303.893 233.591 303.58 232.774 303.228 231.974C302.552 230.358 301.759 228.792 300.872 227.271Z" fill="#3F2992"/>
<path d="M196.845 227.271C195.958 228.792 195.165 230.357 194.488 231.973C194.136 232.774 193.824 233.591 193.498 234.4C193.22 235.229 192.919 236.048 192.66 236.88C191.624 240.21 190.937 243.644 190.688 247.109L190.57 248.407C190.551 248.841 190.56 249.275 190.553 249.71C190.559 250.578 190.513 251.449 190.56 252.316C190.688 254.049 190.772 255.789 191.102 257.502C191.567 260.967 192.707 264.286 193.869 267.611C193.494 266.817 193.125 266.017 192.767 265.21C192.415 264.401 192.004 263.61 191.762 262.758L190.961 260.226C190.813 259.807 190.707 259.376 190.627 258.939L190.353 257.637C189.907 255.91 189.813 254.13 189.624 252.361C189.555 251.474 189.602 250.582 189.586 249.693C189.589 249.248 189.577 248.803 189.593 248.359L189.703 247.03C189.982 243.485 190.715 239.97 191.942 236.639C193.147 233.308 194.737 230.1 196.845 227.271Z" fill="#3F2992"/>
<path d="M229.033 196.068C231.807 198.368 234.832 200.271 238.032 201.677C241.227 203.089 244.644 203.885 248.067 203.91C251.489 203.882 254.905 203.086 258.1 201.673C261.299 200.266 264.325 198.365 267.101 196.067C264.908 198.948 262.018 201.312 258.775 203.059C255.542 204.842 251.826 205.825 248.067 205.884C244.308 205.823 240.592 204.84 237.36 203.057C234.117 201.312 231.228 198.948 229.033 196.068Z" fill="#3F2992"/>
<g opacity="0.42">
<path d="M93.7456 282.399C97.9466 277.77 102.466 273.434 107.11 269.246C111.776 265.081 116.596 261.092 121.462 257.167C131.201 249.326 141.197 241.819 150.648 233.67C160.136 225.587 169.056 216.778 176.623 206.869C184.174 196.987 190.278 185.851 193.49 173.745C192.093 179.841 189.875 185.741 187.116 191.363C184.327 196.975 180.968 202.296 177.237 207.331C169.748 217.402 160.768 226.258 151.297 234.428C141.76 242.541 131.767 250.063 121.938 257.766C112.113 265.469 102.465 273.434 93.7456 282.399Z" fill="#F9BEE6"/>
<path d="M205.412 191.288C204.328 195.004 203.114 198.683 201.762 202.315C200.379 205.934 198.872 209.507 197.228 213.019C195.546 216.512 193.74 219.947 191.801 223.307C189.838 226.653 187.768 229.937 185.561 233.13C183.336 236.31 181.009 239.421 178.531 242.41C176.037 245.385 173.462 248.295 170.767 251.084C165.416 256.702 159.778 262.017 154.332 267.505C148.89 272.985 143.553 278.6 139.026 284.842C134.449 291.033 130.728 297.876 128.385 305.21C125.997 312.531 125.034 320.295 125.313 327.997C125.568 335.709 127.242 343.373 130.168 350.54C127.092 343.438 125.244 335.781 124.824 328.02C124.441 320.266 125.325 312.417 127.651 304.98C129.907 297.513 133.711 290.578 138.29 284.307C142.839 277.986 148.185 272.315 153.625 266.801C159.106 261.32 164.761 256.031 170.111 250.457C172.807 247.689 175.376 244.807 177.867 241.86C180.333 238.891 182.68 235.826 184.934 232.692C187.167 229.542 189.265 226.298 191.259 222.99C193.231 219.668 195.062 216.265 196.791 212.808C198.503 209.343 200.079 205.811 201.536 202.228C202.961 198.631 204.251 194.981 205.412 191.288Z" fill="#F9BEE6"/>
<path d="M192.778 255.88C188.207 264.406 183.568 272.904 179.607 281.712C175.653 290.508 172.315 299.624 170.536 309.094C168.692 318.525 168.566 328.322 170.436 337.759C172.296 347.17 176.387 356.272 182.957 363.419C179.527 359.999 176.712 355.971 174.493 351.651C172.298 347.312 170.721 342.669 169.684 337.916C167.632 328.389 167.766 318.462 169.556 308.905C171.435 299.352 174.791 290.158 178.912 281.392C183.035 272.613 187.848 264.203 192.778 255.88Z" fill="#F9BEE6"/>
<path d="M404.411 282.399C395.692 273.434 386.043 265.469 376.219 257.767C366.39 250.064 356.397 242.542 346.86 234.429C337.39 226.258 328.409 217.402 320.92 207.332C317.19 202.297 313.831 196.976 311.041 191.364C308.282 185.742 306.065 179.842 304.667 173.746C307.879 185.852 313.983 196.988 321.534 206.87C329.101 216.779 338.021 225.588 347.509 233.671C356.96 241.821 366.956 249.327 376.695 257.168C381.561 261.093 386.381 265.081 391.047 269.247C395.692 273.434 400.21 277.77 404.411 282.399Z" fill="#F9BEE6"/>
<path d="M292.746 191.288C293.907 194.981 295.198 198.631 296.623 202.226C298.08 205.809 299.656 209.341 301.368 212.806C303.097 216.262 304.928 219.666 306.9 222.988C308.894 226.296 310.992 229.54 313.224 232.69C315.478 235.824 317.826 238.89 320.292 241.858C322.783 244.805 325.352 247.686 328.048 250.455C333.398 256.029 339.053 261.319 344.534 266.799C349.974 272.314 355.32 277.985 359.869 284.305C364.448 290.576 368.252 297.511 370.508 304.978C372.834 312.415 373.718 320.264 373.335 328.018C372.915 335.779 371.067 343.436 367.991 350.538C370.917 343.371 372.591 335.707 372.846 327.995C373.125 320.293 372.162 312.529 369.774 305.208C367.432 297.874 363.71 291.031 359.133 284.84C354.606 278.598 349.269 272.983 343.827 267.503C338.382 262.015 332.744 256.7 327.392 251.082C324.697 248.293 322.122 245.383 319.628 242.408C317.149 239.419 314.823 236.307 312.598 233.128C310.391 229.935 308.321 226.651 306.358 223.305C304.419 219.945 302.613 216.51 300.931 213.017C299.286 209.505 297.78 205.932 296.397 202.313C295.044 198.684 293.829 195.005 292.746 191.288Z" fill="#F9BEE6"/>
<path d="M305.378 255.88C310.308 264.203 315.121 272.613 319.244 281.392C323.365 290.158 326.721 299.352 328.6 308.905C330.39 318.462 330.523 328.389 328.472 337.916C327.435 342.669 325.858 347.312 323.663 351.651C321.444 355.971 318.629 359.999 315.199 363.419C321.769 356.272 325.859 347.17 327.719 337.759C329.59 328.321 329.464 318.524 327.619 309.094C325.84 299.624 322.502 290.507 318.548 281.712C314.589 272.904 309.95 264.406 305.378 255.88Z" fill="#F9BEE6"/>
<path d="M296.421 132.805C295.105 132.751 293.785 132.694 292.464 132.614L288.53 132.086L284.652 131.212C283.386 130.822 282.11 130.453 280.847 130.044C275.832 128.288 271.115 125.716 266.813 122.596C262.557 119.413 258.708 115.67 255.518 111.422L253.251 108.152L251.228 104.731L249.5 101.158L248.064 97.4658C250.142 102.315 252.849 106.865 256.118 110.957C259.385 115.048 263.164 118.731 267.397 121.802C271.583 124.937 276.222 127.453 281.107 129.334C285.994 131.214 291.162 132.391 296.421 132.805Z" fill="#F9BEE6"/>
<path d="M289.996 119.21C286.857 118.427 283.807 117.283 280.871 115.894C277.933 114.507 275.144 112.814 272.473 110.961C269.831 109.066 267.333 106.965 265.064 104.64L263.398 102.865L261.804 101.028L260.315 99.108C259.84 98.452 259.375 97.79 258.919 97.124C259.461 97.726 259.994 98.331 260.517 98.943L262.166 100.709L263.848 102.436L265.591 104.097C267.955 106.267 270.428 108.31 273.043 110.161C275.629 112.054 278.38 113.708 281.209 115.221C284.04 116.732 286.983 118.04 289.996 119.21Z" fill="#F9BEE6"/>
<path d="M199.858 132.805C205.118 132.391 210.285 131.215 215.172 129.335C220.057 127.454 224.696 124.938 228.882 121.803C233.115 118.731 236.894 115.049 240.161 110.958C243.43 106.866 246.137 102.316 248.215 97.4673L246.779 101.159L245.051 104.732L243.028 108.153L240.761 111.423C237.572 115.67 233.722 119.413 229.466 122.597C225.164 125.716 220.447 128.289 215.432 130.045C214.169 130.454 212.894 130.823 211.628 131.213L207.75 132.087L203.815 132.615C202.494 132.694 201.173 132.751 199.858 132.805Z" fill="#F9BEE6"/>
<path d="M208.284 119.21C211.297 118.04 214.239 116.732 217.07 115.22C219.898 113.707 222.65 112.053 225.236 110.16C227.851 108.31 230.324 106.266 232.688 104.096L234.431 102.435L236.113 100.708L237.762 98.942C238.285 98.33 238.819 97.725 239.36 97.123C238.903 97.789 238.439 98.451 237.964 99.107L236.475 101.027L234.881 102.864L233.215 104.639C230.947 106.965 228.448 109.065 225.806 110.96C223.135 112.813 220.346 114.506 217.408 115.893C214.474 117.283 211.423 118.427 208.284 119.21Z" fill="#F9BEE6"/>
</g>
</g>
<defs>
<linearGradient id="paint0_linear_41_222" x1="249.107" y1="125.61" x2="249.107" y2="346.318" gradientUnits="userSpaceOnUse">
<stop stop-color="#724CF9"/>
<stop offset="1" stop-color="#CA7DF9"/>
</linearGradient>
<clipPath id="clip0_41_222">
<rect width="500" height="500" fill="white"/>
</clipPath>
</defs>
</svg>
