<svg width="430" height="430" viewBox="0 0 430 430" fill="none" xmlns="http://www.w3.org/2000/svg">
<path d="M215 430C333.741 430 430 333.741 430 215C430 96.2588 333.741 0 215 0C96.2588 0 0 96.2588 0 215C0 333.741 96.2588 430 215 430Z" fill="#41488B"/>
<mask id="mask0_88_1185" style="mask-type:luminance" maskUnits="userSpaceOnUse" x="0" y="0" width="430" height="430">
<path d="M215 430C333.741 430 430 333.741 430 215C430 96.2588 333.741 0 215 0C96.2588 0 0 96.2588 0 215C0 333.741 96.2588 430 215 430Z" fill="white"/>
</mask>
<g mask="url(#mask0_88_1185)">
<path d="M455.528 253.669C434.432 266.36 403.584 258.272 391.429 236.863C386.233 227.712 383.159 215.789 373.393 211.872C363.651 207.965 353.2 214.421 343.065 217.147C330.006 220.661 315.339 217.53 304.854 208.991C299.258 204.433 294.892 198.534 289.421 193.828C283.951 189.121 276.704 185.566 269.659 187.131C260.141 189.246 254.868 199.474 246.467 204.419C238.611 209.044 228.887 208.605 219.789 208.024C211.458 207.493 202.538 206.741 196.056 201.481C191.915 198.119 189.096 193.13 184.378 190.641C175.058 185.726 163.974 192.83 156.706 200.458C149.438 208.086 141.734 217.339 131.199 217.55C125.246 217.669 119.49 214.721 113.554 215.191C102.262 216.085 95.6626 228.424 93.3564 239.514C91.0501 250.604 90.4959 262.934 82.9329 271.366C76.2033 278.869 65.4897 281.318 55.4274 281.899C45.3651 282.48 35.0897 281.625 25.3526 284.227C13.6955 287.342 3.78627 295.22 -4.00183 304.436L-12.7734 260.31C-2.439 246.816 16.4229 240.522 32.7895 245.108C40.0363 247.138 46.6728 251.054 53.9917 252.809C61.3105 254.564 70.1321 253.538 74.6165 247.494C77.8832 243.092 78.0503 237.217 79.413 231.907C83.3771 216.462 99.5456 205.161 115.412 206.745C121.573 207.36 127.981 209.636 133.755 207.399C139.542 205.157 142.739 199.144 146.126 193.943C151.247 186.077 158.059 179.014 166.671 175.282C175.282 171.55 185.865 171.607 193.581 176.951C197.748 179.838 200.865 184.038 205.006 186.962C212.602 192.327 222.875 192.717 231.773 190.011C240.67 187.304 248.457 181.861 255.825 176.187C263.829 170.021 273.057 163.073 282.96 165.078C300.49 168.629 303.147 195.845 319.954 201.958C336.278 207.895 352.519 189.872 369.836 191.228C385.101 192.423 395.263 207.903 409.711 212.975C428.317 219.506 448.916 206.659 459.303 189.896L455.528 253.669Z" fill="black" fill-opacity="0.1"/>
<path d="M397.515 45.508C386.059 41.2078 372.907 46.1283 363.601 54.0745C354.295 62.0197 347.77 72.6433 340.22 82.2723C337.964 85.1498 335.507 88.0294 332.223 89.6372C328.643 91.3901 324.493 91.4352 320.509 91.3391C312.909 91.156 305.163 90.5547 298.14 87.6442C292.163 85.1669 286.963 81.1197 281.112 78.3573C268.173 72.2481 252.196 73.0715 239.953 80.4804C236.84 82.3644 233.9 84.6676 230.411 85.7021C222.812 87.9543 214.622 83.482 209.602 77.3497C204.581 71.2175 201.82 63.6005 198.084 56.6108C194.348 49.6212 189.052 42.7946 181.476 40.4694C173.513 38.0261 164.588 41.0407 156.708 38.3402C149.089 35.7289 143.986 27.9868 142.925 20.0026C141.863 12.0194 144.302 3.91215 148.053 -3.2146L84.7461 23.9667C87.9718 43.0517 105.762 58.6259 125.106 59.2993C143.112 59.9266 162.293 49.376 178.242 57.7554C190 63.9327 194.977 78.1942 205.093 86.8007C215.679 95.8065 231.943 97.4163 244.089 90.6607C247.495 88.7667 250.636 86.2674 254.381 85.1869C260.246 83.494 266.616 85.6071 271.729 88.9428C276.842 92.2786 281.082 96.773 285.866 100.566C296.197 108.757 309.158 113.579 322.331 114.131C329.217 114.419 336.457 113.453 342.092 109.487C348.896 104.698 352.212 96.4708 357.206 89.8163C370.291 72.3801 397.032 67.0643 415.791 78.1692L397.515 45.508Z" fill="black" fill-opacity="0.1"/>
<path d="M44.466 69.5156C59.4799 77.0526 68.6747 92.3046 78.9101 105.627C81.2003 108.608 83.6786 111.607 87.0244 113.322C90.6032 115.156 94.7664 115.32 98.7725 115.671C106.373 116.336 113.902 117.806 121.193 120.048C130.82 123.008 140.383 127.586 146.611 135.502C152.839 143.418 154.852 155.283 149.212 163.628C144.328 170.854 135.255 173.826 126.741 175.72C121.311 176.929 115.692 177.898 110.208 176.967C104.008 175.916 98.4494 172.519 92.3582 170.958C77.4393 167.136 60.8936 175.696 53.5528 189.236C51.6188 192.801 50.205 196.699 47.6467 199.848C42.552 206.118 32.965 208.216 25.7181 204.646C20.0752 201.866 16.3102 196.393 11.3726 192.496C0.46287 183.884 -16.5831 184.301 -27.0586 193.436L6.11484 132.912C13.2786 130.518 21.3749 133.997 26.4685 139.572C31.5622 145.149 34.2476 152.464 36.6009 159.64C37.1782 161.4 37.7585 163.196 38.837 164.702C42.9892 170.5 52.082 169.293 58.3103 165.818C64.5385 162.343 70.2455 157.13 77.3533 156.54C83.8547 156.001 89.9009 159.482 95.931 161.972C102.731 164.78 110.012 166.415 117.36 166.783C125.404 167.186 135.12 164.843 137.652 157.198C139.212 152.488 137.299 147.146 133.915 143.519C130.53 139.891 125.894 137.702 121.238 135.985C110.823 132.143 99.4989 130.243 88.5412 132.023C79.3843 133.512 69.8433 137.485 61.2088 134.093C57.1357 132.493 53.8369 129.408 50.8453 126.213C41.3984 116.127 33.9215 104.202 28.9589 91.3041L44.466 69.5156Z" fill="black" fill-opacity="0.1"/>
<path d="M51.5747 379.44C53.5917 373.335 56.1661 367.416 59.2537 361.778C62.0041 356.757 65.489 351.679 70.7948 349.524C77.7124 346.713 85.9947 349.579 92.8433 346.603C98.5293 344.133 101.822 338.302 105.312 333.178C109.291 327.336 114.001 321.993 119.298 317.314C124.489 312.728 132.143 308.676 137.965 312.425C142.247 315.183 143.334 320.918 143.521 326.007C143.708 331.097 143.502 336.589 146.391 340.783C149.663 345.532 156.011 347.144 161.774 346.96C167.537 346.776 173.192 345.179 178.958 345.08C184.723 344.982 191.055 346.804 194.111 351.694C197.087 356.457 196.081 362.809 193.42 367.755C190.76 372.702 186.68 376.708 183.253 381.158C174.43 392.616 169.966 407.662 172.478 421.903C174.991 436.144 184.897 449.174 198.456 454.202L213.489 439.433C202.913 435.393 194.662 425.764 192.289 414.695C189.915 403.625 193.494 391.461 201.484 383.441C204.798 380.115 208.81 377.455 211.619 373.693C218.603 364.337 216.232 350.889 210.938 340.482C209.102 336.873 206.85 333.305 203.461 331.09C198.836 328.067 192.876 328.054 187.407 328.844C181.937 329.633 176.49 331.122 170.977 330.73C165.465 330.337 159.646 327.508 157.761 322.312C156.151 317.872 157.743 312.865 156.723 308.253C155.617 303.257 151.444 299.304 146.649 297.521C141.853 295.739 136.526 295.882 131.511 296.893C122.109 298.788 113.342 303.714 106.834 310.758C102.796 315.129 99.4728 320.395 94.2971 323.331C89.7017 325.938 83.9177 326.341 79.0061 324.396C75.6763 323.077 72.8218 320.785 69.5831 319.256C61.8511 315.607 52.3751 316.739 44.9972 321.06C37.6203 325.381 32.2145 332.56 28.8047 340.4L51.5747 379.44Z" fill="black" fill-opacity="0.1"/>
<path d="M439.072 170.401C434.549 167.872 430.401 164.664 425.665 162.562C414.839 157.755 402.283 159.276 390.803 162.199C379.324 165.123 368.017 169.379 356.18 169.82C351.203 170.006 345.774 169.318 342.218 165.832C337.723 161.429 337.805 153.993 340.183 148.167C343.387 140.313 350.261 134.048 358.377 131.582C369.79 128.116 382.86 131.873 393.583 126.65C404.031 121.559 409.058 109.341 410.44 97.8005L413.61 113.976C411.607 118.163 409.488 122.499 405.858 125.39C403.537 127.239 400.738 128.376 397.948 129.387C391.965 131.555 385.815 133.264 379.57 134.492C375.161 135.358 370.513 136.066 366.909 138.747C363.304 141.429 361.274 146.871 363.893 150.522C365.648 152.969 368.842 153.861 371.819 154.313C377.289 155.145 382.9 155.045 388.337 154.02C394.05 152.944 399.558 150.858 405.324 150.123C415.42 148.835 426.001 151.962 433.776 158.529L439.072 170.401Z" fill="black" fill-opacity="0.1"/>
<path d="M336.788 25.0962C325.138 28.9872 324.628 46.4704 314.464 53.365C306.021 59.091 294.504 55.305 285.646 50.2434C279.479 46.7195 272.47 42.4853 265.766 44.8305C259.873 46.8916 256.719 53.3 251.512 56.7458C245.062 61.014 235.525 59.7013 230.467 53.8503C226.745 49.544 225.566 43.5719 225.534 37.8799C225.502 32.1889 226.474 26.5269 226.435 20.8359C226.353 8.71755 220.206 -4.49939 208.629 -8.08228L262.774 -0.914508C265.861 5.49186 265.085 13.5841 260.836 19.2861C258.297 22.6949 254.662 25.2622 252.592 28.9752C250.522 32.6882 250.915 38.4172 254.859 40.003C259.44 41.844 263.693 36.8443 268.373 35.2765C275.451 32.9063 282.345 38.5953 288.817 42.3132C292.692 44.5384 297.043 46.1622 301.511 46.0812C305.978 46.0001 310.562 43.9961 312.982 40.2391C315.702 36.0139 315.281 30.5931 316.047 25.6274C317.053 19.113 320.328 12.9708 325.175 8.50444L336.788 25.0962Z" fill="black" fill-opacity="0.1"/>
<path d="M325.158 411.178C318.773 407.489 312.263 403.699 307.419 398.137C302.576 392.576 299.616 384.821 301.615 377.724C303.047 372.64 306.746 368.575 309.854 364.306C312.963 360.035 315.663 354.859 314.619 349.682C312.913 341.221 302.699 337.677 297.811 330.563C295.311 326.924 294.307 322.424 294.214 318.01C294.081 311.694 295.793 305.248 299.596 300.204C303.399 295.159 309.388 291.66 315.703 291.457C322.42 291.242 328.657 294.566 334.886 297.092C341.114 299.618 348.454 301.334 354.345 298.099C360.308 294.823 362.892 287.5 368.327 283.407C371.463 281.046 375.382 279.909 379.288 279.524C393.714 278.103 407.649 286.545 416.85 297.745C421.451 303.346 425.729 310.086 432.701 312.075L414.375 330.567C408.003 328.042 404.119 321.75 399.396 316.784C395.888 313.095 391.575 309.94 386.593 308.896C381.611 307.853 375.905 309.289 372.813 313.332C370.638 316.174 369.906 319.983 367.455 322.591C363.722 326.562 357.263 326.403 352.163 324.484C347.061 322.565 342.551 319.239 337.352 317.603C332.153 315.967 325.561 316.584 322.53 321.114C319.766 325.245 321.046 330.836 323.112 335.356C325.179 339.877 327.992 344.313 328.075 349.283C328.161 354.463 325.259 359.164 322.457 363.523C319.828 367.615 317.198 371.708 314.569 375.801C313.557 377.374 312.536 378.971 311.966 380.753C310.362 385.766 312.71 391.368 316.462 395.06C320.214 398.752 325.16 400.925 329.989 403.021L325.158 411.178Z" fill="black" fill-opacity="0.1"/>
<path d="M-9.58821 214.588C-3.36494 212.199 3.39862 211.378 10.0101 212.308C13.1417 212.748 16.2414 213.575 19.1729 214.762C21.9274 215.876 25.1921 217.397 26.4747 220.277C29.3873 226.813 18.4185 229.303 14.1283 230.047C7.1756 231.255 -0.145245 229.158 -6.85077 231.864C-13.4182 234.513 -18.8921 239.881 -22.7021 245.75C-23.7567 247.375 -21.1593 248.881 -20.1107 247.265C-16.4928 241.691 -10.9549 236.159 -4.44451 234.186C-0.651512 233.036 3.34759 233.443 7.24964 233.506C10.8755 233.565 14.4874 233.202 17.9973 232.265C23.5942 230.772 32.0617 227.247 29.5223 219.863C28.4548 216.758 25.8444 214.654 23.0019 213.216C19.8373 211.615 16.4125 210.47 12.9366 209.777C5.16555 208.229 -2.98274 208.849 -10.3876 211.691C-12.1716 212.379 -11.3962 215.282 -9.58821 214.588Z" fill="black" fill-opacity="0.1"/>
<path d="M51.098 51.4531C59.2622 54.4057 66.0708 60.0076 71.6918 66.515C77.7039 73.4737 82.0812 81.4249 86.7707 89.278C91.3751 96.9891 97.6905 105.055 107.068 106.795C116.398 108.526 124.21 102.424 133.073 100.971C142.556 99.4163 151.88 105.35 161.315 102.044C165.258 100.662 168.332 97.7455 169.577 93.7153C170.81 89.7292 170.162 85.3269 168.194 81.694C163.836 73.6538 154.099 69.4046 145.384 68.5051C140.387 67.9898 135.503 68.8123 130.654 69.9739C125.807 71.1355 120.892 72.5672 115.854 72.2381C108.53 71.7588 102.811 66.9133 97.9116 61.8846C92.8459 56.6849 88.1985 50.8998 82.0302 46.9318C80.5454 45.9763 78.9856 45.1888 77.3598 44.5045C76.6064 44.1873 75.7169 44.8457 75.5138 45.553C75.2657 46.4165 75.819 47.0868 76.5623 47.399C89.4851 52.8389 95.2902 67.8207 108.167 73.3746C111.86 74.9675 115.814 75.5338 119.82 75.1736C124.682 74.7364 129.351 73.2766 134.106 72.2631C143.205 70.324 153.118 71.5927 160.613 77.4688C163.817 79.9811 166.452 83.4449 167.071 87.5541C167.653 91.4121 166.395 95.6153 163.059 97.8655C155.296 103.1 145.144 97.9075 136.781 97.7314C132.303 97.6374 128.072 98.9991 123.936 100.573C119.908 102.106 115.774 103.918 111.41 104.114C102.011 104.537 95.1081 96.965 90.5227 89.6622C88.0724 85.7592 85.9193 81.679 83.492 77.762C81.2788 74.1911 78.8996 70.7273 76.3062 67.4225C71.1595 60.8661 64.9783 54.9159 57.5423 51.0259C55.7214 50.0734 53.8284 49.258 51.8954 48.5586C50.0754 47.9003 49.292 50.7998 51.098 51.4531Z" fill="black" fill-opacity="0.1"/>
<path d="M158.158 -8.21118C154.589 -0.320036 154.12 9.35305 159.572 16.5338C161.833 19.5124 164.876 21.8646 168.445 23.0482C172.774 24.484 177.27 23.5415 181.711 23.6175C184.053 23.6576 186.261 24.1228 188.283 25.3395C190.087 26.425 191.61 27.9038 193.069 29.4066C196.008 32.4322 198.849 35.7279 202.854 37.3518C206.001 38.6284 209.879 38.4503 212.672 36.3933C216.364 33.6718 216.009 29.2355 214.637 25.3244C210.765 14.2866 206.652 3.32688 202.66 -7.6689C202.006 -9.47085 199.104 -8.69244 199.766 -6.87148C203.001 2.0392 206.236 10.9499 209.472 19.8606C210.255 22.0167 211.071 24.1648 211.817 26.334C212.447 28.1679 213.173 30.3761 212.337 32.2651C211.153 34.9435 207.493 35.6078 204.937 34.9045C201.2 33.8759 198.471 30.7193 195.897 28.0179C193.315 25.3084 190.526 22.633 186.908 21.4044C182.822 20.0157 178.474 20.8881 174.271 20.8801C170.595 20.8731 167.178 19.7835 164.386 17.3402C157.463 11.2801 157.149 1.2638 160.748 -6.69539C161.539 -8.4423 158.953 -9.97111 158.158 -8.21118Z" fill="black" fill-opacity="0.1"/>
<path d="M426.629 278.106C420.38 269.775 410.622 265.271 401.09 261.759C391.679 258.291 380.609 255.75 370.985 259.868C366.242 261.897 362.813 265.573 359.193 269.11C355.644 272.578 351.713 275.385 346.62 275.802C341.681 276.206 336.805 274.662 333.123 271.329C331.166 269.556 329.354 267.599 326.914 266.479C324.452 265.349 321.723 264.96 319.032 264.899C308.293 264.655 298.129 270.128 290.813 277.703C283.432 285.347 278.046 295.276 274.535 305.252C272.672 310.547 271.427 316.245 271.822 321.885C272.187 327.077 274.075 331.661 276.844 336.011C279.322 339.905 282.416 343.673 283.849 348.121C284.525 350.221 284.756 352.435 284.253 354.6C283.667 357.119 282.278 359.327 280.786 361.403C277.919 365.394 274.971 369.118 272.982 373.658C271.054 378.058 269.84 382.683 269.296 387.454C268.221 396.87 269.969 406.646 274.403 415.034C275.503 417.116 276.783 419.092 278.214 420.962C279.372 422.476 281.98 420.982 280.805 419.448C269.523 404.706 268.984 382.926 279.77 367.755C282.571 363.814 286.136 360.085 287.191 355.209C288.149 350.784 286.797 346.494 284.65 342.637C282.39 338.577 279.409 334.956 277.294 330.81C274.901 326.119 274.356 320.842 275.024 315.662C275.731 310.188 277.648 304.877 279.942 299.884C282.11 295.164 284.594 290.571 287.588 286.321C293.511 277.909 301.855 270.891 312.079 268.599C316.934 267.511 323.183 267.167 327.411 270.239C329.455 271.725 331.075 273.712 333.136 275.189C335.052 276.561 337.27 277.561 339.547 278.161C344.032 279.346 348.89 279.04 353.151 277.196C357.68 275.237 360.971 271.502 364.438 268.134C368.027 264.647 371.973 262.117 376.954 261.185C381.804 260.279 386.87 260.874 391.631 261.998C396.597 263.17 401.428 264.949 406.102 266.98C410.677 268.968 415.228 271.296 419.085 274.496C420.915 276.015 422.608 277.718 424.035 279.622C425.182 281.149 427.789 279.654 426.629 278.106Z" fill="black" fill-opacity="0.1"/>
<path d="M17.3288 321.601C21.9432 316.394 27.0529 311.613 32.6189 307.434C38.1428 303.284 44.1979 299.192 50.7644 296.909C54.0081 295.781 57.4809 295.091 60.9217 295.521C64.1124 295.92 66.8999 297.43 69.6473 299.003C72.2147 300.473 74.831 302.06 77.7336 302.766C80.7081 303.49 83.6627 303.116 86.3991 301.758C89.3357 300.3 91.7639 297.95 94.2002 295.8C97.1468 293.202 100.092 290.604 103.039 288.005C108.61 283.092 114.066 277.988 119.89 273.373C125.129 269.219 131.02 265.581 137.684 264.365C143.558 263.293 150.165 264.185 154.788 268.22C159.275 272.136 161.483 277.891 164.1 283.083C166.821 288.482 170.278 293.172 175.309 296.628C180.161 299.962 185.97 301.909 191.846 302.22C194.907 302.382 197.948 302.017 200.923 301.3C204.373 300.47 207.86 299.199 211.458 299.383C214.723 299.549 217.247 301.379 219.355 303.742C221.642 306.305 223.579 309.227 225.46 312.096C229.408 318.117 232.829 324.496 235.626 331.133C237.056 334.53 238.361 338.05 238.938 341.706C239.525 345.417 239.06 349.002 237.822 352.533C236.566 356.112 234.872 359.548 233.335 363.011C231.739 366.607 230.143 370.203 228.546 373.798C222.849 386.629 216.15 400.825 220.529 415.096C224.094 426.72 233.562 435.25 243.006 442.294C245.345 444.039 247.732 445.717 250.131 447.377C251.724 448.479 253.226 445.878 251.646 444.786C241.815 437.988 231.29 430.498 225.625 419.643C222.569 413.785 221.55 407.23 222.407 400.69C223.384 393.22 226.357 386.129 229.374 379.289C232.584 372.011 235.888 364.773 239.052 357.475C240.481 354.181 241.754 350.836 242.114 347.236C242.478 343.599 241.825 339.892 240.769 336.416C238.682 329.547 235.371 322.914 231.81 316.702C230.023 313.587 228.097 310.551 226.039 307.608C224.171 304.936 222.263 302.132 219.821 299.943C217.232 297.621 214.099 296.329 210.599 296.366C207.019 296.404 203.575 297.576 200.127 298.406C194.26 299.819 188.227 299.385 182.613 297.153C177.155 294.983 172.405 291.132 169.256 286.172C166.035 281.101 164.142 275.283 160.664 270.363C156.98 265.152 151.748 261.921 145.39 261.146C139.015 260.37 132.642 262.054 127.024 265.023C120.905 268.258 115.656 272.887 110.494 277.438C104.601 282.633 98.7086 287.832 92.8165 293.029C90.2472 295.295 87.6968 297.915 84.5281 299.338C81.6386 300.636 78.635 300.195 75.8256 298.923C73.0531 297.667 70.5368 295.92 67.8003 294.592C64.8388 293.154 61.6971 292.34 58.3874 292.403C51.3797 292.538 44.8283 295.864 38.9912 299.464C33.0991 303.098 27.5562 307.32 22.4805 312.028C19.9342 314.389 17.5129 316.879 15.2097 319.479C13.929 320.92 16.0441 323.051 17.3288 321.601Z" fill="black" fill-opacity="0.1"/>
<path d="M400.242 80.7415C390.548 80.6435 378.117 81.2948 373.303 91.3911C371.397 95.3882 371.144 100.002 369.067 103.911C367.12 107.576 363.357 109.065 359.889 110.941C356.721 112.654 353.529 115.029 353.06 118.873C352.391 124.363 358.831 125.046 362.823 125.271C372.266 125.803 381.921 122.284 388.758 115.742C396.563 108.274 401.187 95.1521 412.951 92.9659C414.848 92.6138 414.045 89.7202 412.153 90.0714C402.657 91.8364 397.152 100.465 391.797 107.624C388.995 111.37 385.87 114.809 381.886 117.321C378.144 119.679 373.954 121.233 369.59 121.941C367.423 122.292 365.206 122.39 363.015 122.28C361.128 122.185 358.78 122.106 357.065 121.227C355.284 120.313 356.104 118.042 357.058 116.774C358.029 115.485 359.477 114.607 360.861 113.831C363.935 112.108 367.403 110.772 369.805 108.086C372.64 104.915 373.433 100.681 374.553 96.7159C375.19 94.4627 375.973 92.2146 377.451 90.3606C378.933 88.5006 380.916 87.1159 383.046 86.0963C388.359 83.554 394.492 83.6861 400.242 83.7441C402.174 83.7631 402.176 80.7615 400.242 80.7415Z" fill="black" fill-opacity="0.1"/>
<path d="M284.778 138.389C290.668 139.52 296.185 142.241 300.554 146.371C304.92 150.497 307.82 155.799 310.582 161.064C313.342 166.328 316.02 171.721 320.03 176.171C323.74 180.287 328.654 183.881 334.198 184.923C336.913 185.434 339.708 185.344 342.355 184.521C345.465 183.556 348.262 181.812 351.347 180.77C357.565 178.672 364.204 178.465 370.698 178.872C373.826 179.068 376.944 179.407 380.054 179.792C383.275 180.189 386.508 180.696 389.595 181.728C395.502 183.701 399.917 188.368 405.529 190.946C417.21 196.312 431.418 195.539 442.31 188.641C443.938 187.611 442.433 185.012 440.795 186.05C431.242 192.099 418.983 193.114 408.485 188.97C402.761 186.711 398.409 182.19 392.802 179.763C387.085 177.288 380.646 176.761 374.507 176.176C368.237 175.578 361.879 175.4 355.659 176.559C352.462 177.154 349.404 178.172 346.454 179.535C343.706 180.806 341.016 182.164 337.925 182.247C332.33 182.397 327.224 179.181 323.395 175.356C319.198 171.163 316.478 165.868 313.756 160.663C310.696 154.807 307.538 148.837 302.677 144.248C297.948 139.783 291.962 136.721 285.576 135.494C283.688 135.132 282.88 138.025 284.778 138.389Z" fill="black" fill-opacity="0.1"/>
<path d="M342.482 38.0009C340.465 45.5989 336.549 52.6896 330.733 58.0375C324.881 63.4173 317.067 66.7891 309.079 66.8771C300.391 66.9721 292.452 62.881 284.142 60.963C275.417 58.9489 266.513 59.9715 258.001 62.4798C253.183 63.8995 248.6 65.8926 243.889 67.6045C239.268 69.2834 234.308 70.5931 229.501 68.8922C227.676 68.2468 226.892 71.1453 228.703 71.7867C237.565 74.9213 246.621 69.4745 254.803 66.655C263.587 63.6274 273.021 61.7104 282.265 63.6204C290.939 65.4133 299.061 69.6656 308.051 69.8717C316.378 70.0628 324.551 66.9321 331.003 61.7534C338.187 55.9864 343.03 47.636 345.376 38.7983C345.872 36.9294 342.978 36.1319 342.482 38.0009Z" fill="black" fill-opacity="0.1"/>
</g>
<path d="M40.469 214.013L41.5246 215.699L43.2104 216.756L41.5246 217.811L40.469 219.497L39.4124 217.811L37.7266 216.756L39.4124 215.699L40.469 214.013Z" fill="#F2F2F2"/>
<path d="M118.222 84.5364L119.278 86.2213L120.963 87.2778L119.278 88.3344L118.222 90.0193L117.165 88.3344L115.48 87.2778L117.165 86.2213L118.222 84.5364Z" fill="#F2F2F2"/>
<path d="M36.1565 127.928L37.2121 129.614L38.8979 130.67L37.2121 131.726L36.1565 133.412L35.1 131.726L33.4141 130.67L35.1 129.614L36.1565 127.928Z" fill="#F2F2F2"/>
<path d="M54.4651 310.176L55.5207 311.861L57.2065 312.917L55.5207 313.973L54.4651 315.659L53.4085 313.973L51.7227 312.917L53.4085 311.861L54.4651 310.176Z" fill="#F2F2F2"/>
<path d="M322.948 292.173L324.005 293.858L325.691 294.915L324.005 295.971L322.948 297.656L321.893 295.971L320.207 294.915L321.893 293.858L322.948 292.173Z" fill="#F2F2F2"/>
<path d="M402.206 142.549L403.263 144.235L404.948 145.29L403.263 146.347L402.206 148.033L401.15 146.347L399.465 145.29L401.15 144.235L402.206 142.549Z" fill="#F2F2F2"/>
<path d="M169.022 34.452L171.182 37.8988L174.63 40.06L171.182 42.2201L169.022 45.6679L166.862 42.2201L163.414 40.06L166.862 37.8988L169.022 34.452Z" fill="#F2F2F2"/>
<path d="M258.249 295.193L260.41 298.64L263.857 300.802L260.41 302.962L258.249 306.41L256.088 302.962L252.641 300.802L256.088 298.64L258.249 295.193Z" fill="#F2F2F2"/>
<path d="M111.87 188.81L114.03 192.258L117.478 194.419L114.03 196.579L111.87 200.026L109.709 196.579L106.262 194.419L109.709 192.258L111.87 188.81Z" fill="#F2F2F2"/>
<path d="M147.866 292.173L150.026 295.621L153.474 297.781L150.026 299.942L147.866 303.389L145.706 299.942L142.258 297.781L145.706 295.621L147.866 292.173Z" fill="#F2F2F2"/>
<path d="M379.667 307.309L381.827 310.757L385.274 312.917L381.827 315.078L379.667 318.525L377.506 315.078L374.059 312.917L377.506 310.757L379.667 307.309Z" fill="#F2F2F2"/>
<path d="M318.444 187.319L320.605 190.767L324.052 192.927L320.605 195.088L318.444 198.535L316.284 195.088L312.836 192.927L316.284 190.767L318.444 187.319Z" fill="#F2F2F2"/>
<path d="M28.2229 233.457C28.1509 235.345 26.5611 236.817 24.6731 236.743C22.7851 236.671 21.3133 235.082 21.3853 233.194C21.4574 231.306 23.0472 229.834 24.9352 229.906C26.8232 229.98 28.295 231.569 28.2229 233.457Z" fill="white"/>
<path d="M45.9378 283.677C45.8657 285.565 44.2759 287.037 42.3879 286.965C40.4999 286.893 39.0282 285.303 39.1002 283.415C39.1722 281.527 40.7621 280.055 42.6501 280.128C44.5381 280.2 46.0108 281.789 45.9378 283.677Z" fill="white"/>
<path d="M91.8392 284.38C91.7672 286.268 90.1773 287.74 88.2893 287.667C86.4013 287.594 84.9296 286.005 85.0026 284.117C85.0746 282.229 86.6645 280.758 88.5525 280.831C90.4405 280.904 91.9122 282.493 91.8392 284.38Z" fill="white"/>
<path d="M84.4876 330.212C84.4156 332.1 82.8258 333.571 80.9378 333.499C79.0498 333.427 77.578 331.837 77.651 329.949C77.7231 328.061 79.3129 326.59 81.2009 326.662C83.0889 326.735 84.5607 328.324 84.4876 330.212Z" fill="white"/>
<path d="M140.269 313.048C140.197 314.936 138.607 316.408 136.719 316.336C134.831 316.264 133.359 314.674 133.432 312.786C133.504 310.898 135.094 309.427 136.982 309.499C138.87 309.572 140.342 311.161 140.269 313.048Z" fill="white"/>
<path d="M24.8047 233.326L42.2138 283.266L88.0429 283.442L81.0412 329.417L136.863 312.659L91.0985 285.14" stroke="white" stroke-miterlimit="10"/>
<path d="M388.202 185.866L399.624 123.159L359.003 129.728L347.835 83.3736L298.34 73.1908L289.786 119.466L236.519 98.5851L294.677 73.9384" stroke="white" stroke-miterlimit="10"/>
<path d="M387.531 182.512C389.384 182.139 391.187 183.34 391.558 185.193C391.93 187.045 390.729 188.848 388.877 189.221C387.025 189.593 385.221 188.392 384.85 186.539C384.479 184.687 385.679 182.884 387.531 182.512Z" fill="white"/>
<path d="M399.863 120.01C401.716 119.638 403.519 120.839 403.89 122.692C404.261 124.544 403.061 126.347 401.209 126.719C399.357 127.092 397.553 125.891 397.182 124.038C396.811 122.186 398.012 120.382 399.863 120.01Z" fill="white"/>
<path d="M358.289 126.508C360.141 126.136 361.945 127.337 362.316 129.189C362.688 131.042 361.487 132.845 359.635 133.217C357.782 133.589 355.979 132.388 355.608 130.536C355.237 128.683 356.437 126.88 358.289 126.508Z" fill="white"/>
<path d="M347.34 81.0646C349.192 80.6925 350.996 81.8934 351.367 83.7459C351.739 85.5983 350.538 87.4015 348.686 87.7727C346.833 88.1449 345.03 86.944 344.659 85.0914C344.288 83.2398 345.488 81.4368 347.34 81.0646Z" fill="white"/>
<path d="M297.359 69.9105C299.212 69.5384 301.015 70.7393 301.387 72.5916C301.759 74.444 300.558 76.2472 298.706 76.6193C296.854 76.9915 295.05 75.7906 294.678 73.9383C294.307 72.0857 295.507 70.2827 297.359 69.9105Z" fill="white"/>
<path d="M288.895 116.428C290.747 116.056 292.55 117.257 292.921 119.109C293.293 120.962 292.093 122.765 290.24 123.137C288.388 123.509 286.585 122.308 286.213 120.456C285.841 118.602 287.042 116.799 288.895 116.428Z" fill="white"/>
<path d="M236.52 95.0851C238.373 94.713 240.176 95.9139 240.547 97.7664C240.919 99.6188 239.718 101.422 237.866 101.794C236.014 102.166 234.211 100.965 233.838 99.1131C233.468 97.2603 234.669 95.4571 236.52 95.0851Z" fill="white"/>
<path d="M155.427 389.985L148.092 377.075L140.886 390.057L140.39 375.218L127.977 383.364L134.434 369.994L119.657 371.439L131.588 362.6L117.832 357.012L132.504 354.732L122.92 343.391L136.972 348.19L133.756 333.694L143.967 344.473L147.858 330.143L151.89 344.433L161.993 333.552L158.923 348.08L172.926 343.141L163.455 354.577L178.15 356.711L164.45 362.436L176.469 371.155L161.677 369.857L168.268 383.163L155.774 375.14L155.427 389.985Z" fill="#FFD252"/>
<path d="M147.87 372.236C154.186 372.236 159.307 367.116 159.307 360.8C159.307 354.483 154.186 349.363 147.87 349.363C141.554 349.363 136.434 354.483 136.434 360.8C136.434 367.116 141.554 372.236 147.87 372.236Z" fill="#F2F2F2"/>
<path d="M120.59 108.479C111.03 111.04 101.205 105.366 98.644 95.8068C96.0831 86.2476 101.757 76.4222 111.317 73.8613C113.93 73.1611 116.562 73.0808 119.062 73.5225C113.06 70.5224 105.981 69.6155 98.9895 71.4878C83.8103 75.5538 74.8005 91.1552 78.8666 106.334C82.9327 121.513 98.5344 130.522 113.714 126.456C128.853 122.401 137.852 106.872 133.865 91.7308C133.627 99.4269 128.411 106.384 120.59 108.479Z" fill="#FFD252"/>
<path d="M322.59 327.189C332.524 317.254 332.524 301.147 322.59 291.213C312.655 281.278 296.548 281.278 286.613 291.213C276.679 301.147 276.679 317.254 286.613 327.189C296.548 337.124 312.655 337.124 322.59 327.189Z" fill="#C192FF"/>
<mask id="mask1_88_1185" style="mask-type:luminance" maskUnits="userSpaceOnUse" x="279" y="283" width="52" height="52">
<path d="M322.586 327.189C332.521 317.254 332.521 301.147 322.586 291.212C312.651 281.278 296.544 281.278 286.609 291.212C276.675 301.147 276.675 317.254 286.609 327.189C296.544 337.124 312.651 337.124 322.586 327.189Z" fill="white"/>
</mask>
<g mask="url(#mask1_88_1185)">
<path d="M325.251 331.572C312.818 329.662 300.264 324.068 293.345 313.561C286.392 303.001 286.235 289.441 287.372 276.848L281.456 281.89C280.319 294.483 280.476 308.043 287.429 318.604C294.348 329.11 306.902 334.704 319.335 336.614L325.251 331.572Z" fill="#8E5DDB"/>
<path d="M299.2 266.762C298.063 279.355 298.22 292.915 305.174 303.476C312.092 313.982 324.646 319.576 337.079 321.486L331.163 326.529C318.73 324.619 306.176 319.025 299.257 308.518C292.304 297.958 292.147 284.399 293.284 271.806L299.2 266.762Z" fill="#8E5DDB"/>
<path d="M348.911 311.4C336.478 309.49 323.924 303.896 317.006 293.389C310.052 282.829 309.895 269.27 311.032 256.676L305.116 261.719C303.979 274.311 304.136 287.871 311.089 298.432C318.008 308.938 330.562 314.532 342.995 316.442L348.911 311.4Z" fill="#8E5DDB"/>
</g>
<path d="M329.186 302.646C336.581 303.621 341.254 305.055 341.254 306.653C341.254 309.588 325.491 311.968 306.045 311.968C286.6 311.968 270.837 309.588 270.837 306.653C270.837 305.283 274.268 304.034 279.902 303.092C279.902 303.092 280.343 301.482 280.541 300.917C280.74 300.348 281.488 298.558 281.488 298.558C268.363 300.852 259.629 304.933 259.629 309.586C259.629 316.759 280.386 322.574 305.99 322.574C331.595 322.574 352.352 316.759 352.352 309.586C352.352 304.614 342.154 300.293 327.502 298.111C327.502 298.111 327.945 299.15 328.423 300.414C328.903 301.68 329.186 302.646 329.186 302.646Z" fill="#F2F2F2"/>
<path d="M208.915 82.7195L201.782 74.6043C201.322 74.081 200.66 73.7799 199.963 73.7758L189.16 73.7238C187.276 73.7148 186.114 71.6627 187.075 70.0429L192.589 60.751C192.946 60.1517 193.028 59.4293 192.815 58.765L189.527 48.4735C188.953 46.6786 190.545 44.9397 192.383 45.3539L202.924 47.7262C203.604 47.8792 204.317 47.7342 204.882 47.3269L213.653 41.0186C215.183 39.918 217.329 40.8956 217.503 42.7716L218.504 53.5292C218.569 54.2226 218.927 54.8559 219.488 55.2681L228.198 61.6605C229.717 62.7751 229.451 65.1183 227.721 65.8637L217.799 70.1399C217.158 70.4161 216.667 70.9524 216.449 71.6137L213.061 81.8731C212.47 83.664 210.159 84.1343 208.915 82.7195Z" fill="#FFD252"/>
<path d="M207.436 75.1476L202.916 70.0059C202.625 69.6747 202.205 69.4836 201.764 69.4816L194.918 69.4486C193.725 69.4426 192.988 68.1429 193.598 67.1164L197.091 61.2293C197.316 60.8491 197.368 60.3919 197.234 59.9706L195.15 53.4502C194.787 52.3136 195.796 51.211 196.96 51.4732L203.639 52.976C204.07 53.073 204.521 52.981 204.879 52.7228L210.437 48.7257C211.407 48.0284 212.767 48.6477 212.877 49.8363L213.511 56.6529C213.552 57.0921 213.779 57.4933 214.135 57.7545L219.654 61.8046C220.617 62.511 220.448 63.9958 219.352 64.468L213.066 67.1774C212.661 67.3525 212.349 67.6917 212.21 68.1119L210.063 74.6123C209.688 75.7459 208.224 76.0441 207.436 75.1476Z" fill="#F2F2F2"/>
<path d="M207.167 69.3145L204.66 66.463C204.498 66.2789 204.266 66.1728 204.021 66.1718L200.225 66.1538C199.563 66.1508 199.154 65.4294 199.492 64.8601L201.43 61.5954C201.555 61.3853 201.584 61.1312 201.509 60.8981L200.353 57.2822C200.152 56.6518 200.711 56.0405 201.356 56.1856L205.06 57.019C205.3 57.0731 205.55 57.022 205.749 56.879L208.83 54.6628C209.368 54.2766 210.122 54.6198 210.183 55.2791L210.535 59.0591C210.558 59.3032 210.683 59.5253 210.881 59.6704L213.942 61.9166C214.475 62.3088 214.382 63.1312 213.774 63.3934L210.288 64.8962C210.063 64.9932 209.891 65.1813 209.814 65.4144L208.623 69.0193C208.415 69.6467 207.604 69.8118 207.167 69.3145Z" fill="#FFD252"/>
<path d="M206.969 65.0191L205.946 63.8545C205.88 63.7795 205.785 63.7365 205.685 63.7355L204.134 63.7285C203.864 63.7275 203.697 63.4323 203.835 63.2002L204.626 61.8665C204.677 61.7804 204.689 61.6764 204.658 61.5813L204.186 60.1035C204.104 59.8464 204.332 59.5963 204.596 59.6553L206.109 59.9955C206.207 60.0175 206.309 59.9965 206.39 59.9385L207.649 59.033C207.869 58.8749 208.176 59.015 208.201 59.2841L208.345 60.8279C208.354 60.928 208.406 61.018 208.486 61.0771L209.736 61.9945C209.954 62.1546 209.916 62.4908 209.668 62.5979L208.244 63.2112C208.152 63.2512 208.082 63.3282 208.05 63.4233L207.564 64.8961C207.48 65.1552 207.147 65.2222 206.969 65.0191Z" fill="#F2F2F2"/>
<path d="M239.184 374.354C239.116 373.873 239.049 373.393 239.049 373.393C239.049 373.393 237.068 359.366 250.216 357.229C260.922 355.489 266.494 372.2 250.434 395.006C248.603 397.607 245.25 398.697 242.24 397.672C215.832 388.676 210.508 371.882 220.191 366.992C232.081 360.987 238.73 373.496 238.73 373.496C238.73 373.496 238.957 373.924 239.184 374.354Z" fill="#FF85B7"/>
<path d="M240.858 380.171C240.823 379.92 240.787 379.668 240.787 379.668C240.787 379.668 239.75 372.325 246.633 371.205C252.238 370.295 255.154 379.043 246.747 390.982C245.788 392.343 244.033 392.914 242.456 392.378C228.632 387.669 225.845 378.877 230.914 376.318C237.139 373.174 240.62 379.723 240.62 379.723C240.62 379.723 240.739 379.946 240.858 380.171Z" fill="#F2F2F2"/>
<path d="M110.861 212.031L111.948 171.786L91.2821 212.031H110.861ZM152.193 235.598H139.866V261.34H110.861V235.598H61.9141V213.843L101.071 146.406H139.866V212.031H152.193V235.598Z" fill="url(#paint0_linear_88_1185)"/>
<path d="M327.665 212.031L328.753 171.786L308.087 212.031H327.665ZM368.998 235.598H356.671V261.34H327.665V235.598H278.719V213.843L317.876 146.406H356.671V212.031H368.998V235.598Z" fill="url(#paint1_linear_88_1185)"/>
<path d="M215.455 261.339C247.193 261.339 272.922 235.61 272.922 203.872C272.922 172.134 247.193 146.405 215.455 146.405C183.717 146.405 157.988 172.134 157.988 203.872C157.988 235.61 183.717 261.339 215.455 261.339Z" fill="url(#paint2_linear_88_1185)"/>
<path fill-rule="evenodd" clip-rule="evenodd" d="M159.697 189.92C163.546 208.748 175.92 236.627 215.455 236.627C248.201 236.627 264.43 212.432 272.058 193.896C272.626 197.135 272.922 200.469 272.922 203.872C272.922 235.589 247.172 261.339 215.455 261.339C183.738 261.339 157.988 235.589 157.988 203.872C157.988 199.061 158.581 194.387 159.697 189.92Z" fill="#7E93E7"/>
<path fill-rule="evenodd" clip-rule="evenodd" d="M193.307 256.909C193.135 256.147 193.044 255.353 193.044 254.539C193.044 248.624 197.846 243.822 203.761 243.822C209.676 243.822 214.478 248.624 214.478 254.539C214.478 257.076 213.594 259.408 212.119 261.244C205.486 260.863 199.152 259.355 193.307 256.909ZM237.586 239.06C241.058 239.06 243.877 241.879 243.877 245.351C243.877 248.824 241.058 251.643 237.586 251.643C234.113 251.643 231.294 248.824 231.294 245.351C231.294 241.879 234.113 239.06 237.586 239.06ZM182.647 236.684C183.958 236.684 185.022 237.749 185.022 239.06C185.022 240.371 183.958 241.435 182.647 241.435C181.336 241.435 180.271 240.371 180.271 239.06C180.271 237.749 181.336 236.684 182.647 236.684ZM218.099 221.828C220.955 221.828 223.274 224.147 223.274 227.003C223.274 229.859 220.955 232.178 218.099 232.178C215.243 232.178 212.924 229.859 212.924 227.003C212.924 224.147 215.243 221.828 218.099 221.828ZM256.461 227.427C257.772 227.427 258.836 228.491 258.836 229.802C258.836 231.114 257.772 232.178 256.461 232.178C255.15 232.178 254.085 231.114 254.085 229.802C254.085 228.491 255.15 227.427 256.461 227.427ZM161.725 224.281C162.151 223.638 162.88 223.214 163.708 223.214C165.019 223.214 166.083 224.279 166.083 225.59C166.083 226.901 165.019 227.965 163.708 227.965C163.554 227.965 163.403 227.951 163.257 227.922C162.706 226.73 162.195 225.515 161.725 224.281ZM269.901 222.298C268.948 222.879 267.829 223.214 266.632 223.214C263.159 223.214 260.34 220.395 260.34 216.923C260.34 213.45 263.159 210.631 266.632 210.631C268.954 210.631 270.983 211.891 272.074 213.765C271.566 216.69 270.836 219.539 269.901 222.298ZM182.647 210.631C185.737 210.631 188.245 213.14 188.245 216.23C188.245 219.319 185.737 221.828 182.647 221.828C179.557 221.828 177.048 219.319 177.048 216.23C177.048 213.14 179.557 210.631 182.647 210.631ZM241.502 210.631C242.813 210.631 243.877 211.695 243.877 213.006C243.877 214.317 242.813 215.382 241.502 215.382C240.191 215.382 239.126 214.317 239.126 213.006C239.126 211.695 240.191 210.631 241.502 210.631ZM211.578 187.239C218.033 187.239 223.274 192.48 223.274 198.935C223.274 205.39 218.033 210.631 211.578 210.631C205.123 210.631 199.882 205.39 199.882 198.935C199.882 192.48 205.123 187.239 211.578 187.239ZM166.749 191.289C170.221 191.289 173.04 194.108 173.04 197.581C173.04 201.053 170.221 203.872 166.749 203.872C163.276 203.872 160.457 201.053 160.457 197.581C160.457 194.108 163.276 191.289 166.749 191.289ZM266.632 194.184C267.943 194.184 269.008 195.248 269.008 196.559C269.008 197.87 267.943 198.935 266.632 198.935C265.321 198.935 264.256 197.87 264.256 196.559C264.256 195.248 265.321 194.184 266.632 194.184ZM250.169 184.997C253.642 184.997 256.461 187.816 256.461 191.289C256.461 194.761 253.642 197.581 250.169 197.581C246.696 197.581 243.877 194.761 243.877 191.289C243.877 187.816 246.696 184.997 250.169 184.997ZM187.398 184.863C188.709 184.863 189.773 185.928 189.773 187.239C189.773 188.55 188.709 189.614 187.398 189.614C186.087 189.614 185.022 188.55 185.022 187.239C185.022 185.928 186.087 184.863 187.398 184.863ZM227.153 170.438C230.243 170.438 232.751 172.946 232.751 176.037C232.751 179.127 230.243 181.635 227.153 181.635C224.063 181.635 221.554 179.127 221.554 176.037C221.554 172.946 224.063 170.438 227.153 170.438ZM182.647 162.792C186.867 162.792 190.293 166.218 190.293 170.438C190.293 174.658 186.867 178.084 182.647 178.084C178.427 178.084 175.001 174.658 175.001 170.438C175.001 166.218 178.427 162.792 182.647 162.792ZM203.761 170.438C205.072 170.438 206.136 171.502 206.136 172.813C206.136 174.124 205.072 175.189 203.761 175.189C202.45 175.189 201.385 174.124 201.385 172.813C201.385 171.502 202.45 170.438 203.761 170.438ZM251.116 158.818C254.322 161.36 257.251 164.236 259.849 167.394C258.747 169.217 256.746 170.438 254.461 170.438C250.988 170.438 248.169 167.619 248.169 164.146C248.169 161.903 249.346 159.932 251.116 158.818ZM204.328 147.484C207.931 146.776 211.651 146.405 215.457 146.405C219.263 146.405 222.983 146.776 226.585 147.484C226.954 148.621 227.153 149.833 227.153 151.091C227.153 157.546 221.912 162.787 215.457 162.787C209.002 162.787 203.761 157.546 203.761 151.091C203.761 149.833 203.96 148.621 204.328 147.484Z" fill="url(#paint3_linear_88_1185)"/>
<defs>
<linearGradient id="paint0_linear_88_1185" x1="107.044" y1="151.068" x2="107.044" y2="252.479" gradientUnits="userSpaceOnUse">
<stop stop-color="#DDE5FF"/>
<stop offset="1" stop-color="#859FF0"/>
</linearGradient>
<linearGradient id="paint1_linear_88_1185" x1="323.864" y1="151.068" x2="323.864" y2="252.479" gradientUnits="userSpaceOnUse">
<stop stop-color="#DDE5FF"/>
<stop offset="1" stop-color="#859FF0"/>
</linearGradient>
<linearGradient id="paint2_linear_88_1185" x1="215.443" y1="161.746" x2="215.443" y2="252.475" gradientUnits="userSpaceOnUse">
<stop stop-color="#CCD8FF"/>
<stop offset="1" stop-color="#819BF1"/>
</linearGradient>
<linearGradient id="paint3_linear_88_1185" x1="216.296" y1="161.73" x2="216.296" y2="265.841" gradientUnits="userSpaceOnUse">
<stop stop-color="#A1B6FA"/>
<stop offset="1" stop-color="#546CD3"/>
</linearGradient>
</defs>
</svg>
