<svg width="36" height="36" viewBox="0 0 36 36" fill="none" xmlns="http://www.w3.org/2000/svg">
<path d="M34.7132 2.57141H20.5703" stroke="#CCAC6C" stroke-width="2" stroke-linecap="round" stroke-linejoin="round"/>
<path d="M34.7132 10.2856H20.5703" stroke="#CCAC6C" stroke-width="2" stroke-linecap="round" stroke-linejoin="round"/>
<path d="M34.7132 18H20.5703" stroke="#CCAC6C" stroke-width="2" stroke-linecap="round" stroke-linejoin="round"/>
<path d="M34.7132 33.4286H20.5703" stroke="#CCAC6C" stroke-width="2" stroke-linecap="round" stroke-linejoin="round"/>
<path d="M34.7132 25.7142H20.5703" stroke="#CCAC6C" stroke-width="2" stroke-linecap="round" stroke-linejoin="round"/>
<path d="M1.28516 3.85713V14.1428C1.28516 14.8529 1.86079 15.4286 2.57087 15.4286H12.8566C13.5667 15.4286 14.1423 14.8529 14.1423 14.1428V3.85713C14.1423 3.14705 13.5667 2.57141 12.8566 2.57141H2.57087C1.86079 2.57141 1.28516 3.14705 1.28516 3.85713Z" stroke="#CCAC6C" stroke-width="2" stroke-linecap="round" stroke-linejoin="round"/>
<path d="M1.28516 21.8571V32.1428C1.28516 32.8528 1.86079 33.4286 2.57087 33.4286H12.8566C13.5667 33.4286 14.1423 32.8528 14.1423 32.1428V21.8571C14.1423 21.1471 13.5667 20.5714 12.8566 20.5714H2.57087C1.86079 20.5714 1.28516 21.1471 1.28516 21.8571Z" stroke="#CCAC6C" stroke-width="2" stroke-linecap="round" stroke-linejoin="round"/>
</svg>
