<svg width="36" height="36" viewBox="0 0 36 36" fill="none" xmlns="http://www.w3.org/2000/svg">
<g clip-path="url(#clip0_99_812)">
<path d="M17.9994 34.7143C27.2306 34.7143 34.7137 27.2312 34.7137 18C34.7137 8.76896 27.2306 1.28572 17.9994 1.28572C8.7684 1.28572 1.28516 8.76896 1.28516 18C1.28516 27.2312 8.7684 34.7143 17.9994 34.7143Z" stroke="#CCAC6C" stroke-width="2" stroke-linecap="round" stroke-linejoin="round"/>
<path d="M14.1406 25.7143H21.8549" stroke="#CCAC6C" stroke-width="2" stroke-linecap="round" stroke-linejoin="round"/>
<path d="M18.0011 25.7143V16.7143H15.4297" stroke="#CCAC6C" stroke-width="2" stroke-linecap="round" stroke-linejoin="round"/>
<path d="M17.9983 10.9286C17.6433 10.9286 17.3555 10.6408 17.3555 10.2857C17.3555 9.93069 17.6433 9.64287 17.9983 9.64287" stroke="#CCAC6C" stroke-width="2" stroke-linecap="round" stroke-linejoin="round"/>
<path d="M18 10.9286C18.355 10.9286 18.6429 10.6408 18.6429 10.2857C18.6429 9.93069 18.355 9.64287 18 9.64287" stroke="#CCAC6C" stroke-width="2" stroke-linecap="round" stroke-linejoin="round"/>
</g>
<defs>
<clipPath id="clip0_99_812">
<rect width="36" height="36" fill="white"/>
</clipPath>
</defs>
</svg>
