<svg width="40" height="61" viewBox="0 0 40 61" fill="none" xmlns="http://www.w3.org/2000/svg">
<path d="M34.0935 34.5047C41.8647 26.736 41.8647 14.0953 34.0935 6.32662C26.3223 -1.44221 13.6778 -1.44221 5.9065 6.32662C-1.86467 14.0953 -1.86467 26.736 5.9065 34.5047C9.19596 37.7931 13.3586 39.6891 17.655 40.1937V46.8644H12.9654C11.6704 46.8644 10.6206 47.9139 10.6206 49.2085C10.6206 50.503 11.6704 51.5526 12.9654 51.5526H17.655V58.1558C17.6551 59.4504 18.7049 60.4999 20.0001 60.4999C21.2951 60.4999 22.3449 59.4504 22.3449 58.1558V51.5526H27.0346C28.3296 51.5526 29.3794 50.503 29.3794 49.2085C29.3794 47.9139 28.3296 46.8644 27.0346 46.8644H22.3449V40.1938C26.6414 39.6891 30.804 37.7931 34.0935 34.5047ZM9.22268 31.1896C3.27998 25.2488 3.27998 15.5824 9.22268 9.64162C15.1653 3.70104 24.8345 3.70068 30.7774 9.64162C36.7201 15.5824 36.7201 25.2488 30.7774 31.1896C24.8347 37.1303 15.1654 37.1303 9.22268 31.1896Z" fill="#A347C4"/>
</svg>
