<svg width="50" height="50" viewBox="0 0 50 50" fill="none" xmlns="http://www.w3.org/2000/svg">
<path d="M49.1076 25.4126C50.8068 19.7006 49.7626 15.2836 48.5869 12.584C47.0485 9.0513 44.3072 6.30257 41.066 5.04261C39.6469 4.48552 38.1279 4.22865 36.6046 4.28822C35.0813 4.34779 33.5869 4.7225 32.2158 5.38871C29.6836 6.60277 27.43 8.7932 25.6154 11.7842C23.8008 8.7932 21.5471 6.60277 19.015 5.38871C17.6438 4.7226 16.1494 4.34793 14.6261 4.28836C13.1029 4.2288 11.5838 4.48562 10.1648 5.04261C8.94998 5.52077 7.81783 6.18676 6.8097 7.01625L2.11244 2.31898C1.88037 2.08692 1.56563 1.95654 1.23744 1.95654C0.909248 1.95654 0.594501 2.08692 0.362437 2.31898C0.130372 2.55104 0 2.86579 0 3.19398C0 3.52217 0.130372 3.83692 0.362437 4.06898L5.04017 8.74672C4.05487 9.89958 3.24729 11.1931 2.64418 12.5846C1.46859 15.2842 0.42396 19.7012 2.12367 25.4132C3.40492 29.7191 6.6513 34.4137 11.2651 38.6323C15.6345 42.6269 20.7328 45.7106 25.2536 47.092C25.4894 47.164 25.7412 47.164 25.977 47.092C29.5824 45.9903 33.5551 43.8052 37.2325 40.9397L43.9743 47.6811C44.207 47.9106 44.5209 48.0387 44.8476 48.0376C45.1744 48.0365 45.4874 47.9062 45.7185 47.6751C45.9495 47.4441 46.0798 47.131 46.0809 46.8043C46.082 46.4775 45.9538 46.1636 45.7243 45.931L39.1516 39.3587C39.4256 39.1201 39.6971 38.8778 39.966 38.6321C44.5798 34.4131 47.8263 29.7185 49.1076 25.4126ZM25.615 44.6112C21.5232 43.2809 16.9236 40.4529 12.9344 36.8052C8.64769 32.8852 5.65042 28.5885 4.49535 24.707C3.00912 19.711 3.90189 15.894 4.91293 13.5724C5.39252 12.4653 6.02612 11.4316 6.79496 10.5018L35.4693 39.1759C32.2243 41.6699 28.7693 43.5859 25.615 44.6112ZM38.2956 36.8052C37.9993 37.0762 37.6997 37.3423 37.3966 37.6037L8.56957 8.77621C9.32673 8.1824 10.1662 7.70176 11.0616 7.34935C15.032 5.8057 20.6483 6.98265 24.5024 14.9148C24.6039 15.1236 24.7621 15.2997 24.9589 15.4229C25.1557 15.5461 25.3832 15.6114 25.6154 15.6114C25.8476 15.6114 26.0751 15.5461 26.2719 15.4229C26.4688 15.2997 26.627 15.1236 26.7285 14.9148C30.5826 6.98265 36.1988 5.80589 40.1692 7.34935C42.7999 8.37191 45.041 10.6404 46.3178 13.5722C47.3289 15.8939 48.2221 19.7104 46.7355 24.7068C45.5804 28.5885 42.5831 32.8852 38.296 36.8052H38.2956Z" fill="#A347C4"/>
</svg>
