<svg width="50" height="50" viewBox="0 0 50 50" fill="none" xmlns="http://www.w3.org/2000/svg">
<path d="M11.928 33.983L5.94609 28.0002C0.684635 22.7397 0.684635 14.2095 5.94609 8.94801H5.94703L5.94797 8.94707C8.5787 6.31634 12.0264 5.00098 15.4741 5.00098C17.6673 5.00098 19.8595 5.53312 21.842 6.5974L24.9622 18.2575C25.021 18.4774 24.9978 18.7112 24.8968 18.9153L21.0314 26.7255C20.8254 27.1418 20.9555 27.6462 21.3373 27.911L26.6637 31.6039C27.0129 31.846 27.1555 32.2929 27.0109 32.6925L22.9133 44.0236C22.7966 44.3463 22.3841 44.4382 22.1415 44.1956L17.8227 39.8768" stroke="#A347C4" stroke-width="2.5" stroke-miterlimit="10" stroke-linecap="round" stroke-linejoin="round"/>
<path d="M44.0543 28.0001L29.3042 42.7502C28.9502 43.1043 28.3622 42.7305 28.5324 42.2597L32.6416 30.8965C32.7861 30.4969 32.6436 30.05 32.2944 29.8079L27.3287 26.365C26.9469 26.1004 26.8168 25.5959 27.0228 25.1795L29.8783 19.4098C29.9793 19.2057 30.0025 18.9719 29.9437 18.752L26.8965 7.36653C29.1871 5.78884 31.8563 5 34.5263 5C37.974 5 41.4217 6.31536 44.0524 8.94609L44.0543 8.94797C49.3154 14.209 49.3154 22.739 44.0543 28.0001Z" stroke="#A347C4" stroke-width="2.5" stroke-miterlimit="10" stroke-linecap="round" stroke-linejoin="round"/>
<ellipse cx="14.8939" cy="36.9237" rx="0.936869" ry="0.936869" fill="#A347C4"/>
</svg>
