<svg width="50" height="50" viewBox="0 0 50 50" fill="none" xmlns="http://www.w3.org/2000/svg">
<g clip-path="url(#clip0_41_1789)">
<path d="M33.778 13.9886L29.2923 9.50293L31.1763 6.66683H38.8228L40.7067 9.50293L36.2048 14.0049L38.5615 16.3616L44.9922 9.931L40.6099 3.3335H29.3892L25.0068 9.931L31.4212 16.3454L33.778 13.9886Z" fill="#A347C4"/>
<path d="M16.6667 46.6668C18.5799 46.6668 20.4232 46.3535 22.1248 45.7432C25.7544 44.4964 28.855 42.0078 30.8504 38.7453C32.4748 36.1256 33.3333 33.1016 33.3333 30.0002C33.3333 27.916 32.946 25.8815 32.1826 23.9536L29.0837 25.1808C29.6916 26.7165 30 28.3376 30 30.0002C30 32.4806 29.314 34.8968 28.0119 36.9972C26.4144 39.6087 23.9396 41.5952 21.0213 42.5978C19.6598 43.0861 18.195 43.3335 16.6667 43.3335C9.31478 43.3335 3.33333 37.352 3.33333 30.0002C3.33333 22.6483 9.31478 16.6668 16.6667 16.6668C18.9787 16.6668 21.2459 17.265 23.2219 18.3962L24.8788 15.5039C22.3983 14.0838 19.5589 13.3335 16.6667 13.3335C7.4764 13.3335 0 20.8099 0 30.0002C0 39.1904 7.4764 46.6668 16.6667 46.6668Z" fill="#A347C4"/>
<path d="M35 16.667C34.2334 16.667 33.4749 16.724 32.7498 16.8354C28.8672 17.4254 25.4183 19.4754 23.0363 22.6134C21.0783 25.2103 20 28.4256 20 31.667C20 34.0457 20.5428 36.3187 21.6146 38.4232L24.585 36.9111C23.7549 35.2795 23.3333 33.5151 23.3333 31.667C23.3333 29.1084 24.1512 26.6719 25.6942 24.6243C27.5464 22.1854 30.2295 20.5895 33.2536 20.1305C33.8151 20.0443 34.4027 20.0003 35 20.0003C41.4331 20.0003 46.6667 25.2339 46.6667 31.667C46.6667 38.1001 41.4331 43.3337 35 43.3337C33.6751 43.3337 32.4064 43.1196 31.228 42.6981L30.105 45.8361C31.6447 46.3879 33.291 46.667 35 46.667C43.2707 46.667 50 39.9377 50 31.667C50 23.3963 43.2707 16.667 35 16.667Z" fill="#A347C4"/>
</g>
<defs>
<clipPath id="clip0_41_1789">
<rect width="50" height="50" fill="white"/>
</clipPath>
</defs>
</svg>
