<svg width="50" height="50" viewBox="0 0 50 50" fill="none" xmlns="http://www.w3.org/2000/svg">
<g clip-path="url(#clip0_41_1784)">
<path d="M39.1776 0V2.92969H44.9789L37.4501 10.4585C35.1848 8.64375 32.3127 7.55645 29.191 7.55645C26.2013 7.55645 23.4403 8.55361 21.2221 10.2322C19.0039 8.55371 16.243 7.55645 13.2531 7.55645C5.95664 7.55645 0.0205078 13.4926 0.0205078 20.7891C0.0205078 27.5904 5.17861 33.2089 11.7883 33.9401V42.1653H7.8374V45.095H11.7884V50H14.7181V45.0951H18.6689V42.1654H14.7181V33.9402C17.1424 33.672 19.3713 32.7466 21.2222 31.346C23.4403 33.0245 26.2013 34.0218 29.1911 34.0218C36.4876 34.0218 42.4237 28.0856 42.4237 20.7892C42.4237 17.6675 41.3365 14.7955 39.5218 12.5301L47.0506 5.00127V10.8025H49.9803V0H39.1776ZM21.2222 27.3122C19.7644 25.5345 18.8882 23.2623 18.8882 20.7892C18.8882 18.316 19.7644 16.0438 21.2222 14.2661C22.68 16.0438 23.5562 18.316 23.5562 20.7892C23.5562 23.2623 22.68 25.5344 21.2222 27.3122ZM2.95029 20.7892C2.95029 15.1081 7.57217 10.4862 13.2532 10.4862C15.4063 10.4862 17.4071 11.1506 19.062 12.2845C17.1264 14.586 15.9584 17.5535 15.9584 20.7892C15.9584 24.0248 17.1264 26.9923 19.062 29.2938C17.4071 30.4277 15.4064 31.0921 13.2532 31.0921C7.57217 31.0921 2.95029 26.4702 2.95029 20.7892ZM29.191 31.0921C27.0379 31.0921 25.0371 30.4277 23.3822 29.2938C25.3179 26.9923 26.4858 24.0248 26.4858 20.7892C26.4858 17.5535 25.3179 14.586 23.3822 12.2845C25.0371 11.1506 27.0378 10.4862 29.191 10.4862C34.8721 10.4862 39.4939 15.1081 39.4939 20.7892C39.4939 26.4702 34.8721 31.0921 29.191 31.0921Z" fill="#A347C4"/>
</g>
<defs>
<clipPath id="clip0_41_1784">
<rect width="50" height="50" fill="white"/>
</clipPath>
</defs>
</svg>
