<svg width="50" height="50" viewBox="0 0 50 50" fill="none" xmlns="http://www.w3.org/2000/svg">
<path d="M18.7503 18.7498L19.4489 16.6542C20.9147 12.2568 26.7161 11.3153 29.4973 15.0235C31.1264 17.1957 31.0128 20.2118 29.2248 22.2552L27.3098 24.4438C25.8209 26.1453 25.0003 28.3294 25.0003 30.5903V31.2498M45.8337 24.9998C45.8337 36.5058 36.5063 45.8332 25.0003 45.8332C13.4944 45.8332 4.16699 36.5058 4.16699 24.9998C4.16699 13.4939 13.4944 4.1665 25.0003 4.1665C36.5063 4.1665 45.8337 13.4939 45.8337 24.9998Z" stroke="#A347C4" stroke-width="3" stroke-linecap="round"/>
<path d="M27.0837 37.4998C27.0837 38.6504 26.1509 39.5832 25.0003 39.5832C23.8497 39.5832 22.917 38.6504 22.917 37.4998C22.917 36.3492 23.8497 35.4165 25.0003 35.4165C26.1509 35.4165 27.0837 36.3492 27.0837 37.4998Z" fill="#A347C4"/>
</svg>
