<svg width="50" height="50" viewBox="0 0 50 50" fill="none" xmlns="http://www.w3.org/2000/svg">
<g clip-path="url(#clip0_41_1796)">
<path d="M22.4111 34.1736L29.0108 39.9127L44.596 26.3601C52.4223 19.5545 47.8328 6.57686 37.4635 6.3667C37.3664 6.36475 37.2689 6.36377 37.1712 6.36377C34.1318 6.36377 31.3169 7.32314 29.011 8.95439C26.705 7.32314 23.8902 6.36377 20.8507 6.36377C20.7531 6.36377 20.6556 6.36475 20.5583 6.3667C10.8654 6.56318 6.2228 17.9159 12.0511 24.955" stroke="#A347C4" stroke-width="3" stroke-miterlimit="10"/>
<path d="M15.976 22.7359C14.2258 23.1689 12.7416 24.1224 11.6461 25.3901C10.0858 24.7794 8.32832 24.6279 6.57812 25.0609C6.52187 25.0749 6.46592 25.0893 6.41025 25.1043C0.469238 26.7025 -0.324805 34.8293 5.15127 37.6332L16.0563 43.2168L23.1 33.1925C26.6371 28.1586 22.1455 21.3397 16.1446 22.6959C16.0885 22.7086 16.0322 22.7219 15.976 22.7359Z" stroke="#A347C4" stroke-width="3" stroke-miterlimit="10"/>
</g>
<defs>
<clipPath id="clip0_41_1796">
<rect width="50" height="50" fill="white"/>
</clipPath>
</defs>
</svg>
