<svg width="60" height="61" viewBox="0 0 60 61" fill="none" xmlns="http://www.w3.org/2000/svg">
<g clip-path="url(#clip0_41_1765)">
<path d="M59.9677 2.67773C59.9402 2.46228 59.8926 2.25476 59.8138 2.06006C59.8114 2.05518 59.8114 2.04846 59.8102 2.04236C59.8102 2.04114 59.809 2.03992 59.8077 2.0387C59.7211 1.83362 59.6027 1.64746 59.469 1.47473C59.436 1.43384 59.4037 1.39355 59.3689 1.3551C59.2261 1.19397 59.071 1.04504 58.891 0.923584C58.8861 0.919922 58.88 0.918701 58.8751 0.915039C58.7012 0.800293 58.5089 0.713623 58.3075 0.645264C58.2574 0.627563 58.2086 0.612305 58.1573 0.598877C57.9462 0.541504 57.7289 0.5 57.5 0.5H40C38.62 0.5 37.5 1.62 37.5 3C37.5 4.38 38.62 5.5 40 5.5H51.4636L36.5424 20.4213C32.5635 17.2389 27.6648 15.5 22.5 15.5C10.094 15.5 0 25.594 0 38C0 50.406 10.094 60.5 22.5 60.5C34.906 60.5 45 50.406 45 38C45 32.8376 43.2623 27.9402 40.0775 23.9576L55 9.03516V20.5C55 21.88 56.12 23 57.5 23C58.88 23 60 21.88 60 20.5V3C60 2.94751 59.9878 2.89746 59.9847 2.84619C59.9811 2.78882 59.975 2.73389 59.9677 2.67773ZM22.5 55.5C12.8497 55.5 5 47.6503 5 38C5 28.3497 12.8497 20.5 22.5 20.5C27.1722 20.5 31.571 22.3188 34.8785 25.6147C38.1812 28.929 40 33.3278 40 38C40 47.6503 32.1503 55.5 22.5 55.5Z" fill="#A347C4"/>
</g>
<defs>
<clipPath id="clip0_41_1765">
<rect width="60" height="60" fill="white" transform="translate(0 0.5)"/>
</clipPath>
</defs>
</svg>
