<svg width="46" height="50" viewBox="0 0 46 50" fill="none" xmlns="http://www.w3.org/2000/svg">
<path d="M34.3585 50.0002C32.4764 50.0002 30.9412 48.487 30.9055 46.6133L30.7054 44.8662L30.5483 46.5997C30.5197 48.4795 28.9816 50.0001 27.0952 50.0001C25.1949 50.0001 23.6481 48.4575 23.6416 46.5588L23.3878 34.1713C23.3756 33.5782 23.8466 33.0876 24.4397 33.0754C25.0357 33.0606 25.5236 33.5342 25.5358 34.1273L25.7897 46.5245C25.7898 46.5318 25.7899 46.5391 25.7899 46.5464C25.7899 47.2661 26.3755 47.8515 27.0951 47.8515C27.8147 47.8515 28.4002 47.2661 28.4002 46.5464C28.4002 46.514 28.4016 46.4817 28.4046 46.4494L29.5118 34.242C29.5616 33.6933 30.0182 33.2714 30.569 33.2649C30.5732 33.2649 30.5775 33.2648 30.5818 33.2648C31.127 33.2648 31.5867 33.6738 31.6489 34.2169L33.0464 46.4243C33.051 46.4648 33.0533 46.5056 33.0533 46.5464C33.0533 47.2661 33.6387 47.8515 34.3584 47.8515C35.078 47.8515 35.6635 47.2661 35.6635 46.5464V19.3858C35.6635 19.0953 35.7812 18.8171 35.9897 18.6148C38.2271 16.4438 40.0559 13.7416 41.4251 10.5832C43.1447 6.61647 43.5327 3.35016 43.5484 3.21295C43.6081 2.68951 43.2305 2.21471 42.7067 2.15494C42.1838 2.09488 41.709 2.47174 41.6486 2.99469C41.6323 3.13043 41.2437 6.23932 39.6203 9.93766C38.5511 12.3732 37.2056 14.5013 35.6213 16.263C35.4175 16.4894 35.1271 16.6188 34.8225 16.6188H34.7487C34.304 16.6188 33.9053 16.3448 33.7459 15.9297C33.5864 15.5146 33.6993 15.0442 34.0296 14.7465C35.1244 13.7601 35.7183 12.3486 35.6592 10.8741C35.5545 8.25836 33.4199 6.17975 30.7999 6.14186C29.4683 6.1192 28.2098 6.62691 27.2612 7.56188C26.3123 8.49723 25.7897 9.74586 25.7897 11.0781C25.7897 12.4738 26.3852 13.8109 27.4235 14.7465C27.765 15.0543 27.8728 15.5451 27.6918 15.9675C27.5108 16.39 27.0811 16.6506 26.6226 16.6157C26.1597 16.5804 24.7935 16.5087 24.041 16.5996C23.4178 16.6748 22.8208 16.8077 22.2665 16.9947C21.7042 17.1842 21.0949 16.8822 20.9052 16.3201C20.7157 15.758 21.0176 15.1485 21.5799 14.9588C22.2732 14.725 23.0146 14.5594 23.7834 14.4666C23.9957 14.441 24.233 14.4252 24.4786 14.4163C23.935 13.3987 23.6412 12.253 23.6412 11.078C23.6412 9.16607 24.3912 7.37389 25.753 6.0317C27.1145 4.68971 28.9152 3.96676 30.8309 3.99352C34.0612 4.04029 36.7772 6.24859 37.5746 9.25074C37.6008 9.19205 37.6269 9.13317 37.6529 9.07408C39.1428 5.67975 39.5114 2.77096 39.5149 2.74195C39.7106 1.04957 41.251 -0.173964 42.9504 0.0202743C44.6507 0.214122 45.8767 1.75572 45.6827 3.45651C45.6655 3.6069 45.2413 7.18102 43.3961 11.4376C41.9809 14.7017 40.1035 17.5242 37.8117 19.8339V46.5464C37.8121 48.4508 36.2628 50.0002 34.3585 50.0002Z" fill="#A347C4"/>
<path d="M25.3952 18.7747C24.9929 16.805 23.7702 15.4319 21.8591 14.8059C21.696 14.7522 21.5359 14.7073 21.3786 14.6682C22.0124 13.5901 22.3572 12.3509 22.3572 11.0784C22.3572 9.16629 21.6072 7.37429 20.2458 6.03152C18.8845 4.68972 17.0818 3.96902 15.1677 3.99343C13.3591 4.0198 11.6423 4.73562 10.3347 6.00906C9.40501 6.91433 8.75169 8.03347 8.42552 9.2532C8.39915 9.19461 8.37181 9.13406 8.34544 9.07449C6.85521 5.67898 6.48802 2.77175 6.48509 2.74832C6.28783 1.05008 4.74681 -0.173558 3.04857 0.0207784C1.34837 0.214138 0.121811 1.75613 0.316147 3.4573C0.333725 3.60769 0.757553 7.18093 2.60326 11.4378C4.0183 14.7024 5.89525 17.5247 8.18724 19.8343V46.5471C8.18724 48.4514 9.73607 50.0003 11.6404 50.0003C13.5261 50.0003 15.0632 48.4817 15.0935 46.6038L15.2654 44.8577L15.4509 46.6087C15.4841 48.4846 17.0202 50.0003 18.904 50.0003C20.8083 50.0003 22.3572 48.4514 22.3572 46.5471V36.9593C22.446 36.9749 22.5359 36.9846 22.6247 36.9895C22.6706 36.9915 22.7165 36.9925 22.7634 36.9925C24.0115 36.9925 25.3298 36.0803 25.53 34.2669C25.696 32.7571 26.1609 22.5237 25.3952 18.7747ZM23.3943 34.0315C23.3259 34.6536 22.9988 34.8567 22.7419 34.844C22.4079 34.8255 22.3572 34.4651 22.3572 34.2522V21.1038C22.3572 20.51 21.8767 20.0296 21.2829 20.0296C20.6902 20.0296 20.2087 20.51 20.2087 21.1038V46.5471C20.2087 47.2659 19.6238 47.8518 18.904 47.8518C18.1843 47.8518 17.5993 47.2659 17.5993 46.5471C17.5993 46.5091 17.5964 46.471 17.5925 46.4339L16.2917 34.1721C16.2341 33.6253 15.7732 33.2112 15.2243 33.2112H15.2195C14.6687 33.2132 14.2087 33.6321 14.155 34.18L12.9509 46.4417C12.947 46.4768 12.946 46.512 12.946 46.5471C12.946 47.2659 12.3601 47.8518 11.6404 47.8518C10.9206 47.8518 10.3357 47.2659 10.3357 46.5471V19.386C10.3357 19.095 10.2175 18.8177 10.0095 18.6145C7.7722 16.4436 5.9431 13.7415 4.57396 10.5833C2.85423 6.61648 2.46654 3.34988 2.45091 3.21316C2.39134 2.68972 2.7683 2.21511 3.29271 2.15554C3.81615 2.095 4.28978 2.47195 4.3513 2.99929C4.36693 3.12918 4.75072 6.22976 6.37865 9.93777C7.44798 12.3733 8.79369 14.5012 10.3777 16.263C10.5818 16.4895 10.8718 16.6194 11.1765 16.6194H11.2507C11.6951 16.6194 12.0935 16.345 12.2527 15.93C12.4128 15.5149 12.2995 15.0442 11.9695 14.7464C10.8747 13.76 10.281 12.3489 10.3396 10.8743C10.4441 8.25808 12.5788 6.17996 15.199 6.14187C16.5329 6.12039 17.7888 6.62722 18.738 7.56179C19.6863 8.49734 20.2087 9.74636 20.2087 11.0784C20.2087 12.4739 19.614 13.8098 18.5759 14.7454C18.1404 15.1379 18.1035 15.8285 18.4968 16.2639C18.7283 16.5208 19.0564 16.6399 19.3777 16.6155C19.3816 16.6155 19.3845 16.6145 19.3884 16.6145H19.3933C19.4665 16.6096 20.3396 16.5559 21.2468 16.8665C22.3806 17.2561 23.0486 18.0208 23.2908 19.2044C23.9685 22.5276 23.5925 32.2337 23.3943 34.0315Z" fill="#A347C4"/>
<path d="M15.2876 14.0497C14.6104 14.0497 13.9746 13.7306 13.5867 13.1958C13.2382 12.7156 13.3451 12.0439 13.8253 11.6955C14.2884 11.3595 14.9301 11.447 15.2876 11.8848C15.6451 11.4471 16.2868 11.3595 16.75 11.6956C17.23 12.044 17.3368 12.7158 16.9883 13.196C16.6004 13.7306 15.9645 14.0497 15.2876 14.0497Z" fill="#A347C4"/>
<path d="M12.8317 11.4804C11.2737 11.4113 11.5003 9.11734 13.0406 9.35347C14.2988 9.62203 14.1173 11.4622 12.8317 11.4804Z" fill="#A347C4"/>
<path d="M17.7137 11.4805C16.1563 11.409 16.3807 9.12056 17.9238 9.35356C19.1814 9.62319 18.9992 11.4625 17.7137 11.4805Z" fill="#A347C4"/>
<path d="M30.8228 14.0497C30.1457 14.0497 29.51 13.7306 29.1219 13.196C28.7735 12.7159 28.8801 12.0441 29.3603 11.6956C29.8235 11.3595 30.4652 11.447 30.8228 11.8848C31.1802 11.4469 31.8221 11.3595 32.2852 11.6956C32.7654 12.0441 32.8721 12.7158 32.5236 13.196C32.1356 13.7306 31.4998 14.0497 30.8228 14.0497Z" fill="#A347C4"/>
<path d="M28.3665 11.4805C26.8083 11.411 27.036 9.11692 28.5765 9.35354C29.8346 9.62307 29.652 11.4618 28.3665 11.4805Z" fill="#A347C4"/>
<path d="M33.2489 11.4805C31.963 11.4628 31.7816 9.62251 33.0389 9.35356C34.582 9.12055 34.8056 11.4094 33.2489 11.4805Z" fill="#A347C4"/>
</svg>
