<svg width="50" height="50" viewBox="0 0 50 50" fill="none" xmlns="http://www.w3.org/2000/svg">
<path d="M48.9258 10.3707H35.8976V5.00684C35.8976 4.41357 35.4166 3.93262 34.8233 3.93262H15.1751C14.5818 3.93262 14.1009 4.41357 14.1009 5.00684V10.3707H1.07422C0.480957 10.3707 0 10.8517 0 11.4449V22.3764C0 22.9191 0.404883 23.3767 0.943652 23.4426L2.14854 23.5901V44.9932C2.14854 45.5864 2.62949 46.0674 3.22275 46.0674H46.7772C47.3705 46.0674 47.8515 45.5864 47.8515 44.9932V23.5901L49.0563 23.4426C49.5951 23.3766 50 22.9191 50 22.3764V11.4449C50 10.8517 49.519 10.3707 48.9258 10.3707ZM16.2493 6.08105H33.7491V10.3707H16.2493V6.08105ZM4.29697 43.9189V41.7703H45.703V43.9189H4.29697ZM47.8516 21.4256L41.2249 22.2371C40.636 22.3092 41.4417 24.3751 41.486 24.3696L45.7031 23.8532V39.6219H4.29697V23.8533L8.51396 24.3697C9.10244 24.4415 9.36397 22.3093 8.7751 22.2372L2.14844 21.4256V12.519H47.8516V21.4256Z" fill="#A347C4"/>
<path d="M14.729 22.9662C14.1401 22.8935 13.879 25.0266 14.4679 25.0987L24.8693 26.3724C24.9127 26.3777 24.9564 26.3804 24.9999 26.3804C25.0435 26.3804 25.0871 26.3778 25.1305 26.3724L35.5319 25.0987C36.1208 25.0266 35.8606 22.8934 35.2708 22.9662L24.9999 24.224L14.729 22.9662Z" fill="#A347C4"/>
<path d="M14.5984 18.9326H8.64453C8.05127 18.9326 7.57031 19.4136 7.57031 20.0068V27.0365C7.57031 27.6298 8.05127 28.1107 8.64453 28.1107H14.5985C15.1918 28.1107 15.6728 27.6298 15.6728 27.0365V20.0068C15.6727 19.4136 15.1917 18.9326 14.5984 18.9326ZM13.5242 25.9623H9.71875V21.0811H13.5243V25.9623H13.5242Z" fill="#A347C4"/>
<path d="M41.3554 18.9326H35.4014C34.8081 18.9326 34.3271 19.4136 34.3271 20.0068V27.0365C34.3271 27.6298 34.8081 28.1107 35.4014 28.1107H41.3554C41.9486 28.1107 42.4296 27.6298 42.4296 27.0365V20.0068C42.4296 19.4136 41.9487 18.9326 41.3554 18.9326ZM40.2812 25.9623H36.4756V21.0811H40.2812V25.9623Z" fill="#A347C4"/>
</svg>
