<svg width="50" height="50" viewBox="0 0 50 50" fill="none" xmlns="http://www.w3.org/2000/svg">
<g clip-path="url(#clip0_41_1869)">
<path d="M37.8063 25.5949C38.419 24.7597 38.782 23.7304 38.782 22.6174V21.0289C38.782 19.7003 38.2649 18.4907 37.4225 17.5887C37.7907 16.9513 37.9879 16.2264 37.9879 15.4693C37.9879 13.1253 36.0809 11.2183 33.7368 11.2183C31.3928 11.2183 29.4857 13.1253 29.4857 15.4693C29.4857 16.2264 29.6829 16.9512 30.0512 17.5887C29.2087 18.4906 28.6916 19.7002 28.6916 21.0289V22.6174C28.6916 23.1996 28.7919 23.7587 28.9742 24.2795C28.05 23.0985 26.6129 22.3374 25.0005 22.3374C23.3881 22.3374 21.951 23.0986 21.0268 24.2795C21.2091 23.7587 21.3094 23.1996 21.3094 22.6174V21.0289C21.3094 18.247 19.046 15.9836 16.2641 15.9836C13.4821 15.9836 11.2188 18.2469 11.2188 21.0289V22.6174C11.2188 23.7304 11.5818 24.7598 12.1945 25.5949C9.83711 26.0178 8.04199 28.0822 8.04199 30.5596V33.2502C8.04199 33.8435 8.52295 34.3244 9.11621 34.3244C9.70947 34.3244 10.1904 33.8435 10.1904 33.2502V30.5596C10.1904 28.9622 11.4899 27.6627 13.0872 27.6627H15.1898V28.9711C15.1898 29.5644 15.6708 30.0453 16.2641 30.0453C16.8573 30.0453 17.3383 29.5644 17.3383 28.9711V27.6627H19.9633C20.0186 28.6681 20.3698 29.5955 20.9309 30.3603C18.5734 30.7832 16.7782 32.8477 16.7782 35.3249V40.5836C16.7782 41.1769 17.2592 41.6578 17.8524 41.6578C18.4457 41.6578 18.9267 41.1769 18.9267 40.5836V35.3249C18.9267 33.7275 20.2263 32.428 21.8235 32.428H23.9262V33.7364C23.9262 34.3297 24.4071 34.8106 25.0004 34.8106C25.5937 34.8106 26.0746 34.3297 26.0746 33.7364V32.428H28.1772C29.7745 32.428 31.0741 33.7275 31.0741 35.3249V40.6387C31.0741 41.2319 31.5551 41.7129 32.1483 41.7129C32.7416 41.7129 33.2226 41.2319 33.2226 40.6387V35.3249C33.2226 32.8477 31.4273 30.7832 29.0699 30.3603C29.631 29.5956 29.9822 28.6682 30.0375 27.6627H32.6625V28.9711C32.6625 29.5644 33.1435 30.0453 33.7367 30.0453C34.33 30.0453 34.8109 29.5644 34.8109 28.9711V27.6627H36.9136C38.5108 27.6627 39.8103 28.9622 39.8103 30.5596V33.2502C39.8103 33.8435 40.2913 34.3244 40.8846 34.3244C41.4778 34.3244 41.9588 33.8435 41.9588 33.2502V30.5596C41.9589 28.0822 40.1638 26.0178 37.8063 25.5949ZM30.8399 22.6174V21.0289C30.8399 19.4316 32.1395 18.132 33.7368 18.132C35.3342 18.132 36.6336 19.4315 36.6336 21.0289V22.6174C36.6336 24.2147 35.3341 25.5143 33.7368 25.5143C32.1395 25.5143 30.8399 24.2146 30.8399 22.6174ZM33.7368 13.3668C34.8962 13.3668 35.8395 14.3101 35.8395 15.4694C35.8395 15.7821 35.7694 16.0831 35.6408 16.3579C35.0528 16.1174 34.4103 15.9837 33.7368 15.9837C33.0633 15.9837 32.4207 16.1174 31.8328 16.3579C31.7042 16.0831 31.6342 15.7822 31.6342 15.4694C31.6342 14.31 32.5774 13.3668 33.7368 13.3668ZM25.0004 24.4857C26.5977 24.4857 27.8973 25.7853 27.8973 27.3826C27.8973 28.98 26.5977 30.2795 25.0004 30.2795C23.4031 30.2795 22.1035 28.98 22.1035 27.3826C22.1035 25.7854 23.4031 24.4857 25.0004 24.4857ZM13.3672 21.0289C13.3672 19.4316 14.6667 18.132 16.264 18.132C17.8612 18.132 19.1608 19.4315 19.1608 21.0289V22.6174C19.1608 24.2147 17.8612 25.5143 16.264 25.5143C14.6667 25.5143 13.3672 24.2147 13.3672 22.6174V21.0289Z" fill="#A347C4"/>
<path d="M25 46.724C24.8269 46.724 24.6536 46.6822 24.4961 46.5985C24.2479 46.4667 18.3484 43.3128 12.3512 38.3357C8.80469 35.3926 5.97236 32.4242 3.93291 29.5132C1.32324 25.7883 0 22.1321 0 18.6465C0 10.1714 6.89492 3.27637 15.3701 3.27637C18.9032 3.27637 22.2873 4.44639 25 6.58887C27.7127 4.44639 31.0969 3.27637 34.6299 3.27637C43.105 3.27637 50 10.1714 50 18.6465C50 22.1321 48.6768 25.7883 46.0672 29.5132C44.0277 32.4242 41.1954 35.3926 37.6489 38.3357C31.6517 43.3127 25.7521 46.4667 25.504 46.5985C25.3464 46.6822 25.1731 46.724 25 46.724ZM15.3701 5.4248C8.07959 5.4248 2.14844 11.3561 2.14844 18.6465C2.14844 31.0114 21.594 42.5051 25 44.4226C28.406 42.5052 47.8516 31.0114 47.8516 18.6465C47.8516 11.3561 41.9204 5.4248 34.6299 5.4248C31.3562 5.4248 28.1073 6.65225 25.7163 8.79228C25.3085 9.15732 24.6913 9.15732 24.2835 8.79228C21.8927 6.65225 18.6437 5.4248 15.3701 5.4248Z" fill="#A347C4"/>
</g>
<defs>
<clipPath id="clip0_41_1869">
<rect width="50" height="50" fill="white"/>
</clipPath>
</defs>
</svg>
