<svg width="50" height="50" viewBox="0 0 50 50" fill="none" xmlns="http://www.w3.org/2000/svg">
<g clip-path="url(#clip0_41_1834)">
<path d="M46.1312 4.38867H3.86885C1.73555 4.38867 0 6.12393 0 8.25684V14.7893C0 15.3825 0.480957 15.8635 1.07422 15.8635C1.66748 15.8635 1.26953 15.3825 1.26953 14.7893L2.14844 12.6434V8.25684C2.14844 7.30859 2.92021 6.53711 3.86885 6.53711H46.1312C47.0799 6.53711 47.8517 7.30859 47.8517 8.25684V13.1005C47.8517 13.1005 48.3741 14.7212 48.9675 14.7212C49.5608 14.7212 50 15.3825 50 14.7893V8.25684C50 6.12393 48.2645 4.38867 46.1312 4.38867Z" fill="#A347C4"/>
<path d="M43.7793 19.8311C42.2588 19.8311 41.0218 18.5906 41.0218 17.0659C41.0218 16.4727 40.5408 15.9917 39.9476 15.9917H10.0524C9.45918 15.9917 8.97822 16.4727 8.97822 17.0659C8.97822 18.5906 7.74121 19.8311 6.2207 19.8311C5.62744 19.8311 5.14648 20.312 5.14648 20.9053V35.5408C5.14648 36.1341 5.62744 36.615 6.2207 36.615C7.74121 36.615 8.97822 37.8555 8.97822 39.3802C8.97822 39.9734 9.45918 40.4544 10.0524 40.4544H39.9476C40.5408 40.4544 41.0218 39.9734 41.0218 39.3802C41.0218 37.8555 42.2588 36.615 43.7793 36.615C44.3726 36.615 44.8535 36.1341 44.8535 35.5408V20.9053C44.8535 20.312 44.3726 19.8311 43.7793 19.8311ZM42.7051 34.5853C40.8602 34.9996 39.4046 36.458 38.9915 38.3061H11.0086C10.5955 36.458 9.13994 34.9996 7.29502 34.5853V21.8608C9.13994 21.4465 10.5955 19.9881 11.0086 18.14H38.9915C39.4046 19.9881 40.8602 21.4465 42.7051 21.8608V34.5853Z" fill="#A347C4"/>
<path d="M24.9998 22.272C21.7238 22.272 19.0586 24.9416 19.0586 28.2229C19.0586 31.5043 21.7238 34.1739 24.9998 34.1739C28.2758 34.1739 30.941 31.5043 30.941 28.2229C30.941 24.9416 28.2758 22.272 24.9998 22.272ZM24.9998 32.0256C22.9084 32.0256 21.207 30.3197 21.207 28.223C21.207 26.1264 22.9085 24.4205 24.9998 24.4205C27.0911 24.4205 28.7926 26.1264 28.7926 28.223C28.7926 30.3197 27.0912 32.0256 24.9998 32.0256Z" fill="#A347C4"/>
<path d="M36.6672 27.3303C36.2803 27.068 35.7498 27.0983 35.3897 27.3932C35.0676 27.6569 34.9258 28.0997 35.0338 28.5015C35.1552 28.9532 35.569 29.2814 36.0364 29.2966C36.492 29.3113 36.9149 29.0273 37.0759 28.6015C37.2496 28.1422 37.0796 27.6007 36.6672 27.3303Z" fill="#A347C4"/>
<path d="M14.9213 27.8126C14.7541 27.398 14.3216 27.1279 13.8767 27.1502C13.428 27.1728 13.0336 27.4823 12.9021 27.9113C12.7726 28.333 12.9253 28.8075 13.276 29.0753C13.6375 29.3515 14.147 29.3688 14.5259 29.1163C14.9446 28.8372 15.1185 28.2779 14.9213 27.8126Z" fill="#A347C4"/>
<path d="M46.1315 10.835H3.86846C1.73545 10.835 0 12.5704 0 14.7035V41.7431C0 43.8762 1.73545 45.6116 3.86846 45.6116H46.1314C48.2645 45.6116 49.9999 43.8762 49.9999 41.7431V14.7035C50 12.5704 48.2645 10.835 46.1315 10.835ZM47.8516 41.743C47.8516 42.6914 47.08 43.4631 46.1315 43.4631H3.86846C2.92002 43.4631 2.14844 42.6915 2.14844 41.743V14.7035C2.14844 13.7551 2.92002 12.9835 3.86846 12.9835H46.1314C47.0799 12.9835 47.8515 13.7551 47.8515 14.7035V41.743H47.8516Z" fill="#A347C4"/>
</g>
<defs>
<clipPath id="clip0_41_1834">
<rect width="50" height="50" fill="white"/>
</clipPath>
</defs>
</svg>
