<svg width="50" height="50" viewBox="0 0 50 50" fill="none" xmlns="http://www.w3.org/2000/svg">
<path d="M24.963 46.7311C24.6698 46.7311 24.3893 46.6112 24.1867 46.3994C24.0322 46.238 18.0418 39.9765 12.8786 34.5798L5.46727 26.8332C5.45633 26.8217 5.44559 26.81 5.43504 26.7981C2.68904 23.6599 1.41014 20.0029 1.73641 16.2227C2.0282 12.8425 3.5911 9.63487 6.13699 7.19073C8.66219 4.76652 11.8803 3.37599 15.1985 3.2754C18.64 3.17159 21.991 4.44611 24.9476 6.97286C27.7341 4.50411 31.0051 3.24376 34.46 3.31993C37.8298 3.39327 41.1138 4.74112 43.7069 7.11515C46.2992 9.48839 47.901 12.6271 48.2172 15.953C48.572 19.6853 47.2996 23.4151 44.5376 26.7423C44.5135 26.7739 44.4875 26.8043 44.4596 26.8335C44.033 27.2793 32.8872 38.9286 27.9945 44.0423L25.7389 46.3997C25.5365 46.6112 25.2561 46.7311 24.963 46.7311ZM7.0366 25.3654L14.431 33.0945C18.5335 37.3825 23.1585 42.2167 24.9631 44.1029L26.4423 42.5568C31.2433 37.5389 42.0653 26.2279 42.8722 25.3846C48.132 19.0634 46.3545 12.4515 42.2562 8.69962C38.2307 5.01446 31.3395 3.59698 25.7211 9.19337C25.309 9.60392 24.6449 9.61183 24.2232 9.21124C18.2892 3.5753 11.6112 4.91368 7.62508 8.74044C3.66717 12.54 1.79764 19.3608 7.0366 25.3654Z" fill="#A347C4"/>
<path d="M28.2615 34.77C27.7911 34.77 27.3749 34.4637 27.2354 34.0136L24.1892 24.1776H20.1767C19.7107 24.1776 19.2979 23.8772 19.1545 23.4339L16.9669 16.667L14.5654 23.7321C14.4174 24.1677 14.0084 24.4606 13.5483 24.4606H1.07422C0.480957 24.4606 0 23.9797 0 23.3864C0 22.7932 0.480957 22.3122 1.07422 22.3122H12.7788L15.9753 12.9082C16.1234 12.4725 16.5326 12.1797 16.9923 12.1797H17.0004C17.4634 12.1831 17.8721 12.4828 18.0145 12.9234L20.9582 22.0293H24.981C25.4519 22.0293 25.8679 22.3359 26.007 22.7857L28.2293 29.9609L32.9611 13.6951C33.096 13.2315 33.5234 12.9134 34.0062 12.9211C34.489 12.9271 34.9083 13.2547 35.0313 13.7215L37.5324 23.2113H48.9258C49.519 23.2113 50 23.6923 50 24.2855C50 24.8788 49.519 25.3598 48.9258 25.3598H36.7048C36.217 25.3598 35.7904 25.0311 35.666 24.5593L33.9416 18.0165L29.2931 33.996C29.1606 34.4514 28.7451 34.766 28.2708 34.7701C28.2678 34.77 28.2646 34.77 28.2615 34.77Z" fill="#A347C4"/>
</svg>
