<svg width="50" height="50" viewBox="0 0 50 50" fill="none" xmlns="http://www.w3.org/2000/svg">
<g clip-path="url(#clip0_41_1857)">
<path d="M45.6334 14.127C43.2449 14.127 41.3019 16.157 41.3019 18.6523V28.7196C39.736 28.1303 37.9068 28.5645 36.7566 29.8103L27.0831 40.0594C26.2192 40.9747 25.5198 42.0182 24.9996 43.1484C24.4794 42.0181 23.78 40.9746 22.9161 40.0593L13.2426 29.8102C12.0928 28.5647 10.2628 28.1301 8.69737 28.7196V18.6523C8.46028 12.6549 0.276541 12.643 0.0341797 18.6523V35.9457C0.0341797 38.2838 0.890158 40.4914 2.44431 42.1617L9.41371 49.6531C10.4185 50.654 11.9179 49.2792 10.9865 48.1899L4.01712 40.6985C2.83403 39.4269 2.18242 37.739 2.18242 35.9457V18.6523C2.18242 17.3416 3.16183 16.2752 4.36572 16.2752C5.56962 16.2752 6.54902 17.3416 6.54902 18.6523V30.4665C5.40645 32.2382 5.60038 34.629 7.06206 36.1777L14.2559 43.7997C14.6638 44.2316 15.3436 44.25 15.7745 43.8435C16.2059 43.4363 16.2255 42.7565 15.8183 42.3251L8.62442 34.7031C7.27708 33.3063 8.10592 30.6299 10.1523 30.6083C10.7259 30.6083 11.2685 30.8485 11.6802 31.2847L21.3537 41.5338C22.9148 43.1879 23.8183 45.361 23.9243 47.6907C23.9217 47.8904 23.8985 48.0978 23.9333 48.2955L23.9255 48.9079C23.9648 50.3334 25.9979 50.3595 26.0735 48.9352C26.0736 48.6406 26.0938 47.975 26.0746 47.6892C26.1809 45.36 27.0845 43.1875 28.6453 41.5339L38.3187 31.2848C38.7305 30.8485 39.2731 30.6083 39.8467 30.6083C41.8926 30.6311 42.7226 33.3042 41.3745 34.7032L34.1806 42.3252C33.7734 42.7566 33.7931 43.4364 34.2245 43.8436C34.6552 44.2502 35.3351 44.2317 35.743 43.7998L42.9369 36.1778C44.3985 34.6291 44.5925 32.2383 43.4499 30.4666V18.6524C43.4499 17.3417 44.4293 16.2753 45.6332 16.2753C46.8371 16.2753 47.8165 17.3417 47.8165 18.6524V35.9459C47.8165 37.7392 47.1649 39.427 45.9818 40.6988L39.0124 48.1901C38.6083 48.6243 38.6329 49.3041 39.0673 49.7081C39.5007 50.1116 40.1805 50.0883 40.5853 49.6533L47.5547 42.162C49.1089 40.4916 49.9648 38.284 49.9648 35.9459V18.6523C49.9649 16.157 48.0219 14.127 45.6334 14.127Z" fill="#A347C4"/>
<path d="M25.0494 25.4477C24.7986 25.4477 24.5478 25.3602 24.3459 25.1852C23.1518 24.1503 22.0245 23.1981 20.9342 22.2774C14.6974 17.0099 10.5771 13.5299 10.5771 8.44104C10.5771 6.24212 11.3469 4.16008 12.7444 2.57848C14.2137 0.915738 16.2221 0 18.3998 0C20.8297 0 22.9528 1.18544 24.5395 3.42821C24.75 3.72584 24.9376 4.02337 25.1036 4.31123C25.2591 4.02864 25.4351 3.73707 25.633 3.44539C27.1626 1.1914 29.2601 0 31.6989 0C36.0299 0 39.4226 3.70777 39.4226 8.44104C39.4226 13.5684 35.2587 17.1007 28.9562 22.4474C27.9327 23.3156 26.8744 24.2134 25.7529 25.1852C25.551 25.3603 25.3001 25.4477 25.0494 25.4477ZM18.3998 2.14824C15.2178 2.14824 12.7253 4.91245 12.7253 8.44104C12.7253 12.5324 16.5424 15.7563 22.3203 20.6362C23.1999 21.3791 24.1037 22.1424 25.0492 22.9548C25.9207 22.2052 26.7544 21.498 27.5662 20.8092C33.6202 15.6735 37.2743 12.5737 37.2743 8.44104C37.2743 5.34776 35.1888 2.14824 31.6988 2.14824C29.9977 2.14824 28.5658 2.97454 27.443 4.60427C26.5371 5.91929 26.1792 7.2761 26.1756 7.28968C26.0541 7.75936 25.6323 8.09039 25.1474 8.09576C25.1434 8.09576 25.1394 8.09585 25.1354 8.09585C24.6553 8.09585 24.2325 7.77811 24.1016 7.31516C24.0984 7.30403 23.7002 5.94283 22.7525 4.62234C21.5746 2.98059 20.1101 2.14824 18.3998 2.14824Z" fill="#A347C4"/>
</g>
<defs>
<clipPath id="clip0_41_1857">
<rect width="50" height="50" fill="white"/>
</clipPath>
</defs>
</svg>
