<svg width="50" height="38" viewBox="0 0 50 38" fill="none" xmlns="http://www.w3.org/2000/svg">
<path d="M17.1245 16.7587L13.6727 6.53229L2.30545 14.9477L0 11.8323L15.6427 0.252741L18.9409 10.0214L30.395 0L33.6718 10.095L45.8773 0.096824L50 12.7918L46.3141 13.9877L43.9446 6.68865L31.74 16.6859L28.5236 6.78548L17.1245 16.7587Z" fill="#A347C4"/>
<path d="M17.1245 37.6775L13.6727 27.4502L2.30545 35.8666L0 32.7516L15.6427 21.172L18.9409 30.9402L30.395 20.918L33.6718 31.013L45.8773 21.0157L50 33.7111L46.3141 34.9071L43.9446 27.6066L31.74 37.6048L28.5236 27.7043L17.1245 37.6775Z" fill="#A347C4"/>
</svg>
