<svg width="42" height="50" viewBox="0 0 42 50" fill="none" xmlns="http://www.w3.org/2000/svg">
<path d="M41.2395 46.5799L35.3143 43.1575V45.4126C31.3297 45.5644 29.566 44.8471 28.7942 44.1535C27.831 43.2871 27.8228 41.9543 27.816 40.5429C27.8142 40.2943 27.7237 10.6044 27.8046 5.4747C27.8214 4.46876 27.8705 1.40593 25.6968 0.695459C23.5304 -0.0136511 20.6771 2.56869 18.3793 5.29786C18.3884 2.47096 17.5598 0.888193 15.9065 0.611367C13.4206 0.194992 10.0655 3.85737 8.0186 6.48608C7.57722 4.09692 6.9122 2.6178 5.93218 1.62641C4.51896 0.197279 2.61073 0 0.759766 0V2.72008C2.52936 2.72008 3.40712 2.94189 3.99759 3.53964C6.33174 5.89834 6.22173 15.835 5.95809 39.842L8.67907 39.8729C8.84044 25.1816 8.93817 16.0923 8.48907 10.3407C8.63725 10.188 8.75089 10.0334 8.81771 9.93935L8.80363 9.9298C10.4178 7.55746 14.1056 3.41418 15.3815 3.2969C15.472 3.45918 15.687 3.99921 15.6638 5.43197C15.5874 10.2466 15.6647 39.5638 15.6656 39.8602L18.3848 39.8529C18.3839 39.607 18.3316 19.3792 18.3575 9.77663C20.7699 6.40472 23.7536 3.40828 24.805 3.29283C24.8963 3.45783 25.1086 4.00055 25.0863 5.4315C25.0045 10.5753 25.0959 40.3293 25.0959 40.5575C25.1054 42.223 25.1182 44.5039 26.9746 46.1735C28.4605 47.5113 30.7965 48.1613 34.2039 48.1613C34.5561 48.1613 34.9398 48.1418 35.3143 48.1295V50L41.2395 46.5799Z" fill="#A347C4"/>
</svg>
