<svg width="58" height="50" viewBox="0 0 58 50" fill="none" xmlns="http://www.w3.org/2000/svg">
<path d="M49.1914 1.16382C45.6133 -0.311615 42.3965 -0.383888 39.632 0.951095C35.8043 2.80107 33.0248 7.14147 30.8853 14.6096C30.1049 17.3341 29.489 20.1981 29.0003 23.0672C28.5117 20.1981 27.8953 17.3336 27.1149 14.6096C24.9749 7.14101 22.1959 2.80107 18.3682 0.951095C15.6041 -0.384797 12.3874 -0.312979 8.80878 1.16382C0.137074 4.74105 0.023892 18.2654 0.0234375 18.84L3.48885 18.8431C3.49248 15.5773 4.69156 6.61148 10.1297 4.36787C12.796 3.26879 14.9973 3.17152 16.86 4.07151C19.6955 5.4424 21.9604 9.2019 23.7836 15.5645C26.309 24.3781 27.0608 34.982 27.259 42.0469C27.1381 46.5891 27.2458 49.6836 27.2572 50L28.9999 49.9345L30.7426 50C30.7539 49.6836 30.8617 46.5891 30.7408 42.0469C30.9394 34.982 31.6912 24.3776 34.2162 15.5645C36.0398 9.2019 38.3043 5.4424 41.1397 4.07151C43.0038 3.17152 45.2051 3.26834 47.8705 4.36787C54.4005 7.06192 54.5109 18.7277 54.5109 18.8454L57.9763 18.8404C57.9763 18.2654 57.8636 4.74105 49.1914 1.16382Z" fill="#A347C4"/>
</svg>
