<svg width="40" height="50" viewBox="0 0 40 50" fill="none" xmlns="http://www.w3.org/2000/svg">
<path d="M38.1316 28.017C41.2052 16.9658 37.4025 13.7708 36.9589 13.4426L36.4848 13.094L35.9026 13.1758C33.2944 13.5399 30.9853 15.799 29.3099 17.9921C29.3081 12.4044 29.3172 7.56357 29.3453 5.80313C29.3622 4.73587 29.4135 1.48953 27.1099 0.736812C24.8249 -0.00818077 21.794 2.72997 19.3559 5.6204C19.3659 2.61906 18.4877 0.941815 16.7336 0.647272C14.0905 0.215003 10.5396 4.09088 8.37326 6.87404C7.90554 4.34133 7.20146 2.77453 6.16193 1.72317C4.6633 0.207732 2.64103 0 0.679688 0V2.88271C2.55558 2.88271 3.48604 3.11725 4.11194 3.75088C6.5851 6.25177 6.47011 16.7835 6.19011 42.2278L9.0728 42.2596C9.24417 26.6907 9.34871 17.0557 8.87145 10.9594C9.02963 10.7981 9.15008 10.6344 9.22054 10.5344L9.20644 10.5231C10.9155 8.00993 14.825 3.61861 16.1773 3.49361C16.2732 3.66679 16.5014 4.2377 16.4764 5.75723C16.3954 10.8613 16.5864 41.9396 16.5882 42.2528L19.4709 42.236C19.4691 41.9751 19.3377 20.5194 19.3395 10.3499C21.8936 6.78175 25.0508 3.61087 26.1658 3.48906C26.2608 3.66496 26.4872 4.23997 26.4622 5.75723C26.3931 10.1322 26.4417 33.3352 26.4576 40.036C22.7727 43.2373 19.4086 45.0582 19.3423 45.0928L20.6954 47.6391C20.9368 47.5114 23.4681 46.145 26.5663 43.716C26.7508 45.2855 27.2572 47.4668 28.6258 48.8014C29.4317 49.5877 30.4503 50 31.5812 50C31.6521 50 31.7249 49.9982 31.7972 49.9945L31.6658 47.1146C31.2262 47.1359 30.9272 47.0168 30.6394 46.7391C29.6531 45.7805 29.3231 43.2732 29.3458 41.8874C29.3458 41.8651 29.3449 41.6696 29.3449 41.3537C32.9267 38.046 36.5985 33.5311 38.1316 28.017ZM29.3126 23.3302C30.3026 21.4543 32.9776 17.2412 35.5698 16.2271C36.2039 17.318 37.2621 20.3839 35.3539 27.2443C34.2735 31.1338 31.9158 34.5215 29.3349 37.2728C29.3267 33.7015 29.3167 28.5129 29.3126 23.3302Z" fill="#A347C4"/>
</svg>
