<svg width="52" height="50" viewBox="0 0 52 50" fill="none" xmlns="http://www.w3.org/2000/svg">
<path d="M40.9606 10.8595C43.8638 4.59727 51.4979 3.30364 51.5706 3.29136L51.0583 0C50.6729 0.0595455 41.6006 1.55682 37.9379 9.45909C35.6356 14.4273 31.4879 17.1791 29.6461 18.2091C28.4715 17.9355 27.2542 17.7764 25.9983 17.7764C24.7401 17.7764 23.5224 17.9359 22.347 18.21C20.5074 17.1891 16.3783 14.4573 14.0624 9.45864C10.3992 1.55682 1.32606 0.06 0.941967 0L0.429688 3.29136C0.505142 3.30318 8.11787 4.55682 11.0388 10.8595C13.0106 15.115 16.062 17.955 18.4438 19.6673C13.3592 22.3805 9.88833 27.7345 9.88833 33.89C9.88833 42.7727 17.1156 50 25.9988 50C34.8838 50 42.112 42.7732 42.112 33.89C42.112 27.7355 38.6406 22.3814 33.5565 19.6677C35.9365 17.9555 38.9888 15.115 40.9606 10.8595ZM38.7801 33.89C38.7801 40.9359 33.0461 46.6682 25.9979 46.6682C18.9515 46.6682 13.2192 40.9359 13.2192 33.89C13.2192 26.8418 18.9515 21.1082 25.9979 21.1082C33.0461 21.1086 38.7801 26.8418 38.7801 33.89Z" fill="#A347C4"/>
</svg>
