<svg width="50" height="50" viewBox="0 0 50 50" fill="none" xmlns="http://www.w3.org/2000/svg">
<path d="M40.0244 22.7556H31.8822C33.2029 13.9953 39.8625 7.53418 39.9375 7.46218L37.5945 5C37.2462 5.33091 29.744 12.576 28.4473 22.7556H21.5771C20.2807 12.576 12.7785 5.33091 12.4298 5L10.0869 7.46218C10.1622 7.53382 16.8218 13.9953 18.1426 22.7556H10V26.1545H18.3596C18.2287 31.9651 15.4542 37.4724 10.0935 42.5269L12.4244 45C18.4971 39.2742 21.6313 32.9353 21.7589 26.1545H28.2655C28.3935 32.9353 31.5273 39.2742 37.6 45L39.9313 42.5269C34.5702 37.4724 31.7956 31.9651 31.6647 26.1545H40.0244V22.7556Z" fill="#A347C4"/>
</svg>
