<svg width="50" height="50" viewBox="0 0 50 50" fill="none" xmlns="http://www.w3.org/2000/svg">
<path d="M9.9705 31.6837C15.4687 31.6837 19.9424 27.2105 19.9424 21.7123C19.9424 17.5964 17.4342 14.0554 13.8664 12.5354C20.2596 10.1745 31.932 8.31631 47.4611 16.21L49.0443 13.095C24.5528 0.647188 8.61458 10.8731 6.48276 12.3836C2.70274 13.8022 0 17.4427 0 21.7123C0.000454547 27.2105 4.4732 31.6837 9.9705 31.6837ZM9.9705 15.235C13.5423 15.235 16.4487 18.1405 16.4487 21.7123C16.4487 25.2841 13.5423 28.19 9.9705 28.19C6.39958 28.19 3.49365 25.2841 3.49365 21.7123C3.49365 18.1405 6.39958 15.235 9.9705 15.235Z" fill="#A347C4"/>
<path d="M50.0009 28.6585C50.0009 23.1607 45.5281 18.6875 40.0299 18.6875C34.5326 18.6875 30.0594 23.1607 30.0594 28.6585C30.0594 32.7748 32.5672 36.3158 36.1345 37.8358C29.7412 40.1958 18.0685 42.0535 2.53977 34.1608L0.957031 37.2758C9.98025 41.8612 17.8403 43.3685 24.2812 43.3685C35.3272 43.3685 42.1736 38.939 43.5168 37.9881C47.2977 36.5703 50.0009 32.9285 50.0009 28.6585ZM40.0299 35.1367C36.4581 35.1367 33.5526 32.2303 33.5526 28.6585C33.5526 25.0866 36.4581 22.1812 40.0299 22.1812C43.6013 22.1812 46.5068 25.0866 46.5068 28.6585C46.5068 32.2303 43.6018 35.1367 40.0299 35.1367Z" fill="#A347C4"/>
</svg>
