<svg width="50" height="44" viewBox="0 0 50 44" fill="none" xmlns="http://www.w3.org/2000/svg">
<path d="M50 39.0337H0V43.5H50V39.0337Z" fill="#A347C4"/>
<path d="M37.9936 25.4059C39.6373 22.7614 40.5532 19.6373 40.5532 16.4205C40.5532 7.39864 33.5864 0.0577273 25 0C16.4141 0.0577273 9.44682 7.39864 9.44682 16.4205C9.44682 19.6368 10.3632 22.7609 12.0073 25.4059H0V29.8723L17.5686 29.9059V25.4059C15.1714 23.1464 13.9132 19.86 13.9132 16.4205C13.9132 9.86318 18.8773 4.52591 25 4.46727C31.1232 4.52591 36.0864 9.86318 36.0864 16.4205C36.0864 19.8595 34.8291 23.1464 32.4318 25.4059V29.9059L50 29.8723V25.4059H37.9936Z" fill="#A347C4"/>
</svg>
