<svg width="52" height="50" viewBox="0 0 52 50" fill="none" xmlns="http://www.w3.org/2000/svg">
<path d="M50.0271 25.1582C47.7298 21.3309 43.7308 19.6168 39.0776 20.4582C33.7939 21.4118 31.3958 24.9345 29.8176 28.8132C28.5185 24.2391 28.568 18.6718 28.6135 13.7423C28.6776 6.63999 28.7339 0.508178 24.018 0.035905C18.2948 -0.542277 14.2203 5.97954 11.9108 11.1509C8.17894 0.890906 1.03712 0.0731713 0.620306 0.0349895L0.267578 3.86225C0.373487 3.87271 10.8989 5.11227 10.2721 28.0659L14.1149 28.1714C14.2253 24.1291 14.0008 20.6704 13.5412 17.7054C15.0694 12.7436 19.3189 3.475 23.6349 3.86137C24.8567 3.98409 24.8012 10.0704 24.7689 13.7068C24.7103 20.2836 24.6358 28.4536 27.9035 34.3432C25.9853 40.0354 23.5898 45.12 14.5226 46.18L14.9703 50C24.8626 48.8423 28.5244 43.4136 30.6821 37.9536C32.1539 39.3368 33.9903 40.4423 36.2748 41.1654C43.9271 43.5873 47.8226 40.4686 49.4621 38.3927C52.2639 34.8477 52.5003 29.2809 50.0271 25.1582ZM46.4444 36.0086C44.6744 38.2505 41.4744 38.7804 37.4367 37.5009C35.1235 36.7677 33.4098 35.4582 32.143 33.7609C33.9003 28.3909 35.2476 25.0573 39.7612 24.2432C43.8689 23.5009 45.8917 25.7382 46.7303 27.1373C48.3848 29.8945 48.2621 33.7091 46.4444 36.0086Z" fill="#A347C4"/>
</svg>
