<svg width="36" height="50" viewBox="0 0 36 50" fill="none" xmlns="http://www.w3.org/2000/svg">
<path d="M35.2555 46.0155C26.7905 47.6705 24.2487 46.0773 23.4878 44.9786C22.1446 43.0409 23.6128 39.1846 25.4346 36.2214L26.1323 35.1005C28.3659 31.5259 30.811 27.5568 31.5423 25.6995C32.7851 22.545 36.4791 11.7209 31.8282 4.89637C29.615 1.64727 25.9741 0 21.0069 0C21.0005 0 20.9937 0 20.9882 0C15.05 0.005 11.1046 1.76955 9.26232 5.24364C6.71459 10.0468 9.08641 16.9714 11.426 21.7955C10.8373 21.6809 10.2319 21.6168 9.61141 21.6168C4.37687 21.6168 0.119141 25.875 0.119141 31.1096C0.119141 36.3436 4.37687 40.6018 9.61141 40.6018C14.846 40.6018 19.1046 36.3436 19.1046 31.1096C19.1046 29.0305 18.4246 27.1114 17.2873 25.5459L17.2928 25.5423C14.9382 22.0627 9.42869 11.9082 12.151 6.77592C13.3823 4.45319 16.3573 3.27364 20.9914 3.27C20.9969 3.27 21.0014 3.27 21.0064 3.27C24.8264 3.27 27.5591 4.43636 29.1259 6.73727C32.1028 11.1059 30.7541 18.7777 28.4991 24.5009C27.8173 26.2346 24.806 31.0518 23.3587 33.3673L22.6482 34.5077C20.8228 37.4768 18.1551 43.0268 20.8001 46.8418C22.2632 48.9527 24.9487 50 28.9455 50C30.9305 50 33.2396 49.7414 35.8819 49.2245L35.2555 46.0155ZM9.61185 37.3323C6.1814 37.3323 3.39004 34.5405 3.39004 31.11C3.39004 27.6791 6.1814 24.8873 9.61185 24.8873C13.0432 24.8873 15.835 27.6791 15.835 31.11C15.835 34.5405 13.0432 37.3323 9.61185 37.3323Z" fill="#A347C4"/>
</svg>
