<svg width="50" height="50" viewBox="0 0 50 50" fill="none" xmlns="http://www.w3.org/2000/svg">
<path d="M35.814 35.7478C33.56 35.7478 31.5713 34.5905 30.4105 32.8392C29.2498 34.5906 27.261 35.7478 25.0071 35.7478C22.7531 35.7478 20.7645 34.5906 19.6037 32.8392C18.443 34.5906 16.4542 35.7478 14.2003 35.7478C10.6285 35.7478 7.72266 32.8419 7.72266 29.27C7.72266 28.6768 8.20361 28.1958 8.79687 28.1958C9.39014 28.1958 9.87109 28.6768 9.87109 29.27C9.87109 31.6571 11.8132 33.5993 14.2003 33.5993C16.5874 33.5993 18.5295 31.6572 18.5295 29.27C18.5295 28.6768 19.0104 28.1958 19.6037 28.1958C20.197 28.1958 20.6779 28.6768 20.6779 29.27C20.6779 31.6571 22.62 33.5993 25.0071 33.5993C27.3942 33.5993 29.3363 31.6572 29.3363 29.27C29.3363 28.6768 29.8173 28.1958 30.4105 28.1958C31.0038 28.1958 31.4848 28.6768 31.4848 29.27C31.4848 31.6571 33.4269 33.5993 35.814 33.5993C38.2011 33.5993 40.1432 31.6572 40.1432 29.27C40.1432 28.6768 40.6241 28.1958 41.2174 28.1958C41.8106 28.1958 42.2916 28.6768 42.2916 29.27C42.2916 32.8418 39.3857 35.7478 35.814 35.7478Z" fill="#A347C4"/>
<path d="M24.9997 50C15.1684 50 7.16992 42.0017 7.16992 32.1702C7.16992 30.6518 7.99551 24.4492 18.6185 8.38877C20.306 5.8375 22.1602 3.16455 24.1296 0.444141C24.3315 0.165234 24.6552 0 24.9997 0C25.3442 0 25.6679 0.165234 25.8698 0.444336C27.8403 3.16631 29.6945 5.83916 31.381 8.38887C42.0039 24.4493 42.8295 30.6519 42.8295 32.1703C42.8295 42.0017 34.8312 50 24.9997 50ZM24.9997 2.91357C23.3709 5.1915 21.8308 7.42676 20.4104 9.57412C9.62959 25.8731 9.31836 31.5738 9.31836 32.1702C9.31836 40.817 16.3529 47.8516 24.9997 47.8516C33.6465 47.8516 40.6812 40.817 40.6812 32.1702C40.6812 31.5738 40.3699 25.8731 29.5891 9.57402C28.1695 7.42793 26.6292 5.19268 24.9997 2.91357Z" fill="#A347C4"/>
</svg>
