<svg width="50" height="50" viewBox="0 0 50 50" fill="none" xmlns="http://www.w3.org/2000/svg">
<path d="M42.7327 23.415H13.4023C12.8091 23.415 12.3281 22.9341 12.3281 22.3408C12.3281 21.7476 12.8091 21.2666 13.4023 21.2666H42.7327C45.5549 21.2666 47.8509 18.9706 47.8509 16.1484C47.8509 13.3263 45.5549 11.0302 42.7327 11.0302C41.3656 11.0302 40.0803 11.5626 39.1135 12.5293C38.6937 12.9487 38.0138 12.9488 37.5942 12.5293C37.1747 12.1098 37.1747 11.4296 37.5942 11.0102C38.9669 9.6377 40.7916 8.88184 42.7326 8.88184C46.7395 8.88184 49.9992 12.1416 49.9992 16.1485C49.9993 20.1552 46.7395 23.415 42.7327 23.415Z" fill="#A347C4"/>
<path d="M22.4672 42.5553C20.5262 42.5553 18.7014 41.7994 17.3288 40.427C16.9093 40.0075 16.9093 39.3273 17.3288 38.9078C17.7482 38.4883 18.4284 38.4883 18.848 38.9078C19.8147 39.8745 21.1002 40.4069 22.4673 40.4069C25.2895 40.4069 27.5854 38.1109 27.5854 35.2887C27.5854 32.4664 25.2895 30.1704 22.4673 30.1704H1.07422C0.480957 30.1704 0 29.6895 0 29.0962C0 28.5029 0.480957 28.022 1.07422 28.022H22.4672C26.474 28.022 29.7338 31.2817 29.7338 35.2887C29.7338 39.2956 26.4741 42.5553 22.4672 42.5553Z" fill="#A347C4"/>
<path d="M41.0826 38.5003C39.6832 38.5003 38.3675 37.9553 37.3779 36.9658C36.9584 36.5463 36.9584 35.8661 37.3779 35.4466C37.7976 35.027 38.4775 35.027 38.8972 35.4466C39.481 36.0304 40.257 36.3519 41.0826 36.3519C42.7868 36.3519 44.1732 34.9653 44.1732 33.2611C44.1732 31.5569 42.7868 30.1704 41.0826 30.1704H33.6562C33.063 30.1704 32.582 29.6895 32.582 29.0962C32.582 28.5029 33.063 28.022 33.6562 28.022H41.0826C43.9715 28.022 46.3217 30.3723 46.3217 33.2611C46.3217 36.15 43.9715 38.5003 41.0826 38.5003Z" fill="#A347C4"/>
<path d="M25.7319 16.6597H1.07422C0.480957 16.6597 0 16.1787 0 15.5854C0 14.9922 0.480957 14.5112 1.07422 14.5112H25.7319C26.3252 14.5112 26.8062 14.9922 26.8062 15.5854C26.8062 16.1787 26.3252 16.6597 25.7319 16.6597Z" fill="#A347C4"/>
<path d="M31.3108 9.59375H17.8008C17.2075 9.59375 16.7266 9.11279 16.7266 8.51953C16.7266 7.92627 17.2075 7.44531 17.8008 7.44531H31.3108C31.9041 7.44531 32.3851 7.92627 32.3851 8.51953C32.3851 9.11279 31.9041 9.59375 31.3108 9.59375Z" fill="#A347C4"/>
<path d="M7.44707 23.415H5.67383C5.08057 23.415 4.59961 22.9341 4.59961 22.3408C4.59961 21.7476 5.08057 21.2666 5.67383 21.2666H7.44707C8.04033 21.2666 8.52129 21.7476 8.52129 22.3408C8.52129 22.9341 8.04033 23.415 7.44707 23.415Z" fill="#A347C4"/>
</svg>
