<svg width="50" height="50" viewBox="0 0 50 50" fill="none" xmlns="http://www.w3.org/2000/svg">
<g clip-path="url(#clip0_41_1914)">
<path d="M25.0014 50.0001C19.4823 50.0001 14.9922 45.5099 14.9922 39.9904C14.9923 37.9401 15.8492 35.8427 17.689 33.3897C20.2932 29.9173 19.0209 25.4499 19.0077 25.4052C18.8961 25.0258 19.0017 24.6143 19.283 24.3365C19.5644 24.0583 19.9754 23.9565 20.3533 24.0726C20.3706 24.078 22.3134 24.849 24.2532 26.9065C25.6732 28.4128 27.2953 30.8639 27.6668 34.4189C28.651 33.1524 29.2324 31.2176 29.4086 30.3478C29.4918 29.9364 29.8073 29.6105 30.216 29.5146C30.6246 29.4184 31.0519 29.5689 31.3096 29.9003C31.4607 30.0945 35.0105 34.7193 35.0105 39.991C35.0106 45.5101 30.5205 50.0001 25.0014 50.0001ZM21.4618 27.2579C21.5848 29.2499 21.3206 32.1282 19.4077 34.6788C17.8823 36.7127 17.1407 38.4501 17.1406 39.9905C17.1406 44.3252 20.6669 47.8517 25.0014 47.8517C29.3359 47.8517 32.8622 44.3254 32.8622 39.9909C32.8622 37.3199 31.7402 34.7585 30.8148 33.1002C30.1564 34.7755 28.9763 36.837 27.0183 37.5291C26.6828 37.6478 26.3099 37.5925 26.0232 37.3811C25.7366 37.17 25.5731 36.8305 25.5869 36.4747C25.7094 33.3079 24.7556 30.6068 22.7518 28.4463C22.3149 27.9753 21.872 27.581 21.4618 27.2579Z" fill="#A347C4"/>
<path d="M25.0009 50C14.555 50 6.05664 41.5012 6.05664 31.0547C6.05693 27.1983 7.70255 23.2084 11.2354 18.498C13.5509 15.4106 14.7312 11.6078 14.7433 7.19571C14.7525 3.85243 14.0493 1.40027 14.0421 1.37586C13.9263 0.978788 14.0488 0.549782 14.3571 0.274097C14.6654 -0.00168498 15.1042 -0.0765876 15.4863 0.0823974C15.5218 0.0972412 19.1968 1.73289 22.7279 5.52988C24.7861 7.74307 26.3978 10.2495 27.5185 12.9797C28.7024 15.8638 29.3357 19.0002 29.408 22.3248C33.3095 19.5168 34.8514 12.0655 34.8682 11.9819C34.951 11.57 35.2663 11.244 35.6751 11.1478C36.0841 11.0518 36.5114 11.2021 36.7694 11.5336C36.8429 11.6282 38.5923 13.8918 40.357 17.4211C41.9939 20.6948 43.9451 25.7178 43.9451 31.0558C43.9451 41.5017 35.4467 50 25.0009 50ZM12.9541 19.787C9.7588 24.0474 8.20538 27.7332 8.20509 31.0548C8.20509 40.3165 15.7396 47.8515 25.0009 47.8515C34.2621 47.8515 41.7966 40.317 41.7966 31.0559C41.7966 24.2371 38.3156 17.8058 36.3628 14.7348C35.3652 17.9686 33.0494 23.5735 28.6766 25.1192C28.3409 25.238 27.9682 25.1825 27.6814 24.9713C27.3948 24.7601 27.2313 24.4206 27.2451 24.0648C27.5033 17.3957 25.4751 11.6746 21.2169 7.06016C19.553 5.25712 17.8524 3.98153 16.597 3.16942C16.756 4.23036 16.8919 5.58818 16.8919 7.12998C16.8919 11.9755 15.5303 16.3522 12.9541 19.787Z" fill="#A347C4"/>
</g>
<defs>
<clipPath id="clip0_41_1914">
<rect width="50" height="50" fill="white"/>
</clipPath>
</defs>
</svg>
