<svg width="50" height="50" viewBox="0 0 50 50" fill="none" xmlns="http://www.w3.org/2000/svg">
<g clip-path="url(#clip0_41_1931)">
<path d="M49.8108 42.9107L41.9683 23.5772C41.5998 22.6688 40.764 22.0525 39.7873 21.9689C39.1049 21.9103 38.447 22.1205 37.9356 22.5356L30.7282 4.91538C30.2541 3.75635 29.1819 3.02261 27.9299 3.00043C26.6739 2.98029 25.5802 3.67357 25.0653 4.81499L20.0828 15.8615L18.564 12.4944C18.1341 11.5411 17.2135 10.9574 16.1718 10.9789C15.1261 10.9974 14.2306 11.6102 13.8345 12.5782L6.66637 30.1024C4.46563 31.4277 2.87168 33.5036 2.16002 35.986L0.100909 43.1691C-0.122629 43.9489 0.02912 44.7677 0.517439 45.4155C1.00566 46.0634 1.75098 46.435 2.56215 46.435L47.4386 46.4334C48.2917 46.4333 49.0855 46.0107 49.5619 45.3032C50.0385 44.5956 50.1315 43.7012 49.8108 42.9107ZM27.0162 5.69494C27.253 5.16985 27.7478 5.13765 27.8919 5.14018C28.0375 5.14271 28.5295 5.19261 28.7474 5.72558L33.9211 18.3737L31.0616 21.5927C30.8606 21.8189 30.5838 21.9417 30.2808 21.9396C29.9783 21.9372 29.7031 21.8094 29.5058 21.5799L26.9627 18.6207C26.3592 17.9185 25.4819 17.5158 24.5561 17.5158H21.6843L27.0162 5.69494ZM15.8155 13.3884C15.9097 13.158 16.1029 13.1204 16.2098 13.1186C16.3166 13.1171 16.5111 13.1475 16.6133 13.3743L18.909 18.464L17.0887 22.4996C16.3856 24.0583 15.1751 25.3735 13.6799 26.2031L9.66165 28.4323L15.8155 13.3884ZM2.22646 44.1276C2.17938 44.0651 2.10788 43.934 2.15808 43.7587L4.21719 36.5757C4.80531 34.524 6.15714 32.8239 8.02335 31.7884L14.7181 28.0743C16.6135 27.0226 18.1482 25.3553 19.0394 23.3795L20.719 19.6558H24.556C24.8574 19.6558 25.143 19.7869 25.3395 20.0155L27.8827 22.9747C28.4797 23.6694 29.3472 24.0721 30.2632 24.0797C30.2718 24.0797 30.2806 24.0798 30.2894 24.0798C31.1957 24.0798 32.0591 23.6922 32.6616 23.0139L34.8236 20.58L36.4745 24.6158L30.6437 33.9986C30.0894 34.8906 29.2458 35.5936 28.2685 35.9781L24.2693 37.5513C22.4761 38.2565 21.0336 39.6857 20.3114 41.472L19.1701 44.2949H2.56215C2.37986 44.2949 2.27364 44.1901 2.22646 44.1276ZM47.7869 44.1079C47.7403 44.1771 47.633 44.2934 47.4383 44.2934L21.4772 44.2976L22.2953 42.2741C22.7984 41.0297 23.8034 40.0342 25.0526 39.5428L29.0517 37.9696C30.4547 37.4178 31.6655 36.4088 32.4613 35.1282L39.1822 24.3129C39.2935 24.1339 39.4542 24.0992 39.5618 24.0992C39.5773 24.0992 39.5918 24.1 39.6048 24.1011C39.708 24.1099 39.8946 24.1581 39.9851 24.3816L47.8277 43.7151C47.9008 43.8954 47.8335 44.0386 47.7869 44.1079Z" fill="#A347C4"/>
</g>
<defs>
<clipPath id="clip0_41_1931">
<rect width="50" height="50" fill="white"/>
</clipPath>
</defs>
</svg>
