<svg width="50" height="50" viewBox="0 0 50 50" fill="none" xmlns="http://www.w3.org/2000/svg">
<path d="M25.0008 50C18.3329 50 12.0643 47.3993 7.34951 42.6771C2.63535 37.9553 0.0390625 31.6774 0.0390625 25C0.0390625 18.3226 2.63535 12.0447 7.34951 7.32295C12.0643 2.60068 18.3329 0 25.0008 0C31.6687 0 37.9373 2.60068 42.6521 7.32295C47.3662 12.0447 49.9625 18.3226 49.9625 25C49.9625 31.6774 47.3662 37.9553 42.6521 42.6771C37.9373 47.3993 31.6687 50 25.0008 50ZM25.0008 2.14844C12.4215 2.14844 2.1875 12.3996 2.1875 25C2.1875 37.6004 12.4215 47.8516 25.0008 47.8516C37.5801 47.8516 47.8141 37.6004 47.8141 25C47.8141 12.3996 37.5801 2.14844 25.0008 2.14844Z" fill="#A347C4"/>
<path d="M33.5321 21.7033L25.6169 15.9527C25.2405 15.6792 24.7306 15.6792 24.354 15.9527L16.439 21.7033C16.0625 21.9768 15.9049 22.4618 16.0488 22.9044L19.0721 32.2091C19.2159 32.6516 19.6283 32.9513 20.0938 32.9513H29.8773C30.3427 32.9513 30.7551 32.6517 30.8989 32.2091L33.9223 22.9044C34.066 22.4618 33.9085 21.9768 33.5321 21.7033ZM29.0968 30.8028H20.8743L18.3333 22.9827L24.9855 18.1496L31.6377 22.9827L29.0968 30.8028Z" fill="#A347C4"/>
<path d="M33.5577 38.7486L30.8477 47.0896C31.7119 46.8599 32.5565 46.5815 33.3775 46.2559L35.3599 40.1548H42.0599C42.6637 39.4736 43.2273 38.7563 43.7476 38.0063H34.5793C34.114 38.0063 33.7016 38.306 33.5577 38.7486Z" fill="#A347C4"/>
<path d="M14.795 38.0063H6.25391C6.77412 38.7563 7.33779 39.4736 7.9416 40.1548H14.0146L15.8979 45.9515C16.7286 46.3149 17.5849 46.6302 18.4632 46.8938L15.8166 38.7486C15.6729 38.306 15.2604 38.0063 14.795 38.0063Z" fill="#A347C4"/>
<path d="M24.9373 9.20449C25.1589 9.20449 25.3805 9.13613 25.5687 8.99932L33.0011 3.59941C32.1688 3.28623 31.3134 3.0207 30.4384 2.80566L24.9373 6.80244L19.4687 2.82939C18.5977 3.04756 17.7465 3.31631 16.918 3.63184L24.3059 8.99941C24.4941 9.13613 24.7157 9.20449 24.9373 9.20449Z" fill="#A347C4"/>
<path d="M49.9567 25.5244C49.9549 25.6156 49.9521 25.7067 49.9492 25.7978C49.9635 25.7068 49.9657 25.6151 49.9567 25.5244Z" fill="#A347C4"/>
<path d="M44.6035 13.3271C44.1382 12.5459 43.6277 11.7947 43.0755 11.0771L40.2519 19.7675C40.108 20.2101 40.2656 20.6949 40.6421 20.9685L47.7825 26.1564C47.8017 25.7732 47.8116 25.3876 47.8116 24.9997C47.8116 24.4905 47.7932 23.9856 47.7603 23.4846L42.5365 19.6891L44.6035 13.3271Z" fill="#A347C4"/>
<path d="M9.98232 18.9799L7.27148 10.6367C6.71279 11.3273 6.19326 12.0507 5.7167 12.8042L7.69785 18.9017L2.29102 22.8301C2.22354 23.5446 2.1875 24.2683 2.1875 25.0002C2.1875 25.1859 2.19014 25.3711 2.19453 25.5558L9.59209 20.1811C9.96855 19.9074 10.1262 19.4226 9.98232 18.9799Z" fill="#A347C4"/>
<path d="M25.6146 15.9529L26.0543 16.2725L26.0118 8.67578L25.5659 8.99971C25.3776 9.13652 25.1561 9.20488 24.9345 9.20488C24.7129 9.20488 24.4913 9.13652 24.303 8.99971L23.8633 8.68018L23.9058 16.2768L24.3517 15.9528C24.7282 15.6794 25.238 15.6794 25.6146 15.9529Z" fill="#A347C4"/>
<path d="M16.4364 21.7033L16.9172 21.354L9.82529 18.5024L9.98047 18.9799C10.1243 19.4225 9.9667 19.9073 9.59023 20.1809L9.10938 20.5302L16.2013 23.3817L16.0461 22.9043C15.9024 22.4618 16.06 21.9769 16.4364 21.7033Z" fill="#A347C4"/>
<path d="M40.2526 19.7681L40.4274 19.23L33.1016 21.3926L33.5296 21.7036C33.9061 21.9771 34.0637 22.4621 33.9198 22.9047L33.745 23.4428L41.071 21.2802L40.6429 20.9691C40.2664 20.6955 40.1089 20.2106 40.2526 19.7681Z" fill="#A347C4"/>
<path d="M29.8746 32.9513H29.293L33.3966 39.2374L33.5554 38.7486C33.6992 38.306 34.1116 38.0063 34.5771 38.0063H35.1587L31.0551 31.7202L30.8963 32.209C30.7524 32.6517 30.3399 32.9513 29.8746 32.9513Z" fill="#A347C4"/>
<path d="M19.0732 32.2093L18.9029 31.6851L14.2539 38.0066H14.7973C15.2627 38.0066 15.6751 38.3062 15.8189 38.7489L15.9893 39.2731L20.6383 32.9515H20.0949C19.6295 32.9515 19.2171 32.6519 19.0732 32.2093Z" fill="#A347C4"/>
</svg>
