<svg width="50" height="50" viewBox="0 0 50 50" fill="none" xmlns="http://www.w3.org/2000/svg">
<path d="M16.027 38.3683C13.0569 38.3683 10.6406 35.952 10.6406 32.9819C10.6406 32.3887 11.1216 31.9077 11.7148 31.9077C12.3081 31.9077 12.7891 32.3887 12.7891 32.9819C12.7891 34.7673 14.2416 36.2198 16.027 36.2198C17.8123 36.2198 19.2648 34.7673 19.2648 32.9819C19.2648 32.3887 19.7458 31.9077 20.3391 31.9077C20.9323 31.9077 21.4133 32.3887 21.4133 32.9819C21.4133 35.9521 18.997 38.3683 16.027 38.3683Z" fill="#A347C4"/>
<path d="M33.9731 38.7846C33.8691 38.7846 33.7651 38.7695 33.6645 38.7393C32.0314 38.2493 30.4551 37.5694 28.9792 36.7182C28.4652 36.4218 28.2889 35.7649 28.5853 35.251C28.8816 34.7371 29.5384 34.5606 30.0524 34.8572C31.2915 35.5717 32.6091 36.1527 33.9733 36.5863C42.2884 33.9485 47.8525 26.3641 47.8525 17.6122V3.24535C38.7413 5.71468 29.2049 5.71468 20.0938 3.24535V14.3967C20.0938 14.99 19.6128 15.4709 19.0195 15.4709C18.4263 15.4709 17.9453 14.99 17.9453 14.3967V1.82171C17.9453 1.48216 18.1059 1.16253 18.3783 0.959896C18.6509 0.757162 19.0032 0.695443 19.3282 0.792806C28.909 3.66702 39.0373 3.66702 48.6181 0.792806C48.9437 0.695345 49.2956 0.757259 49.5681 0.959896C49.8404 1.16263 50.0011 1.48216 50.0011 1.82171V17.6122C50.0011 22.3915 48.4932 26.9445 45.6402 30.7789C42.7873 34.6133 38.8597 37.3659 34.2819 38.7393C34.1812 38.7695 34.0771 38.7846 33.9731 38.7846Z" fill="#A347C4"/>
<path d="M42.9424 14.8587C42.7376 14.8587 42.5305 14.8003 42.3474 14.6781L37.8613 11.6874C37.3676 11.3583 37.2342 10.6914 37.5633 10.1977C37.8924 9.704 38.5594 9.5707 39.053 9.8998L43.5391 12.8905C44.0328 13.2196 44.1662 13.8865 43.8371 14.3802C43.6301 14.6907 43.2894 14.8587 42.9424 14.8587Z" fill="#A347C4"/>
<path d="M33.9722 18.6921C33.3214 18.6921 32.6764 18.7829 32.0557 18.9577V12.2895C32.0557 11.95 31.895 11.6303 31.6227 11.4277C31.3503 11.2251 30.9983 11.1631 30.6727 11.2606C21.092 14.1348 10.9636 14.1348 1.38281 11.2606C1.05771 11.1632 0.705371 11.2251 0.43291 11.4277C0.160547 11.6303 0 11.95 0 12.2895V28.0801C0 32.8594 1.50791 37.4123 4.36084 41.2468C7.21377 45.0811 11.1414 47.8338 15.7191 49.2071C15.8198 49.2373 15.9238 49.2524 16.0278 49.2524C16.1318 49.2524 16.2358 49.2373 16.3365 49.2071C20.9143 47.8338 24.8419 45.0811 27.6948 41.2468C30.5478 37.4124 32.0557 32.8594 32.0557 28.0801V21.2303C32.6585 20.9748 33.3107 20.8405 33.9722 20.8405C36.678 20.8405 38.8794 23.0419 38.8794 25.7477C38.8794 26.341 39.3604 26.822 39.9536 26.822C40.5469 26.822 41.0278 26.341 41.0278 25.7477C41.0278 21.8572 37.8627 18.6921 33.9722 18.6921ZM29.9072 28.0801C29.9072 36.8324 24.3438 44.4168 16.0278 47.054C7.71182 44.4168 2.14844 36.8324 2.14844 28.0801V13.7132C11.2596 16.1825 20.7961 16.1825 29.9072 13.7132V28.0801Z" fill="#A347C4"/>
</svg>
