<svg width="50" height="50" viewBox="0 0 50 50" fill="none" xmlns="http://www.w3.org/2000/svg">
<path d="M12.0117 40.9658H14.1602V44.774H12.0117V40.9658Z" fill="#A347C4"/>
<path d="M12.0117 5.22607H14.1602V9.03428H12.0117V5.22607Z" fill="#A347C4"/>
<path d="M23.9258 40.9658H26.0742V44.774H23.9258V40.9658Z" fill="#A347C4"/>
<path d="M23.9258 5.22607H26.0742V9.03428H23.9258V5.22607Z" fill="#A347C4"/>
<path d="M35.8379 40.9658H37.9863V44.774H35.8379V40.9658Z" fill="#A347C4"/>
<path d="M35.8379 5.22607H37.9863V9.03428H35.8379V5.22607Z" fill="#A347C4"/>
<path d="M19.0429 35.0091C18.879 35.0091 18.7146 34.9717 18.5626 34.8957C18.1986 34.7138 17.9688 34.3418 17.9688 33.9349V16.065C17.9688 15.6581 18.1986 15.2861 18.5626 15.1041C18.9265 14.9222 19.3621 14.9614 19.6875 15.2056L31.6008 24.1406C31.8714 24.3434 32.0305 24.6619 32.0305 24.9999C32.0305 25.338 31.8713 25.6565 31.6008 25.8593L19.6875 34.7943C19.4979 34.9365 19.2711 35.0091 19.0429 35.0091ZM20.1172 18.2134V31.7865L29.1659 24.9999L20.1172 18.2134Z" fill="#A347C4"/>
<path d="M45.9961 3.07764H4.00391C1.79619 3.07764 0 4.87383 0 7.08154V42.9186C0 45.1263 1.79619 46.9225 4.00391 46.9225H45.9961C48.2038 46.9225 50 45.1263 50 42.9186V7.08154C50 4.87373 48.2038 3.07764 45.9961 3.07764ZM2.14844 11.1827H47.8516V38.8174H2.14844V11.1827ZM4.00391 5.22607H45.9961C47.0192 5.22607 47.8516 6.0584 47.8516 7.08154V9.03428H2.14844V7.08154C2.14844 6.0584 2.98076 5.22607 4.00391 5.22607ZM45.9961 44.7739H4.00391C2.98076 44.7739 2.14844 43.9416 2.14844 42.9185V40.9657H47.8516V42.9185C47.8516 43.9416 47.0192 44.7739 45.9961 44.7739Z" fill="#A347C4"/>
</svg>
