<svg width="50" height="50" viewBox="0 0 50 50" fill="none" xmlns="http://www.w3.org/2000/svg">
<g clip-path="url(#clip0_41_1966)">
<path d="M37.2073 22.1085H18.2168C17.6235 22.1085 17.1426 21.6275 17.1426 21.0343V7.72754C17.1426 7.13428 17.6235 6.65332 18.2168 6.65332H37.2073C37.8006 6.65332 38.2815 7.13428 38.2815 7.72754V21.0343C38.2815 21.6275 37.8006 22.1085 37.2073 22.1085ZM19.291 19.9601H36.1331V8.80176H19.291V19.9601Z" fill="#A347C4"/>
<path d="M41.8945 0H12.4023C9.44072 0 7.03125 2.40947 7.03125 5.37109V41.3595C7.03125 44.3211 9.44072 46.7306 12.4023 46.7306H28.8522V48.9258C28.8522 49.3206 29.0688 49.6836 29.4162 49.8711C29.7636 50.0587 30.1859 50.0404 30.5159 49.8238L33.0514 48.1594L35.5868 49.8238C35.7652 49.9409 35.9705 50.0001 36.1764 50.0001C36.3514 50.0001 36.5269 49.9573 36.6865 49.8712C37.034 49.6837 37.2505 49.3207 37.2505 48.9259V46.7307H41.8945C42.4878 46.7307 42.9688 46.2497 42.9688 45.6564V1.07422C42.9688 0.480957 42.4878 0 41.8945 0ZM40.8203 35.9884H14.6032V2.14844H40.8203V35.9884ZM12.4023 2.14844H12.4548V35.9884H12.4023C11.1941 35.9884 10.078 36.3896 9.17969 37.0655V5.37109C9.17969 3.59414 10.6254 2.14844 12.4023 2.14844ZM12.4023 44.5821C10.6254 44.5821 9.17969 43.1364 9.17969 41.3595C9.17969 39.5825 10.6254 38.1368 12.4023 38.1368H40.8203V40.2853H13.5742C12.981 40.2853 12.5 40.7662 12.5 41.3595C12.5 41.9527 12.981 42.4337 13.5742 42.4337H28.8522V44.5821H12.4023ZM33.6409 45.9764C33.283 45.7414 32.8198 45.7414 32.4619 45.9764L31.0007 46.9355V42.4337H35.1022V46.9355L33.6409 45.9764ZM37.2507 44.5821V42.4337H40.8203V44.5821H37.2507Z" fill="#A347C4"/>
<path d="M36.1755 26.7959H19.2461C18.6528 26.7959 18.1719 26.3149 18.1719 25.7217C18.1719 25.1284 18.6528 24.6475 19.2461 24.6475H36.1754C36.7687 24.6475 37.2496 25.1284 37.2496 25.7217C37.2496 26.3149 36.7687 26.7959 36.1755 26.7959Z" fill="#A347C4"/>
<path d="M32.5441 31.4834H22.8809C22.2876 31.4834 21.8066 31.0024 21.8066 30.4092C21.8066 29.8159 22.2876 29.335 22.8809 29.335H32.5441C33.1374 29.335 33.6184 29.8159 33.6184 30.4092C33.6184 31.0024 33.1374 31.4834 32.5441 31.4834Z" fill="#A347C4"/>
</g>
<defs>
<clipPath id="clip0_41_1966">
<rect width="50" height="50" fill="white"/>
</clipPath>
</defs>
</svg>
