<svg width="50" height="50" viewBox="0 0 50 50" fill="none" xmlns="http://www.w3.org/2000/svg">
<g clip-path="url(#clip0_41_2053)">
<path d="M48.608 40.2617C48.1916 40.2015 47.9248 40.0118 47.5556 39.7494C47.0028 39.3565 46.2458 38.8184 44.9394 38.8184C43.6331 38.8184 42.876 39.3565 42.3232 39.7495C41.8549 40.0824 41.5723 40.2833 40.9518 40.2833C40.3313 40.2833 40.0486 40.0824 39.5804 39.7495C39.0276 39.3565 38.2706 38.8184 36.9642 38.8184C35.6579 38.8184 34.9008 39.3565 34.348 39.7495C33.8797 40.0824 33.5971 40.2833 32.9766 40.2833C32.3561 40.2833 32.0734 40.0824 31.6052 39.7495C31.0524 39.3565 30.2954 38.8184 28.989 38.8184C27.6827 38.8184 26.9256 39.3565 26.3728 39.7495C25.9045 40.0824 25.6219 40.2833 25.0014 40.2833C24.3809 40.2833 24.0982 40.0824 23.6299 39.7495C23.0771 39.3565 22.3201 38.8184 21.0137 38.8184C19.7074 38.8184 18.9503 39.3565 18.3975 39.7495C17.9293 40.0824 17.6466 40.2833 17.0261 40.2833C16.4056 40.2833 16.1229 40.0824 15.6547 39.7495C15.1019 39.3565 14.3449 38.8184 13.0385 38.8184C11.7323 38.8184 10.9751 39.3565 10.4223 39.7495C9.95405 40.0824 9.67144 40.2833 9.05093 40.2833C8.43042 40.2833 8.14771 40.0824 7.67945 39.7495C7.12661 39.3565 6.36958 38.8184 5.06323 38.8184C3.75689 38.8184 2.99986 39.3565 2.44702 39.7495C2.0523 40.0301 1.79165 40.2154 1.34634 40.2683C0.75718 40.3381 0.336184 40.8723 0.406008 41.4614C0.475832 42.0506 1.01079 42.4712 1.59917 42.4018C2.58931 42.2844 3.20064 41.8498 3.69185 41.5006C4.16011 41.1678 4.44273 40.9668 5.06323 40.9668C5.68374 40.9668 5.96646 41.1678 6.43462 41.5006C6.98745 41.8936 7.74448 42.4317 9.05083 42.4317C10.3572 42.4317 11.1142 41.8936 11.667 41.5006C12.1353 41.1677 12.4179 40.9668 13.0384 40.9668C13.6589 40.9668 13.9417 41.1678 14.4099 41.5006C14.9627 41.8936 15.7198 42.4317 17.0261 42.4317C18.3325 42.4317 19.0895 41.8936 19.6423 41.5006C20.1106 41.1678 20.3932 40.9668 21.0137 40.9668C21.6342 40.9668 21.9169 41.1678 22.3851 41.5006C22.9379 41.8936 23.695 42.4317 25.0013 42.4317C26.3077 42.4317 27.0647 41.8936 27.6175 41.5006C28.0858 41.1678 28.3684 40.9668 28.9889 40.9668C29.6094 40.9668 29.8921 41.1678 30.3603 41.5006C30.9131 41.8936 31.6702 42.4317 32.9765 42.4317C34.2829 42.4317 35.0399 41.8936 35.5927 41.5006C36.061 41.1678 36.3436 40.9668 36.9641 40.9668C37.5846 40.9668 37.8673 41.1678 38.3355 41.5006C38.8883 41.8936 39.6454 42.4317 40.9517 42.4317C42.258 42.4317 43.0151 41.8936 43.5679 41.5006C44.0362 41.1678 44.3188 40.9668 44.9394 40.9668C45.5599 40.9668 45.8426 41.1677 46.3108 41.5006C46.7828 41.836 47.3701 42.2535 48.3004 42.3881C48.8879 42.4729 49.4324 42.0658 49.5173 41.4787C49.6023 40.8914 49.1952 40.3466 48.608 40.2617Z" fill="#A347C4"/>
<path d="M17.6758 24.5605H32.3242C32.9175 24.5605 33.3984 24.0796 33.3984 23.4863V17.8467C33.3984 17.2534 32.9175 16.7725 32.3242 16.7725H17.6758C17.0825 16.7725 16.6016 17.2534 16.6016 17.8467V23.4863C16.6016 24.0796 17.0825 24.5605 17.6758 24.5605ZM31.25 22.4121H26.0742V18.9209H31.25V22.4121ZM18.75 18.9209H23.9258V22.4121H18.75V18.9209Z" fill="#A347C4"/>
<path d="M48.9259 35.1563C48.3054 35.1563 48.0227 34.9554 47.5544 34.6225C47.1743 34.3524 46.6978 34.0137 46.0124 33.8283V23.4865C46.0124 22.8932 45.5314 22.4123 44.9382 22.4123H38.0372V14.3155L39.1338 15.1122C39.3245 15.2507 39.5454 15.3175 39.7644 15.3175C40.0965 15.3175 40.4241 15.1638 40.6343 14.8746C40.983 14.3946 40.8766 13.7228 40.3967 13.3741L25.6315 2.64656C25.2551 2.37302 24.7452 2.37302 24.3687 2.64656L9.60361 13.3741C9.12363 13.7228 9.01728 14.3946 9.36602 14.8746C9.71475 15.3546 10.3865 15.4609 10.8665 15.1123L11.963 14.3156V22.4123H5.06191C4.46865 22.4123 3.9877 22.8932 3.9877 23.4865V33.8283C3.30244 34.0137 2.82578 34.3524 2.4457 34.6225C1.97744 34.9554 1.69482 35.1563 1.07422 35.1563C0.480957 35.1563 0 35.6373 0 36.2305V46.4845C0 47.0777 0.480957 47.5587 1.07422 47.5587C2.38057 47.5587 3.1376 47.0205 3.69043 46.6276C4.15869 46.2947 4.44131 46.0938 5.06182 46.0938C5.68232 46.0938 5.96504 46.2947 6.4332 46.6276C6.98623 47.0205 7.74326 47.5586 9.04961 47.5586C10.356 47.5586 11.113 47.0204 11.6658 46.6275C12.1341 46.2946 12.4167 46.0937 13.0372 46.0937C13.6577 46.0937 13.9404 46.2947 14.4087 46.6275C14.9615 47.0204 15.7186 47.5586 17.0249 47.5586C18.3313 47.5586 19.0883 47.0204 19.6411 46.6275C20.1094 46.2946 20.392 46.0937 21.0125 46.0937C21.633 46.0937 21.9157 46.2946 22.3839 46.6275C22.9367 47.0205 23.6938 47.5586 25.0001 47.5586C26.3063 47.5586 27.0635 47.0204 27.6163 46.6275C28.0846 46.2946 28.3672 46.0937 28.9877 46.0937C29.6082 46.0937 29.8909 46.2946 30.3591 46.6275C30.9119 47.0204 31.6689 47.5586 32.9753 47.5586C34.2816 47.5586 35.0387 47.0204 35.5915 46.6275C36.0598 46.2946 36.3424 46.0937 36.9629 46.0937C37.5834 46.0937 37.8661 46.2946 38.3343 46.6275C38.8871 47.0204 39.6441 47.5586 40.9505 47.5586C42.2567 47.5586 43.0139 47.0204 43.5667 46.6275C44.035 46.2947 44.3176 46.0937 44.9382 46.0937C45.5587 46.0937 45.8414 46.2946 46.3096 46.6275C46.8625 47.0205 47.6196 47.5586 48.9259 47.5586C49.5191 47.5586 50.0001 47.0776 50.0001 46.4844V36.2304C50.0001 35.6373 49.5192 35.1563 48.9259 35.1563ZM6.13613 30.2003H11.963V33.8282C11.2777 34.0136 10.8011 34.3523 10.421 34.6224C9.95273 34.9553 9.67012 35.1562 9.04961 35.1562C8.4291 35.1562 8.14639 34.9553 7.67812 34.6224C7.29805 34.3523 6.82148 34.0136 6.13613 33.8282V30.2003ZM14.1114 30.2003H35.8888V33.8282C35.2035 34.0136 34.7269 34.3523 34.3468 34.6224C33.8785 34.9553 33.5959 35.1562 32.9754 35.1562C32.3549 35.1562 32.0722 34.9553 31.604 34.6224C31.0512 34.2296 30.2941 33.6914 28.9878 33.6914C27.6814 33.6914 26.9244 34.2296 26.3716 34.6224C25.9033 34.9553 25.6207 35.1562 25.0002 35.1562C24.3797 35.1562 24.097 34.9553 23.6287 34.6224C23.0759 34.2296 22.3188 33.6914 21.0125 33.6914C19.7062 33.6914 18.9491 34.2296 18.3963 34.6224C17.928 34.9553 17.6454 35.1562 17.0249 35.1562C16.4044 35.1562 16.1217 34.9553 15.6535 34.6224C15.2734 34.3523 14.7969 34.0136 14.1115 33.8282V30.2003H14.1114ZM38.0372 30.2003H43.8641V33.8282C43.1787 34.0136 42.7022 34.3523 42.3221 34.6224C41.8538 34.9553 41.5712 35.1562 40.9507 35.1562C40.3302 35.1562 40.0475 34.9553 39.5793 34.6224C39.1992 34.3523 38.7227 34.0136 38.0373 33.8282V30.2003H38.0372ZM43.8641 24.5607V28.0519H38.0372V24.5607H43.8641ZM25.0001 4.84343L35.8888 12.7546V28.0518H14.1114V12.7546L25.0001 4.84343ZM11.963 24.5607V28.0519H6.13613V24.5607H11.963ZM47.8517 45.0825C47.7581 45.0212 47.661 44.9522 47.5544 44.8764C47.0016 44.4836 46.2445 43.9454 44.9382 43.9454C43.6318 43.9454 42.8748 44.4836 42.322 44.8764C41.8537 45.2094 41.5711 45.4102 40.9506 45.4102C40.3301 45.4102 40.0474 45.2094 39.5792 44.8764C39.0264 44.4836 38.2693 43.9454 36.963 43.9454C35.6566 43.9454 34.8996 44.4836 34.3468 44.8764C33.8785 45.2094 33.5959 45.4102 32.9754 45.4102C32.3549 45.4102 32.0722 45.2094 31.604 44.8764C31.0512 44.4836 30.2941 43.9454 28.9878 43.9454C27.6814 43.9454 26.9244 44.4836 26.3716 44.8764C25.9033 45.2093 25.6206 45.4101 25.0001 45.4101C24.3796 45.4101 24.0969 45.2092 23.6286 44.8763C23.0758 44.4835 22.3188 43.9453 21.0124 43.9453C19.7061 43.9453 18.949 44.4835 18.3962 44.8763C17.9279 45.2093 17.6453 45.4101 17.0248 45.4101C16.4043 45.4101 16.1216 45.2093 15.6534 44.8763C15.1006 44.4835 14.3436 43.9453 13.0372 43.9453C11.731 43.9453 10.9738 44.4835 10.421 44.8763C9.95273 45.2093 9.67012 45.4101 9.04961 45.4101C8.4291 45.4101 8.14639 45.2092 7.67812 44.8763C7.12529 44.4835 6.36826 43.9453 5.06191 43.9453C3.75557 43.9453 2.99853 44.4835 2.4457 44.8763C2.33906 44.9521 2.24209 45.0211 2.14844 45.0824V37.1679C2.83379 36.9826 3.31035 36.6438 3.69043 36.3736C4.15869 36.0407 4.44131 35.8398 5.06182 35.8398C5.68232 35.8398 5.96504 36.0407 6.4332 36.3736C6.98603 36.7665 7.74307 37.3047 9.04941 37.3047C10.3558 37.3047 11.1128 36.7665 11.6656 36.3736C12.1339 36.0407 12.4165 35.8398 13.037 35.8398C13.6575 35.8398 13.9402 36.0408 14.4085 36.3736C14.9613 36.7665 15.7184 37.3047 17.0247 37.3047C18.3311 37.3047 19.0881 36.7665 19.6409 36.3736C20.1092 36.0407 20.3918 35.8398 21.0123 35.8398C21.6328 35.8398 21.9155 36.0407 22.3837 36.3736C22.9365 36.7665 23.6936 37.3047 24.9999 37.3047C26.3062 37.3047 27.0633 36.7665 27.6161 36.3736C28.0844 36.0407 28.367 35.8398 28.9875 35.8398C29.608 35.8398 29.8907 36.0407 30.3589 36.3736C30.9117 36.7665 31.6688 37.3047 32.9751 37.3047C34.2814 37.3047 35.0385 36.7665 35.5913 36.3736C36.0596 36.0407 36.3422 35.8398 36.9627 35.8398C37.5832 35.8398 37.8659 36.0407 38.3341 36.3736C38.8869 36.7665 39.6439 37.3047 40.9503 37.3047C42.2565 37.3047 43.0137 36.7665 43.5665 36.3736C44.0348 36.0408 44.3174 35.8398 44.938 35.8398C45.5585 35.8398 45.8412 36.0407 46.3094 36.3736C46.6895 36.6438 47.166 36.9826 47.8514 37.1679V45.0825H47.8517Z" fill="#A347C4"/>
</g>
<defs>
<clipPath id="clip0_41_2053">
<rect width="50" height="50" fill="white"/>
</clipPath>
</defs>
</svg>
