<svg width="50" height="50" viewBox="0 0 50 50" fill="none" xmlns="http://www.w3.org/2000/svg">
<path d="M39.9851 18.4912H32.3515C31.7583 18.4912 31.2773 18.9722 31.2773 19.5654C31.2773 20.1587 31.7583 20.6396 32.3515 20.6396H32.4517V25.5362C32.4517 26.1295 32.9327 26.6104 33.5259 26.6104C34.1192 26.6104 34.6001 26.1295 34.6001 25.5362V20.6396H37.7365V25.5362C37.7365 26.1295 38.2175 26.6104 38.8107 26.6104C39.404 26.6104 39.8849 26.1295 39.8849 25.5362V20.6396H39.9851C40.5784 20.6396 41.0593 20.1587 41.0593 19.5654C41.0593 18.9722 40.5784 18.4912 39.9851 18.4912Z" fill="#A347C4"/>
<path d="M25.7113 16.2454H24.1347V15.659C24.1347 13.4281 23.0426 11.4476 21.3649 10.2238C23.0178 9.28198 24.1347 7.5033 24.1347 5.46866C24.1347 2.45328 21.6815 0 18.666 0C15.6505 0 13.1973 2.45328 13.1973 5.46866C13.1973 7.02294 13.8491 8.4278 14.8936 9.42437C13.941 9.81039 13.0963 10.4086 12.4183 11.1603C11.7622 9.84272 10.401 8.93541 8.83197 8.93541C6.62429 8.93541 4.82812 10.7316 4.82812 12.9393V23.339C4.82812 25.5467 6.62429 27.3428 8.83197 27.3428C9.5011 27.3428 10.1324 27.1778 10.6874 26.8863V36.3339L7.69712 44.8062C7.35172 45.7848 7.40943 46.8419 7.85943 47.7828C8.30942 48.7238 9.09622 49.4323 10.0748 49.7777C10.502 49.9284 10.9381 50 11.3674 50C12.9731 50 14.481 48.9989 15.0461 47.4006L16.3369 43.7503V46.1003C16.3369 48.2501 18.086 49.9992 20.2358 49.9992C22.3857 49.9992 24.1348 48.2501 24.1348 46.1003V22.885H25.7113C27.5418 22.885 29.0311 21.3958 29.0311 19.5652C29.0311 17.7347 27.5418 16.2454 25.7113 16.2454ZM18.6661 2.1484C20.4969 2.1484 21.9864 3.63783 21.9864 5.46866C21.9864 7.2995 20.4969 8.78893 18.6661 8.78893C16.8353 8.78893 15.3458 7.2995 15.3458 5.46866C15.3458 3.63783 16.8353 2.1484 18.6661 2.1484ZM8.83187 25.1944C7.80874 25.1944 6.97643 24.3621 6.97643 23.339V12.9393C6.97643 11.9161 7.80874 11.0838 8.83187 11.0838C9.855 11.0838 10.6873 11.9161 10.6873 12.9393V23.339C10.6874 24.3621 9.855 25.1944 8.83187 25.1944ZM20.2357 47.8508C19.2705 47.8508 18.4852 47.0655 18.4852 46.1003V32.4695C18.4852 31.8763 18.0043 31.3953 17.411 31.3953C16.8178 31.3953 16.3368 31.8763 16.3368 32.4695V37.3062L13.0206 46.6845C12.6991 47.5937 11.6985 48.0726 10.7898 47.7519C10.3524 47.5975 10 47.2794 9.79748 46.8561C9.59504 46.4328 9.56858 45.9588 9.72297 45.5214L12.7745 36.8755C12.815 36.7607 12.8357 36.6398 12.8357 36.518V27.3429H21.9863V46.1004C21.9863 47.0655 21.201 47.8508 20.2357 47.8508ZM21.9863 25.1944H12.8357V15.659C12.8357 13.1362 14.8882 11.0838 17.411 11.0838C19.9338 11.0838 21.9863 13.1362 21.9863 15.659V16.2454H17.997V15.659C17.997 15.0658 17.516 14.5848 16.9228 14.5848C16.3295 14.5848 15.8486 15.0658 15.8486 15.659V19.5652C15.8486 21.3958 17.3378 22.885 19.1683 22.885H21.9863V25.1944ZM25.7113 20.7366H19.1683C18.5224 20.7366 17.997 20.2111 17.997 19.5652V18.3938H25.7113C26.3572 18.3938 26.8827 18.9192 26.8827 19.5652C26.8827 20.2112 26.3573 20.7366 25.7113 20.7366Z" fill="#A347C4"/>
<path d="M41.7477 25.0488H30.591C28.7035 25.0488 27.168 26.5844 27.168 28.4718V44.9134C27.168 46.4257 28.1539 47.712 29.5167 48.1636V48.9248C29.5167 49.5181 29.9976 49.999 30.5909 49.999C31.1841 49.999 31.6651 49.5181 31.6651 48.9248V48.3364H40.6735V48.9248C40.6735 49.5181 41.1545 49.999 41.7477 49.999C42.341 49.999 42.8219 49.5181 42.8219 48.9248V48.1637C44.1848 47.7121 45.1707 46.4257 45.1707 44.9135V28.4718C45.1707 26.5844 43.6352 25.0488 41.7477 25.0488ZM43.0223 44.9134C43.0223 45.6162 42.4505 46.188 41.7477 46.188H30.591C29.8881 46.188 29.3164 45.6162 29.3164 44.9134V28.4718C29.3164 27.769 29.8881 27.1972 30.591 27.1972H41.7477C42.4505 27.1972 43.0223 27.769 43.0223 28.4718V44.9134Z" fill="#A347C4"/>
<path d="M33.5273 30.3335C32.9341 30.3335 32.4531 30.8144 32.4531 31.4077V41.9773C32.4531 42.5705 32.9341 43.0515 33.5273 43.0515C34.1206 43.0515 34.6015 42.5705 34.6015 41.9773V31.4077C34.6015 30.8144 34.1206 30.3335 33.5273 30.3335Z" fill="#A347C4"/>
<path d="M38.8125 30.3335C38.2192 30.3335 37.7383 30.8144 37.7383 31.4077V41.9773C37.7383 42.5705 38.2192 43.0515 38.8125 43.0515C39.4057 43.0515 39.8867 42.5705 39.8867 41.9773V31.4077C39.8867 30.8144 39.4058 30.3335 38.8125 30.3335Z" fill="#A347C4"/>
</svg>
