<svg width="50" height="50" viewBox="0 0 50 50" fill="none" xmlns="http://www.w3.org/2000/svg">
<g clip-path="url(#clip0_41_2061)">
<path d="M9.23701 33.3997C4.17168 33.3997 0.0507812 29.2788 0.0507812 24.2136V9.25889C0.0507812 4.19365 4.17168 0.0727539 9.23691 0.0727539C14.3022 0.0727539 18.4231 4.20508 18.4231 9.28418V10.5122C18.4231 11.1055 17.9422 11.5864 17.3489 11.5864C16.7557 11.5864 16.2747 11.1055 16.2747 10.5122V9.28418C16.2747 5.38965 13.1176 2.22119 9.23701 2.22119C5.35635 2.22119 2.19922 5.37832 2.19922 9.25889V24.2136C2.19922 28.0941 5.35635 31.2513 9.23691 31.2513C9.83017 31.2513 10.3111 31.7322 10.3111 32.3255C10.3112 32.9187 9.83027 33.3997 9.23701 33.3997Z" fill="#A347C4"/>
<path d="M12.1247 12.5902C11.6959 12.1804 11.0159 12.1957 10.606 12.6244L10.3048 12.9394V9.07275C10.3048 8.47949 9.82384 7.99854 9.23058 7.99854C8.63732 7.99854 8.15636 8.47949 8.15636 9.07275V17.6636L7.75109 17.3315C7.292 16.9554 6.61525 17.0229 6.23937 17.4817C5.86339 17.9406 5.93068 18.6175 6.38956 18.9935L8.15646 20.4409V39.4893C8.15646 40.0825 8.63312 39.9012 9.22648 39.9012C9.81974 39.9012 10.3049 40.0825 10.3049 39.4893V16.0485L12.159 14.1091C12.569 13.6802 12.5536 13.0003 12.1247 12.5902Z" fill="#A347C4"/>
<path d="M27.0864 18.0997C24.1382 12.2147 20.4294 7.06885 20.2729 6.85264C20.0709 6.57354 19.7473 6.4082 19.4026 6.4082C19.0581 6.4082 18.7344 6.57344 18.5323 6.85264C18.1102 7.43604 8.19355 21.2336 8.19355 29.4232C8.19355 30.1688 8.2751 30.9318 8.43613 31.6914C9.204 35.3141 11.2427 37.9548 14.2412 39.2697C13.4783 39.3208 12.8354 39.5663 12.3281 39.8563C11.5712 38.9625 10.443 38.415 9.23242 38.415C8.00693 38.415 6.86582 38.9761 6.10889 39.8896C5.48652 39.5854 4.78906 39.4423 4.08184 39.4843C2.08125 39.6039 0.452051 41.2002 0.292188 43.1973C0.243848 43.8012 0.328711 44.3989 0.539062 44.9556C0.218164 45.6155 0.0507812 46.3401 0.0507812 47.0821V48.8536C0.0507812 49.4469 0.531738 49.9278 1.125 49.9278C1.71826 49.9278 2.19922 49.4469 2.19922 48.8536V47.0821C2.19922 46.5505 2.35293 46.0349 2.64365 45.5913C2.86523 45.2533 2.87832 44.8196 2.67754 44.4688C2.48711 44.136 2.40283 43.7556 2.43369 43.3687C2.50859 42.4329 3.27227 41.685 4.21016 41.6289C4.7665 41.5961 5.28809 41.7941 5.67871 42.188C5.93701 42.4484 6.31045 42.5589 6.66875 42.4813C7.02715 42.4037 7.32129 42.1486 7.44863 41.8047C7.72373 41.0623 8.44053 40.5636 9.23242 40.5636C10.0243 40.5636 10.7411 41.0623 11.0162 41.8047C11.1437 42.1485 11.4377 42.4037 11.7961 42.4813C12.1547 42.5589 12.5278 42.4484 12.7861 42.188C13.3251 41.6446 14.2462 41.1057 15.5731 41.6221C16.126 41.8374 16.7487 41.5634 16.9639 41.0106C17.1613 40.5033 16.9463 39.9382 16.4825 39.682C16.7269 39.5469 16.9188 39.3177 16.9986 39.0272C17.1558 38.4552 16.8194 37.864 16.2474 37.7067C12.4384 36.6604 11.0401 33.6157 10.5378 31.246C10.4078 30.6327 10.3419 30.0194 10.3419 29.4233C10.3419 23.2635 16.9812 12.9289 19.4028 9.36455C20.6826 11.2467 23.139 15.0173 25.1652 19.0621C25.431 19.5926 26.0763 19.8072 26.6068 19.5414C27.1376 19.2755 27.3521 18.6302 27.0864 18.0997Z" fill="#A347C4"/>
<path d="M27.5868 43.0933H21.5977C21.0044 43.0933 20.5234 42.6123 20.5234 42.019V36.1289C20.5234 35.5356 21.0044 35.0547 21.5977 35.0547H27.5868C28.1801 35.0547 28.661 35.5356 28.661 36.1289V42.019C28.661 42.6123 28.1801 43.0933 27.5868 43.0933ZM22.6719 40.9448H26.5126V37.2031H22.6719V40.9448Z" fill="#A347C4"/>
<path d="M48.9258 49.9275C49.519 49.9275 50 49.4465 50 48.8533C50 48.26 49.519 47.7791 48.9258 47.7791H47.5857V30.362L48.1495 30.8799C48.3558 31.0695 48.6162 31.163 48.8759 31.163C49.1661 31.163 49.4555 31.0461 49.6673 30.8155C50.0686 30.3786 50.0398 29.699 49.6029 29.2977C49.6029 29.2977 31.9743 13.1036 31.9709 13.1004C31.7803 12.9252 31.5276 12.8206 31.2671 12.8108C30.9976 12.8006 30.7264 12.8958 30.5123 13.0913C30.5115 13.0919 30.5106 13.0927 30.51 13.0934L20.4757 22.3112V20.3471C20.4757 19.7539 19.9947 19.2729 19.4015 19.2729C18.8082 19.2729 18.3272 19.7539 18.3272 20.3471V24.2807C18.3272 24.282 18.3274 24.2833 18.3274 24.2845L15.3006 27.0651C15.2565 27.0996 15.2154 27.1376 15.1772 27.1784L12.8703 29.2976C12.6399 29.5092 12.5229 29.7983 12.5228 30.0883C12.5226 30.3482 12.6162 30.6089 12.8059 30.8154C13.2071 31.2523 13.8867 31.2811 14.3236 30.8797L14.8874 30.3618V47.779H1.07422C0.480957 47.779 0 48.2599 0 48.8532C0 49.4464 0.480957 49.9274 1.07422 49.9274L48.9258 49.9275ZM17.0357 28.3883L31.2364 15.3432L45.4372 28.3883V47.7791H41.542V36.1287C41.542 35.5354 41.061 35.0544 40.4678 35.0544H33.4878C32.8945 35.0544 32.4136 35.5354 32.4136 36.1287V47.7791H17.0356L17.0357 28.3883ZM34.5621 47.7791V37.2029H39.3937V47.7791H34.5621Z" fill="#A347C4"/>
</g>
<defs>
<clipPath id="clip0_41_2061">
<rect width="50" height="50" fill="white"/>
</clipPath>
</defs>
</svg>
