<svg width="50" height="50" viewBox="0 0 50 50" fill="none" xmlns="http://www.w3.org/2000/svg">
<g clip-path="url(#clip0_41_2044)">
<path d="M40.6391 24.2168H38.4906V11.6851L34.4307 7.64912L30.1055 11.7037V16.4419H27.957V11.2384C27.957 10.9414 28.08 10.6578 28.2966 10.4547L33.7179 5.37255C34.14 4.97685 34.7996 4.98652 35.2099 5.39453L40.3223 10.4767C40.5251 10.6782 40.6392 10.9524 40.6392 11.2385V24.2168H40.6391Z" fill="#A347C4"/>
<path d="M44.7836 23.1426H29.0312C28.438 23.1426 27.957 23.6235 27.957 24.2168V48.9256C27.957 49.5188 28.438 49.9998 29.0312 49.9998C29.6245 49.9998 30.1055 49.5188 30.1055 48.9256V41.6898H35.8332V48.9256C35.8332 49.5188 36.3142 49.9998 36.9074 49.9998C37.5007 49.9998 37.9816 49.5188 37.9816 48.9256V41.6898H43.7094V48.9256C43.7094 49.5188 44.1903 49.9998 44.7836 49.9998C45.3769 49.9998 45.8578 49.5188 45.8578 48.9256V24.2168C45.8578 23.6235 45.3769 23.1426 44.7836 23.1426ZM43.7094 31.342H37.9816V25.291H43.7094V31.342ZM35.8332 25.2911V31.3421H30.1055V25.2911H35.8332ZM30.1055 39.5414V33.4904H35.8332V39.5414H30.1055ZM37.9816 39.5414V33.4904H43.7094V39.5414H37.9816Z" fill="#A347C4"/>
<path d="M18.5136 11.1783H3.77285C1.70332 11.1783 0.0195312 9.49463 0.0195312 7.425C0.0195312 5.35537 1.70322 3.67168 3.77285 3.67168H4.29531C4.51172 2.80537 4.96484 2.01328 5.61885 1.37627C6.53037 0.488867 7.73311 0 9.00557 0C10.278 0 11.4808 0.48877 12.3923 1.37637C13.0464 2.01338 13.4994 2.80547 13.7159 3.67178H18.5137C20.5832 3.67178 22.267 5.35547 22.267 7.4251C22.267 9.49473 20.5832 11.1783 18.5136 11.1783ZM3.77285 5.82021C2.88799 5.82021 2.16797 6.54014 2.16797 7.4251C2.16797 8.31006 2.88789 9.02998 3.77285 9.02998H18.5136C19.3984 9.02998 20.1185 8.31006 20.1185 7.4251C20.1185 6.54014 19.3985 5.82021 18.5136 5.82021H12.7852C12.2039 5.82021 11.7281 5.35791 11.7113 4.77686C11.6689 3.30293 10.4804 2.14844 9.00557 2.14844C7.53076 2.14844 6.34219 3.30293 6.2998 4.77686C6.28311 5.35781 5.80723 5.82021 5.22598 5.82021H3.77285Z" fill="#A347C4"/>
<path d="M48.9238 47.8515H30.1065V16.4419C30.1065 15.8486 29.6256 15.3677 29.0323 15.3677H20.8689C20.2757 15.3677 19.7947 15.8486 19.7947 16.4419V20.4202H14.0278V16.7292C14.0278 16.2942 13.7655 15.9022 13.3635 15.7362C12.9614 15.5703 12.499 15.6633 12.1922 15.9714L4.4957 23.705C4.29541 23.9062 4.18291 24.1788 4.18291 24.4628V47.8515H1.07812C0.484863 47.8515 0.00390625 48.3324 0.00390625 48.9257C0.00390625 49.5189 0.484863 49.9999 1.07812 49.9999H48.9238C49.5171 49.9999 49.998 49.5189 49.998 48.9257C49.998 48.3324 49.5171 47.8515 48.9238 47.8515ZM27.9581 17.5161V47.8515H21.9432V17.5161H27.9581ZM14.0278 22.5687H19.7947V26.1913H14.0278V22.5687ZM19.7946 28.3396V47.8515H14.0277V28.3396H19.7946ZM6.33135 24.9063L11.8794 19.3315V27.2654V47.8515H6.33135V24.9063Z" fill="#A347C4"/>
</g>
<defs>
<clipPath id="clip0_41_2044">
<rect width="50" height="50" fill="white"/>
</clipPath>
</defs>
</svg>
